G04 #@! TF.FileFunction,Legend,Bot*
%FSLAX46Y46*%
G04 Gerber Fmt 4.6, Leading zero omitted, Abs format (unit mm)*
G04 Created by KiCad (PCBNEW (2016-04-11 BZR 6687, Git f239aee)-product) date Tue 12 Apr 2016 02:23:05 PM CEST*
%MOMM*%
G01*
G04 APERTURE LIST*
%ADD10C,0.150000*%
%ADD11C,0.200000*%
%ADD12R,1.500000X2.000000*%
%ADD13O,1.500000X2.000000*%
%ADD14R,0.950000X1.000000*%
%ADD15C,0.100000*%
G04 APERTURE END LIST*
D10*
D11*
X62802382Y60522859D02*
X61802382Y60522859D01*
X62802382Y59951430D02*
X62230954Y60380002D01*
X61802382Y59951430D02*
X62373811Y60522859D01*
X62278573Y59522859D02*
X62278573Y59189525D01*
X62802382Y59046668D02*
X62802382Y59522859D01*
X61802382Y59522859D01*
X61802382Y59046668D01*
X62326192Y58427621D02*
X62802382Y58427621D01*
X61802382Y58760954D02*
X62326192Y58427621D01*
X61802382Y58094287D01*
X61747619Y66810476D02*
X62747619Y66810476D01*
X62747619Y67191428D01*
X62700000Y67286666D01*
X62652380Y67334285D01*
X62557142Y67381904D01*
X62414285Y67381904D01*
X62319047Y67334285D01*
X62271428Y67286666D01*
X62223809Y67191428D01*
X62223809Y66810476D01*
X62747619Y68000952D02*
X62747619Y68191428D01*
X62700000Y68286666D01*
X62604761Y68381904D01*
X62414285Y68429523D01*
X62080952Y68429523D01*
X61890476Y68381904D01*
X61795238Y68286666D01*
X61747619Y68191428D01*
X61747619Y68000952D01*
X61795238Y67905714D01*
X61890476Y67810476D01*
X62080952Y67762857D01*
X62414285Y67762857D01*
X62604761Y67810476D01*
X62700000Y67905714D01*
X62747619Y68000952D01*
X62700000Y69381904D02*
X62747619Y69286666D01*
X62747619Y69143809D01*
X62700000Y69000952D01*
X62604761Y68905714D01*
X62509523Y68858095D01*
X62319047Y68810476D01*
X62176190Y68810476D01*
X61985714Y68858095D01*
X61890476Y68905714D01*
X61795238Y69000952D01*
X61747619Y69143809D01*
X61747619Y69239047D01*
X61795238Y69381904D01*
X61842857Y69429523D01*
X62176190Y69429523D01*
X62176190Y69239047D01*
X62747619Y70048571D02*
X62747619Y70239047D01*
X62700000Y70334285D01*
X62604761Y70429523D01*
X62414285Y70477142D01*
X62080952Y70477142D01*
X61890476Y70429523D01*
X61795238Y70334285D01*
X61747619Y70239047D01*
X61747619Y70048571D01*
X61795238Y69953333D01*
X61890476Y69858095D01*
X62080952Y69810476D01*
X62414285Y69810476D01*
X62604761Y69858095D01*
X62700000Y69953333D01*
X62747619Y70048571D01*
X62051428Y72514285D02*
X62051428Y71704761D01*
X62094285Y71609523D01*
X62137142Y71561904D01*
X62222857Y71514285D01*
X62351428Y71514285D01*
X62437142Y71561904D01*
X62051428Y71895238D02*
X62137142Y71847619D01*
X62308571Y71847619D01*
X62394285Y71895238D01*
X62437142Y71942857D01*
X62480000Y72038095D01*
X62480000Y72323809D01*
X62437142Y72419047D01*
X62394285Y72466666D01*
X62308571Y72514285D01*
X62137142Y72514285D01*
X62051428Y72466666D01*
X61494285Y71847619D02*
X61580000Y71895238D01*
X61622857Y71942857D01*
X61665714Y72038095D01*
X61665714Y72323809D01*
X61622857Y72419047D01*
X61580000Y72466666D01*
X61494285Y72514285D01*
X61365714Y72514285D01*
X61280000Y72466666D01*
X61237142Y72419047D01*
X61194285Y72323809D01*
X61194285Y72038095D01*
X61237142Y71942857D01*
X61280000Y71895238D01*
X61365714Y71847619D01*
X61494285Y71847619D01*
X60680000Y71847619D02*
X60765714Y71895238D01*
X60808571Y71942857D01*
X60851428Y72038095D01*
X60851428Y72323809D01*
X60808571Y72419047D01*
X60765714Y72466666D01*
X60680000Y72514285D01*
X60551428Y72514285D01*
X60465714Y72466666D01*
X60422857Y72419047D01*
X60380000Y72323809D01*
X60380000Y72038095D01*
X60422857Y71942857D01*
X60465714Y71895238D01*
X60551428Y71847619D01*
X60680000Y71847619D01*
X59994285Y71942857D02*
X59951428Y71895238D01*
X59994285Y71847619D01*
X60037142Y71895238D01*
X59994285Y71942857D01*
X59994285Y71847619D01*
X59180000Y72514285D02*
X59180000Y71704761D01*
X59222857Y71609523D01*
X59265714Y71561904D01*
X59351428Y71514285D01*
X59480000Y71514285D01*
X59565714Y71561904D01*
X59180000Y71895238D02*
X59265714Y71847619D01*
X59437142Y71847619D01*
X59522857Y71895238D01*
X59565714Y71942857D01*
X59608571Y72038095D01*
X59608571Y72323809D01*
X59565714Y72419047D01*
X59522857Y72466666D01*
X59437142Y72514285D01*
X59265714Y72514285D01*
X59180000Y72466666D01*
X58622857Y71847619D02*
X58708571Y71895238D01*
X58751428Y71990476D01*
X58751428Y72847619D01*
X57637142Y72895238D02*
X58408571Y71609523D01*
X57337142Y71847619D02*
X57337142Y72514285D01*
X57337142Y72323809D02*
X57294285Y72419047D01*
X57251428Y72466666D01*
X57165714Y72514285D01*
X57080000Y72514285D01*
X56865714Y72514285D02*
X56694285Y71847619D01*
X56522857Y72323809D01*
X56351428Y71847619D01*
X56180000Y72514285D01*
X55922857Y71847619D02*
X55451428Y72514285D01*
X55922857Y72514285D02*
X55451428Y71847619D01*
X54722857Y72514285D02*
X54722857Y71847619D01*
X55108571Y72514285D02*
X55108571Y71990476D01*
X55065714Y71895238D01*
X54980000Y71847619D01*
X54851428Y71847619D01*
X54765714Y71895238D01*
X54722857Y71942857D01*
X53780000Y71847619D02*
X54080000Y72323809D01*
X54294285Y71847619D02*
X54294285Y72847619D01*
X53951428Y72847619D01*
X53865714Y72800000D01*
X53822857Y72752380D01*
X53780000Y72657142D01*
X53780000Y72514285D01*
X53822857Y72419047D01*
X53865714Y72371428D01*
X53951428Y72323809D01*
X54294285Y72323809D01*
X53094285Y72371428D02*
X52965714Y72323809D01*
X52922857Y72276190D01*
X52880000Y72180952D01*
X52880000Y72038095D01*
X52922857Y71942857D01*
X52965714Y71895238D01*
X53051428Y71847619D01*
X53394285Y71847619D01*
X53394285Y72847619D01*
X53094285Y72847619D01*
X53008571Y72800000D01*
X52965714Y72752380D01*
X52922857Y72657142D01*
X52922857Y72561904D01*
X52965714Y72466666D01*
X53008571Y72419047D01*
X53094285Y72371428D01*
X53394285Y72371428D01*
X52948571Y55485714D02*
X52948571Y56295238D01*
X52905714Y56390476D01*
X52862857Y56438095D01*
X52777142Y56485714D01*
X52648571Y56485714D01*
X52562857Y56438095D01*
X52948571Y56104761D02*
X52862857Y56152380D01*
X52691428Y56152380D01*
X52605714Y56104761D01*
X52562857Y56057142D01*
X52520000Y55961904D01*
X52520000Y55676190D01*
X52562857Y55580952D01*
X52605714Y55533333D01*
X52691428Y55485714D01*
X52862857Y55485714D01*
X52948571Y55533333D01*
X53505714Y56152380D02*
X53420000Y56104761D01*
X53377142Y56057142D01*
X53334285Y55961904D01*
X53334285Y55676190D01*
X53377142Y55580952D01*
X53420000Y55533333D01*
X53505714Y55485714D01*
X53634285Y55485714D01*
X53720000Y55533333D01*
X53762857Y55580952D01*
X53805714Y55676190D01*
X53805714Y55961904D01*
X53762857Y56057142D01*
X53720000Y56104761D01*
X53634285Y56152380D01*
X53505714Y56152380D01*
X54320000Y56152380D02*
X54234285Y56104761D01*
X54191428Y56057142D01*
X54148571Y55961904D01*
X54148571Y55676190D01*
X54191428Y55580952D01*
X54234285Y55533333D01*
X54320000Y55485714D01*
X54448571Y55485714D01*
X54534285Y55533333D01*
X54577142Y55580952D01*
X54620000Y55676190D01*
X54620000Y55961904D01*
X54577142Y56057142D01*
X54534285Y56104761D01*
X54448571Y56152380D01*
X54320000Y56152380D01*
X55005714Y56057142D02*
X55048571Y56104761D01*
X55005714Y56152380D01*
X54962857Y56104761D01*
X55005714Y56057142D01*
X55005714Y56152380D01*
X55820000Y55485714D02*
X55820000Y56295238D01*
X55777142Y56390476D01*
X55734285Y56438095D01*
X55648571Y56485714D01*
X55520000Y56485714D01*
X55434285Y56438095D01*
X55820000Y56104761D02*
X55734285Y56152380D01*
X55562857Y56152380D01*
X55477142Y56104761D01*
X55434285Y56057142D01*
X55391428Y55961904D01*
X55391428Y55676190D01*
X55434285Y55580952D01*
X55477142Y55533333D01*
X55562857Y55485714D01*
X55734285Y55485714D01*
X55820000Y55533333D01*
X56377142Y56152380D02*
X56291428Y56104761D01*
X56248571Y56009523D01*
X56248571Y55152380D01*
X57362857Y55104761D02*
X56591428Y56390476D01*
X57662857Y56152380D02*
X57662857Y55485714D01*
X57662857Y55676190D02*
X57705714Y55580952D01*
X57748571Y55533333D01*
X57834285Y55485714D01*
X57920000Y55485714D01*
X58134285Y55485714D02*
X58305714Y56152380D01*
X58477142Y55676190D01*
X58648571Y56152380D01*
X58820000Y55485714D01*
X59077142Y56152380D02*
X59548571Y55485714D01*
X59077142Y55485714D02*
X59548571Y56152380D01*
X60277142Y55485714D02*
X60277142Y56152380D01*
X59891428Y55485714D02*
X59891428Y56009523D01*
X59934285Y56104761D01*
X60020000Y56152380D01*
X60148571Y56152380D01*
X60234285Y56104761D01*
X60277142Y56057142D01*
X61220000Y56152380D02*
X60920000Y55676190D01*
X60705714Y56152380D02*
X60705714Y55152380D01*
X61048571Y55152380D01*
X61134285Y55200000D01*
X61177142Y55247619D01*
X61220000Y55342857D01*
X61220000Y55485714D01*
X61177142Y55580952D01*
X61134285Y55628571D01*
X61048571Y55676190D01*
X60705714Y55676190D01*
X61905714Y55628571D02*
X62034285Y55676190D01*
X62077142Y55723809D01*
X62120000Y55819047D01*
X62120000Y55961904D01*
X62077142Y56057142D01*
X62034285Y56104761D01*
X61948571Y56152380D01*
X61605714Y56152380D01*
X61605714Y55152380D01*
X61905714Y55152380D01*
X61991428Y55200000D01*
X62034285Y55247619D01*
X62077142Y55342857D01*
X62077142Y55438095D01*
X62034285Y55533333D01*
X61991428Y55580952D01*
X61905714Y55628571D01*
X61605714Y55628571D01*
X53252380Y61189524D02*
X52252380Y61189524D01*
X52252380Y60808572D01*
X52300000Y60713334D01*
X52347619Y60665715D01*
X52442857Y60618096D01*
X52585714Y60618096D01*
X52680952Y60665715D01*
X52728571Y60713334D01*
X52776190Y60808572D01*
X52776190Y61189524D01*
X52252380Y59999048D02*
X52252380Y59808572D01*
X52300000Y59713334D01*
X52395238Y59618096D01*
X52585714Y59570477D01*
X52919047Y59570477D01*
X53109523Y59618096D01*
X53204761Y59713334D01*
X53252380Y59808572D01*
X53252380Y59999048D01*
X53204761Y60094286D01*
X53109523Y60189524D01*
X52919047Y60237143D01*
X52585714Y60237143D01*
X52395238Y60189524D01*
X52300000Y60094286D01*
X52252380Y59999048D01*
X52300000Y58618096D02*
X52252380Y58713334D01*
X52252380Y58856191D01*
X52300000Y58999048D01*
X52395238Y59094286D01*
X52490476Y59141905D01*
X52680952Y59189524D01*
X52823809Y59189524D01*
X53014285Y59141905D01*
X53109523Y59094286D01*
X53204761Y58999048D01*
X53252380Y58856191D01*
X53252380Y58760953D01*
X53204761Y58618096D01*
X53157142Y58570477D01*
X52823809Y58570477D01*
X52823809Y58760953D01*
X52252380Y57951429D02*
X52252380Y57760953D01*
X52300000Y57665715D01*
X52395238Y57570477D01*
X52585714Y57522858D01*
X52919047Y57522858D01*
X53109523Y57570477D01*
X53204761Y57665715D01*
X53252380Y57760953D01*
X53252380Y57951429D01*
X53204761Y58046667D01*
X53109523Y58141905D01*
X52919047Y58189524D01*
X52585714Y58189524D01*
X52395238Y58141905D01*
X52300000Y58046667D01*
X52252380Y57951429D01*
X52197619Y67477142D02*
X53197619Y67477142D01*
X52197619Y68048571D02*
X52769047Y67620000D01*
X53197619Y68048571D02*
X52626190Y67477142D01*
X52721428Y68477142D02*
X52721428Y68810476D01*
X52197619Y68953333D02*
X52197619Y68477142D01*
X53197619Y68477142D01*
X53197619Y68953333D01*
X52673809Y69572380D02*
X52197619Y69572380D01*
X53197619Y69239047D02*
X52673809Y69572380D01*
X53197619Y69905714D01*
X53252380Y103189524D02*
X52252380Y103189524D01*
X52252380Y102808572D01*
X52300000Y102713334D01*
X52347619Y102665715D01*
X52442857Y102618096D01*
X52585714Y102618096D01*
X52680952Y102665715D01*
X52728571Y102713334D01*
X52776190Y102808572D01*
X52776190Y103189524D01*
X52252380Y101999048D02*
X52252380Y101808572D01*
X52300000Y101713334D01*
X52395238Y101618096D01*
X52585714Y101570477D01*
X52919047Y101570477D01*
X53109523Y101618096D01*
X53204761Y101713334D01*
X53252380Y101808572D01*
X53252380Y101999048D01*
X53204761Y102094286D01*
X53109523Y102189524D01*
X52919047Y102237143D01*
X52585714Y102237143D01*
X52395238Y102189524D01*
X52300000Y102094286D01*
X52252380Y101999048D01*
X52300000Y100618096D02*
X52252380Y100713334D01*
X52252380Y100856191D01*
X52300000Y100999048D01*
X52395238Y101094286D01*
X52490476Y101141905D01*
X52680952Y101189524D01*
X52823809Y101189524D01*
X53014285Y101141905D01*
X53109523Y101094286D01*
X53204761Y100999048D01*
X53252380Y100856191D01*
X53252380Y100760953D01*
X53204761Y100618096D01*
X53157142Y100570477D01*
X52823809Y100570477D01*
X52823809Y100760953D01*
X52252380Y99951429D02*
X52252380Y99760953D01*
X52300000Y99665715D01*
X52395238Y99570477D01*
X52585714Y99522858D01*
X52919047Y99522858D01*
X53109523Y99570477D01*
X53204761Y99665715D01*
X53252380Y99760953D01*
X53252380Y99951429D01*
X53204761Y100046667D01*
X53109523Y100141905D01*
X52919047Y100189524D01*
X52585714Y100189524D01*
X52395238Y100141905D01*
X52300000Y100046667D01*
X52252380Y99951429D01*
X61747619Y108810476D02*
X62747619Y108810476D01*
X62747619Y109191428D01*
X62700000Y109286666D01*
X62652380Y109334285D01*
X62557142Y109381904D01*
X62414285Y109381904D01*
X62319047Y109334285D01*
X62271428Y109286666D01*
X62223809Y109191428D01*
X62223809Y108810476D01*
X62747619Y110000952D02*
X62747619Y110191428D01*
X62700000Y110286666D01*
X62604761Y110381904D01*
X62414285Y110429523D01*
X62080952Y110429523D01*
X61890476Y110381904D01*
X61795238Y110286666D01*
X61747619Y110191428D01*
X61747619Y110000952D01*
X61795238Y109905714D01*
X61890476Y109810476D01*
X62080952Y109762857D01*
X62414285Y109762857D01*
X62604761Y109810476D01*
X62700000Y109905714D01*
X62747619Y110000952D01*
X62700000Y111381904D02*
X62747619Y111286666D01*
X62747619Y111143809D01*
X62700000Y111000952D01*
X62604761Y110905714D01*
X62509523Y110858095D01*
X62319047Y110810476D01*
X62176190Y110810476D01*
X61985714Y110858095D01*
X61890476Y110905714D01*
X61795238Y111000952D01*
X61747619Y111143809D01*
X61747619Y111239047D01*
X61795238Y111381904D01*
X61842857Y111429523D01*
X62176190Y111429523D01*
X62176190Y111239047D01*
X62747619Y112048571D02*
X62747619Y112239047D01*
X62700000Y112334285D01*
X62604761Y112429523D01*
X62414285Y112477142D01*
X62080952Y112477142D01*
X61890476Y112429523D01*
X61795238Y112334285D01*
X61747619Y112239047D01*
X61747619Y112048571D01*
X61795238Y111953333D01*
X61890476Y111858095D01*
X62080952Y111810476D01*
X62414285Y111810476D01*
X62604761Y111858095D01*
X62700000Y111953333D01*
X62747619Y112048571D01*
X52197619Y109477142D02*
X53197619Y109477142D01*
X52197619Y110048571D02*
X52769047Y109620000D01*
X53197619Y110048571D02*
X52626190Y109477142D01*
X52721428Y110477142D02*
X52721428Y110810476D01*
X52197619Y110953333D02*
X52197619Y110477142D01*
X53197619Y110477142D01*
X53197619Y110953333D01*
X52673809Y111572380D02*
X52197619Y111572380D01*
X53197619Y111239047D02*
X52673809Y111572380D01*
X53197619Y111905714D01*
X52948571Y97485714D02*
X52948571Y98295238D01*
X52905714Y98390476D01*
X52862857Y98438095D01*
X52777142Y98485714D01*
X52648571Y98485714D01*
X52562857Y98438095D01*
X52948571Y98104761D02*
X52862857Y98152380D01*
X52691428Y98152380D01*
X52605714Y98104761D01*
X52562857Y98057142D01*
X52520000Y97961904D01*
X52520000Y97676190D01*
X52562857Y97580952D01*
X52605714Y97533333D01*
X52691428Y97485714D01*
X52862857Y97485714D01*
X52948571Y97533333D01*
X53505714Y98152380D02*
X53420000Y98104761D01*
X53377142Y98057142D01*
X53334285Y97961904D01*
X53334285Y97676190D01*
X53377142Y97580952D01*
X53420000Y97533333D01*
X53505714Y97485714D01*
X53634285Y97485714D01*
X53720000Y97533333D01*
X53762857Y97580952D01*
X53805714Y97676190D01*
X53805714Y97961904D01*
X53762857Y98057142D01*
X53720000Y98104761D01*
X53634285Y98152380D01*
X53505714Y98152380D01*
X54320000Y98152380D02*
X54234285Y98104761D01*
X54191428Y98057142D01*
X54148571Y97961904D01*
X54148571Y97676190D01*
X54191428Y97580952D01*
X54234285Y97533333D01*
X54320000Y97485714D01*
X54448571Y97485714D01*
X54534285Y97533333D01*
X54577142Y97580952D01*
X54620000Y97676190D01*
X54620000Y97961904D01*
X54577142Y98057142D01*
X54534285Y98104761D01*
X54448571Y98152380D01*
X54320000Y98152380D01*
X55005714Y98057142D02*
X55048571Y98104761D01*
X55005714Y98152380D01*
X54962857Y98104761D01*
X55005714Y98057142D01*
X55005714Y98152380D01*
X55820000Y97485714D02*
X55820000Y98295238D01*
X55777142Y98390476D01*
X55734285Y98438095D01*
X55648571Y98485714D01*
X55520000Y98485714D01*
X55434285Y98438095D01*
X55820000Y98104761D02*
X55734285Y98152380D01*
X55562857Y98152380D01*
X55477142Y98104761D01*
X55434285Y98057142D01*
X55391428Y97961904D01*
X55391428Y97676190D01*
X55434285Y97580952D01*
X55477142Y97533333D01*
X55562857Y97485714D01*
X55734285Y97485714D01*
X55820000Y97533333D01*
X56377142Y98152380D02*
X56291428Y98104761D01*
X56248571Y98009523D01*
X56248571Y97152380D01*
X57362857Y97104761D02*
X56591428Y98390476D01*
X57662857Y98152380D02*
X57662857Y97485714D01*
X57662857Y97676190D02*
X57705714Y97580952D01*
X57748571Y97533333D01*
X57834285Y97485714D01*
X57920000Y97485714D01*
X58134285Y97485714D02*
X58305714Y98152380D01*
X58477142Y97676190D01*
X58648571Y98152380D01*
X58820000Y97485714D01*
X59077142Y98152380D02*
X59548571Y97485714D01*
X59077142Y97485714D02*
X59548571Y98152380D01*
X60277142Y97485714D02*
X60277142Y98152380D01*
X59891428Y97485714D02*
X59891428Y98009523D01*
X59934285Y98104761D01*
X60020000Y98152380D01*
X60148571Y98152380D01*
X60234285Y98104761D01*
X60277142Y98057142D01*
X61220000Y98152380D02*
X60920000Y97676190D01*
X60705714Y98152380D02*
X60705714Y97152380D01*
X61048571Y97152380D01*
X61134285Y97200000D01*
X61177142Y97247619D01*
X61220000Y97342857D01*
X61220000Y97485714D01*
X61177142Y97580952D01*
X61134285Y97628571D01*
X61048571Y97676190D01*
X60705714Y97676190D01*
X61905714Y97628571D02*
X62034285Y97676190D01*
X62077142Y97723809D01*
X62120000Y97819047D01*
X62120000Y97961904D01*
X62077142Y98057142D01*
X62034285Y98104761D01*
X61948571Y98152380D01*
X61605714Y98152380D01*
X61605714Y97152380D01*
X61905714Y97152380D01*
X61991428Y97200000D01*
X62034285Y97247619D01*
X62077142Y97342857D01*
X62077142Y97438095D01*
X62034285Y97533333D01*
X61991428Y97580952D01*
X61905714Y97628571D01*
X61605714Y97628571D01*
X62802382Y102522859D02*
X61802382Y102522859D01*
X62802382Y101951430D02*
X62230954Y102380002D01*
X61802382Y101951430D02*
X62373811Y102522859D01*
X62278573Y101522859D02*
X62278573Y101189525D01*
X62802382Y101046668D02*
X62802382Y101522859D01*
X61802382Y101522859D01*
X61802382Y101046668D01*
X62326192Y100427621D02*
X62802382Y100427621D01*
X61802382Y100760954D02*
X62326192Y100427621D01*
X61802382Y100094287D01*
X62051428Y114514285D02*
X62051428Y113704761D01*
X62094285Y113609523D01*
X62137142Y113561904D01*
X62222857Y113514285D01*
X62351428Y113514285D01*
X62437142Y113561904D01*
X62051428Y113895238D02*
X62137142Y113847619D01*
X62308571Y113847619D01*
X62394285Y113895238D01*
X62437142Y113942857D01*
X62480000Y114038095D01*
X62480000Y114323809D01*
X62437142Y114419047D01*
X62394285Y114466666D01*
X62308571Y114514285D01*
X62137142Y114514285D01*
X62051428Y114466666D01*
X61494285Y113847619D02*
X61580000Y113895238D01*
X61622857Y113942857D01*
X61665714Y114038095D01*
X61665714Y114323809D01*
X61622857Y114419047D01*
X61580000Y114466666D01*
X61494285Y114514285D01*
X61365714Y114514285D01*
X61280000Y114466666D01*
X61237142Y114419047D01*
X61194285Y114323809D01*
X61194285Y114038095D01*
X61237142Y113942857D01*
X61280000Y113895238D01*
X61365714Y113847619D01*
X61494285Y113847619D01*
X60680000Y113847619D02*
X60765714Y113895238D01*
X60808571Y113942857D01*
X60851428Y114038095D01*
X60851428Y114323809D01*
X60808571Y114419047D01*
X60765714Y114466666D01*
X60680000Y114514285D01*
X60551428Y114514285D01*
X60465714Y114466666D01*
X60422857Y114419047D01*
X60380000Y114323809D01*
X60380000Y114038095D01*
X60422857Y113942857D01*
X60465714Y113895238D01*
X60551428Y113847619D01*
X60680000Y113847619D01*
X59994285Y113942857D02*
X59951428Y113895238D01*
X59994285Y113847619D01*
X60037142Y113895238D01*
X59994285Y113942857D01*
X59994285Y113847619D01*
X59180000Y114514285D02*
X59180000Y113704761D01*
X59222857Y113609523D01*
X59265714Y113561904D01*
X59351428Y113514285D01*
X59480000Y113514285D01*
X59565714Y113561904D01*
X59180000Y113895238D02*
X59265714Y113847619D01*
X59437142Y113847619D01*
X59522857Y113895238D01*
X59565714Y113942857D01*
X59608571Y114038095D01*
X59608571Y114323809D01*
X59565714Y114419047D01*
X59522857Y114466666D01*
X59437142Y114514285D01*
X59265714Y114514285D01*
X59180000Y114466666D01*
X58622857Y113847619D02*
X58708571Y113895238D01*
X58751428Y113990476D01*
X58751428Y114847619D01*
X57637142Y114895238D02*
X58408571Y113609523D01*
X57337142Y113847619D02*
X57337142Y114514285D01*
X57337142Y114323809D02*
X57294285Y114419047D01*
X57251428Y114466666D01*
X57165714Y114514285D01*
X57080000Y114514285D01*
X56865714Y114514285D02*
X56694285Y113847619D01*
X56522857Y114323809D01*
X56351428Y113847619D01*
X56180000Y114514285D01*
X55922857Y113847619D02*
X55451428Y114514285D01*
X55922857Y114514285D02*
X55451428Y113847619D01*
X54722857Y114514285D02*
X54722857Y113847619D01*
X55108571Y114514285D02*
X55108571Y113990476D01*
X55065714Y113895238D01*
X54980000Y113847619D01*
X54851428Y113847619D01*
X54765714Y113895238D01*
X54722857Y113942857D01*
X53780000Y113847619D02*
X54080000Y114323809D01*
X54294285Y113847619D02*
X54294285Y114847619D01*
X53951428Y114847619D01*
X53865714Y114800000D01*
X53822857Y114752380D01*
X53780000Y114657142D01*
X53780000Y114514285D01*
X53822857Y114419047D01*
X53865714Y114371428D01*
X53951428Y114323809D01*
X54294285Y114323809D01*
X53094285Y114371428D02*
X52965714Y114323809D01*
X52922857Y114276190D01*
X52880000Y114180952D01*
X52880000Y114038095D01*
X52922857Y113942857D01*
X52965714Y113895238D01*
X53051428Y113847619D01*
X53394285Y113847619D01*
X53394285Y114847619D01*
X53094285Y114847619D01*
X53008571Y114800000D01*
X52965714Y114752380D01*
X52922857Y114657142D01*
X52922857Y114561904D01*
X52965714Y114466666D01*
X53008571Y114419047D01*
X53094285Y114371428D01*
X53394285Y114371428D01*
X66948571Y55485714D02*
X66948571Y56295238D01*
X66905714Y56390476D01*
X66862857Y56438095D01*
X66777142Y56485714D01*
X66648571Y56485714D01*
X66562857Y56438095D01*
X66948571Y56104761D02*
X66862857Y56152380D01*
X66691428Y56152380D01*
X66605714Y56104761D01*
X66562857Y56057142D01*
X66520000Y55961904D01*
X66520000Y55676190D01*
X66562857Y55580952D01*
X66605714Y55533333D01*
X66691428Y55485714D01*
X66862857Y55485714D01*
X66948571Y55533333D01*
X67505714Y56152380D02*
X67420000Y56104761D01*
X67377142Y56057142D01*
X67334285Y55961904D01*
X67334285Y55676190D01*
X67377142Y55580952D01*
X67420000Y55533333D01*
X67505714Y55485714D01*
X67634285Y55485714D01*
X67720000Y55533333D01*
X67762857Y55580952D01*
X67805714Y55676190D01*
X67805714Y55961904D01*
X67762857Y56057142D01*
X67720000Y56104761D01*
X67634285Y56152380D01*
X67505714Y56152380D01*
X68320000Y56152380D02*
X68234285Y56104761D01*
X68191428Y56057142D01*
X68148571Y55961904D01*
X68148571Y55676190D01*
X68191428Y55580952D01*
X68234285Y55533333D01*
X68320000Y55485714D01*
X68448571Y55485714D01*
X68534285Y55533333D01*
X68577142Y55580952D01*
X68620000Y55676190D01*
X68620000Y55961904D01*
X68577142Y56057142D01*
X68534285Y56104761D01*
X68448571Y56152380D01*
X68320000Y56152380D01*
X69005714Y56057142D02*
X69048571Y56104761D01*
X69005714Y56152380D01*
X68962857Y56104761D01*
X69005714Y56057142D01*
X69005714Y56152380D01*
X69820000Y55485714D02*
X69820000Y56295238D01*
X69777142Y56390476D01*
X69734285Y56438095D01*
X69648571Y56485714D01*
X69520000Y56485714D01*
X69434285Y56438095D01*
X69820000Y56104761D02*
X69734285Y56152380D01*
X69562857Y56152380D01*
X69477142Y56104761D01*
X69434285Y56057142D01*
X69391428Y55961904D01*
X69391428Y55676190D01*
X69434285Y55580952D01*
X69477142Y55533333D01*
X69562857Y55485714D01*
X69734285Y55485714D01*
X69820000Y55533333D01*
X70377142Y56152380D02*
X70291428Y56104761D01*
X70248571Y56009523D01*
X70248571Y55152380D01*
X71362857Y55104761D02*
X70591428Y56390476D01*
X71662857Y56152380D02*
X71662857Y55485714D01*
X71662857Y55676190D02*
X71705714Y55580952D01*
X71748571Y55533333D01*
X71834285Y55485714D01*
X71920000Y55485714D01*
X72134285Y55485714D02*
X72305714Y56152380D01*
X72477142Y55676190D01*
X72648571Y56152380D01*
X72820000Y55485714D01*
X73077142Y56152380D02*
X73548571Y55485714D01*
X73077142Y55485714D02*
X73548571Y56152380D01*
X74277142Y55485714D02*
X74277142Y56152380D01*
X73891428Y55485714D02*
X73891428Y56009523D01*
X73934285Y56104761D01*
X74020000Y56152380D01*
X74148571Y56152380D01*
X74234285Y56104761D01*
X74277142Y56057142D01*
X75220000Y56152380D02*
X74920000Y55676190D01*
X74705714Y56152380D02*
X74705714Y55152380D01*
X75048571Y55152380D01*
X75134285Y55200000D01*
X75177142Y55247619D01*
X75220000Y55342857D01*
X75220000Y55485714D01*
X75177142Y55580952D01*
X75134285Y55628571D01*
X75048571Y55676190D01*
X74705714Y55676190D01*
X75905714Y55628571D02*
X76034285Y55676190D01*
X76077142Y55723809D01*
X76120000Y55819047D01*
X76120000Y55961904D01*
X76077142Y56057142D01*
X76034285Y56104761D01*
X75948571Y56152380D01*
X75605714Y56152380D01*
X75605714Y55152380D01*
X75905714Y55152380D01*
X75991428Y55200000D01*
X76034285Y55247619D01*
X76077142Y55342857D01*
X76077142Y55438095D01*
X76034285Y55533333D01*
X75991428Y55580952D01*
X75905714Y55628571D01*
X75605714Y55628571D01*
X67252380Y61189524D02*
X66252380Y61189524D01*
X66252380Y60808572D01*
X66300000Y60713334D01*
X66347619Y60665715D01*
X66442857Y60618096D01*
X66585714Y60618096D01*
X66680952Y60665715D01*
X66728571Y60713334D01*
X66776190Y60808572D01*
X66776190Y61189524D01*
X66252380Y59999048D02*
X66252380Y59808572D01*
X66300000Y59713334D01*
X66395238Y59618096D01*
X66585714Y59570477D01*
X66919047Y59570477D01*
X67109523Y59618096D01*
X67204761Y59713334D01*
X67252380Y59808572D01*
X67252380Y59999048D01*
X67204761Y60094286D01*
X67109523Y60189524D01*
X66919047Y60237143D01*
X66585714Y60237143D01*
X66395238Y60189524D01*
X66300000Y60094286D01*
X66252380Y59999048D01*
X66300000Y58618096D02*
X66252380Y58713334D01*
X66252380Y58856191D01*
X66300000Y58999048D01*
X66395238Y59094286D01*
X66490476Y59141905D01*
X66680952Y59189524D01*
X66823809Y59189524D01*
X67014285Y59141905D01*
X67109523Y59094286D01*
X67204761Y58999048D01*
X67252380Y58856191D01*
X67252380Y58760953D01*
X67204761Y58618096D01*
X67157142Y58570477D01*
X66823809Y58570477D01*
X66823809Y58760953D01*
X66252380Y57951429D02*
X66252380Y57760953D01*
X66300000Y57665715D01*
X66395238Y57570477D01*
X66585714Y57522858D01*
X66919047Y57522858D01*
X67109523Y57570477D01*
X67204761Y57665715D01*
X67252380Y57760953D01*
X67252380Y57951429D01*
X67204761Y58046667D01*
X67109523Y58141905D01*
X66919047Y58189524D01*
X66585714Y58189524D01*
X66395238Y58141905D01*
X66300000Y58046667D01*
X66252380Y57951429D01*
X66197619Y67477142D02*
X67197619Y67477142D01*
X66197619Y68048571D02*
X66769047Y67620000D01*
X67197619Y68048571D02*
X66626190Y67477142D01*
X66721428Y68477142D02*
X66721428Y68810476D01*
X66197619Y68953333D02*
X66197619Y68477142D01*
X67197619Y68477142D01*
X67197619Y68953333D01*
X66673809Y69572380D02*
X66197619Y69572380D01*
X67197619Y69239047D02*
X66673809Y69572380D01*
X67197619Y69905714D01*
X76802382Y60522859D02*
X75802382Y60522859D01*
X76802382Y59951430D02*
X76230954Y60380002D01*
X75802382Y59951430D02*
X76373811Y60522859D01*
X76278573Y59522859D02*
X76278573Y59189525D01*
X76802382Y59046668D02*
X76802382Y59522859D01*
X75802382Y59522859D01*
X75802382Y59046668D01*
X76326192Y58427621D02*
X76802382Y58427621D01*
X75802382Y58760954D02*
X76326192Y58427621D01*
X75802382Y58094287D01*
X75747619Y66810476D02*
X76747619Y66810476D01*
X76747619Y67191428D01*
X76700000Y67286666D01*
X76652380Y67334285D01*
X76557142Y67381904D01*
X76414285Y67381904D01*
X76319047Y67334285D01*
X76271428Y67286666D01*
X76223809Y67191428D01*
X76223809Y66810476D01*
X76747619Y68000952D02*
X76747619Y68191428D01*
X76700000Y68286666D01*
X76604761Y68381904D01*
X76414285Y68429523D01*
X76080952Y68429523D01*
X75890476Y68381904D01*
X75795238Y68286666D01*
X75747619Y68191428D01*
X75747619Y68000952D01*
X75795238Y67905714D01*
X75890476Y67810476D01*
X76080952Y67762857D01*
X76414285Y67762857D01*
X76604761Y67810476D01*
X76700000Y67905714D01*
X76747619Y68000952D01*
X76700000Y69381904D02*
X76747619Y69286666D01*
X76747619Y69143809D01*
X76700000Y69000952D01*
X76604761Y68905714D01*
X76509523Y68858095D01*
X76319047Y68810476D01*
X76176190Y68810476D01*
X75985714Y68858095D01*
X75890476Y68905714D01*
X75795238Y69000952D01*
X75747619Y69143809D01*
X75747619Y69239047D01*
X75795238Y69381904D01*
X75842857Y69429523D01*
X76176190Y69429523D01*
X76176190Y69239047D01*
X76747619Y70048571D02*
X76747619Y70239047D01*
X76700000Y70334285D01*
X76604761Y70429523D01*
X76414285Y70477142D01*
X76080952Y70477142D01*
X75890476Y70429523D01*
X75795238Y70334285D01*
X75747619Y70239047D01*
X75747619Y70048571D01*
X75795238Y69953333D01*
X75890476Y69858095D01*
X76080952Y69810476D01*
X76414285Y69810476D01*
X76604761Y69858095D01*
X76700000Y69953333D01*
X76747619Y70048571D01*
X76051428Y72514285D02*
X76051428Y71704761D01*
X76094285Y71609523D01*
X76137142Y71561904D01*
X76222857Y71514285D01*
X76351428Y71514285D01*
X76437142Y71561904D01*
X76051428Y71895238D02*
X76137142Y71847619D01*
X76308571Y71847619D01*
X76394285Y71895238D01*
X76437142Y71942857D01*
X76480000Y72038095D01*
X76480000Y72323809D01*
X76437142Y72419047D01*
X76394285Y72466666D01*
X76308571Y72514285D01*
X76137142Y72514285D01*
X76051428Y72466666D01*
X75494285Y71847619D02*
X75580000Y71895238D01*
X75622857Y71942857D01*
X75665714Y72038095D01*
X75665714Y72323809D01*
X75622857Y72419047D01*
X75580000Y72466666D01*
X75494285Y72514285D01*
X75365714Y72514285D01*
X75280000Y72466666D01*
X75237142Y72419047D01*
X75194285Y72323809D01*
X75194285Y72038095D01*
X75237142Y71942857D01*
X75280000Y71895238D01*
X75365714Y71847619D01*
X75494285Y71847619D01*
X74680000Y71847619D02*
X74765714Y71895238D01*
X74808571Y71942857D01*
X74851428Y72038095D01*
X74851428Y72323809D01*
X74808571Y72419047D01*
X74765714Y72466666D01*
X74680000Y72514285D01*
X74551428Y72514285D01*
X74465714Y72466666D01*
X74422857Y72419047D01*
X74380000Y72323809D01*
X74380000Y72038095D01*
X74422857Y71942857D01*
X74465714Y71895238D01*
X74551428Y71847619D01*
X74680000Y71847619D01*
X73994285Y71942857D02*
X73951428Y71895238D01*
X73994285Y71847619D01*
X74037142Y71895238D01*
X73994285Y71942857D01*
X73994285Y71847619D01*
X73180000Y72514285D02*
X73180000Y71704761D01*
X73222857Y71609523D01*
X73265714Y71561904D01*
X73351428Y71514285D01*
X73480000Y71514285D01*
X73565714Y71561904D01*
X73180000Y71895238D02*
X73265714Y71847619D01*
X73437142Y71847619D01*
X73522857Y71895238D01*
X73565714Y71942857D01*
X73608571Y72038095D01*
X73608571Y72323809D01*
X73565714Y72419047D01*
X73522857Y72466666D01*
X73437142Y72514285D01*
X73265714Y72514285D01*
X73180000Y72466666D01*
X72622857Y71847619D02*
X72708571Y71895238D01*
X72751428Y71990476D01*
X72751428Y72847619D01*
X71637142Y72895238D02*
X72408571Y71609523D01*
X71337142Y71847619D02*
X71337142Y72514285D01*
X71337142Y72323809D02*
X71294285Y72419047D01*
X71251428Y72466666D01*
X71165714Y72514285D01*
X71080000Y72514285D01*
X70865714Y72514285D02*
X70694285Y71847619D01*
X70522857Y72323809D01*
X70351428Y71847619D01*
X70180000Y72514285D01*
X69922857Y71847619D02*
X69451428Y72514285D01*
X69922857Y72514285D02*
X69451428Y71847619D01*
X68722857Y72514285D02*
X68722857Y71847619D01*
X69108571Y72514285D02*
X69108571Y71990476D01*
X69065714Y71895238D01*
X68980000Y71847619D01*
X68851428Y71847619D01*
X68765714Y71895238D01*
X68722857Y71942857D01*
X67780000Y71847619D02*
X68080000Y72323809D01*
X68294285Y71847619D02*
X68294285Y72847619D01*
X67951428Y72847619D01*
X67865714Y72800000D01*
X67822857Y72752380D01*
X67780000Y72657142D01*
X67780000Y72514285D01*
X67822857Y72419047D01*
X67865714Y72371428D01*
X67951428Y72323809D01*
X68294285Y72323809D01*
X67094285Y72371428D02*
X66965714Y72323809D01*
X66922857Y72276190D01*
X66880000Y72180952D01*
X66880000Y72038095D01*
X66922857Y71942857D01*
X66965714Y71895238D01*
X67051428Y71847619D01*
X67394285Y71847619D01*
X67394285Y72847619D01*
X67094285Y72847619D01*
X67008571Y72800000D01*
X66965714Y72752380D01*
X66922857Y72657142D01*
X66922857Y72561904D01*
X66965714Y72466666D01*
X67008571Y72419047D01*
X67094285Y72371428D01*
X67394285Y72371428D01*
X89747619Y66810476D02*
X90747619Y66810476D01*
X90747619Y67191428D01*
X90700000Y67286666D01*
X90652380Y67334285D01*
X90557142Y67381904D01*
X90414285Y67381904D01*
X90319047Y67334285D01*
X90271428Y67286666D01*
X90223809Y67191428D01*
X90223809Y66810476D01*
X90747619Y68000952D02*
X90747619Y68191428D01*
X90700000Y68286666D01*
X90604761Y68381904D01*
X90414285Y68429523D01*
X90080952Y68429523D01*
X89890476Y68381904D01*
X89795238Y68286666D01*
X89747619Y68191428D01*
X89747619Y68000952D01*
X89795238Y67905714D01*
X89890476Y67810476D01*
X90080952Y67762857D01*
X90414285Y67762857D01*
X90604761Y67810476D01*
X90700000Y67905714D01*
X90747619Y68000952D01*
X90700000Y69381904D02*
X90747619Y69286666D01*
X90747619Y69143809D01*
X90700000Y69000952D01*
X90604761Y68905714D01*
X90509523Y68858095D01*
X90319047Y68810476D01*
X90176190Y68810476D01*
X89985714Y68858095D01*
X89890476Y68905714D01*
X89795238Y69000952D01*
X89747619Y69143809D01*
X89747619Y69239047D01*
X89795238Y69381904D01*
X89842857Y69429523D01*
X90176190Y69429523D01*
X90176190Y69239047D01*
X90747619Y70048571D02*
X90747619Y70239047D01*
X90700000Y70334285D01*
X90604761Y70429523D01*
X90414285Y70477142D01*
X90080952Y70477142D01*
X89890476Y70429523D01*
X89795238Y70334285D01*
X89747619Y70239047D01*
X89747619Y70048571D01*
X89795238Y69953333D01*
X89890476Y69858095D01*
X90080952Y69810476D01*
X90414285Y69810476D01*
X90604761Y69858095D01*
X90700000Y69953333D01*
X90747619Y70048571D01*
X90802382Y60522859D02*
X89802382Y60522859D01*
X90802382Y59951430D02*
X90230954Y60380002D01*
X89802382Y59951430D02*
X90373811Y60522859D01*
X90278573Y59522859D02*
X90278573Y59189525D01*
X90802382Y59046668D02*
X90802382Y59522859D01*
X89802382Y59522859D01*
X89802382Y59046668D01*
X90326192Y58427621D02*
X90802382Y58427621D01*
X89802382Y58760954D02*
X90326192Y58427621D01*
X89802382Y58094287D01*
X80948571Y55485714D02*
X80948571Y56295238D01*
X80905714Y56390476D01*
X80862857Y56438095D01*
X80777142Y56485714D01*
X80648571Y56485714D01*
X80562857Y56438095D01*
X80948571Y56104761D02*
X80862857Y56152380D01*
X80691428Y56152380D01*
X80605714Y56104761D01*
X80562857Y56057142D01*
X80520000Y55961904D01*
X80520000Y55676190D01*
X80562857Y55580952D01*
X80605714Y55533333D01*
X80691428Y55485714D01*
X80862857Y55485714D01*
X80948571Y55533333D01*
X81505714Y56152380D02*
X81420000Y56104761D01*
X81377142Y56057142D01*
X81334285Y55961904D01*
X81334285Y55676190D01*
X81377142Y55580952D01*
X81420000Y55533333D01*
X81505714Y55485714D01*
X81634285Y55485714D01*
X81720000Y55533333D01*
X81762857Y55580952D01*
X81805714Y55676190D01*
X81805714Y55961904D01*
X81762857Y56057142D01*
X81720000Y56104761D01*
X81634285Y56152380D01*
X81505714Y56152380D01*
X82320000Y56152380D02*
X82234285Y56104761D01*
X82191428Y56057142D01*
X82148571Y55961904D01*
X82148571Y55676190D01*
X82191428Y55580952D01*
X82234285Y55533333D01*
X82320000Y55485714D01*
X82448571Y55485714D01*
X82534285Y55533333D01*
X82577142Y55580952D01*
X82620000Y55676190D01*
X82620000Y55961904D01*
X82577142Y56057142D01*
X82534285Y56104761D01*
X82448571Y56152380D01*
X82320000Y56152380D01*
X83005714Y56057142D02*
X83048571Y56104761D01*
X83005714Y56152380D01*
X82962857Y56104761D01*
X83005714Y56057142D01*
X83005714Y56152380D01*
X83820000Y55485714D02*
X83820000Y56295238D01*
X83777142Y56390476D01*
X83734285Y56438095D01*
X83648571Y56485714D01*
X83520000Y56485714D01*
X83434285Y56438095D01*
X83820000Y56104761D02*
X83734285Y56152380D01*
X83562857Y56152380D01*
X83477142Y56104761D01*
X83434285Y56057142D01*
X83391428Y55961904D01*
X83391428Y55676190D01*
X83434285Y55580952D01*
X83477142Y55533333D01*
X83562857Y55485714D01*
X83734285Y55485714D01*
X83820000Y55533333D01*
X84377142Y56152380D02*
X84291428Y56104761D01*
X84248571Y56009523D01*
X84248571Y55152380D01*
X85362857Y55104761D02*
X84591428Y56390476D01*
X85662857Y56152380D02*
X85662857Y55485714D01*
X85662857Y55676190D02*
X85705714Y55580952D01*
X85748571Y55533333D01*
X85834285Y55485714D01*
X85920000Y55485714D01*
X86134285Y55485714D02*
X86305714Y56152380D01*
X86477142Y55676190D01*
X86648571Y56152380D01*
X86820000Y55485714D01*
X87077142Y56152380D02*
X87548571Y55485714D01*
X87077142Y55485714D02*
X87548571Y56152380D01*
X88277142Y55485714D02*
X88277142Y56152380D01*
X87891428Y55485714D02*
X87891428Y56009523D01*
X87934285Y56104761D01*
X88020000Y56152380D01*
X88148571Y56152380D01*
X88234285Y56104761D01*
X88277142Y56057142D01*
X89220000Y56152380D02*
X88920000Y55676190D01*
X88705714Y56152380D02*
X88705714Y55152380D01*
X89048571Y55152380D01*
X89134285Y55200000D01*
X89177142Y55247619D01*
X89220000Y55342857D01*
X89220000Y55485714D01*
X89177142Y55580952D01*
X89134285Y55628571D01*
X89048571Y55676190D01*
X88705714Y55676190D01*
X89905714Y55628571D02*
X90034285Y55676190D01*
X90077142Y55723809D01*
X90120000Y55819047D01*
X90120000Y55961904D01*
X90077142Y56057142D01*
X90034285Y56104761D01*
X89948571Y56152380D01*
X89605714Y56152380D01*
X89605714Y55152380D01*
X89905714Y55152380D01*
X89991428Y55200000D01*
X90034285Y55247619D01*
X90077142Y55342857D01*
X90077142Y55438095D01*
X90034285Y55533333D01*
X89991428Y55580952D01*
X89905714Y55628571D01*
X89605714Y55628571D01*
X81252380Y61189524D02*
X80252380Y61189524D01*
X80252380Y60808572D01*
X80300000Y60713334D01*
X80347619Y60665715D01*
X80442857Y60618096D01*
X80585714Y60618096D01*
X80680952Y60665715D01*
X80728571Y60713334D01*
X80776190Y60808572D01*
X80776190Y61189524D01*
X80252380Y59999048D02*
X80252380Y59808572D01*
X80300000Y59713334D01*
X80395238Y59618096D01*
X80585714Y59570477D01*
X80919047Y59570477D01*
X81109523Y59618096D01*
X81204761Y59713334D01*
X81252380Y59808572D01*
X81252380Y59999048D01*
X81204761Y60094286D01*
X81109523Y60189524D01*
X80919047Y60237143D01*
X80585714Y60237143D01*
X80395238Y60189524D01*
X80300000Y60094286D01*
X80252380Y59999048D01*
X80300000Y58618096D02*
X80252380Y58713334D01*
X80252380Y58856191D01*
X80300000Y58999048D01*
X80395238Y59094286D01*
X80490476Y59141905D01*
X80680952Y59189524D01*
X80823809Y59189524D01*
X81014285Y59141905D01*
X81109523Y59094286D01*
X81204761Y58999048D01*
X81252380Y58856191D01*
X81252380Y58760953D01*
X81204761Y58618096D01*
X81157142Y58570477D01*
X80823809Y58570477D01*
X80823809Y58760953D01*
X80252380Y57951429D02*
X80252380Y57760953D01*
X80300000Y57665715D01*
X80395238Y57570477D01*
X80585714Y57522858D01*
X80919047Y57522858D01*
X81109523Y57570477D01*
X81204761Y57665715D01*
X81252380Y57760953D01*
X81252380Y57951429D01*
X81204761Y58046667D01*
X81109523Y58141905D01*
X80919047Y58189524D01*
X80585714Y58189524D01*
X80395238Y58141905D01*
X80300000Y58046667D01*
X80252380Y57951429D01*
X90051428Y72514285D02*
X90051428Y71704761D01*
X90094285Y71609523D01*
X90137142Y71561904D01*
X90222857Y71514285D01*
X90351428Y71514285D01*
X90437142Y71561904D01*
X90051428Y71895238D02*
X90137142Y71847619D01*
X90308571Y71847619D01*
X90394285Y71895238D01*
X90437142Y71942857D01*
X90480000Y72038095D01*
X90480000Y72323809D01*
X90437142Y72419047D01*
X90394285Y72466666D01*
X90308571Y72514285D01*
X90137142Y72514285D01*
X90051428Y72466666D01*
X89494285Y71847619D02*
X89580000Y71895238D01*
X89622857Y71942857D01*
X89665714Y72038095D01*
X89665714Y72323809D01*
X89622857Y72419047D01*
X89580000Y72466666D01*
X89494285Y72514285D01*
X89365714Y72514285D01*
X89280000Y72466666D01*
X89237142Y72419047D01*
X89194285Y72323809D01*
X89194285Y72038095D01*
X89237142Y71942857D01*
X89280000Y71895238D01*
X89365714Y71847619D01*
X89494285Y71847619D01*
X88680000Y71847619D02*
X88765714Y71895238D01*
X88808571Y71942857D01*
X88851428Y72038095D01*
X88851428Y72323809D01*
X88808571Y72419047D01*
X88765714Y72466666D01*
X88680000Y72514285D01*
X88551428Y72514285D01*
X88465714Y72466666D01*
X88422857Y72419047D01*
X88380000Y72323809D01*
X88380000Y72038095D01*
X88422857Y71942857D01*
X88465714Y71895238D01*
X88551428Y71847619D01*
X88680000Y71847619D01*
X87994285Y71942857D02*
X87951428Y71895238D01*
X87994285Y71847619D01*
X88037142Y71895238D01*
X87994285Y71942857D01*
X87994285Y71847619D01*
X87180000Y72514285D02*
X87180000Y71704761D01*
X87222857Y71609523D01*
X87265714Y71561904D01*
X87351428Y71514285D01*
X87480000Y71514285D01*
X87565714Y71561904D01*
X87180000Y71895238D02*
X87265714Y71847619D01*
X87437142Y71847619D01*
X87522857Y71895238D01*
X87565714Y71942857D01*
X87608571Y72038095D01*
X87608571Y72323809D01*
X87565714Y72419047D01*
X87522857Y72466666D01*
X87437142Y72514285D01*
X87265714Y72514285D01*
X87180000Y72466666D01*
X86622857Y71847619D02*
X86708571Y71895238D01*
X86751428Y71990476D01*
X86751428Y72847619D01*
X85637142Y72895238D02*
X86408571Y71609523D01*
X85337142Y71847619D02*
X85337142Y72514285D01*
X85337142Y72323809D02*
X85294285Y72419047D01*
X85251428Y72466666D01*
X85165714Y72514285D01*
X85080000Y72514285D01*
X84865714Y72514285D02*
X84694285Y71847619D01*
X84522857Y72323809D01*
X84351428Y71847619D01*
X84180000Y72514285D01*
X83922857Y71847619D02*
X83451428Y72514285D01*
X83922857Y72514285D02*
X83451428Y71847619D01*
X82722857Y72514285D02*
X82722857Y71847619D01*
X83108571Y72514285D02*
X83108571Y71990476D01*
X83065714Y71895238D01*
X82980000Y71847619D01*
X82851428Y71847619D01*
X82765714Y71895238D01*
X82722857Y71942857D01*
X81780000Y71847619D02*
X82080000Y72323809D01*
X82294285Y71847619D02*
X82294285Y72847619D01*
X81951428Y72847619D01*
X81865714Y72800000D01*
X81822857Y72752380D01*
X81780000Y72657142D01*
X81780000Y72514285D01*
X81822857Y72419047D01*
X81865714Y72371428D01*
X81951428Y72323809D01*
X82294285Y72323809D01*
X81094285Y72371428D02*
X80965714Y72323809D01*
X80922857Y72276190D01*
X80880000Y72180952D01*
X80880000Y72038095D01*
X80922857Y71942857D01*
X80965714Y71895238D01*
X81051428Y71847619D01*
X81394285Y71847619D01*
X81394285Y72847619D01*
X81094285Y72847619D01*
X81008571Y72800000D01*
X80965714Y72752380D01*
X80922857Y72657142D01*
X80922857Y72561904D01*
X80965714Y72466666D01*
X81008571Y72419047D01*
X81094285Y72371428D01*
X81394285Y72371428D01*
X80197619Y67477142D02*
X81197619Y67477142D01*
X80197619Y68048571D02*
X80769047Y67620000D01*
X81197619Y68048571D02*
X80626190Y67477142D01*
X80721428Y68477142D02*
X80721428Y68810476D01*
X80197619Y68953333D02*
X80197619Y68477142D01*
X81197619Y68477142D01*
X81197619Y68953333D01*
X80673809Y69572380D02*
X80197619Y69572380D01*
X81197619Y69239047D02*
X80673809Y69572380D01*
X81197619Y69905714D01*
X90802382Y102522859D02*
X89802382Y102522859D01*
X90802382Y101951430D02*
X90230954Y102380002D01*
X89802382Y101951430D02*
X90373811Y102522859D01*
X90278573Y101522859D02*
X90278573Y101189525D01*
X90802382Y101046668D02*
X90802382Y101522859D01*
X89802382Y101522859D01*
X89802382Y101046668D01*
X90326192Y100427621D02*
X90802382Y100427621D01*
X89802382Y100760954D02*
X90326192Y100427621D01*
X89802382Y100094287D01*
X89747619Y108810476D02*
X90747619Y108810476D01*
X90747619Y109191428D01*
X90700000Y109286666D01*
X90652380Y109334285D01*
X90557142Y109381904D01*
X90414285Y109381904D01*
X90319047Y109334285D01*
X90271428Y109286666D01*
X90223809Y109191428D01*
X90223809Y108810476D01*
X90747619Y110000952D02*
X90747619Y110191428D01*
X90700000Y110286666D01*
X90604761Y110381904D01*
X90414285Y110429523D01*
X90080952Y110429523D01*
X89890476Y110381904D01*
X89795238Y110286666D01*
X89747619Y110191428D01*
X89747619Y110000952D01*
X89795238Y109905714D01*
X89890476Y109810476D01*
X90080952Y109762857D01*
X90414285Y109762857D01*
X90604761Y109810476D01*
X90700000Y109905714D01*
X90747619Y110000952D01*
X90700000Y111381904D02*
X90747619Y111286666D01*
X90747619Y111143809D01*
X90700000Y111000952D01*
X90604761Y110905714D01*
X90509523Y110858095D01*
X90319047Y110810476D01*
X90176190Y110810476D01*
X89985714Y110858095D01*
X89890476Y110905714D01*
X89795238Y111000952D01*
X89747619Y111143809D01*
X89747619Y111239047D01*
X89795238Y111381904D01*
X89842857Y111429523D01*
X90176190Y111429523D01*
X90176190Y111239047D01*
X90747619Y112048571D02*
X90747619Y112239047D01*
X90700000Y112334285D01*
X90604761Y112429523D01*
X90414285Y112477142D01*
X90080952Y112477142D01*
X89890476Y112429523D01*
X89795238Y112334285D01*
X89747619Y112239047D01*
X89747619Y112048571D01*
X89795238Y111953333D01*
X89890476Y111858095D01*
X90080952Y111810476D01*
X90414285Y111810476D01*
X90604761Y111858095D01*
X90700000Y111953333D01*
X90747619Y112048571D01*
X80197619Y109477142D02*
X81197619Y109477142D01*
X80197619Y110048571D02*
X80769047Y109620000D01*
X81197619Y110048571D02*
X80626190Y109477142D01*
X80721428Y110477142D02*
X80721428Y110810476D01*
X80197619Y110953333D02*
X80197619Y110477142D01*
X81197619Y110477142D01*
X81197619Y110953333D01*
X80673809Y111572380D02*
X80197619Y111572380D01*
X81197619Y111239047D02*
X80673809Y111572380D01*
X81197619Y111905714D01*
X81252380Y103189524D02*
X80252380Y103189524D01*
X80252380Y102808572D01*
X80300000Y102713334D01*
X80347619Y102665715D01*
X80442857Y102618096D01*
X80585714Y102618096D01*
X80680952Y102665715D01*
X80728571Y102713334D01*
X80776190Y102808572D01*
X80776190Y103189524D01*
X80252380Y101999048D02*
X80252380Y101808572D01*
X80300000Y101713334D01*
X80395238Y101618096D01*
X80585714Y101570477D01*
X80919047Y101570477D01*
X81109523Y101618096D01*
X81204761Y101713334D01*
X81252380Y101808572D01*
X81252380Y101999048D01*
X81204761Y102094286D01*
X81109523Y102189524D01*
X80919047Y102237143D01*
X80585714Y102237143D01*
X80395238Y102189524D01*
X80300000Y102094286D01*
X80252380Y101999048D01*
X80300000Y100618096D02*
X80252380Y100713334D01*
X80252380Y100856191D01*
X80300000Y100999048D01*
X80395238Y101094286D01*
X80490476Y101141905D01*
X80680952Y101189524D01*
X80823809Y101189524D01*
X81014285Y101141905D01*
X81109523Y101094286D01*
X81204761Y100999048D01*
X81252380Y100856191D01*
X81252380Y100760953D01*
X81204761Y100618096D01*
X81157142Y100570477D01*
X80823809Y100570477D01*
X80823809Y100760953D01*
X80252380Y99951429D02*
X80252380Y99760953D01*
X80300000Y99665715D01*
X80395238Y99570477D01*
X80585714Y99522858D01*
X80919047Y99522858D01*
X81109523Y99570477D01*
X81204761Y99665715D01*
X81252380Y99760953D01*
X81252380Y99951429D01*
X81204761Y100046667D01*
X81109523Y100141905D01*
X80919047Y100189524D01*
X80585714Y100189524D01*
X80395238Y100141905D01*
X80300000Y100046667D01*
X80252380Y99951429D01*
X80948571Y97485714D02*
X80948571Y98295238D01*
X80905714Y98390476D01*
X80862857Y98438095D01*
X80777142Y98485714D01*
X80648571Y98485714D01*
X80562857Y98438095D01*
X80948571Y98104761D02*
X80862857Y98152380D01*
X80691428Y98152380D01*
X80605714Y98104761D01*
X80562857Y98057142D01*
X80520000Y97961904D01*
X80520000Y97676190D01*
X80562857Y97580952D01*
X80605714Y97533333D01*
X80691428Y97485714D01*
X80862857Y97485714D01*
X80948571Y97533333D01*
X81505714Y98152380D02*
X81420000Y98104761D01*
X81377142Y98057142D01*
X81334285Y97961904D01*
X81334285Y97676190D01*
X81377142Y97580952D01*
X81420000Y97533333D01*
X81505714Y97485714D01*
X81634285Y97485714D01*
X81720000Y97533333D01*
X81762857Y97580952D01*
X81805714Y97676190D01*
X81805714Y97961904D01*
X81762857Y98057142D01*
X81720000Y98104761D01*
X81634285Y98152380D01*
X81505714Y98152380D01*
X82320000Y98152380D02*
X82234285Y98104761D01*
X82191428Y98057142D01*
X82148571Y97961904D01*
X82148571Y97676190D01*
X82191428Y97580952D01*
X82234285Y97533333D01*
X82320000Y97485714D01*
X82448571Y97485714D01*
X82534285Y97533333D01*
X82577142Y97580952D01*
X82620000Y97676190D01*
X82620000Y97961904D01*
X82577142Y98057142D01*
X82534285Y98104761D01*
X82448571Y98152380D01*
X82320000Y98152380D01*
X83005714Y98057142D02*
X83048571Y98104761D01*
X83005714Y98152380D01*
X82962857Y98104761D01*
X83005714Y98057142D01*
X83005714Y98152380D01*
X83820000Y97485714D02*
X83820000Y98295238D01*
X83777142Y98390476D01*
X83734285Y98438095D01*
X83648571Y98485714D01*
X83520000Y98485714D01*
X83434285Y98438095D01*
X83820000Y98104761D02*
X83734285Y98152380D01*
X83562857Y98152380D01*
X83477142Y98104761D01*
X83434285Y98057142D01*
X83391428Y97961904D01*
X83391428Y97676190D01*
X83434285Y97580952D01*
X83477142Y97533333D01*
X83562857Y97485714D01*
X83734285Y97485714D01*
X83820000Y97533333D01*
X84377142Y98152380D02*
X84291428Y98104761D01*
X84248571Y98009523D01*
X84248571Y97152380D01*
X85362857Y97104761D02*
X84591428Y98390476D01*
X85662857Y98152380D02*
X85662857Y97485714D01*
X85662857Y97676190D02*
X85705714Y97580952D01*
X85748571Y97533333D01*
X85834285Y97485714D01*
X85920000Y97485714D01*
X86134285Y97485714D02*
X86305714Y98152380D01*
X86477142Y97676190D01*
X86648571Y98152380D01*
X86820000Y97485714D01*
X87077142Y98152380D02*
X87548571Y97485714D01*
X87077142Y97485714D02*
X87548571Y98152380D01*
X88277142Y97485714D02*
X88277142Y98152380D01*
X87891428Y97485714D02*
X87891428Y98009523D01*
X87934285Y98104761D01*
X88020000Y98152380D01*
X88148571Y98152380D01*
X88234285Y98104761D01*
X88277142Y98057142D01*
X89220000Y98152380D02*
X88920000Y97676190D01*
X88705714Y98152380D02*
X88705714Y97152380D01*
X89048571Y97152380D01*
X89134285Y97200000D01*
X89177142Y97247619D01*
X89220000Y97342857D01*
X89220000Y97485714D01*
X89177142Y97580952D01*
X89134285Y97628571D01*
X89048571Y97676190D01*
X88705714Y97676190D01*
X89905714Y97628571D02*
X90034285Y97676190D01*
X90077142Y97723809D01*
X90120000Y97819047D01*
X90120000Y97961904D01*
X90077142Y98057142D01*
X90034285Y98104761D01*
X89948571Y98152380D01*
X89605714Y98152380D01*
X89605714Y97152380D01*
X89905714Y97152380D01*
X89991428Y97200000D01*
X90034285Y97247619D01*
X90077142Y97342857D01*
X90077142Y97438095D01*
X90034285Y97533333D01*
X89991428Y97580952D01*
X89905714Y97628571D01*
X89605714Y97628571D01*
X90051428Y114514285D02*
X90051428Y113704761D01*
X90094285Y113609523D01*
X90137142Y113561904D01*
X90222857Y113514285D01*
X90351428Y113514285D01*
X90437142Y113561904D01*
X90051428Y113895238D02*
X90137142Y113847619D01*
X90308571Y113847619D01*
X90394285Y113895238D01*
X90437142Y113942857D01*
X90480000Y114038095D01*
X90480000Y114323809D01*
X90437142Y114419047D01*
X90394285Y114466666D01*
X90308571Y114514285D01*
X90137142Y114514285D01*
X90051428Y114466666D01*
X89494285Y113847619D02*
X89580000Y113895238D01*
X89622857Y113942857D01*
X89665714Y114038095D01*
X89665714Y114323809D01*
X89622857Y114419047D01*
X89580000Y114466666D01*
X89494285Y114514285D01*
X89365714Y114514285D01*
X89280000Y114466666D01*
X89237142Y114419047D01*
X89194285Y114323809D01*
X89194285Y114038095D01*
X89237142Y113942857D01*
X89280000Y113895238D01*
X89365714Y113847619D01*
X89494285Y113847619D01*
X88680000Y113847619D02*
X88765714Y113895238D01*
X88808571Y113942857D01*
X88851428Y114038095D01*
X88851428Y114323809D01*
X88808571Y114419047D01*
X88765714Y114466666D01*
X88680000Y114514285D01*
X88551428Y114514285D01*
X88465714Y114466666D01*
X88422857Y114419047D01*
X88380000Y114323809D01*
X88380000Y114038095D01*
X88422857Y113942857D01*
X88465714Y113895238D01*
X88551428Y113847619D01*
X88680000Y113847619D01*
X87994285Y113942857D02*
X87951428Y113895238D01*
X87994285Y113847619D01*
X88037142Y113895238D01*
X87994285Y113942857D01*
X87994285Y113847619D01*
X87180000Y114514285D02*
X87180000Y113704761D01*
X87222857Y113609523D01*
X87265714Y113561904D01*
X87351428Y113514285D01*
X87480000Y113514285D01*
X87565714Y113561904D01*
X87180000Y113895238D02*
X87265714Y113847619D01*
X87437142Y113847619D01*
X87522857Y113895238D01*
X87565714Y113942857D01*
X87608571Y114038095D01*
X87608571Y114323809D01*
X87565714Y114419047D01*
X87522857Y114466666D01*
X87437142Y114514285D01*
X87265714Y114514285D01*
X87180000Y114466666D01*
X86622857Y113847619D02*
X86708571Y113895238D01*
X86751428Y113990476D01*
X86751428Y114847619D01*
X85637142Y114895238D02*
X86408571Y113609523D01*
X85337142Y113847619D02*
X85337142Y114514285D01*
X85337142Y114323809D02*
X85294285Y114419047D01*
X85251428Y114466666D01*
X85165714Y114514285D01*
X85080000Y114514285D01*
X84865714Y114514285D02*
X84694285Y113847619D01*
X84522857Y114323809D01*
X84351428Y113847619D01*
X84180000Y114514285D01*
X83922857Y113847619D02*
X83451428Y114514285D01*
X83922857Y114514285D02*
X83451428Y113847619D01*
X82722857Y114514285D02*
X82722857Y113847619D01*
X83108571Y114514285D02*
X83108571Y113990476D01*
X83065714Y113895238D01*
X82980000Y113847619D01*
X82851428Y113847619D01*
X82765714Y113895238D01*
X82722857Y113942857D01*
X81780000Y113847619D02*
X82080000Y114323809D01*
X82294285Y113847619D02*
X82294285Y114847619D01*
X81951428Y114847619D01*
X81865714Y114800000D01*
X81822857Y114752380D01*
X81780000Y114657142D01*
X81780000Y114514285D01*
X81822857Y114419047D01*
X81865714Y114371428D01*
X81951428Y114323809D01*
X82294285Y114323809D01*
X81094285Y114371428D02*
X80965714Y114323809D01*
X80922857Y114276190D01*
X80880000Y114180952D01*
X80880000Y114038095D01*
X80922857Y113942857D01*
X80965714Y113895238D01*
X81051428Y113847619D01*
X81394285Y113847619D01*
X81394285Y114847619D01*
X81094285Y114847619D01*
X81008571Y114800000D01*
X80965714Y114752380D01*
X80922857Y114657142D01*
X80922857Y114561904D01*
X80965714Y114466666D01*
X81008571Y114419047D01*
X81094285Y114371428D01*
X81394285Y114371428D01*
X66197619Y109477142D02*
X67197619Y109477142D01*
X66197619Y110048571D02*
X66769047Y109620000D01*
X67197619Y110048571D02*
X66626190Y109477142D01*
X66721428Y110477142D02*
X66721428Y110810476D01*
X66197619Y110953333D02*
X66197619Y110477142D01*
X67197619Y110477142D01*
X67197619Y110953333D01*
X66673809Y111572380D02*
X66197619Y111572380D01*
X67197619Y111239047D02*
X66673809Y111572380D01*
X67197619Y111905714D01*
X76051428Y114514285D02*
X76051428Y113704761D01*
X76094285Y113609523D01*
X76137142Y113561904D01*
X76222857Y113514285D01*
X76351428Y113514285D01*
X76437142Y113561904D01*
X76051428Y113895238D02*
X76137142Y113847619D01*
X76308571Y113847619D01*
X76394285Y113895238D01*
X76437142Y113942857D01*
X76480000Y114038095D01*
X76480000Y114323809D01*
X76437142Y114419047D01*
X76394285Y114466666D01*
X76308571Y114514285D01*
X76137142Y114514285D01*
X76051428Y114466666D01*
X75494285Y113847619D02*
X75580000Y113895238D01*
X75622857Y113942857D01*
X75665714Y114038095D01*
X75665714Y114323809D01*
X75622857Y114419047D01*
X75580000Y114466666D01*
X75494285Y114514285D01*
X75365714Y114514285D01*
X75280000Y114466666D01*
X75237142Y114419047D01*
X75194285Y114323809D01*
X75194285Y114038095D01*
X75237142Y113942857D01*
X75280000Y113895238D01*
X75365714Y113847619D01*
X75494285Y113847619D01*
X74680000Y113847619D02*
X74765714Y113895238D01*
X74808571Y113942857D01*
X74851428Y114038095D01*
X74851428Y114323809D01*
X74808571Y114419047D01*
X74765714Y114466666D01*
X74680000Y114514285D01*
X74551428Y114514285D01*
X74465714Y114466666D01*
X74422857Y114419047D01*
X74380000Y114323809D01*
X74380000Y114038095D01*
X74422857Y113942857D01*
X74465714Y113895238D01*
X74551428Y113847619D01*
X74680000Y113847619D01*
X73994285Y113942857D02*
X73951428Y113895238D01*
X73994285Y113847619D01*
X74037142Y113895238D01*
X73994285Y113942857D01*
X73994285Y113847619D01*
X73180000Y114514285D02*
X73180000Y113704761D01*
X73222857Y113609523D01*
X73265714Y113561904D01*
X73351428Y113514285D01*
X73480000Y113514285D01*
X73565714Y113561904D01*
X73180000Y113895238D02*
X73265714Y113847619D01*
X73437142Y113847619D01*
X73522857Y113895238D01*
X73565714Y113942857D01*
X73608571Y114038095D01*
X73608571Y114323809D01*
X73565714Y114419047D01*
X73522857Y114466666D01*
X73437142Y114514285D01*
X73265714Y114514285D01*
X73180000Y114466666D01*
X72622857Y113847619D02*
X72708571Y113895238D01*
X72751428Y113990476D01*
X72751428Y114847619D01*
X71637142Y114895238D02*
X72408571Y113609523D01*
X71337142Y113847619D02*
X71337142Y114514285D01*
X71337142Y114323809D02*
X71294285Y114419047D01*
X71251428Y114466666D01*
X71165714Y114514285D01*
X71080000Y114514285D01*
X70865714Y114514285D02*
X70694285Y113847619D01*
X70522857Y114323809D01*
X70351428Y113847619D01*
X70180000Y114514285D01*
X69922857Y113847619D02*
X69451428Y114514285D01*
X69922857Y114514285D02*
X69451428Y113847619D01*
X68722857Y114514285D02*
X68722857Y113847619D01*
X69108571Y114514285D02*
X69108571Y113990476D01*
X69065714Y113895238D01*
X68980000Y113847619D01*
X68851428Y113847619D01*
X68765714Y113895238D01*
X68722857Y113942857D01*
X67780000Y113847619D02*
X68080000Y114323809D01*
X68294285Y113847619D02*
X68294285Y114847619D01*
X67951428Y114847619D01*
X67865714Y114800000D01*
X67822857Y114752380D01*
X67780000Y114657142D01*
X67780000Y114514285D01*
X67822857Y114419047D01*
X67865714Y114371428D01*
X67951428Y114323809D01*
X68294285Y114323809D01*
X67094285Y114371428D02*
X66965714Y114323809D01*
X66922857Y114276190D01*
X66880000Y114180952D01*
X66880000Y114038095D01*
X66922857Y113942857D01*
X66965714Y113895238D01*
X67051428Y113847619D01*
X67394285Y113847619D01*
X67394285Y114847619D01*
X67094285Y114847619D01*
X67008571Y114800000D01*
X66965714Y114752380D01*
X66922857Y114657142D01*
X66922857Y114561904D01*
X66965714Y114466666D01*
X67008571Y114419047D01*
X67094285Y114371428D01*
X67394285Y114371428D01*
X67252380Y103189524D02*
X66252380Y103189524D01*
X66252380Y102808572D01*
X66300000Y102713334D01*
X66347619Y102665715D01*
X66442857Y102618096D01*
X66585714Y102618096D01*
X66680952Y102665715D01*
X66728571Y102713334D01*
X66776190Y102808572D01*
X66776190Y103189524D01*
X66252380Y101999048D02*
X66252380Y101808572D01*
X66300000Y101713334D01*
X66395238Y101618096D01*
X66585714Y101570477D01*
X66919047Y101570477D01*
X67109523Y101618096D01*
X67204761Y101713334D01*
X67252380Y101808572D01*
X67252380Y101999048D01*
X67204761Y102094286D01*
X67109523Y102189524D01*
X66919047Y102237143D01*
X66585714Y102237143D01*
X66395238Y102189524D01*
X66300000Y102094286D01*
X66252380Y101999048D01*
X66300000Y100618096D02*
X66252380Y100713334D01*
X66252380Y100856191D01*
X66300000Y100999048D01*
X66395238Y101094286D01*
X66490476Y101141905D01*
X66680952Y101189524D01*
X66823809Y101189524D01*
X67014285Y101141905D01*
X67109523Y101094286D01*
X67204761Y100999048D01*
X67252380Y100856191D01*
X67252380Y100760953D01*
X67204761Y100618096D01*
X67157142Y100570477D01*
X66823809Y100570477D01*
X66823809Y100760953D01*
X66252380Y99951429D02*
X66252380Y99760953D01*
X66300000Y99665715D01*
X66395238Y99570477D01*
X66585714Y99522858D01*
X66919047Y99522858D01*
X67109523Y99570477D01*
X67204761Y99665715D01*
X67252380Y99760953D01*
X67252380Y99951429D01*
X67204761Y100046667D01*
X67109523Y100141905D01*
X66919047Y100189524D01*
X66585714Y100189524D01*
X66395238Y100141905D01*
X66300000Y100046667D01*
X66252380Y99951429D01*
X75747619Y108810476D02*
X76747619Y108810476D01*
X76747619Y109191428D01*
X76700000Y109286666D01*
X76652380Y109334285D01*
X76557142Y109381904D01*
X76414285Y109381904D01*
X76319047Y109334285D01*
X76271428Y109286666D01*
X76223809Y109191428D01*
X76223809Y108810476D01*
X76747619Y110000952D02*
X76747619Y110191428D01*
X76700000Y110286666D01*
X76604761Y110381904D01*
X76414285Y110429523D01*
X76080952Y110429523D01*
X75890476Y110381904D01*
X75795238Y110286666D01*
X75747619Y110191428D01*
X75747619Y110000952D01*
X75795238Y109905714D01*
X75890476Y109810476D01*
X76080952Y109762857D01*
X76414285Y109762857D01*
X76604761Y109810476D01*
X76700000Y109905714D01*
X76747619Y110000952D01*
X76700000Y111381904D02*
X76747619Y111286666D01*
X76747619Y111143809D01*
X76700000Y111000952D01*
X76604761Y110905714D01*
X76509523Y110858095D01*
X76319047Y110810476D01*
X76176190Y110810476D01*
X75985714Y110858095D01*
X75890476Y110905714D01*
X75795238Y111000952D01*
X75747619Y111143809D01*
X75747619Y111239047D01*
X75795238Y111381904D01*
X75842857Y111429523D01*
X76176190Y111429523D01*
X76176190Y111239047D01*
X76747619Y112048571D02*
X76747619Y112239047D01*
X76700000Y112334285D01*
X76604761Y112429523D01*
X76414285Y112477142D01*
X76080952Y112477142D01*
X75890476Y112429523D01*
X75795238Y112334285D01*
X75747619Y112239047D01*
X75747619Y112048571D01*
X75795238Y111953333D01*
X75890476Y111858095D01*
X76080952Y111810476D01*
X76414285Y111810476D01*
X76604761Y111858095D01*
X76700000Y111953333D01*
X76747619Y112048571D01*
X66948571Y97485714D02*
X66948571Y98295238D01*
X66905714Y98390476D01*
X66862857Y98438095D01*
X66777142Y98485714D01*
X66648571Y98485714D01*
X66562857Y98438095D01*
X66948571Y98104761D02*
X66862857Y98152380D01*
X66691428Y98152380D01*
X66605714Y98104761D01*
X66562857Y98057142D01*
X66520000Y97961904D01*
X66520000Y97676190D01*
X66562857Y97580952D01*
X66605714Y97533333D01*
X66691428Y97485714D01*
X66862857Y97485714D01*
X66948571Y97533333D01*
X67505714Y98152380D02*
X67420000Y98104761D01*
X67377142Y98057142D01*
X67334285Y97961904D01*
X67334285Y97676190D01*
X67377142Y97580952D01*
X67420000Y97533333D01*
X67505714Y97485714D01*
X67634285Y97485714D01*
X67720000Y97533333D01*
X67762857Y97580952D01*
X67805714Y97676190D01*
X67805714Y97961904D01*
X67762857Y98057142D01*
X67720000Y98104761D01*
X67634285Y98152380D01*
X67505714Y98152380D01*
X68320000Y98152380D02*
X68234285Y98104761D01*
X68191428Y98057142D01*
X68148571Y97961904D01*
X68148571Y97676190D01*
X68191428Y97580952D01*
X68234285Y97533333D01*
X68320000Y97485714D01*
X68448571Y97485714D01*
X68534285Y97533333D01*
X68577142Y97580952D01*
X68620000Y97676190D01*
X68620000Y97961904D01*
X68577142Y98057142D01*
X68534285Y98104761D01*
X68448571Y98152380D01*
X68320000Y98152380D01*
X69005714Y98057142D02*
X69048571Y98104761D01*
X69005714Y98152380D01*
X68962857Y98104761D01*
X69005714Y98057142D01*
X69005714Y98152380D01*
X69820000Y97485714D02*
X69820000Y98295238D01*
X69777142Y98390476D01*
X69734285Y98438095D01*
X69648571Y98485714D01*
X69520000Y98485714D01*
X69434285Y98438095D01*
X69820000Y98104761D02*
X69734285Y98152380D01*
X69562857Y98152380D01*
X69477142Y98104761D01*
X69434285Y98057142D01*
X69391428Y97961904D01*
X69391428Y97676190D01*
X69434285Y97580952D01*
X69477142Y97533333D01*
X69562857Y97485714D01*
X69734285Y97485714D01*
X69820000Y97533333D01*
X70377142Y98152380D02*
X70291428Y98104761D01*
X70248571Y98009523D01*
X70248571Y97152380D01*
X71362857Y97104761D02*
X70591428Y98390476D01*
X71662857Y98152380D02*
X71662857Y97485714D01*
X71662857Y97676190D02*
X71705714Y97580952D01*
X71748571Y97533333D01*
X71834285Y97485714D01*
X71920000Y97485714D01*
X72134285Y97485714D02*
X72305714Y98152380D01*
X72477142Y97676190D01*
X72648571Y98152380D01*
X72820000Y97485714D01*
X73077142Y98152380D02*
X73548571Y97485714D01*
X73077142Y97485714D02*
X73548571Y98152380D01*
X74277142Y97485714D02*
X74277142Y98152380D01*
X73891428Y97485714D02*
X73891428Y98009523D01*
X73934285Y98104761D01*
X74020000Y98152380D01*
X74148571Y98152380D01*
X74234285Y98104761D01*
X74277142Y98057142D01*
X75220000Y98152380D02*
X74920000Y97676190D01*
X74705714Y98152380D02*
X74705714Y97152380D01*
X75048571Y97152380D01*
X75134285Y97200000D01*
X75177142Y97247619D01*
X75220000Y97342857D01*
X75220000Y97485714D01*
X75177142Y97580952D01*
X75134285Y97628571D01*
X75048571Y97676190D01*
X74705714Y97676190D01*
X75905714Y97628571D02*
X76034285Y97676190D01*
X76077142Y97723809D01*
X76120000Y97819047D01*
X76120000Y97961904D01*
X76077142Y98057142D01*
X76034285Y98104761D01*
X75948571Y98152380D01*
X75605714Y98152380D01*
X75605714Y97152380D01*
X75905714Y97152380D01*
X75991428Y97200000D01*
X76034285Y97247619D01*
X76077142Y97342857D01*
X76077142Y97438095D01*
X76034285Y97533333D01*
X75991428Y97580952D01*
X75905714Y97628571D01*
X75605714Y97628571D01*
X76802382Y102522859D02*
X75802382Y102522859D01*
X76802382Y101951430D02*
X76230954Y102380002D01*
X75802382Y101951430D02*
X76373811Y102522859D01*
X76278573Y101522859D02*
X76278573Y101189525D01*
X76802382Y101046668D02*
X76802382Y101522859D01*
X75802382Y101522859D01*
X75802382Y101046668D01*
X76326192Y100427621D02*
X76802382Y100427621D01*
X75802382Y100760954D02*
X76326192Y100427621D01*
X75802382Y100094287D01*
X118802382Y102522859D02*
X117802382Y102522859D01*
X118802382Y101951430D02*
X118230954Y102380002D01*
X117802382Y101951430D02*
X118373811Y102522859D01*
X118278573Y101522859D02*
X118278573Y101189525D01*
X118802382Y101046668D02*
X118802382Y101522859D01*
X117802382Y101522859D01*
X117802382Y101046668D01*
X118326192Y100427621D02*
X118802382Y100427621D01*
X117802382Y100760954D02*
X118326192Y100427621D01*
X117802382Y100094287D01*
X118051428Y114514285D02*
X118051428Y113704761D01*
X118094285Y113609523D01*
X118137142Y113561904D01*
X118222857Y113514285D01*
X118351428Y113514285D01*
X118437142Y113561904D01*
X118051428Y113895238D02*
X118137142Y113847619D01*
X118308571Y113847619D01*
X118394285Y113895238D01*
X118437142Y113942857D01*
X118480000Y114038095D01*
X118480000Y114323809D01*
X118437142Y114419047D01*
X118394285Y114466666D01*
X118308571Y114514285D01*
X118137142Y114514285D01*
X118051428Y114466666D01*
X117494285Y113847619D02*
X117580000Y113895238D01*
X117622857Y113942857D01*
X117665714Y114038095D01*
X117665714Y114323809D01*
X117622857Y114419047D01*
X117580000Y114466666D01*
X117494285Y114514285D01*
X117365714Y114514285D01*
X117280000Y114466666D01*
X117237142Y114419047D01*
X117194285Y114323809D01*
X117194285Y114038095D01*
X117237142Y113942857D01*
X117280000Y113895238D01*
X117365714Y113847619D01*
X117494285Y113847619D01*
X116680000Y113847619D02*
X116765714Y113895238D01*
X116808571Y113942857D01*
X116851428Y114038095D01*
X116851428Y114323809D01*
X116808571Y114419047D01*
X116765714Y114466666D01*
X116680000Y114514285D01*
X116551428Y114514285D01*
X116465714Y114466666D01*
X116422857Y114419047D01*
X116380000Y114323809D01*
X116380000Y114038095D01*
X116422857Y113942857D01*
X116465714Y113895238D01*
X116551428Y113847619D01*
X116680000Y113847619D01*
X115994285Y113942857D02*
X115951428Y113895238D01*
X115994285Y113847619D01*
X116037142Y113895238D01*
X115994285Y113942857D01*
X115994285Y113847619D01*
X115180000Y114514285D02*
X115180000Y113704761D01*
X115222857Y113609523D01*
X115265714Y113561904D01*
X115351428Y113514285D01*
X115480000Y113514285D01*
X115565714Y113561904D01*
X115180000Y113895238D02*
X115265714Y113847619D01*
X115437142Y113847619D01*
X115522857Y113895238D01*
X115565714Y113942857D01*
X115608571Y114038095D01*
X115608571Y114323809D01*
X115565714Y114419047D01*
X115522857Y114466666D01*
X115437142Y114514285D01*
X115265714Y114514285D01*
X115180000Y114466666D01*
X114622857Y113847619D02*
X114708571Y113895238D01*
X114751428Y113990476D01*
X114751428Y114847619D01*
X113637142Y114895238D02*
X114408571Y113609523D01*
X113337142Y113847619D02*
X113337142Y114514285D01*
X113337142Y114323809D02*
X113294285Y114419047D01*
X113251428Y114466666D01*
X113165714Y114514285D01*
X113080000Y114514285D01*
X112865714Y114514285D02*
X112694285Y113847619D01*
X112522857Y114323809D01*
X112351428Y113847619D01*
X112180000Y114514285D01*
X111922857Y113847619D02*
X111451428Y114514285D01*
X111922857Y114514285D02*
X111451428Y113847619D01*
X110722857Y114514285D02*
X110722857Y113847619D01*
X111108571Y114514285D02*
X111108571Y113990476D01*
X111065714Y113895238D01*
X110980000Y113847619D01*
X110851428Y113847619D01*
X110765714Y113895238D01*
X110722857Y113942857D01*
X109780000Y113847619D02*
X110080000Y114323809D01*
X110294285Y113847619D02*
X110294285Y114847619D01*
X109951428Y114847619D01*
X109865714Y114800000D01*
X109822857Y114752380D01*
X109780000Y114657142D01*
X109780000Y114514285D01*
X109822857Y114419047D01*
X109865714Y114371428D01*
X109951428Y114323809D01*
X110294285Y114323809D01*
X109094285Y114371428D02*
X108965714Y114323809D01*
X108922857Y114276190D01*
X108880000Y114180952D01*
X108880000Y114038095D01*
X108922857Y113942857D01*
X108965714Y113895238D01*
X109051428Y113847619D01*
X109394285Y113847619D01*
X109394285Y114847619D01*
X109094285Y114847619D01*
X109008571Y114800000D01*
X108965714Y114752380D01*
X108922857Y114657142D01*
X108922857Y114561904D01*
X108965714Y114466666D01*
X109008571Y114419047D01*
X109094285Y114371428D01*
X109394285Y114371428D01*
X117747619Y108810476D02*
X118747619Y108810476D01*
X118747619Y109191428D01*
X118700000Y109286666D01*
X118652380Y109334285D01*
X118557142Y109381904D01*
X118414285Y109381904D01*
X118319047Y109334285D01*
X118271428Y109286666D01*
X118223809Y109191428D01*
X118223809Y108810476D01*
X118747619Y110000952D02*
X118747619Y110191428D01*
X118700000Y110286666D01*
X118604761Y110381904D01*
X118414285Y110429523D01*
X118080952Y110429523D01*
X117890476Y110381904D01*
X117795238Y110286666D01*
X117747619Y110191428D01*
X117747619Y110000952D01*
X117795238Y109905714D01*
X117890476Y109810476D01*
X118080952Y109762857D01*
X118414285Y109762857D01*
X118604761Y109810476D01*
X118700000Y109905714D01*
X118747619Y110000952D01*
X118700000Y111381904D02*
X118747619Y111286666D01*
X118747619Y111143809D01*
X118700000Y111000952D01*
X118604761Y110905714D01*
X118509523Y110858095D01*
X118319047Y110810476D01*
X118176190Y110810476D01*
X117985714Y110858095D01*
X117890476Y110905714D01*
X117795238Y111000952D01*
X117747619Y111143809D01*
X117747619Y111239047D01*
X117795238Y111381904D01*
X117842857Y111429523D01*
X118176190Y111429523D01*
X118176190Y111239047D01*
X118747619Y112048571D02*
X118747619Y112239047D01*
X118700000Y112334285D01*
X118604761Y112429523D01*
X118414285Y112477142D01*
X118080952Y112477142D01*
X117890476Y112429523D01*
X117795238Y112334285D01*
X117747619Y112239047D01*
X117747619Y112048571D01*
X117795238Y111953333D01*
X117890476Y111858095D01*
X118080952Y111810476D01*
X118414285Y111810476D01*
X118604761Y111858095D01*
X118700000Y111953333D01*
X118747619Y112048571D01*
X108197619Y109477142D02*
X109197619Y109477142D01*
X108197619Y110048571D02*
X108769047Y109620000D01*
X109197619Y110048571D02*
X108626190Y109477142D01*
X108721428Y110477142D02*
X108721428Y110810476D01*
X108197619Y110953333D02*
X108197619Y110477142D01*
X109197619Y110477142D01*
X109197619Y110953333D01*
X108673809Y111572380D02*
X108197619Y111572380D01*
X109197619Y111239047D02*
X108673809Y111572380D01*
X109197619Y111905714D01*
X109252380Y103189524D02*
X108252380Y103189524D01*
X108252380Y102808572D01*
X108300000Y102713334D01*
X108347619Y102665715D01*
X108442857Y102618096D01*
X108585714Y102618096D01*
X108680952Y102665715D01*
X108728571Y102713334D01*
X108776190Y102808572D01*
X108776190Y103189524D01*
X108252380Y101999048D02*
X108252380Y101808572D01*
X108300000Y101713334D01*
X108395238Y101618096D01*
X108585714Y101570477D01*
X108919047Y101570477D01*
X109109523Y101618096D01*
X109204761Y101713334D01*
X109252380Y101808572D01*
X109252380Y101999048D01*
X109204761Y102094286D01*
X109109523Y102189524D01*
X108919047Y102237143D01*
X108585714Y102237143D01*
X108395238Y102189524D01*
X108300000Y102094286D01*
X108252380Y101999048D01*
X108300000Y100618096D02*
X108252380Y100713334D01*
X108252380Y100856191D01*
X108300000Y100999048D01*
X108395238Y101094286D01*
X108490476Y101141905D01*
X108680952Y101189524D01*
X108823809Y101189524D01*
X109014285Y101141905D01*
X109109523Y101094286D01*
X109204761Y100999048D01*
X109252380Y100856191D01*
X109252380Y100760953D01*
X109204761Y100618096D01*
X109157142Y100570477D01*
X108823809Y100570477D01*
X108823809Y100760953D01*
X108252380Y99951429D02*
X108252380Y99760953D01*
X108300000Y99665715D01*
X108395238Y99570477D01*
X108585714Y99522858D01*
X108919047Y99522858D01*
X109109523Y99570477D01*
X109204761Y99665715D01*
X109252380Y99760953D01*
X109252380Y99951429D01*
X109204761Y100046667D01*
X109109523Y100141905D01*
X108919047Y100189524D01*
X108585714Y100189524D01*
X108395238Y100141905D01*
X108300000Y100046667D01*
X108252380Y99951429D01*
X108948571Y97485714D02*
X108948571Y98295238D01*
X108905714Y98390476D01*
X108862857Y98438095D01*
X108777142Y98485714D01*
X108648571Y98485714D01*
X108562857Y98438095D01*
X108948571Y98104761D02*
X108862857Y98152380D01*
X108691428Y98152380D01*
X108605714Y98104761D01*
X108562857Y98057142D01*
X108520000Y97961904D01*
X108520000Y97676190D01*
X108562857Y97580952D01*
X108605714Y97533333D01*
X108691428Y97485714D01*
X108862857Y97485714D01*
X108948571Y97533333D01*
X109505714Y98152380D02*
X109420000Y98104761D01*
X109377142Y98057142D01*
X109334285Y97961904D01*
X109334285Y97676190D01*
X109377142Y97580952D01*
X109420000Y97533333D01*
X109505714Y97485714D01*
X109634285Y97485714D01*
X109720000Y97533333D01*
X109762857Y97580952D01*
X109805714Y97676190D01*
X109805714Y97961904D01*
X109762857Y98057142D01*
X109720000Y98104761D01*
X109634285Y98152380D01*
X109505714Y98152380D01*
X110320000Y98152380D02*
X110234285Y98104761D01*
X110191428Y98057142D01*
X110148571Y97961904D01*
X110148571Y97676190D01*
X110191428Y97580952D01*
X110234285Y97533333D01*
X110320000Y97485714D01*
X110448571Y97485714D01*
X110534285Y97533333D01*
X110577142Y97580952D01*
X110620000Y97676190D01*
X110620000Y97961904D01*
X110577142Y98057142D01*
X110534285Y98104761D01*
X110448571Y98152380D01*
X110320000Y98152380D01*
X111005714Y98057142D02*
X111048571Y98104761D01*
X111005714Y98152380D01*
X110962857Y98104761D01*
X111005714Y98057142D01*
X111005714Y98152380D01*
X111820000Y97485714D02*
X111820000Y98295238D01*
X111777142Y98390476D01*
X111734285Y98438095D01*
X111648571Y98485714D01*
X111520000Y98485714D01*
X111434285Y98438095D01*
X111820000Y98104761D02*
X111734285Y98152380D01*
X111562857Y98152380D01*
X111477142Y98104761D01*
X111434285Y98057142D01*
X111391428Y97961904D01*
X111391428Y97676190D01*
X111434285Y97580952D01*
X111477142Y97533333D01*
X111562857Y97485714D01*
X111734285Y97485714D01*
X111820000Y97533333D01*
X112377142Y98152380D02*
X112291428Y98104761D01*
X112248571Y98009523D01*
X112248571Y97152380D01*
X113362857Y97104761D02*
X112591428Y98390476D01*
X113662857Y98152380D02*
X113662857Y97485714D01*
X113662857Y97676190D02*
X113705714Y97580952D01*
X113748571Y97533333D01*
X113834285Y97485714D01*
X113920000Y97485714D01*
X114134285Y97485714D02*
X114305714Y98152380D01*
X114477142Y97676190D01*
X114648571Y98152380D01*
X114820000Y97485714D01*
X115077142Y98152380D02*
X115548571Y97485714D01*
X115077142Y97485714D02*
X115548571Y98152380D01*
X116277142Y97485714D02*
X116277142Y98152380D01*
X115891428Y97485714D02*
X115891428Y98009523D01*
X115934285Y98104761D01*
X116020000Y98152380D01*
X116148571Y98152380D01*
X116234285Y98104761D01*
X116277142Y98057142D01*
X117220000Y98152380D02*
X116920000Y97676190D01*
X116705714Y98152380D02*
X116705714Y97152380D01*
X117048571Y97152380D01*
X117134285Y97200000D01*
X117177142Y97247619D01*
X117220000Y97342857D01*
X117220000Y97485714D01*
X117177142Y97580952D01*
X117134285Y97628571D01*
X117048571Y97676190D01*
X116705714Y97676190D01*
X117905714Y97628571D02*
X118034285Y97676190D01*
X118077142Y97723809D01*
X118120000Y97819047D01*
X118120000Y97961904D01*
X118077142Y98057142D01*
X118034285Y98104761D01*
X117948571Y98152380D01*
X117605714Y98152380D01*
X117605714Y97152380D01*
X117905714Y97152380D01*
X117991428Y97200000D01*
X118034285Y97247619D01*
X118077142Y97342857D01*
X118077142Y97438095D01*
X118034285Y97533333D01*
X117991428Y97580952D01*
X117905714Y97628571D01*
X117605714Y97628571D01*
X117747619Y66810476D02*
X118747619Y66810476D01*
X118747619Y67191428D01*
X118700000Y67286666D01*
X118652380Y67334285D01*
X118557142Y67381904D01*
X118414285Y67381904D01*
X118319047Y67334285D01*
X118271428Y67286666D01*
X118223809Y67191428D01*
X118223809Y66810476D01*
X118747619Y68000952D02*
X118747619Y68191428D01*
X118700000Y68286666D01*
X118604761Y68381904D01*
X118414285Y68429523D01*
X118080952Y68429523D01*
X117890476Y68381904D01*
X117795238Y68286666D01*
X117747619Y68191428D01*
X117747619Y68000952D01*
X117795238Y67905714D01*
X117890476Y67810476D01*
X118080952Y67762857D01*
X118414285Y67762857D01*
X118604761Y67810476D01*
X118700000Y67905714D01*
X118747619Y68000952D01*
X118700000Y69381904D02*
X118747619Y69286666D01*
X118747619Y69143809D01*
X118700000Y69000952D01*
X118604761Y68905714D01*
X118509523Y68858095D01*
X118319047Y68810476D01*
X118176190Y68810476D01*
X117985714Y68858095D01*
X117890476Y68905714D01*
X117795238Y69000952D01*
X117747619Y69143809D01*
X117747619Y69239047D01*
X117795238Y69381904D01*
X117842857Y69429523D01*
X118176190Y69429523D01*
X118176190Y69239047D01*
X118747619Y70048571D02*
X118747619Y70239047D01*
X118700000Y70334285D01*
X118604761Y70429523D01*
X118414285Y70477142D01*
X118080952Y70477142D01*
X117890476Y70429523D01*
X117795238Y70334285D01*
X117747619Y70239047D01*
X117747619Y70048571D01*
X117795238Y69953333D01*
X117890476Y69858095D01*
X118080952Y69810476D01*
X118414285Y69810476D01*
X118604761Y69858095D01*
X118700000Y69953333D01*
X118747619Y70048571D01*
X118802382Y60522859D02*
X117802382Y60522859D01*
X118802382Y59951430D02*
X118230954Y60380002D01*
X117802382Y59951430D02*
X118373811Y60522859D01*
X118278573Y59522859D02*
X118278573Y59189525D01*
X118802382Y59046668D02*
X118802382Y59522859D01*
X117802382Y59522859D01*
X117802382Y59046668D01*
X118326192Y58427621D02*
X118802382Y58427621D01*
X117802382Y58760954D02*
X118326192Y58427621D01*
X117802382Y58094287D01*
X108948571Y55485714D02*
X108948571Y56295238D01*
X108905714Y56390476D01*
X108862857Y56438095D01*
X108777142Y56485714D01*
X108648571Y56485714D01*
X108562857Y56438095D01*
X108948571Y56104761D02*
X108862857Y56152380D01*
X108691428Y56152380D01*
X108605714Y56104761D01*
X108562857Y56057142D01*
X108520000Y55961904D01*
X108520000Y55676190D01*
X108562857Y55580952D01*
X108605714Y55533333D01*
X108691428Y55485714D01*
X108862857Y55485714D01*
X108948571Y55533333D01*
X109505714Y56152380D02*
X109420000Y56104761D01*
X109377142Y56057142D01*
X109334285Y55961904D01*
X109334285Y55676190D01*
X109377142Y55580952D01*
X109420000Y55533333D01*
X109505714Y55485714D01*
X109634285Y55485714D01*
X109720000Y55533333D01*
X109762857Y55580952D01*
X109805714Y55676190D01*
X109805714Y55961904D01*
X109762857Y56057142D01*
X109720000Y56104761D01*
X109634285Y56152380D01*
X109505714Y56152380D01*
X110320000Y56152380D02*
X110234285Y56104761D01*
X110191428Y56057142D01*
X110148571Y55961904D01*
X110148571Y55676190D01*
X110191428Y55580952D01*
X110234285Y55533333D01*
X110320000Y55485714D01*
X110448571Y55485714D01*
X110534285Y55533333D01*
X110577142Y55580952D01*
X110620000Y55676190D01*
X110620000Y55961904D01*
X110577142Y56057142D01*
X110534285Y56104761D01*
X110448571Y56152380D01*
X110320000Y56152380D01*
X111005714Y56057142D02*
X111048571Y56104761D01*
X111005714Y56152380D01*
X110962857Y56104761D01*
X111005714Y56057142D01*
X111005714Y56152380D01*
X111820000Y55485714D02*
X111820000Y56295238D01*
X111777142Y56390476D01*
X111734285Y56438095D01*
X111648571Y56485714D01*
X111520000Y56485714D01*
X111434285Y56438095D01*
X111820000Y56104761D02*
X111734285Y56152380D01*
X111562857Y56152380D01*
X111477142Y56104761D01*
X111434285Y56057142D01*
X111391428Y55961904D01*
X111391428Y55676190D01*
X111434285Y55580952D01*
X111477142Y55533333D01*
X111562857Y55485714D01*
X111734285Y55485714D01*
X111820000Y55533333D01*
X112377142Y56152380D02*
X112291428Y56104761D01*
X112248571Y56009523D01*
X112248571Y55152380D01*
X113362857Y55104761D02*
X112591428Y56390476D01*
X113662857Y56152380D02*
X113662857Y55485714D01*
X113662857Y55676190D02*
X113705714Y55580952D01*
X113748571Y55533333D01*
X113834285Y55485714D01*
X113920000Y55485714D01*
X114134285Y55485714D02*
X114305714Y56152380D01*
X114477142Y55676190D01*
X114648571Y56152380D01*
X114820000Y55485714D01*
X115077142Y56152380D02*
X115548571Y55485714D01*
X115077142Y55485714D02*
X115548571Y56152380D01*
X116277142Y55485714D02*
X116277142Y56152380D01*
X115891428Y55485714D02*
X115891428Y56009523D01*
X115934285Y56104761D01*
X116020000Y56152380D01*
X116148571Y56152380D01*
X116234285Y56104761D01*
X116277142Y56057142D01*
X117220000Y56152380D02*
X116920000Y55676190D01*
X116705714Y56152380D02*
X116705714Y55152380D01*
X117048571Y55152380D01*
X117134285Y55200000D01*
X117177142Y55247619D01*
X117220000Y55342857D01*
X117220000Y55485714D01*
X117177142Y55580952D01*
X117134285Y55628571D01*
X117048571Y55676190D01*
X116705714Y55676190D01*
X117905714Y55628571D02*
X118034285Y55676190D01*
X118077142Y55723809D01*
X118120000Y55819047D01*
X118120000Y55961904D01*
X118077142Y56057142D01*
X118034285Y56104761D01*
X117948571Y56152380D01*
X117605714Y56152380D01*
X117605714Y55152380D01*
X117905714Y55152380D01*
X117991428Y55200000D01*
X118034285Y55247619D01*
X118077142Y55342857D01*
X118077142Y55438095D01*
X118034285Y55533333D01*
X117991428Y55580952D01*
X117905714Y55628571D01*
X117605714Y55628571D01*
X109252380Y61189524D02*
X108252380Y61189524D01*
X108252380Y60808572D01*
X108300000Y60713334D01*
X108347619Y60665715D01*
X108442857Y60618096D01*
X108585714Y60618096D01*
X108680952Y60665715D01*
X108728571Y60713334D01*
X108776190Y60808572D01*
X108776190Y61189524D01*
X108252380Y59999048D02*
X108252380Y59808572D01*
X108300000Y59713334D01*
X108395238Y59618096D01*
X108585714Y59570477D01*
X108919047Y59570477D01*
X109109523Y59618096D01*
X109204761Y59713334D01*
X109252380Y59808572D01*
X109252380Y59999048D01*
X109204761Y60094286D01*
X109109523Y60189524D01*
X108919047Y60237143D01*
X108585714Y60237143D01*
X108395238Y60189524D01*
X108300000Y60094286D01*
X108252380Y59999048D01*
X108300000Y58618096D02*
X108252380Y58713334D01*
X108252380Y58856191D01*
X108300000Y58999048D01*
X108395238Y59094286D01*
X108490476Y59141905D01*
X108680952Y59189524D01*
X108823809Y59189524D01*
X109014285Y59141905D01*
X109109523Y59094286D01*
X109204761Y58999048D01*
X109252380Y58856191D01*
X109252380Y58760953D01*
X109204761Y58618096D01*
X109157142Y58570477D01*
X108823809Y58570477D01*
X108823809Y58760953D01*
X108252380Y57951429D02*
X108252380Y57760953D01*
X108300000Y57665715D01*
X108395238Y57570477D01*
X108585714Y57522858D01*
X108919047Y57522858D01*
X109109523Y57570477D01*
X109204761Y57665715D01*
X109252380Y57760953D01*
X109252380Y57951429D01*
X109204761Y58046667D01*
X109109523Y58141905D01*
X108919047Y58189524D01*
X108585714Y58189524D01*
X108395238Y58141905D01*
X108300000Y58046667D01*
X108252380Y57951429D01*
X118051428Y72514285D02*
X118051428Y71704761D01*
X118094285Y71609523D01*
X118137142Y71561904D01*
X118222857Y71514285D01*
X118351428Y71514285D01*
X118437142Y71561904D01*
X118051428Y71895238D02*
X118137142Y71847619D01*
X118308571Y71847619D01*
X118394285Y71895238D01*
X118437142Y71942857D01*
X118480000Y72038095D01*
X118480000Y72323809D01*
X118437142Y72419047D01*
X118394285Y72466666D01*
X118308571Y72514285D01*
X118137142Y72514285D01*
X118051428Y72466666D01*
X117494285Y71847619D02*
X117580000Y71895238D01*
X117622857Y71942857D01*
X117665714Y72038095D01*
X117665714Y72323809D01*
X117622857Y72419047D01*
X117580000Y72466666D01*
X117494285Y72514285D01*
X117365714Y72514285D01*
X117280000Y72466666D01*
X117237142Y72419047D01*
X117194285Y72323809D01*
X117194285Y72038095D01*
X117237142Y71942857D01*
X117280000Y71895238D01*
X117365714Y71847619D01*
X117494285Y71847619D01*
X116680000Y71847619D02*
X116765714Y71895238D01*
X116808571Y71942857D01*
X116851428Y72038095D01*
X116851428Y72323809D01*
X116808571Y72419047D01*
X116765714Y72466666D01*
X116680000Y72514285D01*
X116551428Y72514285D01*
X116465714Y72466666D01*
X116422857Y72419047D01*
X116380000Y72323809D01*
X116380000Y72038095D01*
X116422857Y71942857D01*
X116465714Y71895238D01*
X116551428Y71847619D01*
X116680000Y71847619D01*
X115994285Y71942857D02*
X115951428Y71895238D01*
X115994285Y71847619D01*
X116037142Y71895238D01*
X115994285Y71942857D01*
X115994285Y71847619D01*
X115180000Y72514285D02*
X115180000Y71704761D01*
X115222857Y71609523D01*
X115265714Y71561904D01*
X115351428Y71514285D01*
X115480000Y71514285D01*
X115565714Y71561904D01*
X115180000Y71895238D02*
X115265714Y71847619D01*
X115437142Y71847619D01*
X115522857Y71895238D01*
X115565714Y71942857D01*
X115608571Y72038095D01*
X115608571Y72323809D01*
X115565714Y72419047D01*
X115522857Y72466666D01*
X115437142Y72514285D01*
X115265714Y72514285D01*
X115180000Y72466666D01*
X114622857Y71847619D02*
X114708571Y71895238D01*
X114751428Y71990476D01*
X114751428Y72847619D01*
X113637142Y72895238D02*
X114408571Y71609523D01*
X113337142Y71847619D02*
X113337142Y72514285D01*
X113337142Y72323809D02*
X113294285Y72419047D01*
X113251428Y72466666D01*
X113165714Y72514285D01*
X113080000Y72514285D01*
X112865714Y72514285D02*
X112694285Y71847619D01*
X112522857Y72323809D01*
X112351428Y71847619D01*
X112180000Y72514285D01*
X111922857Y71847619D02*
X111451428Y72514285D01*
X111922857Y72514285D02*
X111451428Y71847619D01*
X110722857Y72514285D02*
X110722857Y71847619D01*
X111108571Y72514285D02*
X111108571Y71990476D01*
X111065714Y71895238D01*
X110980000Y71847619D01*
X110851428Y71847619D01*
X110765714Y71895238D01*
X110722857Y71942857D01*
X109780000Y71847619D02*
X110080000Y72323809D01*
X110294285Y71847619D02*
X110294285Y72847619D01*
X109951428Y72847619D01*
X109865714Y72800000D01*
X109822857Y72752380D01*
X109780000Y72657142D01*
X109780000Y72514285D01*
X109822857Y72419047D01*
X109865714Y72371428D01*
X109951428Y72323809D01*
X110294285Y72323809D01*
X109094285Y72371428D02*
X108965714Y72323809D01*
X108922857Y72276190D01*
X108880000Y72180952D01*
X108880000Y72038095D01*
X108922857Y71942857D01*
X108965714Y71895238D01*
X109051428Y71847619D01*
X109394285Y71847619D01*
X109394285Y72847619D01*
X109094285Y72847619D01*
X109008571Y72800000D01*
X108965714Y72752380D01*
X108922857Y72657142D01*
X108922857Y72561904D01*
X108965714Y72466666D01*
X109008571Y72419047D01*
X109094285Y72371428D01*
X109394285Y72371428D01*
X108197619Y67477142D02*
X109197619Y67477142D01*
X108197619Y68048571D02*
X108769047Y67620000D01*
X109197619Y68048571D02*
X108626190Y67477142D01*
X108721428Y68477142D02*
X108721428Y68810476D01*
X108197619Y68953333D02*
X108197619Y68477142D01*
X109197619Y68477142D01*
X109197619Y68953333D01*
X108673809Y69572380D02*
X108197619Y69572380D01*
X109197619Y69239047D02*
X108673809Y69572380D01*
X109197619Y69905714D01*
X103747619Y66810476D02*
X104747619Y66810476D01*
X104747619Y67191428D01*
X104700000Y67286666D01*
X104652380Y67334285D01*
X104557142Y67381904D01*
X104414285Y67381904D01*
X104319047Y67334285D01*
X104271428Y67286666D01*
X104223809Y67191428D01*
X104223809Y66810476D01*
X104747619Y68000952D02*
X104747619Y68191428D01*
X104700000Y68286666D01*
X104604761Y68381904D01*
X104414285Y68429523D01*
X104080952Y68429523D01*
X103890476Y68381904D01*
X103795238Y68286666D01*
X103747619Y68191428D01*
X103747619Y68000952D01*
X103795238Y67905714D01*
X103890476Y67810476D01*
X104080952Y67762857D01*
X104414285Y67762857D01*
X104604761Y67810476D01*
X104700000Y67905714D01*
X104747619Y68000952D01*
X104700000Y69381904D02*
X104747619Y69286666D01*
X104747619Y69143809D01*
X104700000Y69000952D01*
X104604761Y68905714D01*
X104509523Y68858095D01*
X104319047Y68810476D01*
X104176190Y68810476D01*
X103985714Y68858095D01*
X103890476Y68905714D01*
X103795238Y69000952D01*
X103747619Y69143809D01*
X103747619Y69239047D01*
X103795238Y69381904D01*
X103842857Y69429523D01*
X104176190Y69429523D01*
X104176190Y69239047D01*
X104747619Y70048571D02*
X104747619Y70239047D01*
X104700000Y70334285D01*
X104604761Y70429523D01*
X104414285Y70477142D01*
X104080952Y70477142D01*
X103890476Y70429523D01*
X103795238Y70334285D01*
X103747619Y70239047D01*
X103747619Y70048571D01*
X103795238Y69953333D01*
X103890476Y69858095D01*
X104080952Y69810476D01*
X104414285Y69810476D01*
X104604761Y69858095D01*
X104700000Y69953333D01*
X104747619Y70048571D01*
X104051428Y72514285D02*
X104051428Y71704761D01*
X104094285Y71609523D01*
X104137142Y71561904D01*
X104222857Y71514285D01*
X104351428Y71514285D01*
X104437142Y71561904D01*
X104051428Y71895238D02*
X104137142Y71847619D01*
X104308571Y71847619D01*
X104394285Y71895238D01*
X104437142Y71942857D01*
X104480000Y72038095D01*
X104480000Y72323809D01*
X104437142Y72419047D01*
X104394285Y72466666D01*
X104308571Y72514285D01*
X104137142Y72514285D01*
X104051428Y72466666D01*
X103494285Y71847619D02*
X103580000Y71895238D01*
X103622857Y71942857D01*
X103665714Y72038095D01*
X103665714Y72323809D01*
X103622857Y72419047D01*
X103580000Y72466666D01*
X103494285Y72514285D01*
X103365714Y72514285D01*
X103280000Y72466666D01*
X103237142Y72419047D01*
X103194285Y72323809D01*
X103194285Y72038095D01*
X103237142Y71942857D01*
X103280000Y71895238D01*
X103365714Y71847619D01*
X103494285Y71847619D01*
X102680000Y71847619D02*
X102765714Y71895238D01*
X102808571Y71942857D01*
X102851428Y72038095D01*
X102851428Y72323809D01*
X102808571Y72419047D01*
X102765714Y72466666D01*
X102680000Y72514285D01*
X102551428Y72514285D01*
X102465714Y72466666D01*
X102422857Y72419047D01*
X102380000Y72323809D01*
X102380000Y72038095D01*
X102422857Y71942857D01*
X102465714Y71895238D01*
X102551428Y71847619D01*
X102680000Y71847619D01*
X101994285Y71942857D02*
X101951428Y71895238D01*
X101994285Y71847619D01*
X102037142Y71895238D01*
X101994285Y71942857D01*
X101994285Y71847619D01*
X101180000Y72514285D02*
X101180000Y71704761D01*
X101222857Y71609523D01*
X101265714Y71561904D01*
X101351428Y71514285D01*
X101480000Y71514285D01*
X101565714Y71561904D01*
X101180000Y71895238D02*
X101265714Y71847619D01*
X101437142Y71847619D01*
X101522857Y71895238D01*
X101565714Y71942857D01*
X101608571Y72038095D01*
X101608571Y72323809D01*
X101565714Y72419047D01*
X101522857Y72466666D01*
X101437142Y72514285D01*
X101265714Y72514285D01*
X101180000Y72466666D01*
X100622857Y71847619D02*
X100708571Y71895238D01*
X100751428Y71990476D01*
X100751428Y72847619D01*
X99637142Y72895238D02*
X100408571Y71609523D01*
X99337142Y71847619D02*
X99337142Y72514285D01*
X99337142Y72323809D02*
X99294285Y72419047D01*
X99251428Y72466666D01*
X99165714Y72514285D01*
X99080000Y72514285D01*
X98865714Y72514285D02*
X98694285Y71847619D01*
X98522857Y72323809D01*
X98351428Y71847619D01*
X98180000Y72514285D01*
X97922857Y71847619D02*
X97451428Y72514285D01*
X97922857Y72514285D02*
X97451428Y71847619D01*
X96722857Y72514285D02*
X96722857Y71847619D01*
X97108571Y72514285D02*
X97108571Y71990476D01*
X97065714Y71895238D01*
X96980000Y71847619D01*
X96851428Y71847619D01*
X96765714Y71895238D01*
X96722857Y71942857D01*
X95780000Y71847619D02*
X96080000Y72323809D01*
X96294285Y71847619D02*
X96294285Y72847619D01*
X95951428Y72847619D01*
X95865714Y72800000D01*
X95822857Y72752380D01*
X95780000Y72657142D01*
X95780000Y72514285D01*
X95822857Y72419047D01*
X95865714Y72371428D01*
X95951428Y72323809D01*
X96294285Y72323809D01*
X95094285Y72371428D02*
X94965714Y72323809D01*
X94922857Y72276190D01*
X94880000Y72180952D01*
X94880000Y72038095D01*
X94922857Y71942857D01*
X94965714Y71895238D01*
X95051428Y71847619D01*
X95394285Y71847619D01*
X95394285Y72847619D01*
X95094285Y72847619D01*
X95008571Y72800000D01*
X94965714Y72752380D01*
X94922857Y72657142D01*
X94922857Y72561904D01*
X94965714Y72466666D01*
X95008571Y72419047D01*
X95094285Y72371428D01*
X95394285Y72371428D01*
X94197619Y67477142D02*
X95197619Y67477142D01*
X94197619Y68048571D02*
X94769047Y67620000D01*
X95197619Y68048571D02*
X94626190Y67477142D01*
X94721428Y68477142D02*
X94721428Y68810476D01*
X94197619Y68953333D02*
X94197619Y68477142D01*
X95197619Y68477142D01*
X95197619Y68953333D01*
X94673809Y69572380D02*
X94197619Y69572380D01*
X95197619Y69239047D02*
X94673809Y69572380D01*
X95197619Y69905714D01*
X94948571Y55485714D02*
X94948571Y56295238D01*
X94905714Y56390476D01*
X94862857Y56438095D01*
X94777142Y56485714D01*
X94648571Y56485714D01*
X94562857Y56438095D01*
X94948571Y56104761D02*
X94862857Y56152380D01*
X94691428Y56152380D01*
X94605714Y56104761D01*
X94562857Y56057142D01*
X94520000Y55961904D01*
X94520000Y55676190D01*
X94562857Y55580952D01*
X94605714Y55533333D01*
X94691428Y55485714D01*
X94862857Y55485714D01*
X94948571Y55533333D01*
X95505714Y56152380D02*
X95420000Y56104761D01*
X95377142Y56057142D01*
X95334285Y55961904D01*
X95334285Y55676190D01*
X95377142Y55580952D01*
X95420000Y55533333D01*
X95505714Y55485714D01*
X95634285Y55485714D01*
X95720000Y55533333D01*
X95762857Y55580952D01*
X95805714Y55676190D01*
X95805714Y55961904D01*
X95762857Y56057142D01*
X95720000Y56104761D01*
X95634285Y56152380D01*
X95505714Y56152380D01*
X96320000Y56152380D02*
X96234285Y56104761D01*
X96191428Y56057142D01*
X96148571Y55961904D01*
X96148571Y55676190D01*
X96191428Y55580952D01*
X96234285Y55533333D01*
X96320000Y55485714D01*
X96448571Y55485714D01*
X96534285Y55533333D01*
X96577142Y55580952D01*
X96620000Y55676190D01*
X96620000Y55961904D01*
X96577142Y56057142D01*
X96534285Y56104761D01*
X96448571Y56152380D01*
X96320000Y56152380D01*
X97005714Y56057142D02*
X97048571Y56104761D01*
X97005714Y56152380D01*
X96962857Y56104761D01*
X97005714Y56057142D01*
X97005714Y56152380D01*
X97820000Y55485714D02*
X97820000Y56295238D01*
X97777142Y56390476D01*
X97734285Y56438095D01*
X97648571Y56485714D01*
X97520000Y56485714D01*
X97434285Y56438095D01*
X97820000Y56104761D02*
X97734285Y56152380D01*
X97562857Y56152380D01*
X97477142Y56104761D01*
X97434285Y56057142D01*
X97391428Y55961904D01*
X97391428Y55676190D01*
X97434285Y55580952D01*
X97477142Y55533333D01*
X97562857Y55485714D01*
X97734285Y55485714D01*
X97820000Y55533333D01*
X98377142Y56152380D02*
X98291428Y56104761D01*
X98248571Y56009523D01*
X98248571Y55152380D01*
X99362857Y55104761D02*
X98591428Y56390476D01*
X99662857Y56152380D02*
X99662857Y55485714D01*
X99662857Y55676190D02*
X99705714Y55580952D01*
X99748571Y55533333D01*
X99834285Y55485714D01*
X99920000Y55485714D01*
X100134285Y55485714D02*
X100305714Y56152380D01*
X100477142Y55676190D01*
X100648571Y56152380D01*
X100820000Y55485714D01*
X101077142Y56152380D02*
X101548571Y55485714D01*
X101077142Y55485714D02*
X101548571Y56152380D01*
X102277142Y55485714D02*
X102277142Y56152380D01*
X101891428Y55485714D02*
X101891428Y56009523D01*
X101934285Y56104761D01*
X102020000Y56152380D01*
X102148571Y56152380D01*
X102234285Y56104761D01*
X102277142Y56057142D01*
X103220000Y56152380D02*
X102920000Y55676190D01*
X102705714Y56152380D02*
X102705714Y55152380D01*
X103048571Y55152380D01*
X103134285Y55200000D01*
X103177142Y55247619D01*
X103220000Y55342857D01*
X103220000Y55485714D01*
X103177142Y55580952D01*
X103134285Y55628571D01*
X103048571Y55676190D01*
X102705714Y55676190D01*
X103905714Y55628571D02*
X104034285Y55676190D01*
X104077142Y55723809D01*
X104120000Y55819047D01*
X104120000Y55961904D01*
X104077142Y56057142D01*
X104034285Y56104761D01*
X103948571Y56152380D01*
X103605714Y56152380D01*
X103605714Y55152380D01*
X103905714Y55152380D01*
X103991428Y55200000D01*
X104034285Y55247619D01*
X104077142Y55342857D01*
X104077142Y55438095D01*
X104034285Y55533333D01*
X103991428Y55580952D01*
X103905714Y55628571D01*
X103605714Y55628571D01*
X104802382Y60522859D02*
X103802382Y60522859D01*
X104802382Y59951430D02*
X104230954Y60380002D01*
X103802382Y59951430D02*
X104373811Y60522859D01*
X104278573Y59522859D02*
X104278573Y59189525D01*
X104802382Y59046668D02*
X104802382Y59522859D01*
X103802382Y59522859D01*
X103802382Y59046668D01*
X104326192Y58427621D02*
X104802382Y58427621D01*
X103802382Y58760954D02*
X104326192Y58427621D01*
X103802382Y58094287D01*
X95252380Y61189524D02*
X94252380Y61189524D01*
X94252380Y60808572D01*
X94300000Y60713334D01*
X94347619Y60665715D01*
X94442857Y60618096D01*
X94585714Y60618096D01*
X94680952Y60665715D01*
X94728571Y60713334D01*
X94776190Y60808572D01*
X94776190Y61189524D01*
X94252380Y59999048D02*
X94252380Y59808572D01*
X94300000Y59713334D01*
X94395238Y59618096D01*
X94585714Y59570477D01*
X94919047Y59570477D01*
X95109523Y59618096D01*
X95204761Y59713334D01*
X95252380Y59808572D01*
X95252380Y59999048D01*
X95204761Y60094286D01*
X95109523Y60189524D01*
X94919047Y60237143D01*
X94585714Y60237143D01*
X94395238Y60189524D01*
X94300000Y60094286D01*
X94252380Y59999048D01*
X94300000Y58618096D02*
X94252380Y58713334D01*
X94252380Y58856191D01*
X94300000Y58999048D01*
X94395238Y59094286D01*
X94490476Y59141905D01*
X94680952Y59189524D01*
X94823809Y59189524D01*
X95014285Y59141905D01*
X95109523Y59094286D01*
X95204761Y58999048D01*
X95252380Y58856191D01*
X95252380Y58760953D01*
X95204761Y58618096D01*
X95157142Y58570477D01*
X94823809Y58570477D01*
X94823809Y58760953D01*
X94252380Y57951429D02*
X94252380Y57760953D01*
X94300000Y57665715D01*
X94395238Y57570477D01*
X94585714Y57522858D01*
X94919047Y57522858D01*
X95109523Y57570477D01*
X95204761Y57665715D01*
X95252380Y57760953D01*
X95252380Y57951429D01*
X95204761Y58046667D01*
X95109523Y58141905D01*
X94919047Y58189524D01*
X94585714Y58189524D01*
X94395238Y58141905D01*
X94300000Y58046667D01*
X94252380Y57951429D01*
X94197619Y109477142D02*
X95197619Y109477142D01*
X94197619Y110048571D02*
X94769047Y109620000D01*
X95197619Y110048571D02*
X94626190Y109477142D01*
X94721428Y110477142D02*
X94721428Y110810476D01*
X94197619Y110953333D02*
X94197619Y110477142D01*
X95197619Y110477142D01*
X95197619Y110953333D01*
X94673809Y111572380D02*
X94197619Y111572380D01*
X95197619Y111239047D02*
X94673809Y111572380D01*
X95197619Y111905714D01*
X94948571Y97485714D02*
X94948571Y98295238D01*
X94905714Y98390476D01*
X94862857Y98438095D01*
X94777142Y98485714D01*
X94648571Y98485714D01*
X94562857Y98438095D01*
X94948571Y98104761D02*
X94862857Y98152380D01*
X94691428Y98152380D01*
X94605714Y98104761D01*
X94562857Y98057142D01*
X94520000Y97961904D01*
X94520000Y97676190D01*
X94562857Y97580952D01*
X94605714Y97533333D01*
X94691428Y97485714D01*
X94862857Y97485714D01*
X94948571Y97533333D01*
X95505714Y98152380D02*
X95420000Y98104761D01*
X95377142Y98057142D01*
X95334285Y97961904D01*
X95334285Y97676190D01*
X95377142Y97580952D01*
X95420000Y97533333D01*
X95505714Y97485714D01*
X95634285Y97485714D01*
X95720000Y97533333D01*
X95762857Y97580952D01*
X95805714Y97676190D01*
X95805714Y97961904D01*
X95762857Y98057142D01*
X95720000Y98104761D01*
X95634285Y98152380D01*
X95505714Y98152380D01*
X96320000Y98152380D02*
X96234285Y98104761D01*
X96191428Y98057142D01*
X96148571Y97961904D01*
X96148571Y97676190D01*
X96191428Y97580952D01*
X96234285Y97533333D01*
X96320000Y97485714D01*
X96448571Y97485714D01*
X96534285Y97533333D01*
X96577142Y97580952D01*
X96620000Y97676190D01*
X96620000Y97961904D01*
X96577142Y98057142D01*
X96534285Y98104761D01*
X96448571Y98152380D01*
X96320000Y98152380D01*
X97005714Y98057142D02*
X97048571Y98104761D01*
X97005714Y98152380D01*
X96962857Y98104761D01*
X97005714Y98057142D01*
X97005714Y98152380D01*
X97820000Y97485714D02*
X97820000Y98295238D01*
X97777142Y98390476D01*
X97734285Y98438095D01*
X97648571Y98485714D01*
X97520000Y98485714D01*
X97434285Y98438095D01*
X97820000Y98104761D02*
X97734285Y98152380D01*
X97562857Y98152380D01*
X97477142Y98104761D01*
X97434285Y98057142D01*
X97391428Y97961904D01*
X97391428Y97676190D01*
X97434285Y97580952D01*
X97477142Y97533333D01*
X97562857Y97485714D01*
X97734285Y97485714D01*
X97820000Y97533333D01*
X98377142Y98152380D02*
X98291428Y98104761D01*
X98248571Y98009523D01*
X98248571Y97152380D01*
X99362857Y97104761D02*
X98591428Y98390476D01*
X99662857Y98152380D02*
X99662857Y97485714D01*
X99662857Y97676190D02*
X99705714Y97580952D01*
X99748571Y97533333D01*
X99834285Y97485714D01*
X99920000Y97485714D01*
X100134285Y97485714D02*
X100305714Y98152380D01*
X100477142Y97676190D01*
X100648571Y98152380D01*
X100820000Y97485714D01*
X101077142Y98152380D02*
X101548571Y97485714D01*
X101077142Y97485714D02*
X101548571Y98152380D01*
X102277142Y97485714D02*
X102277142Y98152380D01*
X101891428Y97485714D02*
X101891428Y98009523D01*
X101934285Y98104761D01*
X102020000Y98152380D01*
X102148571Y98152380D01*
X102234285Y98104761D01*
X102277142Y98057142D01*
X103220000Y98152380D02*
X102920000Y97676190D01*
X102705714Y98152380D02*
X102705714Y97152380D01*
X103048571Y97152380D01*
X103134285Y97200000D01*
X103177142Y97247619D01*
X103220000Y97342857D01*
X103220000Y97485714D01*
X103177142Y97580952D01*
X103134285Y97628571D01*
X103048571Y97676190D01*
X102705714Y97676190D01*
X103905714Y97628571D02*
X104034285Y97676190D01*
X104077142Y97723809D01*
X104120000Y97819047D01*
X104120000Y97961904D01*
X104077142Y98057142D01*
X104034285Y98104761D01*
X103948571Y98152380D01*
X103605714Y98152380D01*
X103605714Y97152380D01*
X103905714Y97152380D01*
X103991428Y97200000D01*
X104034285Y97247619D01*
X104077142Y97342857D01*
X104077142Y97438095D01*
X104034285Y97533333D01*
X103991428Y97580952D01*
X103905714Y97628571D01*
X103605714Y97628571D01*
X103747619Y108810476D02*
X104747619Y108810476D01*
X104747619Y109191428D01*
X104700000Y109286666D01*
X104652380Y109334285D01*
X104557142Y109381904D01*
X104414285Y109381904D01*
X104319047Y109334285D01*
X104271428Y109286666D01*
X104223809Y109191428D01*
X104223809Y108810476D01*
X104747619Y110000952D02*
X104747619Y110191428D01*
X104700000Y110286666D01*
X104604761Y110381904D01*
X104414285Y110429523D01*
X104080952Y110429523D01*
X103890476Y110381904D01*
X103795238Y110286666D01*
X103747619Y110191428D01*
X103747619Y110000952D01*
X103795238Y109905714D01*
X103890476Y109810476D01*
X104080952Y109762857D01*
X104414285Y109762857D01*
X104604761Y109810476D01*
X104700000Y109905714D01*
X104747619Y110000952D01*
X104700000Y111381904D02*
X104747619Y111286666D01*
X104747619Y111143809D01*
X104700000Y111000952D01*
X104604761Y110905714D01*
X104509523Y110858095D01*
X104319047Y110810476D01*
X104176190Y110810476D01*
X103985714Y110858095D01*
X103890476Y110905714D01*
X103795238Y111000952D01*
X103747619Y111143809D01*
X103747619Y111239047D01*
X103795238Y111381904D01*
X103842857Y111429523D01*
X104176190Y111429523D01*
X104176190Y111239047D01*
X104747619Y112048571D02*
X104747619Y112239047D01*
X104700000Y112334285D01*
X104604761Y112429523D01*
X104414285Y112477142D01*
X104080952Y112477142D01*
X103890476Y112429523D01*
X103795238Y112334285D01*
X103747619Y112239047D01*
X103747619Y112048571D01*
X103795238Y111953333D01*
X103890476Y111858095D01*
X104080952Y111810476D01*
X104414285Y111810476D01*
X104604761Y111858095D01*
X104700000Y111953333D01*
X104747619Y112048571D01*
X104051428Y114514285D02*
X104051428Y113704761D01*
X104094285Y113609523D01*
X104137142Y113561904D01*
X104222857Y113514285D01*
X104351428Y113514285D01*
X104437142Y113561904D01*
X104051428Y113895238D02*
X104137142Y113847619D01*
X104308571Y113847619D01*
X104394285Y113895238D01*
X104437142Y113942857D01*
X104480000Y114038095D01*
X104480000Y114323809D01*
X104437142Y114419047D01*
X104394285Y114466666D01*
X104308571Y114514285D01*
X104137142Y114514285D01*
X104051428Y114466666D01*
X103494285Y113847619D02*
X103580000Y113895238D01*
X103622857Y113942857D01*
X103665714Y114038095D01*
X103665714Y114323809D01*
X103622857Y114419047D01*
X103580000Y114466666D01*
X103494285Y114514285D01*
X103365714Y114514285D01*
X103280000Y114466666D01*
X103237142Y114419047D01*
X103194285Y114323809D01*
X103194285Y114038095D01*
X103237142Y113942857D01*
X103280000Y113895238D01*
X103365714Y113847619D01*
X103494285Y113847619D01*
X102680000Y113847619D02*
X102765714Y113895238D01*
X102808571Y113942857D01*
X102851428Y114038095D01*
X102851428Y114323809D01*
X102808571Y114419047D01*
X102765714Y114466666D01*
X102680000Y114514285D01*
X102551428Y114514285D01*
X102465714Y114466666D01*
X102422857Y114419047D01*
X102380000Y114323809D01*
X102380000Y114038095D01*
X102422857Y113942857D01*
X102465714Y113895238D01*
X102551428Y113847619D01*
X102680000Y113847619D01*
X101994285Y113942857D02*
X101951428Y113895238D01*
X101994285Y113847619D01*
X102037142Y113895238D01*
X101994285Y113942857D01*
X101994285Y113847619D01*
X101180000Y114514285D02*
X101180000Y113704761D01*
X101222857Y113609523D01*
X101265714Y113561904D01*
X101351428Y113514285D01*
X101480000Y113514285D01*
X101565714Y113561904D01*
X101180000Y113895238D02*
X101265714Y113847619D01*
X101437142Y113847619D01*
X101522857Y113895238D01*
X101565714Y113942857D01*
X101608571Y114038095D01*
X101608571Y114323809D01*
X101565714Y114419047D01*
X101522857Y114466666D01*
X101437142Y114514285D01*
X101265714Y114514285D01*
X101180000Y114466666D01*
X100622857Y113847619D02*
X100708571Y113895238D01*
X100751428Y113990476D01*
X100751428Y114847619D01*
X99637142Y114895238D02*
X100408571Y113609523D01*
X99337142Y113847619D02*
X99337142Y114514285D01*
X99337142Y114323809D02*
X99294285Y114419047D01*
X99251428Y114466666D01*
X99165714Y114514285D01*
X99080000Y114514285D01*
X98865714Y114514285D02*
X98694285Y113847619D01*
X98522857Y114323809D01*
X98351428Y113847619D01*
X98180000Y114514285D01*
X97922857Y113847619D02*
X97451428Y114514285D01*
X97922857Y114514285D02*
X97451428Y113847619D01*
X96722857Y114514285D02*
X96722857Y113847619D01*
X97108571Y114514285D02*
X97108571Y113990476D01*
X97065714Y113895238D01*
X96980000Y113847619D01*
X96851428Y113847619D01*
X96765714Y113895238D01*
X96722857Y113942857D01*
X95780000Y113847619D02*
X96080000Y114323809D01*
X96294285Y113847619D02*
X96294285Y114847619D01*
X95951428Y114847619D01*
X95865714Y114800000D01*
X95822857Y114752380D01*
X95780000Y114657142D01*
X95780000Y114514285D01*
X95822857Y114419047D01*
X95865714Y114371428D01*
X95951428Y114323809D01*
X96294285Y114323809D01*
X95094285Y114371428D02*
X94965714Y114323809D01*
X94922857Y114276190D01*
X94880000Y114180952D01*
X94880000Y114038095D01*
X94922857Y113942857D01*
X94965714Y113895238D01*
X95051428Y113847619D01*
X95394285Y113847619D01*
X95394285Y114847619D01*
X95094285Y114847619D01*
X95008571Y114800000D01*
X94965714Y114752380D01*
X94922857Y114657142D01*
X94922857Y114561904D01*
X94965714Y114466666D01*
X95008571Y114419047D01*
X95094285Y114371428D01*
X95394285Y114371428D01*
X104802382Y102522859D02*
X103802382Y102522859D01*
X104802382Y101951430D02*
X104230954Y102380002D01*
X103802382Y101951430D02*
X104373811Y102522859D01*
X104278573Y101522859D02*
X104278573Y101189525D01*
X104802382Y101046668D02*
X104802382Y101522859D01*
X103802382Y101522859D01*
X103802382Y101046668D01*
X104326192Y100427621D02*
X104802382Y100427621D01*
X103802382Y100760954D02*
X104326192Y100427621D01*
X103802382Y100094287D01*
X95252380Y103189524D02*
X94252380Y103189524D01*
X94252380Y102808572D01*
X94300000Y102713334D01*
X94347619Y102665715D01*
X94442857Y102618096D01*
X94585714Y102618096D01*
X94680952Y102665715D01*
X94728571Y102713334D01*
X94776190Y102808572D01*
X94776190Y103189524D01*
X94252380Y101999048D02*
X94252380Y101808572D01*
X94300000Y101713334D01*
X94395238Y101618096D01*
X94585714Y101570477D01*
X94919047Y101570477D01*
X95109523Y101618096D01*
X95204761Y101713334D01*
X95252380Y101808572D01*
X95252380Y101999048D01*
X95204761Y102094286D01*
X95109523Y102189524D01*
X94919047Y102237143D01*
X94585714Y102237143D01*
X94395238Y102189524D01*
X94300000Y102094286D01*
X94252380Y101999048D01*
X94300000Y100618096D02*
X94252380Y100713334D01*
X94252380Y100856191D01*
X94300000Y100999048D01*
X94395238Y101094286D01*
X94490476Y101141905D01*
X94680952Y101189524D01*
X94823809Y101189524D01*
X95014285Y101141905D01*
X95109523Y101094286D01*
X95204761Y100999048D01*
X95252380Y100856191D01*
X95252380Y100760953D01*
X95204761Y100618096D01*
X95157142Y100570477D01*
X94823809Y100570477D01*
X94823809Y100760953D01*
X94252380Y99951429D02*
X94252380Y99760953D01*
X94300000Y99665715D01*
X94395238Y99570477D01*
X94585714Y99522858D01*
X94919047Y99522858D01*
X95109523Y99570477D01*
X95204761Y99665715D01*
X95252380Y99760953D01*
X95252380Y99951429D01*
X95204761Y100046667D01*
X95109523Y100141905D01*
X94919047Y100189524D01*
X94585714Y100189524D01*
X94395238Y100141905D01*
X94300000Y100046667D01*
X94252380Y99951429D01*
X38197619Y67477142D02*
X39197619Y67477142D01*
X38197619Y68048571D02*
X38769047Y67620000D01*
X39197619Y68048571D02*
X38626190Y67477142D01*
X38721428Y68477142D02*
X38721428Y68810476D01*
X38197619Y68953333D02*
X38197619Y68477142D01*
X39197619Y68477142D01*
X39197619Y68953333D01*
X38673809Y69572380D02*
X38197619Y69572380D01*
X39197619Y69239047D02*
X38673809Y69572380D01*
X39197619Y69905714D01*
X47747619Y66810476D02*
X48747619Y66810476D01*
X48747619Y67191428D01*
X48700000Y67286666D01*
X48652380Y67334285D01*
X48557142Y67381904D01*
X48414285Y67381904D01*
X48319047Y67334285D01*
X48271428Y67286666D01*
X48223809Y67191428D01*
X48223809Y66810476D01*
X48747619Y68000952D02*
X48747619Y68191428D01*
X48700000Y68286666D01*
X48604761Y68381904D01*
X48414285Y68429523D01*
X48080952Y68429523D01*
X47890476Y68381904D01*
X47795238Y68286666D01*
X47747619Y68191428D01*
X47747619Y68000952D01*
X47795238Y67905714D01*
X47890476Y67810476D01*
X48080952Y67762857D01*
X48414285Y67762857D01*
X48604761Y67810476D01*
X48700000Y67905714D01*
X48747619Y68000952D01*
X48700000Y69381904D02*
X48747619Y69286666D01*
X48747619Y69143809D01*
X48700000Y69000952D01*
X48604761Y68905714D01*
X48509523Y68858095D01*
X48319047Y68810476D01*
X48176190Y68810476D01*
X47985714Y68858095D01*
X47890476Y68905714D01*
X47795238Y69000952D01*
X47747619Y69143809D01*
X47747619Y69239047D01*
X47795238Y69381904D01*
X47842857Y69429523D01*
X48176190Y69429523D01*
X48176190Y69239047D01*
X48747619Y70048571D02*
X48747619Y70239047D01*
X48700000Y70334285D01*
X48604761Y70429523D01*
X48414285Y70477142D01*
X48080952Y70477142D01*
X47890476Y70429523D01*
X47795238Y70334285D01*
X47747619Y70239047D01*
X47747619Y70048571D01*
X47795238Y69953333D01*
X47890476Y69858095D01*
X48080952Y69810476D01*
X48414285Y69810476D01*
X48604761Y69858095D01*
X48700000Y69953333D01*
X48747619Y70048571D01*
X39252380Y61189524D02*
X38252380Y61189524D01*
X38252380Y60808572D01*
X38300000Y60713334D01*
X38347619Y60665715D01*
X38442857Y60618096D01*
X38585714Y60618096D01*
X38680952Y60665715D01*
X38728571Y60713334D01*
X38776190Y60808572D01*
X38776190Y61189524D01*
X38252380Y59999048D02*
X38252380Y59808572D01*
X38300000Y59713334D01*
X38395238Y59618096D01*
X38585714Y59570477D01*
X38919047Y59570477D01*
X39109523Y59618096D01*
X39204761Y59713334D01*
X39252380Y59808572D01*
X39252380Y59999048D01*
X39204761Y60094286D01*
X39109523Y60189524D01*
X38919047Y60237143D01*
X38585714Y60237143D01*
X38395238Y60189524D01*
X38300000Y60094286D01*
X38252380Y59999048D01*
X38300000Y58618096D02*
X38252380Y58713334D01*
X38252380Y58856191D01*
X38300000Y58999048D01*
X38395238Y59094286D01*
X38490476Y59141905D01*
X38680952Y59189524D01*
X38823809Y59189524D01*
X39014285Y59141905D01*
X39109523Y59094286D01*
X39204761Y58999048D01*
X39252380Y58856191D01*
X39252380Y58760953D01*
X39204761Y58618096D01*
X39157142Y58570477D01*
X38823809Y58570477D01*
X38823809Y58760953D01*
X38252380Y57951429D02*
X38252380Y57760953D01*
X38300000Y57665715D01*
X38395238Y57570477D01*
X38585714Y57522858D01*
X38919047Y57522858D01*
X39109523Y57570477D01*
X39204761Y57665715D01*
X39252380Y57760953D01*
X39252380Y57951429D01*
X39204761Y58046667D01*
X39109523Y58141905D01*
X38919047Y58189524D01*
X38585714Y58189524D01*
X38395238Y58141905D01*
X38300000Y58046667D01*
X38252380Y57951429D01*
X38948571Y55485714D02*
X38948571Y56295238D01*
X38905714Y56390476D01*
X38862857Y56438095D01*
X38777142Y56485714D01*
X38648571Y56485714D01*
X38562857Y56438095D01*
X38948571Y56104761D02*
X38862857Y56152380D01*
X38691428Y56152380D01*
X38605714Y56104761D01*
X38562857Y56057142D01*
X38520000Y55961904D01*
X38520000Y55676190D01*
X38562857Y55580952D01*
X38605714Y55533333D01*
X38691428Y55485714D01*
X38862857Y55485714D01*
X38948571Y55533333D01*
X39505714Y56152380D02*
X39420000Y56104761D01*
X39377142Y56057142D01*
X39334285Y55961904D01*
X39334285Y55676190D01*
X39377142Y55580952D01*
X39420000Y55533333D01*
X39505714Y55485714D01*
X39634285Y55485714D01*
X39720000Y55533333D01*
X39762857Y55580952D01*
X39805714Y55676190D01*
X39805714Y55961904D01*
X39762857Y56057142D01*
X39720000Y56104761D01*
X39634285Y56152380D01*
X39505714Y56152380D01*
X40320000Y56152380D02*
X40234285Y56104761D01*
X40191428Y56057142D01*
X40148571Y55961904D01*
X40148571Y55676190D01*
X40191428Y55580952D01*
X40234285Y55533333D01*
X40320000Y55485714D01*
X40448571Y55485714D01*
X40534285Y55533333D01*
X40577142Y55580952D01*
X40620000Y55676190D01*
X40620000Y55961904D01*
X40577142Y56057142D01*
X40534285Y56104761D01*
X40448571Y56152380D01*
X40320000Y56152380D01*
X41005714Y56057142D02*
X41048571Y56104761D01*
X41005714Y56152380D01*
X40962857Y56104761D01*
X41005714Y56057142D01*
X41005714Y56152380D01*
X41820000Y55485714D02*
X41820000Y56295238D01*
X41777142Y56390476D01*
X41734285Y56438095D01*
X41648571Y56485714D01*
X41520000Y56485714D01*
X41434285Y56438095D01*
X41820000Y56104761D02*
X41734285Y56152380D01*
X41562857Y56152380D01*
X41477142Y56104761D01*
X41434285Y56057142D01*
X41391428Y55961904D01*
X41391428Y55676190D01*
X41434285Y55580952D01*
X41477142Y55533333D01*
X41562857Y55485714D01*
X41734285Y55485714D01*
X41820000Y55533333D01*
X42377142Y56152380D02*
X42291428Y56104761D01*
X42248571Y56009523D01*
X42248571Y55152380D01*
X43362857Y55104761D02*
X42591428Y56390476D01*
X43662857Y56152380D02*
X43662857Y55485714D01*
X43662857Y55676190D02*
X43705714Y55580952D01*
X43748571Y55533333D01*
X43834285Y55485714D01*
X43920000Y55485714D01*
X44134285Y55485714D02*
X44305714Y56152380D01*
X44477142Y55676190D01*
X44648571Y56152380D01*
X44820000Y55485714D01*
X45077142Y56152380D02*
X45548571Y55485714D01*
X45077142Y55485714D02*
X45548571Y56152380D01*
X46277142Y55485714D02*
X46277142Y56152380D01*
X45891428Y55485714D02*
X45891428Y56009523D01*
X45934285Y56104761D01*
X46020000Y56152380D01*
X46148571Y56152380D01*
X46234285Y56104761D01*
X46277142Y56057142D01*
X47220000Y56152380D02*
X46920000Y55676190D01*
X46705714Y56152380D02*
X46705714Y55152380D01*
X47048571Y55152380D01*
X47134285Y55200000D01*
X47177142Y55247619D01*
X47220000Y55342857D01*
X47220000Y55485714D01*
X47177142Y55580952D01*
X47134285Y55628571D01*
X47048571Y55676190D01*
X46705714Y55676190D01*
X47905714Y55628571D02*
X48034285Y55676190D01*
X48077142Y55723809D01*
X48120000Y55819047D01*
X48120000Y55961904D01*
X48077142Y56057142D01*
X48034285Y56104761D01*
X47948571Y56152380D01*
X47605714Y56152380D01*
X47605714Y55152380D01*
X47905714Y55152380D01*
X47991428Y55200000D01*
X48034285Y55247619D01*
X48077142Y55342857D01*
X48077142Y55438095D01*
X48034285Y55533333D01*
X47991428Y55580952D01*
X47905714Y55628571D01*
X47605714Y55628571D01*
X48802382Y60522859D02*
X47802382Y60522859D01*
X48802382Y59951430D02*
X48230954Y60380002D01*
X47802382Y59951430D02*
X48373811Y60522859D01*
X48278573Y59522859D02*
X48278573Y59189525D01*
X48802382Y59046668D02*
X48802382Y59522859D01*
X47802382Y59522859D01*
X47802382Y59046668D01*
X48326192Y58427621D02*
X48802382Y58427621D01*
X47802382Y58760954D02*
X48326192Y58427621D01*
X47802382Y58094287D01*
X48051428Y72514285D02*
X48051428Y71704761D01*
X48094285Y71609523D01*
X48137142Y71561904D01*
X48222857Y71514285D01*
X48351428Y71514285D01*
X48437142Y71561904D01*
X48051428Y71895238D02*
X48137142Y71847619D01*
X48308571Y71847619D01*
X48394285Y71895238D01*
X48437142Y71942857D01*
X48480000Y72038095D01*
X48480000Y72323809D01*
X48437142Y72419047D01*
X48394285Y72466666D01*
X48308571Y72514285D01*
X48137142Y72514285D01*
X48051428Y72466666D01*
X47494285Y71847619D02*
X47580000Y71895238D01*
X47622857Y71942857D01*
X47665714Y72038095D01*
X47665714Y72323809D01*
X47622857Y72419047D01*
X47580000Y72466666D01*
X47494285Y72514285D01*
X47365714Y72514285D01*
X47280000Y72466666D01*
X47237142Y72419047D01*
X47194285Y72323809D01*
X47194285Y72038095D01*
X47237142Y71942857D01*
X47280000Y71895238D01*
X47365714Y71847619D01*
X47494285Y71847619D01*
X46680000Y71847619D02*
X46765714Y71895238D01*
X46808571Y71942857D01*
X46851428Y72038095D01*
X46851428Y72323809D01*
X46808571Y72419047D01*
X46765714Y72466666D01*
X46680000Y72514285D01*
X46551428Y72514285D01*
X46465714Y72466666D01*
X46422857Y72419047D01*
X46380000Y72323809D01*
X46380000Y72038095D01*
X46422857Y71942857D01*
X46465714Y71895238D01*
X46551428Y71847619D01*
X46680000Y71847619D01*
X45994285Y71942857D02*
X45951428Y71895238D01*
X45994285Y71847619D01*
X46037142Y71895238D01*
X45994285Y71942857D01*
X45994285Y71847619D01*
X45180000Y72514285D02*
X45180000Y71704761D01*
X45222857Y71609523D01*
X45265714Y71561904D01*
X45351428Y71514285D01*
X45480000Y71514285D01*
X45565714Y71561904D01*
X45180000Y71895238D02*
X45265714Y71847619D01*
X45437142Y71847619D01*
X45522857Y71895238D01*
X45565714Y71942857D01*
X45608571Y72038095D01*
X45608571Y72323809D01*
X45565714Y72419047D01*
X45522857Y72466666D01*
X45437142Y72514285D01*
X45265714Y72514285D01*
X45180000Y72466666D01*
X44622857Y71847619D02*
X44708571Y71895238D01*
X44751428Y71990476D01*
X44751428Y72847619D01*
X43637142Y72895238D02*
X44408571Y71609523D01*
X43337142Y71847619D02*
X43337142Y72514285D01*
X43337142Y72323809D02*
X43294285Y72419047D01*
X43251428Y72466666D01*
X43165714Y72514285D01*
X43080000Y72514285D01*
X42865714Y72514285D02*
X42694285Y71847619D01*
X42522857Y72323809D01*
X42351428Y71847619D01*
X42180000Y72514285D01*
X41922857Y71847619D02*
X41451428Y72514285D01*
X41922857Y72514285D02*
X41451428Y71847619D01*
X40722857Y72514285D02*
X40722857Y71847619D01*
X41108571Y72514285D02*
X41108571Y71990476D01*
X41065714Y71895238D01*
X40980000Y71847619D01*
X40851428Y71847619D01*
X40765714Y71895238D01*
X40722857Y71942857D01*
X39780000Y71847619D02*
X40080000Y72323809D01*
X40294285Y71847619D02*
X40294285Y72847619D01*
X39951428Y72847619D01*
X39865714Y72800000D01*
X39822857Y72752380D01*
X39780000Y72657142D01*
X39780000Y72514285D01*
X39822857Y72419047D01*
X39865714Y72371428D01*
X39951428Y72323809D01*
X40294285Y72323809D01*
X39094285Y72371428D02*
X38965714Y72323809D01*
X38922857Y72276190D01*
X38880000Y72180952D01*
X38880000Y72038095D01*
X38922857Y71942857D01*
X38965714Y71895238D01*
X39051428Y71847619D01*
X39394285Y71847619D01*
X39394285Y72847619D01*
X39094285Y72847619D01*
X39008571Y72800000D01*
X38965714Y72752380D01*
X38922857Y72657142D01*
X38922857Y72561904D01*
X38965714Y72466666D01*
X39008571Y72419047D01*
X39094285Y72371428D01*
X39394285Y72371428D01*
X39252380Y103189524D02*
X38252380Y103189524D01*
X38252380Y102808572D01*
X38300000Y102713334D01*
X38347619Y102665715D01*
X38442857Y102618096D01*
X38585714Y102618096D01*
X38680952Y102665715D01*
X38728571Y102713334D01*
X38776190Y102808572D01*
X38776190Y103189524D01*
X38252380Y101999048D02*
X38252380Y101808572D01*
X38300000Y101713334D01*
X38395238Y101618096D01*
X38585714Y101570477D01*
X38919047Y101570477D01*
X39109523Y101618096D01*
X39204761Y101713334D01*
X39252380Y101808572D01*
X39252380Y101999048D01*
X39204761Y102094286D01*
X39109523Y102189524D01*
X38919047Y102237143D01*
X38585714Y102237143D01*
X38395238Y102189524D01*
X38300000Y102094286D01*
X38252380Y101999048D01*
X38300000Y100618096D02*
X38252380Y100713334D01*
X38252380Y100856191D01*
X38300000Y100999048D01*
X38395238Y101094286D01*
X38490476Y101141905D01*
X38680952Y101189524D01*
X38823809Y101189524D01*
X39014285Y101141905D01*
X39109523Y101094286D01*
X39204761Y100999048D01*
X39252380Y100856191D01*
X39252380Y100760953D01*
X39204761Y100618096D01*
X39157142Y100570477D01*
X38823809Y100570477D01*
X38823809Y100760953D01*
X38252380Y99951429D02*
X38252380Y99760953D01*
X38300000Y99665715D01*
X38395238Y99570477D01*
X38585714Y99522858D01*
X38919047Y99522858D01*
X39109523Y99570477D01*
X39204761Y99665715D01*
X39252380Y99760953D01*
X39252380Y99951429D01*
X39204761Y100046667D01*
X39109523Y100141905D01*
X38919047Y100189524D01*
X38585714Y100189524D01*
X38395238Y100141905D01*
X38300000Y100046667D01*
X38252380Y99951429D01*
X38948571Y97485714D02*
X38948571Y98295238D01*
X38905714Y98390476D01*
X38862857Y98438095D01*
X38777142Y98485714D01*
X38648571Y98485714D01*
X38562857Y98438095D01*
X38948571Y98104761D02*
X38862857Y98152380D01*
X38691428Y98152380D01*
X38605714Y98104761D01*
X38562857Y98057142D01*
X38520000Y97961904D01*
X38520000Y97676190D01*
X38562857Y97580952D01*
X38605714Y97533333D01*
X38691428Y97485714D01*
X38862857Y97485714D01*
X38948571Y97533333D01*
X39505714Y98152380D02*
X39420000Y98104761D01*
X39377142Y98057142D01*
X39334285Y97961904D01*
X39334285Y97676190D01*
X39377142Y97580952D01*
X39420000Y97533333D01*
X39505714Y97485714D01*
X39634285Y97485714D01*
X39720000Y97533333D01*
X39762857Y97580952D01*
X39805714Y97676190D01*
X39805714Y97961904D01*
X39762857Y98057142D01*
X39720000Y98104761D01*
X39634285Y98152380D01*
X39505714Y98152380D01*
X40320000Y98152380D02*
X40234285Y98104761D01*
X40191428Y98057142D01*
X40148571Y97961904D01*
X40148571Y97676190D01*
X40191428Y97580952D01*
X40234285Y97533333D01*
X40320000Y97485714D01*
X40448571Y97485714D01*
X40534285Y97533333D01*
X40577142Y97580952D01*
X40620000Y97676190D01*
X40620000Y97961904D01*
X40577142Y98057142D01*
X40534285Y98104761D01*
X40448571Y98152380D01*
X40320000Y98152380D01*
X41005714Y98057142D02*
X41048571Y98104761D01*
X41005714Y98152380D01*
X40962857Y98104761D01*
X41005714Y98057142D01*
X41005714Y98152380D01*
X41820000Y97485714D02*
X41820000Y98295238D01*
X41777142Y98390476D01*
X41734285Y98438095D01*
X41648571Y98485714D01*
X41520000Y98485714D01*
X41434285Y98438095D01*
X41820000Y98104761D02*
X41734285Y98152380D01*
X41562857Y98152380D01*
X41477142Y98104761D01*
X41434285Y98057142D01*
X41391428Y97961904D01*
X41391428Y97676190D01*
X41434285Y97580952D01*
X41477142Y97533333D01*
X41562857Y97485714D01*
X41734285Y97485714D01*
X41820000Y97533333D01*
X42377142Y98152380D02*
X42291428Y98104761D01*
X42248571Y98009523D01*
X42248571Y97152380D01*
X43362857Y97104761D02*
X42591428Y98390476D01*
X43662857Y98152380D02*
X43662857Y97485714D01*
X43662857Y97676190D02*
X43705714Y97580952D01*
X43748571Y97533333D01*
X43834285Y97485714D01*
X43920000Y97485714D01*
X44134285Y97485714D02*
X44305714Y98152380D01*
X44477142Y97676190D01*
X44648571Y98152380D01*
X44820000Y97485714D01*
X45077142Y98152380D02*
X45548571Y97485714D01*
X45077142Y97485714D02*
X45548571Y98152380D01*
X46277142Y97485714D02*
X46277142Y98152380D01*
X45891428Y97485714D02*
X45891428Y98009523D01*
X45934285Y98104761D01*
X46020000Y98152380D01*
X46148571Y98152380D01*
X46234285Y98104761D01*
X46277142Y98057142D01*
X47220000Y98152380D02*
X46920000Y97676190D01*
X46705714Y98152380D02*
X46705714Y97152380D01*
X47048571Y97152380D01*
X47134285Y97200000D01*
X47177142Y97247619D01*
X47220000Y97342857D01*
X47220000Y97485714D01*
X47177142Y97580952D01*
X47134285Y97628571D01*
X47048571Y97676190D01*
X46705714Y97676190D01*
X47905714Y97628571D02*
X48034285Y97676190D01*
X48077142Y97723809D01*
X48120000Y97819047D01*
X48120000Y97961904D01*
X48077142Y98057142D01*
X48034285Y98104761D01*
X47948571Y98152380D01*
X47605714Y98152380D01*
X47605714Y97152380D01*
X47905714Y97152380D01*
X47991428Y97200000D01*
X48034285Y97247619D01*
X48077142Y97342857D01*
X48077142Y97438095D01*
X48034285Y97533333D01*
X47991428Y97580952D01*
X47905714Y97628571D01*
X47605714Y97628571D01*
X48051428Y114514285D02*
X48051428Y113704761D01*
X48094285Y113609523D01*
X48137142Y113561904D01*
X48222857Y113514285D01*
X48351428Y113514285D01*
X48437142Y113561904D01*
X48051428Y113895238D02*
X48137142Y113847619D01*
X48308571Y113847619D01*
X48394285Y113895238D01*
X48437142Y113942857D01*
X48480000Y114038095D01*
X48480000Y114323809D01*
X48437142Y114419047D01*
X48394285Y114466666D01*
X48308571Y114514285D01*
X48137142Y114514285D01*
X48051428Y114466666D01*
X47494285Y113847619D02*
X47580000Y113895238D01*
X47622857Y113942857D01*
X47665714Y114038095D01*
X47665714Y114323809D01*
X47622857Y114419047D01*
X47580000Y114466666D01*
X47494285Y114514285D01*
X47365714Y114514285D01*
X47280000Y114466666D01*
X47237142Y114419047D01*
X47194285Y114323809D01*
X47194285Y114038095D01*
X47237142Y113942857D01*
X47280000Y113895238D01*
X47365714Y113847619D01*
X47494285Y113847619D01*
X46680000Y113847619D02*
X46765714Y113895238D01*
X46808571Y113942857D01*
X46851428Y114038095D01*
X46851428Y114323809D01*
X46808571Y114419047D01*
X46765714Y114466666D01*
X46680000Y114514285D01*
X46551428Y114514285D01*
X46465714Y114466666D01*
X46422857Y114419047D01*
X46380000Y114323809D01*
X46380000Y114038095D01*
X46422857Y113942857D01*
X46465714Y113895238D01*
X46551428Y113847619D01*
X46680000Y113847619D01*
X45994285Y113942857D02*
X45951428Y113895238D01*
X45994285Y113847619D01*
X46037142Y113895238D01*
X45994285Y113942857D01*
X45994285Y113847619D01*
X45180000Y114514285D02*
X45180000Y113704761D01*
X45222857Y113609523D01*
X45265714Y113561904D01*
X45351428Y113514285D01*
X45480000Y113514285D01*
X45565714Y113561904D01*
X45180000Y113895238D02*
X45265714Y113847619D01*
X45437142Y113847619D01*
X45522857Y113895238D01*
X45565714Y113942857D01*
X45608571Y114038095D01*
X45608571Y114323809D01*
X45565714Y114419047D01*
X45522857Y114466666D01*
X45437142Y114514285D01*
X45265714Y114514285D01*
X45180000Y114466666D01*
X44622857Y113847619D02*
X44708571Y113895238D01*
X44751428Y113990476D01*
X44751428Y114847619D01*
X43637142Y114895238D02*
X44408571Y113609523D01*
X43337142Y113847619D02*
X43337142Y114514285D01*
X43337142Y114323809D02*
X43294285Y114419047D01*
X43251428Y114466666D01*
X43165714Y114514285D01*
X43080000Y114514285D01*
X42865714Y114514285D02*
X42694285Y113847619D01*
X42522857Y114323809D01*
X42351428Y113847619D01*
X42180000Y114514285D01*
X41922857Y113847619D02*
X41451428Y114514285D01*
X41922857Y114514285D02*
X41451428Y113847619D01*
X40722857Y114514285D02*
X40722857Y113847619D01*
X41108571Y114514285D02*
X41108571Y113990476D01*
X41065714Y113895238D01*
X40980000Y113847619D01*
X40851428Y113847619D01*
X40765714Y113895238D01*
X40722857Y113942857D01*
X39780000Y113847619D02*
X40080000Y114323809D01*
X40294285Y113847619D02*
X40294285Y114847619D01*
X39951428Y114847619D01*
X39865714Y114800000D01*
X39822857Y114752380D01*
X39780000Y114657142D01*
X39780000Y114514285D01*
X39822857Y114419047D01*
X39865714Y114371428D01*
X39951428Y114323809D01*
X40294285Y114323809D01*
X39094285Y114371428D02*
X38965714Y114323809D01*
X38922857Y114276190D01*
X38880000Y114180952D01*
X38880000Y114038095D01*
X38922857Y113942857D01*
X38965714Y113895238D01*
X39051428Y113847619D01*
X39394285Y113847619D01*
X39394285Y114847619D01*
X39094285Y114847619D01*
X39008571Y114800000D01*
X38965714Y114752380D01*
X38922857Y114657142D01*
X38922857Y114561904D01*
X38965714Y114466666D01*
X39008571Y114419047D01*
X39094285Y114371428D01*
X39394285Y114371428D01*
X47747619Y108810476D02*
X48747619Y108810476D01*
X48747619Y109191428D01*
X48700000Y109286666D01*
X48652380Y109334285D01*
X48557142Y109381904D01*
X48414285Y109381904D01*
X48319047Y109334285D01*
X48271428Y109286666D01*
X48223809Y109191428D01*
X48223809Y108810476D01*
X48747619Y110000952D02*
X48747619Y110191428D01*
X48700000Y110286666D01*
X48604761Y110381904D01*
X48414285Y110429523D01*
X48080952Y110429523D01*
X47890476Y110381904D01*
X47795238Y110286666D01*
X47747619Y110191428D01*
X47747619Y110000952D01*
X47795238Y109905714D01*
X47890476Y109810476D01*
X48080952Y109762857D01*
X48414285Y109762857D01*
X48604761Y109810476D01*
X48700000Y109905714D01*
X48747619Y110000952D01*
X48700000Y111381904D02*
X48747619Y111286666D01*
X48747619Y111143809D01*
X48700000Y111000952D01*
X48604761Y110905714D01*
X48509523Y110858095D01*
X48319047Y110810476D01*
X48176190Y110810476D01*
X47985714Y110858095D01*
X47890476Y110905714D01*
X47795238Y111000952D01*
X47747619Y111143809D01*
X47747619Y111239047D01*
X47795238Y111381904D01*
X47842857Y111429523D01*
X48176190Y111429523D01*
X48176190Y111239047D01*
X48747619Y112048571D02*
X48747619Y112239047D01*
X48700000Y112334285D01*
X48604761Y112429523D01*
X48414285Y112477142D01*
X48080952Y112477142D01*
X47890476Y112429523D01*
X47795238Y112334285D01*
X47747619Y112239047D01*
X47747619Y112048571D01*
X47795238Y111953333D01*
X47890476Y111858095D01*
X48080952Y111810476D01*
X48414285Y111810476D01*
X48604761Y111858095D01*
X48700000Y111953333D01*
X48747619Y112048571D01*
X38197619Y109477142D02*
X39197619Y109477142D01*
X38197619Y110048571D02*
X38769047Y109620000D01*
X39197619Y110048571D02*
X38626190Y109477142D01*
X38721428Y110477142D02*
X38721428Y110810476D01*
X38197619Y110953333D02*
X38197619Y110477142D01*
X39197619Y110477142D01*
X39197619Y110953333D01*
X38673809Y111572380D02*
X38197619Y111572380D01*
X39197619Y111239047D02*
X38673809Y111572380D01*
X39197619Y111905714D01*
X48802382Y102522859D02*
X47802382Y102522859D01*
X48802382Y101951430D02*
X48230954Y102380002D01*
X47802382Y101951430D02*
X48373811Y102522859D01*
X48278573Y101522859D02*
X48278573Y101189525D01*
X48802382Y101046668D02*
X48802382Y101522859D01*
X47802382Y101522859D01*
X47802382Y101046668D01*
X48326192Y100427621D02*
X48802382Y100427621D01*
X47802382Y100760954D02*
X48326192Y100427621D01*
X47802382Y100094287D01*
X25252380Y61189524D02*
X24252380Y61189524D01*
X24252380Y60808572D01*
X24300000Y60713334D01*
X24347619Y60665715D01*
X24442857Y60618096D01*
X24585714Y60618096D01*
X24680952Y60665715D01*
X24728571Y60713334D01*
X24776190Y60808572D01*
X24776190Y61189524D01*
X24252380Y59999048D02*
X24252380Y59808572D01*
X24300000Y59713334D01*
X24395238Y59618096D01*
X24585714Y59570477D01*
X24919047Y59570477D01*
X25109523Y59618096D01*
X25204761Y59713334D01*
X25252380Y59808572D01*
X25252380Y59999048D01*
X25204761Y60094286D01*
X25109523Y60189524D01*
X24919047Y60237143D01*
X24585714Y60237143D01*
X24395238Y60189524D01*
X24300000Y60094286D01*
X24252380Y59999048D01*
X24300000Y58618096D02*
X24252380Y58713334D01*
X24252380Y58856191D01*
X24300000Y58999048D01*
X24395238Y59094286D01*
X24490476Y59141905D01*
X24680952Y59189524D01*
X24823809Y59189524D01*
X25014285Y59141905D01*
X25109523Y59094286D01*
X25204761Y58999048D01*
X25252380Y58856191D01*
X25252380Y58760953D01*
X25204761Y58618096D01*
X25157142Y58570477D01*
X24823809Y58570477D01*
X24823809Y58760953D01*
X24252380Y57951429D02*
X24252380Y57760953D01*
X24300000Y57665715D01*
X24395238Y57570477D01*
X24585714Y57522858D01*
X24919047Y57522858D01*
X25109523Y57570477D01*
X25204761Y57665715D01*
X25252380Y57760953D01*
X25252380Y57951429D01*
X25204761Y58046667D01*
X25109523Y58141905D01*
X24919047Y58189524D01*
X24585714Y58189524D01*
X24395238Y58141905D01*
X24300000Y58046667D01*
X24252380Y57951429D01*
X33747619Y66810476D02*
X34747619Y66810476D01*
X34747619Y67191428D01*
X34700000Y67286666D01*
X34652380Y67334285D01*
X34557142Y67381904D01*
X34414285Y67381904D01*
X34319047Y67334285D01*
X34271428Y67286666D01*
X34223809Y67191428D01*
X34223809Y66810476D01*
X34747619Y68000952D02*
X34747619Y68191428D01*
X34700000Y68286666D01*
X34604761Y68381904D01*
X34414285Y68429523D01*
X34080952Y68429523D01*
X33890476Y68381904D01*
X33795238Y68286666D01*
X33747619Y68191428D01*
X33747619Y68000952D01*
X33795238Y67905714D01*
X33890476Y67810476D01*
X34080952Y67762857D01*
X34414285Y67762857D01*
X34604761Y67810476D01*
X34700000Y67905714D01*
X34747619Y68000952D01*
X34700000Y69381904D02*
X34747619Y69286666D01*
X34747619Y69143809D01*
X34700000Y69000952D01*
X34604761Y68905714D01*
X34509523Y68858095D01*
X34319047Y68810476D01*
X34176190Y68810476D01*
X33985714Y68858095D01*
X33890476Y68905714D01*
X33795238Y69000952D01*
X33747619Y69143809D01*
X33747619Y69239047D01*
X33795238Y69381904D01*
X33842857Y69429523D01*
X34176190Y69429523D01*
X34176190Y69239047D01*
X34747619Y70048571D02*
X34747619Y70239047D01*
X34700000Y70334285D01*
X34604761Y70429523D01*
X34414285Y70477142D01*
X34080952Y70477142D01*
X33890476Y70429523D01*
X33795238Y70334285D01*
X33747619Y70239047D01*
X33747619Y70048571D01*
X33795238Y69953333D01*
X33890476Y69858095D01*
X34080952Y69810476D01*
X34414285Y69810476D01*
X34604761Y69858095D01*
X34700000Y69953333D01*
X34747619Y70048571D01*
X34051428Y72514285D02*
X34051428Y71704761D01*
X34094285Y71609523D01*
X34137142Y71561904D01*
X34222857Y71514285D01*
X34351428Y71514285D01*
X34437142Y71561904D01*
X34051428Y71895238D02*
X34137142Y71847619D01*
X34308571Y71847619D01*
X34394285Y71895238D01*
X34437142Y71942857D01*
X34480000Y72038095D01*
X34480000Y72323809D01*
X34437142Y72419047D01*
X34394285Y72466666D01*
X34308571Y72514285D01*
X34137142Y72514285D01*
X34051428Y72466666D01*
X33494285Y71847619D02*
X33580000Y71895238D01*
X33622857Y71942857D01*
X33665714Y72038095D01*
X33665714Y72323809D01*
X33622857Y72419047D01*
X33580000Y72466666D01*
X33494285Y72514285D01*
X33365714Y72514285D01*
X33280000Y72466666D01*
X33237142Y72419047D01*
X33194285Y72323809D01*
X33194285Y72038095D01*
X33237142Y71942857D01*
X33280000Y71895238D01*
X33365714Y71847619D01*
X33494285Y71847619D01*
X32680000Y71847619D02*
X32765714Y71895238D01*
X32808571Y71942857D01*
X32851428Y72038095D01*
X32851428Y72323809D01*
X32808571Y72419047D01*
X32765714Y72466666D01*
X32680000Y72514285D01*
X32551428Y72514285D01*
X32465714Y72466666D01*
X32422857Y72419047D01*
X32380000Y72323809D01*
X32380000Y72038095D01*
X32422857Y71942857D01*
X32465714Y71895238D01*
X32551428Y71847619D01*
X32680000Y71847619D01*
X31994285Y71942857D02*
X31951428Y71895238D01*
X31994285Y71847619D01*
X32037142Y71895238D01*
X31994285Y71942857D01*
X31994285Y71847619D01*
X31180000Y72514285D02*
X31180000Y71704761D01*
X31222857Y71609523D01*
X31265714Y71561904D01*
X31351428Y71514285D01*
X31480000Y71514285D01*
X31565714Y71561904D01*
X31180000Y71895238D02*
X31265714Y71847619D01*
X31437142Y71847619D01*
X31522857Y71895238D01*
X31565714Y71942857D01*
X31608571Y72038095D01*
X31608571Y72323809D01*
X31565714Y72419047D01*
X31522857Y72466666D01*
X31437142Y72514285D01*
X31265714Y72514285D01*
X31180000Y72466666D01*
X30622857Y71847619D02*
X30708571Y71895238D01*
X30751428Y71990476D01*
X30751428Y72847619D01*
X29637142Y72895238D02*
X30408571Y71609523D01*
X29337142Y71847619D02*
X29337142Y72514285D01*
X29337142Y72323809D02*
X29294285Y72419047D01*
X29251428Y72466666D01*
X29165714Y72514285D01*
X29080000Y72514285D01*
X28865714Y72514285D02*
X28694285Y71847619D01*
X28522857Y72323809D01*
X28351428Y71847619D01*
X28180000Y72514285D01*
X27922857Y71847619D02*
X27451428Y72514285D01*
X27922857Y72514285D02*
X27451428Y71847619D01*
X26722857Y72514285D02*
X26722857Y71847619D01*
X27108571Y72514285D02*
X27108571Y71990476D01*
X27065714Y71895238D01*
X26980000Y71847619D01*
X26851428Y71847619D01*
X26765714Y71895238D01*
X26722857Y71942857D01*
X25780000Y71847619D02*
X26080000Y72323809D01*
X26294285Y71847619D02*
X26294285Y72847619D01*
X25951428Y72847619D01*
X25865714Y72800000D01*
X25822857Y72752380D01*
X25780000Y72657142D01*
X25780000Y72514285D01*
X25822857Y72419047D01*
X25865714Y72371428D01*
X25951428Y72323809D01*
X26294285Y72323809D01*
X25094285Y72371428D02*
X24965714Y72323809D01*
X24922857Y72276190D01*
X24880000Y72180952D01*
X24880000Y72038095D01*
X24922857Y71942857D01*
X24965714Y71895238D01*
X25051428Y71847619D01*
X25394285Y71847619D01*
X25394285Y72847619D01*
X25094285Y72847619D01*
X25008571Y72800000D01*
X24965714Y72752380D01*
X24922857Y72657142D01*
X24922857Y72561904D01*
X24965714Y72466666D01*
X25008571Y72419047D01*
X25094285Y72371428D01*
X25394285Y72371428D01*
X34802382Y60522859D02*
X33802382Y60522859D01*
X34802382Y59951430D02*
X34230954Y60380002D01*
X33802382Y59951430D02*
X34373811Y60522859D01*
X34278573Y59522859D02*
X34278573Y59189525D01*
X34802382Y59046668D02*
X34802382Y59522859D01*
X33802382Y59522859D01*
X33802382Y59046668D01*
X34326192Y58427621D02*
X34802382Y58427621D01*
X33802382Y58760954D02*
X34326192Y58427621D01*
X33802382Y58094287D01*
X24948571Y55485714D02*
X24948571Y56295238D01*
X24905714Y56390476D01*
X24862857Y56438095D01*
X24777142Y56485714D01*
X24648571Y56485714D01*
X24562857Y56438095D01*
X24948571Y56104761D02*
X24862857Y56152380D01*
X24691428Y56152380D01*
X24605714Y56104761D01*
X24562857Y56057142D01*
X24520000Y55961904D01*
X24520000Y55676190D01*
X24562857Y55580952D01*
X24605714Y55533333D01*
X24691428Y55485714D01*
X24862857Y55485714D01*
X24948571Y55533333D01*
X25505714Y56152380D02*
X25420000Y56104761D01*
X25377142Y56057142D01*
X25334285Y55961904D01*
X25334285Y55676190D01*
X25377142Y55580952D01*
X25420000Y55533333D01*
X25505714Y55485714D01*
X25634285Y55485714D01*
X25720000Y55533333D01*
X25762857Y55580952D01*
X25805714Y55676190D01*
X25805714Y55961904D01*
X25762857Y56057142D01*
X25720000Y56104761D01*
X25634285Y56152380D01*
X25505714Y56152380D01*
X26320000Y56152380D02*
X26234285Y56104761D01*
X26191428Y56057142D01*
X26148571Y55961904D01*
X26148571Y55676190D01*
X26191428Y55580952D01*
X26234285Y55533333D01*
X26320000Y55485714D01*
X26448571Y55485714D01*
X26534285Y55533333D01*
X26577142Y55580952D01*
X26620000Y55676190D01*
X26620000Y55961904D01*
X26577142Y56057142D01*
X26534285Y56104761D01*
X26448571Y56152380D01*
X26320000Y56152380D01*
X27005714Y56057142D02*
X27048571Y56104761D01*
X27005714Y56152380D01*
X26962857Y56104761D01*
X27005714Y56057142D01*
X27005714Y56152380D01*
X27820000Y55485714D02*
X27820000Y56295238D01*
X27777142Y56390476D01*
X27734285Y56438095D01*
X27648571Y56485714D01*
X27520000Y56485714D01*
X27434285Y56438095D01*
X27820000Y56104761D02*
X27734285Y56152380D01*
X27562857Y56152380D01*
X27477142Y56104761D01*
X27434285Y56057142D01*
X27391428Y55961904D01*
X27391428Y55676190D01*
X27434285Y55580952D01*
X27477142Y55533333D01*
X27562857Y55485714D01*
X27734285Y55485714D01*
X27820000Y55533333D01*
X28377142Y56152380D02*
X28291428Y56104761D01*
X28248571Y56009523D01*
X28248571Y55152380D01*
X29362857Y55104761D02*
X28591428Y56390476D01*
X29662857Y56152380D02*
X29662857Y55485714D01*
X29662857Y55676190D02*
X29705714Y55580952D01*
X29748571Y55533333D01*
X29834285Y55485714D01*
X29920000Y55485714D01*
X30134285Y55485714D02*
X30305714Y56152380D01*
X30477142Y55676190D01*
X30648571Y56152380D01*
X30820000Y55485714D01*
X31077142Y56152380D02*
X31548571Y55485714D01*
X31077142Y55485714D02*
X31548571Y56152380D01*
X32277142Y55485714D02*
X32277142Y56152380D01*
X31891428Y55485714D02*
X31891428Y56009523D01*
X31934285Y56104761D01*
X32020000Y56152380D01*
X32148571Y56152380D01*
X32234285Y56104761D01*
X32277142Y56057142D01*
X33220000Y56152380D02*
X32920000Y55676190D01*
X32705714Y56152380D02*
X32705714Y55152380D01*
X33048571Y55152380D01*
X33134285Y55200000D01*
X33177142Y55247619D01*
X33220000Y55342857D01*
X33220000Y55485714D01*
X33177142Y55580952D01*
X33134285Y55628571D01*
X33048571Y55676190D01*
X32705714Y55676190D01*
X33905714Y55628571D02*
X34034285Y55676190D01*
X34077142Y55723809D01*
X34120000Y55819047D01*
X34120000Y55961904D01*
X34077142Y56057142D01*
X34034285Y56104761D01*
X33948571Y56152380D01*
X33605714Y56152380D01*
X33605714Y55152380D01*
X33905714Y55152380D01*
X33991428Y55200000D01*
X34034285Y55247619D01*
X34077142Y55342857D01*
X34077142Y55438095D01*
X34034285Y55533333D01*
X33991428Y55580952D01*
X33905714Y55628571D01*
X33605714Y55628571D01*
X24197619Y67477142D02*
X25197619Y67477142D01*
X24197619Y68048571D02*
X24769047Y67620000D01*
X25197619Y68048571D02*
X24626190Y67477142D01*
X24721428Y68477142D02*
X24721428Y68810476D01*
X24197619Y68953333D02*
X24197619Y68477142D01*
X25197619Y68477142D01*
X25197619Y68953333D01*
X24673809Y69572380D02*
X24197619Y69572380D01*
X25197619Y69239047D02*
X24673809Y69572380D01*
X25197619Y69905714D01*
X25252380Y103189524D02*
X24252380Y103189524D01*
X24252380Y102808572D01*
X24300000Y102713334D01*
X24347619Y102665715D01*
X24442857Y102618096D01*
X24585714Y102618096D01*
X24680952Y102665715D01*
X24728571Y102713334D01*
X24776190Y102808572D01*
X24776190Y103189524D01*
X24252380Y101999048D02*
X24252380Y101808572D01*
X24300000Y101713334D01*
X24395238Y101618096D01*
X24585714Y101570477D01*
X24919047Y101570477D01*
X25109523Y101618096D01*
X25204761Y101713334D01*
X25252380Y101808572D01*
X25252380Y101999048D01*
X25204761Y102094286D01*
X25109523Y102189524D01*
X24919047Y102237143D01*
X24585714Y102237143D01*
X24395238Y102189524D01*
X24300000Y102094286D01*
X24252380Y101999048D01*
X24300000Y100618096D02*
X24252380Y100713334D01*
X24252380Y100856191D01*
X24300000Y100999048D01*
X24395238Y101094286D01*
X24490476Y101141905D01*
X24680952Y101189524D01*
X24823809Y101189524D01*
X25014285Y101141905D01*
X25109523Y101094286D01*
X25204761Y100999048D01*
X25252380Y100856191D01*
X25252380Y100760953D01*
X25204761Y100618096D01*
X25157142Y100570477D01*
X24823809Y100570477D01*
X24823809Y100760953D01*
X24252380Y99951429D02*
X24252380Y99760953D01*
X24300000Y99665715D01*
X24395238Y99570477D01*
X24585714Y99522858D01*
X24919047Y99522858D01*
X25109523Y99570477D01*
X25204761Y99665715D01*
X25252380Y99760953D01*
X25252380Y99951429D01*
X25204761Y100046667D01*
X25109523Y100141905D01*
X24919047Y100189524D01*
X24585714Y100189524D01*
X24395238Y100141905D01*
X24300000Y100046667D01*
X24252380Y99951429D01*
X24197619Y109477142D02*
X25197619Y109477142D01*
X24197619Y110048571D02*
X24769047Y109620000D01*
X25197619Y110048571D02*
X24626190Y109477142D01*
X24721428Y110477142D02*
X24721428Y110810476D01*
X24197619Y110953333D02*
X24197619Y110477142D01*
X25197619Y110477142D01*
X25197619Y110953333D01*
X24673809Y111572380D02*
X24197619Y111572380D01*
X25197619Y111239047D02*
X24673809Y111572380D01*
X25197619Y111905714D01*
X33747619Y108810476D02*
X34747619Y108810476D01*
X34747619Y109191428D01*
X34700000Y109286666D01*
X34652380Y109334285D01*
X34557142Y109381904D01*
X34414285Y109381904D01*
X34319047Y109334285D01*
X34271428Y109286666D01*
X34223809Y109191428D01*
X34223809Y108810476D01*
X34747619Y110000952D02*
X34747619Y110191428D01*
X34700000Y110286666D01*
X34604761Y110381904D01*
X34414285Y110429523D01*
X34080952Y110429523D01*
X33890476Y110381904D01*
X33795238Y110286666D01*
X33747619Y110191428D01*
X33747619Y110000952D01*
X33795238Y109905714D01*
X33890476Y109810476D01*
X34080952Y109762857D01*
X34414285Y109762857D01*
X34604761Y109810476D01*
X34700000Y109905714D01*
X34747619Y110000952D01*
X34700000Y111381904D02*
X34747619Y111286666D01*
X34747619Y111143809D01*
X34700000Y111000952D01*
X34604761Y110905714D01*
X34509523Y110858095D01*
X34319047Y110810476D01*
X34176190Y110810476D01*
X33985714Y110858095D01*
X33890476Y110905714D01*
X33795238Y111000952D01*
X33747619Y111143809D01*
X33747619Y111239047D01*
X33795238Y111381904D01*
X33842857Y111429523D01*
X34176190Y111429523D01*
X34176190Y111239047D01*
X34747619Y112048571D02*
X34747619Y112239047D01*
X34700000Y112334285D01*
X34604761Y112429523D01*
X34414285Y112477142D01*
X34080952Y112477142D01*
X33890476Y112429523D01*
X33795238Y112334285D01*
X33747619Y112239047D01*
X33747619Y112048571D01*
X33795238Y111953333D01*
X33890476Y111858095D01*
X34080952Y111810476D01*
X34414285Y111810476D01*
X34604761Y111858095D01*
X34700000Y111953333D01*
X34747619Y112048571D01*
X24948571Y97485714D02*
X24948571Y98295238D01*
X24905714Y98390476D01*
X24862857Y98438095D01*
X24777142Y98485714D01*
X24648571Y98485714D01*
X24562857Y98438095D01*
X24948571Y98104761D02*
X24862857Y98152380D01*
X24691428Y98152380D01*
X24605714Y98104761D01*
X24562857Y98057142D01*
X24520000Y97961904D01*
X24520000Y97676190D01*
X24562857Y97580952D01*
X24605714Y97533333D01*
X24691428Y97485714D01*
X24862857Y97485714D01*
X24948571Y97533333D01*
X25505714Y98152380D02*
X25420000Y98104761D01*
X25377142Y98057142D01*
X25334285Y97961904D01*
X25334285Y97676190D01*
X25377142Y97580952D01*
X25420000Y97533333D01*
X25505714Y97485714D01*
X25634285Y97485714D01*
X25720000Y97533333D01*
X25762857Y97580952D01*
X25805714Y97676190D01*
X25805714Y97961904D01*
X25762857Y98057142D01*
X25720000Y98104761D01*
X25634285Y98152380D01*
X25505714Y98152380D01*
X26320000Y98152380D02*
X26234285Y98104761D01*
X26191428Y98057142D01*
X26148571Y97961904D01*
X26148571Y97676190D01*
X26191428Y97580952D01*
X26234285Y97533333D01*
X26320000Y97485714D01*
X26448571Y97485714D01*
X26534285Y97533333D01*
X26577142Y97580952D01*
X26620000Y97676190D01*
X26620000Y97961904D01*
X26577142Y98057142D01*
X26534285Y98104761D01*
X26448571Y98152380D01*
X26320000Y98152380D01*
X27005714Y98057142D02*
X27048571Y98104761D01*
X27005714Y98152380D01*
X26962857Y98104761D01*
X27005714Y98057142D01*
X27005714Y98152380D01*
X27820000Y97485714D02*
X27820000Y98295238D01*
X27777142Y98390476D01*
X27734285Y98438095D01*
X27648571Y98485714D01*
X27520000Y98485714D01*
X27434285Y98438095D01*
X27820000Y98104761D02*
X27734285Y98152380D01*
X27562857Y98152380D01*
X27477142Y98104761D01*
X27434285Y98057142D01*
X27391428Y97961904D01*
X27391428Y97676190D01*
X27434285Y97580952D01*
X27477142Y97533333D01*
X27562857Y97485714D01*
X27734285Y97485714D01*
X27820000Y97533333D01*
X28377142Y98152380D02*
X28291428Y98104761D01*
X28248571Y98009523D01*
X28248571Y97152380D01*
X29362857Y97104761D02*
X28591428Y98390476D01*
X29662857Y98152380D02*
X29662857Y97485714D01*
X29662857Y97676190D02*
X29705714Y97580952D01*
X29748571Y97533333D01*
X29834285Y97485714D01*
X29920000Y97485714D01*
X30134285Y97485714D02*
X30305714Y98152380D01*
X30477142Y97676190D01*
X30648571Y98152380D01*
X30820000Y97485714D01*
X31077142Y98152380D02*
X31548571Y97485714D01*
X31077142Y97485714D02*
X31548571Y98152380D01*
X32277142Y97485714D02*
X32277142Y98152380D01*
X31891428Y97485714D02*
X31891428Y98009523D01*
X31934285Y98104761D01*
X32020000Y98152380D01*
X32148571Y98152380D01*
X32234285Y98104761D01*
X32277142Y98057142D01*
X33220000Y98152380D02*
X32920000Y97676190D01*
X32705714Y98152380D02*
X32705714Y97152380D01*
X33048571Y97152380D01*
X33134285Y97200000D01*
X33177142Y97247619D01*
X33220000Y97342857D01*
X33220000Y97485714D01*
X33177142Y97580952D01*
X33134285Y97628571D01*
X33048571Y97676190D01*
X32705714Y97676190D01*
X33905714Y97628571D02*
X34034285Y97676190D01*
X34077142Y97723809D01*
X34120000Y97819047D01*
X34120000Y97961904D01*
X34077142Y98057142D01*
X34034285Y98104761D01*
X33948571Y98152380D01*
X33605714Y98152380D01*
X33605714Y97152380D01*
X33905714Y97152380D01*
X33991428Y97200000D01*
X34034285Y97247619D01*
X34077142Y97342857D01*
X34077142Y97438095D01*
X34034285Y97533333D01*
X33991428Y97580952D01*
X33905714Y97628571D01*
X33605714Y97628571D01*
X34802382Y102522859D02*
X33802382Y102522859D01*
X34802382Y101951430D02*
X34230954Y102380002D01*
X33802382Y101951430D02*
X34373811Y102522859D01*
X34278573Y101522859D02*
X34278573Y101189525D01*
X34802382Y101046668D02*
X34802382Y101522859D01*
X33802382Y101522859D01*
X33802382Y101046668D01*
X34326192Y100427621D02*
X34802382Y100427621D01*
X33802382Y100760954D02*
X34326192Y100427621D01*
X33802382Y100094287D01*
X34051428Y114514285D02*
X34051428Y113704761D01*
X34094285Y113609523D01*
X34137142Y113561904D01*
X34222857Y113514285D01*
X34351428Y113514285D01*
X34437142Y113561904D01*
X34051428Y113895238D02*
X34137142Y113847619D01*
X34308571Y113847619D01*
X34394285Y113895238D01*
X34437142Y113942857D01*
X34480000Y114038095D01*
X34480000Y114323809D01*
X34437142Y114419047D01*
X34394285Y114466666D01*
X34308571Y114514285D01*
X34137142Y114514285D01*
X34051428Y114466666D01*
X33494285Y113847619D02*
X33580000Y113895238D01*
X33622857Y113942857D01*
X33665714Y114038095D01*
X33665714Y114323809D01*
X33622857Y114419047D01*
X33580000Y114466666D01*
X33494285Y114514285D01*
X33365714Y114514285D01*
X33280000Y114466666D01*
X33237142Y114419047D01*
X33194285Y114323809D01*
X33194285Y114038095D01*
X33237142Y113942857D01*
X33280000Y113895238D01*
X33365714Y113847619D01*
X33494285Y113847619D01*
X32680000Y113847619D02*
X32765714Y113895238D01*
X32808571Y113942857D01*
X32851428Y114038095D01*
X32851428Y114323809D01*
X32808571Y114419047D01*
X32765714Y114466666D01*
X32680000Y114514285D01*
X32551428Y114514285D01*
X32465714Y114466666D01*
X32422857Y114419047D01*
X32380000Y114323809D01*
X32380000Y114038095D01*
X32422857Y113942857D01*
X32465714Y113895238D01*
X32551428Y113847619D01*
X32680000Y113847619D01*
X31994285Y113942857D02*
X31951428Y113895238D01*
X31994285Y113847619D01*
X32037142Y113895238D01*
X31994285Y113942857D01*
X31994285Y113847619D01*
X31180000Y114514285D02*
X31180000Y113704761D01*
X31222857Y113609523D01*
X31265714Y113561904D01*
X31351428Y113514285D01*
X31480000Y113514285D01*
X31565714Y113561904D01*
X31180000Y113895238D02*
X31265714Y113847619D01*
X31437142Y113847619D01*
X31522857Y113895238D01*
X31565714Y113942857D01*
X31608571Y114038095D01*
X31608571Y114323809D01*
X31565714Y114419047D01*
X31522857Y114466666D01*
X31437142Y114514285D01*
X31265714Y114514285D01*
X31180000Y114466666D01*
X30622857Y113847619D02*
X30708571Y113895238D01*
X30751428Y113990476D01*
X30751428Y114847619D01*
X29637142Y114895238D02*
X30408571Y113609523D01*
X29337142Y113847619D02*
X29337142Y114514285D01*
X29337142Y114323809D02*
X29294285Y114419047D01*
X29251428Y114466666D01*
X29165714Y114514285D01*
X29080000Y114514285D01*
X28865714Y114514285D02*
X28694285Y113847619D01*
X28522857Y114323809D01*
X28351428Y113847619D01*
X28180000Y114514285D01*
X27922857Y113847619D02*
X27451428Y114514285D01*
X27922857Y114514285D02*
X27451428Y113847619D01*
X26722857Y114514285D02*
X26722857Y113847619D01*
X27108571Y114514285D02*
X27108571Y113990476D01*
X27065714Y113895238D01*
X26980000Y113847619D01*
X26851428Y113847619D01*
X26765714Y113895238D01*
X26722857Y113942857D01*
X25780000Y113847619D02*
X26080000Y114323809D01*
X26294285Y113847619D02*
X26294285Y114847619D01*
X25951428Y114847619D01*
X25865714Y114800000D01*
X25822857Y114752380D01*
X25780000Y114657142D01*
X25780000Y114514285D01*
X25822857Y114419047D01*
X25865714Y114371428D01*
X25951428Y114323809D01*
X26294285Y114323809D01*
X25094285Y114371428D02*
X24965714Y114323809D01*
X24922857Y114276190D01*
X24880000Y114180952D01*
X24880000Y114038095D01*
X24922857Y113942857D01*
X24965714Y113895238D01*
X25051428Y113847619D01*
X25394285Y113847619D01*
X25394285Y114847619D01*
X25094285Y114847619D01*
X25008571Y114800000D01*
X24965714Y114752380D01*
X24922857Y114657142D01*
X24922857Y114561904D01*
X24965714Y114466666D01*
X25008571Y114419047D01*
X25094285Y114371428D01*
X25394285Y114371428D01*
%LPC*%
D12*
X54960001Y100230002D03*
D13*
X54960001Y102770002D03*
X57500001Y100230002D03*
X57500001Y102770002D03*
X60040001Y100230002D03*
X60040001Y102770002D03*
D14*
X56230001Y95995800D03*
X57500001Y95995800D03*
X58770001Y95995800D03*
X56230001Y53995800D03*
X57500001Y53995800D03*
X58770001Y53995800D03*
D12*
X54960001Y58230002D03*
D13*
X54960001Y60770002D03*
X57500001Y58230002D03*
X57500001Y60770002D03*
X60040001Y58230002D03*
X60040001Y60770002D03*
D12*
X60040000Y111770000D03*
D13*
X60040000Y109230000D03*
X57500000Y111770000D03*
X57500000Y109230000D03*
X54960000Y111770000D03*
X54960000Y109230000D03*
D14*
X58770000Y116004200D03*
X57500000Y116004200D03*
X56230000Y116004200D03*
X58770000Y74004200D03*
X57500000Y74004200D03*
X56230000Y74004200D03*
D12*
X60040000Y69770000D03*
D13*
X60040000Y67230000D03*
X57500000Y69770000D03*
X57500000Y67230000D03*
X54960000Y69770000D03*
X54960000Y67230000D03*
D12*
X82960001Y58230002D03*
D13*
X82960001Y60770002D03*
X85500001Y58230002D03*
X85500001Y60770002D03*
X88040001Y58230002D03*
X88040001Y60770002D03*
D12*
X68960001Y58230002D03*
D13*
X68960001Y60770002D03*
X71500001Y58230002D03*
X71500001Y60770002D03*
X74040001Y58230002D03*
X74040001Y60770002D03*
D14*
X84230001Y53995800D03*
X85500001Y53995800D03*
X86770001Y53995800D03*
X70230001Y53995800D03*
X71500001Y53995800D03*
X72770001Y53995800D03*
D12*
X68960001Y100230002D03*
D13*
X68960001Y102770002D03*
X71500001Y100230002D03*
X71500001Y102770002D03*
X74040001Y100230002D03*
X74040001Y102770002D03*
D12*
X74040000Y111770000D03*
D13*
X74040000Y109230000D03*
X71500000Y111770000D03*
X71500000Y109230000D03*
X68960000Y111770000D03*
X68960000Y109230000D03*
D14*
X86770000Y116004200D03*
X85500000Y116004200D03*
X84230000Y116004200D03*
D12*
X88040000Y111770000D03*
D13*
X88040000Y109230000D03*
X85500000Y111770000D03*
X85500000Y109230000D03*
X82960000Y111770000D03*
X82960000Y109230000D03*
D14*
X72770000Y116004200D03*
X71500000Y116004200D03*
X70230000Y116004200D03*
D12*
X88040000Y69770000D03*
D13*
X88040000Y67230000D03*
X85500000Y69770000D03*
X85500000Y67230000D03*
X82960000Y69770000D03*
X82960000Y67230000D03*
D14*
X72770000Y74004200D03*
X71500000Y74004200D03*
X70230000Y74004200D03*
X86770000Y74004200D03*
X85500000Y74004200D03*
X84230000Y74004200D03*
D12*
X74040000Y69770000D03*
D13*
X74040000Y67230000D03*
X71500000Y69770000D03*
X71500000Y67230000D03*
X68960000Y69770000D03*
X68960000Y67230000D03*
D12*
X82960001Y100230002D03*
D13*
X82960001Y102770002D03*
X85500001Y100230002D03*
X85500001Y102770002D03*
X88040001Y100230002D03*
X88040001Y102770002D03*
D14*
X84230001Y95995800D03*
X85500001Y95995800D03*
X86770001Y95995800D03*
X70230001Y95995800D03*
X71500001Y95995800D03*
X72770001Y95995800D03*
D12*
X116040000Y69770000D03*
D13*
X116040000Y67230000D03*
X113500000Y69770000D03*
X113500000Y67230000D03*
X110960000Y69770000D03*
X110960000Y67230000D03*
D14*
X114770000Y74004200D03*
X113500000Y74004200D03*
X112230000Y74004200D03*
D12*
X102040000Y69770000D03*
D13*
X102040000Y67230000D03*
X99500000Y69770000D03*
X99500000Y67230000D03*
X96960000Y69770000D03*
X96960000Y67230000D03*
D12*
X110960001Y58230002D03*
D13*
X110960001Y60770002D03*
X113500001Y58230002D03*
X113500001Y60770002D03*
X116040001Y58230002D03*
X116040001Y60770002D03*
D12*
X96960001Y58230002D03*
D13*
X96960001Y60770002D03*
X99500001Y58230002D03*
X99500001Y60770002D03*
X102040001Y58230002D03*
X102040001Y60770002D03*
D14*
X112230001Y53995800D03*
X113500001Y53995800D03*
X114770001Y53995800D03*
X98230001Y53995800D03*
X99500001Y53995800D03*
X100770001Y53995800D03*
X100770000Y74004200D03*
X99500000Y74004200D03*
X98230000Y74004200D03*
X114770000Y116004200D03*
X113500000Y116004200D03*
X112230000Y116004200D03*
D12*
X116040000Y111770000D03*
D13*
X116040000Y109230000D03*
X113500000Y111770000D03*
X113500000Y109230000D03*
X110960000Y111770000D03*
X110960000Y109230000D03*
D12*
X102040000Y111770000D03*
D13*
X102040000Y109230000D03*
X99500000Y111770000D03*
X99500000Y109230000D03*
X96960000Y111770000D03*
X96960000Y109230000D03*
D14*
X100770000Y116004200D03*
X99500000Y116004200D03*
X98230000Y116004200D03*
D12*
X110960001Y100230002D03*
D13*
X110960001Y102770002D03*
X113500001Y100230002D03*
X113500001Y102770002D03*
X116040001Y100230002D03*
X116040001Y102770002D03*
D14*
X112230001Y95995800D03*
X113500001Y95995800D03*
X114770001Y95995800D03*
D12*
X96960001Y100230002D03*
D13*
X96960001Y102770002D03*
X99500001Y100230002D03*
X99500001Y102770002D03*
X102040001Y100230002D03*
X102040001Y102770002D03*
D14*
X98230001Y95995800D03*
X99500001Y95995800D03*
X100770001Y95995800D03*
D12*
X40960001Y58230002D03*
D13*
X40960001Y60770002D03*
X43500001Y58230002D03*
X43500001Y60770002D03*
X46040001Y58230002D03*
X46040001Y60770002D03*
D14*
X42230001Y53995800D03*
X43500001Y53995800D03*
X44770001Y53995800D03*
D12*
X46040000Y69770000D03*
D13*
X46040000Y67230000D03*
X43500000Y69770000D03*
X43500000Y67230000D03*
X40960000Y69770000D03*
X40960000Y67230000D03*
D14*
X42230001Y95995800D03*
X43500001Y95995800D03*
X44770001Y95995800D03*
X44770000Y74004200D03*
X43500000Y74004200D03*
X42230000Y74004200D03*
D12*
X40960001Y100230002D03*
D13*
X40960001Y102770002D03*
X43500001Y100230002D03*
X43500001Y102770002D03*
X46040001Y100230002D03*
X46040001Y102770002D03*
D12*
X46040000Y111770000D03*
D13*
X46040000Y109230000D03*
X43500000Y111770000D03*
X43500000Y109230000D03*
X40960000Y111770000D03*
X40960000Y109230000D03*
D14*
X44770000Y116004200D03*
X43500000Y116004200D03*
X42230000Y116004200D03*
D12*
X32040000Y69770000D03*
D13*
X32040000Y67230000D03*
X29500000Y69770000D03*
X29500000Y67230000D03*
X26960000Y69770000D03*
X26960000Y67230000D03*
D14*
X30770000Y74004200D03*
X29500000Y74004200D03*
X28230000Y74004200D03*
D12*
X26960001Y58230002D03*
D13*
X26960001Y60770002D03*
X29500001Y58230002D03*
X29500001Y60770002D03*
X32040001Y58230002D03*
X32040001Y60770002D03*
D14*
X28230001Y53995800D03*
X29500001Y53995800D03*
X30770001Y53995800D03*
X30770000Y116004200D03*
X29500000Y116004200D03*
X28230000Y116004200D03*
D12*
X32040000Y111770000D03*
D13*
X32040000Y109230000D03*
X29500000Y111770000D03*
X29500000Y109230000D03*
X26960000Y111770000D03*
X26960000Y109230000D03*
D12*
X26960001Y100230002D03*
D13*
X26960001Y102770002D03*
X29500001Y100230002D03*
X29500001Y102770002D03*
X32040001Y100230002D03*
X32040001Y102770002D03*
D14*
X28230001Y95995800D03*
X29500001Y95995800D03*
X30770001Y95995800D03*
D15*
G36*
X31200000Y86050000D02*
X30340000Y86050000D01*
X30339998Y96449999D01*
X31200001Y96450000D01*
X31200000Y86050000D01*
X31200000Y86050000D01*
G37*
X31200000Y86050000D02*
X30340000Y86050000D01*
X30339998Y96449999D01*
X31200001Y96450000D01*
X31200000Y86050000D01*
G36*
X28660001Y86049999D02*
X27799999Y86049999D01*
X27800001Y96449999D01*
X28659998Y96450001D01*
X28660001Y86049999D01*
X28660001Y86049999D01*
G37*
X28660001Y86049999D02*
X27799999Y86049999D01*
X27800001Y96449999D01*
X28659998Y96450001D01*
X28660001Y86049999D01*
G36*
X29930000Y96449998D02*
X29930001Y86050001D01*
X29069996Y86050001D01*
X29070001Y96450000D01*
X29930000Y96449998D01*
X29930000Y96449998D01*
G37*
X29930000Y96449998D02*
X29930001Y86050001D01*
X29069996Y86050001D01*
X29070001Y96450000D01*
X29930000Y96449998D01*
G36*
X28660000Y115550000D02*
X27800000Y115550000D01*
X27800000Y125950000D01*
X28660000Y125950000D01*
X28660000Y115550000D01*
X28660000Y115550000D01*
G37*
X28660000Y115550000D02*
X27800000Y115550000D01*
X27800000Y125950000D01*
X28660000Y125950000D01*
X28660000Y115550000D01*
G36*
X31200000Y115550000D02*
X30340000Y115550000D01*
X30340000Y125950000D01*
X31200000Y125950000D01*
X31200000Y115550000D01*
X31200000Y115550000D01*
G37*
X31200000Y115550000D02*
X30340000Y115550000D01*
X30340000Y125950000D01*
X31200000Y125950000D01*
X31200000Y115550000D01*
G36*
X29930000Y115550000D02*
X29070000Y115550000D01*
X29070000Y125950000D01*
X29930000Y125950000D01*
X29930000Y115550000D01*
X29930000Y115550000D01*
G37*
X29930000Y115550000D02*
X29070000Y115550000D01*
X29070000Y125950000D01*
X29930000Y125950000D01*
X29930000Y115550000D01*
G36*
X28660000Y73550000D02*
X27800000Y73550000D01*
X27800000Y83950000D01*
X28660000Y83950000D01*
X28660000Y73550000D01*
X28660000Y73550000D01*
G37*
X28660000Y73550000D02*
X27800000Y73550000D01*
X27800000Y83950000D01*
X28660000Y83950000D01*
X28660000Y73550000D01*
G36*
X31200000Y73550000D02*
X30340000Y73550000D01*
X30340000Y83950000D01*
X31200000Y83950000D01*
X31200000Y73550000D01*
X31200000Y73550000D01*
G37*
X31200000Y73550000D02*
X30340000Y73550000D01*
X30340000Y83950000D01*
X31200000Y83950000D01*
X31200000Y73550000D01*
G36*
X29930000Y73550000D02*
X29070000Y73550000D01*
X29070000Y83950000D01*
X29930000Y83950000D01*
X29930000Y73550000D01*
X29930000Y73550000D01*
G37*
X29930000Y73550000D02*
X29070000Y73550000D01*
X29070000Y83950000D01*
X29930000Y83950000D01*
X29930000Y73550000D01*
G36*
X31200000Y44050000D02*
X30340000Y44050000D01*
X30339998Y54449999D01*
X31200001Y54450000D01*
X31200000Y44050000D01*
X31200000Y44050000D01*
G37*
X31200000Y44050000D02*
X30340000Y44050000D01*
X30339998Y54449999D01*
X31200001Y54450000D01*
X31200000Y44050000D01*
G36*
X29930000Y54449998D02*
X29930001Y44050001D01*
X29069996Y44050001D01*
X29070001Y54450000D01*
X29930000Y54449998D01*
X29930000Y54449998D01*
G37*
X29930000Y54449998D02*
X29930001Y44050001D01*
X29069996Y44050001D01*
X29070001Y54450000D01*
X29930000Y54449998D01*
G36*
X28660001Y44049999D02*
X27799999Y44049999D01*
X27800001Y54449999D01*
X28659998Y54450001D01*
X28660001Y44049999D01*
X28660001Y44049999D01*
G37*
X28660001Y44049999D02*
X27799999Y44049999D01*
X27800001Y54449999D01*
X28659998Y54450001D01*
X28660001Y44049999D01*
G36*
X43930000Y73550000D02*
X43070000Y73550000D01*
X43070000Y83950000D01*
X43930000Y83950000D01*
X43930000Y73550000D01*
X43930000Y73550000D01*
G37*
X43930000Y73550000D02*
X43070000Y73550000D01*
X43070000Y83950000D01*
X43930000Y83950000D01*
X43930000Y73550000D01*
G36*
X42660000Y73550000D02*
X41800000Y73550000D01*
X41800000Y83950000D01*
X42660000Y83950000D01*
X42660000Y73550000D01*
X42660000Y73550000D01*
G37*
X42660000Y73550000D02*
X41800000Y73550000D01*
X41800000Y83950000D01*
X42660000Y83950000D01*
X42660000Y73550000D01*
G36*
X45200000Y73550000D02*
X44340000Y73550000D01*
X44340000Y83950000D01*
X45200000Y83950000D01*
X45200000Y73550000D01*
X45200000Y73550000D01*
G37*
X45200000Y73550000D02*
X44340000Y73550000D01*
X44340000Y83950000D01*
X45200000Y83950000D01*
X45200000Y73550000D01*
G36*
X45200000Y44050000D02*
X44340000Y44050000D01*
X44339998Y54449999D01*
X45200001Y54450000D01*
X45200000Y44050000D01*
X45200000Y44050000D01*
G37*
X45200000Y44050000D02*
X44340000Y44050000D01*
X44339998Y54449999D01*
X45200001Y54450000D01*
X45200000Y44050000D01*
G36*
X42660001Y44049999D02*
X41799999Y44049999D01*
X41800001Y54449999D01*
X42659998Y54450001D01*
X42660001Y44049999D01*
X42660001Y44049999D01*
G37*
X42660001Y44049999D02*
X41799999Y44049999D01*
X41800001Y54449999D01*
X42659998Y54450001D01*
X42660001Y44049999D01*
G36*
X43930000Y54449998D02*
X43930001Y44050001D01*
X43069996Y44050001D01*
X43070001Y54450000D01*
X43930000Y54449998D01*
X43930000Y54449998D01*
G37*
X43930000Y54449998D02*
X43930001Y44050001D01*
X43069996Y44050001D01*
X43070001Y54450000D01*
X43930000Y54449998D01*
G36*
X42660001Y86049999D02*
X41799999Y86049999D01*
X41800001Y96449999D01*
X42659998Y96450001D01*
X42660001Y86049999D01*
X42660001Y86049999D01*
G37*
X42660001Y86049999D02*
X41799999Y86049999D01*
X41800001Y96449999D01*
X42659998Y96450001D01*
X42660001Y86049999D01*
G36*
X45200000Y86050000D02*
X44340000Y86050000D01*
X44339998Y96449999D01*
X45200001Y96450000D01*
X45200000Y86050000D01*
X45200000Y86050000D01*
G37*
X45200000Y86050000D02*
X44340000Y86050000D01*
X44339998Y96449999D01*
X45200001Y96450000D01*
X45200000Y86050000D01*
G36*
X43930000Y96449998D02*
X43930001Y86050001D01*
X43069996Y86050001D01*
X43070001Y96450000D01*
X43930000Y96449998D01*
X43930000Y96449998D01*
G37*
X43930000Y96449998D02*
X43930001Y86050001D01*
X43069996Y86050001D01*
X43070001Y96450000D01*
X43930000Y96449998D01*
G36*
X43930000Y115550000D02*
X43070000Y115550000D01*
X43070000Y125950000D01*
X43930000Y125950000D01*
X43930000Y115550000D01*
X43930000Y115550000D01*
G37*
X43930000Y115550000D02*
X43070000Y115550000D01*
X43070000Y125950000D01*
X43930000Y125950000D01*
X43930000Y115550000D01*
G36*
X42660000Y115550000D02*
X41800000Y115550000D01*
X41800000Y125950000D01*
X42660000Y125950000D01*
X42660000Y115550000D01*
X42660000Y115550000D01*
G37*
X42660000Y115550000D02*
X41800000Y115550000D01*
X41800000Y125950000D01*
X42660000Y125950000D01*
X42660000Y115550000D01*
G36*
X45200000Y115550000D02*
X44340000Y115550000D01*
X44340000Y125950000D01*
X45200000Y125950000D01*
X45200000Y115550000D01*
X45200000Y115550000D01*
G37*
X45200000Y115550000D02*
X44340000Y115550000D01*
X44340000Y125950000D01*
X45200000Y125950000D01*
X45200000Y115550000D01*
G36*
X99930000Y96449998D02*
X99930001Y86050001D01*
X99069996Y86050001D01*
X99070001Y96450000D01*
X99930000Y96449998D01*
X99930000Y96449998D01*
G37*
X99930000Y96449998D02*
X99930001Y86050001D01*
X99069996Y86050001D01*
X99070001Y96450000D01*
X99930000Y96449998D01*
G36*
X98660001Y86049999D02*
X97799999Y86049999D01*
X97800001Y96449999D01*
X98659998Y96450001D01*
X98660001Y86049999D01*
X98660001Y86049999D01*
G37*
X98660001Y86049999D02*
X97799999Y86049999D01*
X97800001Y96449999D01*
X98659998Y96450001D01*
X98660001Y86049999D01*
G36*
X99930000Y73550000D02*
X99070000Y73550000D01*
X99070000Y83950000D01*
X99930000Y83950000D01*
X99930000Y73550000D01*
X99930000Y73550000D01*
G37*
X99930000Y73550000D02*
X99070000Y73550000D01*
X99070000Y83950000D01*
X99930000Y83950000D01*
X99930000Y73550000D01*
G36*
X98660000Y73550000D02*
X97800000Y73550000D01*
X97800000Y83950000D01*
X98660000Y83950000D01*
X98660000Y73550000D01*
X98660000Y73550000D01*
G37*
X98660000Y73550000D02*
X97800000Y73550000D01*
X97800000Y83950000D01*
X98660000Y83950000D01*
X98660000Y73550000D01*
G36*
X101200000Y73550000D02*
X100340000Y73550000D01*
X100340000Y83950000D01*
X101200000Y83950000D01*
X101200000Y73550000D01*
X101200000Y73550000D01*
G37*
X101200000Y73550000D02*
X100340000Y73550000D01*
X100340000Y83950000D01*
X101200000Y83950000D01*
X101200000Y73550000D01*
G36*
X115200000Y73550000D02*
X114340000Y73550000D01*
X114340000Y83950000D01*
X115200000Y83950000D01*
X115200000Y73550000D01*
X115200000Y73550000D01*
G37*
X115200000Y73550000D02*
X114340000Y73550000D01*
X114340000Y83950000D01*
X115200000Y83950000D01*
X115200000Y73550000D01*
G36*
X113930000Y73550000D02*
X113070000Y73550000D01*
X113070000Y83950000D01*
X113930000Y83950000D01*
X113930000Y73550000D01*
X113930000Y73550000D01*
G37*
X113930000Y73550000D02*
X113070000Y73550000D01*
X113070000Y83950000D01*
X113930000Y83950000D01*
X113930000Y73550000D01*
G36*
X112660000Y73550000D02*
X111800000Y73550000D01*
X111800000Y83950000D01*
X112660000Y83950000D01*
X112660000Y73550000D01*
X112660000Y73550000D01*
G37*
X112660000Y73550000D02*
X111800000Y73550000D01*
X111800000Y83950000D01*
X112660000Y83950000D01*
X112660000Y73550000D01*
G36*
X101200000Y86050000D02*
X100340000Y86050000D01*
X100339998Y96449999D01*
X101200001Y96450000D01*
X101200000Y86050000D01*
X101200000Y86050000D01*
G37*
X101200000Y86050000D02*
X100340000Y86050000D01*
X100339998Y96449999D01*
X101200001Y96450000D01*
X101200000Y86050000D01*
G36*
X112660001Y86049999D02*
X111799999Y86049999D01*
X111800001Y96449999D01*
X112659998Y96450001D01*
X112660001Y86049999D01*
X112660001Y86049999D01*
G37*
X112660001Y86049999D02*
X111799999Y86049999D01*
X111800001Y96449999D01*
X112659998Y96450001D01*
X112660001Y86049999D01*
G36*
X113930000Y96449998D02*
X113930001Y86050001D01*
X113069996Y86050001D01*
X113070001Y96450000D01*
X113930000Y96449998D01*
X113930000Y96449998D01*
G37*
X113930000Y96449998D02*
X113930001Y86050001D01*
X113069996Y86050001D01*
X113070001Y96450000D01*
X113930000Y96449998D01*
G36*
X115200000Y86050000D02*
X114340000Y86050000D01*
X114339998Y96449999D01*
X115200001Y96450000D01*
X115200000Y86050000D01*
X115200000Y86050000D01*
G37*
X115200000Y86050000D02*
X114340000Y86050000D01*
X114339998Y96449999D01*
X115200001Y96450000D01*
X115200000Y86050000D01*
G36*
X99930000Y115550000D02*
X99070000Y115550000D01*
X99070000Y125950000D01*
X99930000Y125950000D01*
X99930000Y115550000D01*
X99930000Y115550000D01*
G37*
X99930000Y115550000D02*
X99070000Y115550000D01*
X99070000Y125950000D01*
X99930000Y125950000D01*
X99930000Y115550000D01*
G36*
X98660000Y115550000D02*
X97800000Y115550000D01*
X97800000Y125950000D01*
X98660000Y125950000D01*
X98660000Y115550000D01*
X98660000Y115550000D01*
G37*
X98660000Y115550000D02*
X97800000Y115550000D01*
X97800000Y125950000D01*
X98660000Y125950000D01*
X98660000Y115550000D01*
G36*
X101200000Y115550000D02*
X100340000Y115550000D01*
X100340000Y125950000D01*
X101200000Y125950000D01*
X101200000Y115550000D01*
X101200000Y115550000D01*
G37*
X101200000Y115550000D02*
X100340000Y115550000D01*
X100340000Y125950000D01*
X101200000Y125950000D01*
X101200000Y115550000D01*
G36*
X113930000Y115550000D02*
X113070000Y115550000D01*
X113070000Y125950000D01*
X113930000Y125950000D01*
X113930000Y115550000D01*
X113930000Y115550000D01*
G37*
X113930000Y115550000D02*
X113070000Y115550000D01*
X113070000Y125950000D01*
X113930000Y125950000D01*
X113930000Y115550000D01*
G36*
X112660000Y115550000D02*
X111800000Y115550000D01*
X111800000Y125950000D01*
X112660000Y125950000D01*
X112660000Y115550000D01*
X112660000Y115550000D01*
G37*
X112660000Y115550000D02*
X111800000Y115550000D01*
X111800000Y125950000D01*
X112660000Y125950000D01*
X112660000Y115550000D01*
G36*
X115200000Y115550000D02*
X114340000Y115550000D01*
X114340000Y125950000D01*
X115200000Y125950000D01*
X115200000Y115550000D01*
X115200000Y115550000D01*
G37*
X115200000Y115550000D02*
X114340000Y115550000D01*
X114340000Y125950000D01*
X115200000Y125950000D01*
X115200000Y115550000D01*
G36*
X101200000Y44050000D02*
X100340000Y44050000D01*
X100339998Y54449999D01*
X101200001Y54450000D01*
X101200000Y44050000D01*
X101200000Y44050000D01*
G37*
X101200000Y44050000D02*
X100340000Y44050000D01*
X100339998Y54449999D01*
X101200001Y54450000D01*
X101200000Y44050000D01*
G36*
X99930000Y54449998D02*
X99930001Y44050001D01*
X99069996Y44050001D01*
X99070001Y54450000D01*
X99930000Y54449998D01*
X99930000Y54449998D01*
G37*
X99930000Y54449998D02*
X99930001Y44050001D01*
X99069996Y44050001D01*
X99070001Y54450000D01*
X99930000Y54449998D01*
G36*
X98660001Y44049999D02*
X97799999Y44049999D01*
X97800001Y54449999D01*
X98659998Y54450001D01*
X98660001Y44049999D01*
X98660001Y44049999D01*
G37*
X98660001Y44049999D02*
X97799999Y44049999D01*
X97800001Y54449999D01*
X98659998Y54450001D01*
X98660001Y44049999D01*
G36*
X113930000Y54449998D02*
X113930001Y44050001D01*
X113069996Y44050001D01*
X113070001Y54450000D01*
X113930000Y54449998D01*
X113930000Y54449998D01*
G37*
X113930000Y54449998D02*
X113930001Y44050001D01*
X113069996Y44050001D01*
X113070001Y54450000D01*
X113930000Y54449998D01*
G36*
X112660001Y44049999D02*
X111799999Y44049999D01*
X111800001Y54449999D01*
X112659998Y54450001D01*
X112660001Y44049999D01*
X112660001Y44049999D01*
G37*
X112660001Y44049999D02*
X111799999Y44049999D01*
X111800001Y54449999D01*
X112659998Y54450001D01*
X112660001Y44049999D01*
G36*
X115200000Y44050000D02*
X114340000Y44050000D01*
X114339998Y54449999D01*
X115200001Y54450000D01*
X115200000Y44050000D01*
X115200000Y44050000D01*
G37*
X115200000Y44050000D02*
X114340000Y44050000D01*
X114339998Y54449999D01*
X115200001Y54450000D01*
X115200000Y44050000D01*
G36*
X85930000Y96449998D02*
X85930001Y86050001D01*
X85069996Y86050001D01*
X85070001Y96450000D01*
X85930000Y96449998D01*
X85930000Y96449998D01*
G37*
X85930000Y96449998D02*
X85930001Y86050001D01*
X85069996Y86050001D01*
X85070001Y96450000D01*
X85930000Y96449998D01*
G36*
X84660001Y86049999D02*
X83799999Y86049999D01*
X83800001Y96449999D01*
X84659998Y96450001D01*
X84660001Y86049999D01*
X84660001Y86049999D01*
G37*
X84660001Y86049999D02*
X83799999Y86049999D01*
X83800001Y96449999D01*
X84659998Y96450001D01*
X84660001Y86049999D01*
G36*
X71930000Y96449998D02*
X71930001Y86050001D01*
X71069996Y86050001D01*
X71070001Y96450000D01*
X71930000Y96449998D01*
X71930000Y96449998D01*
G37*
X71930000Y96449998D02*
X71930001Y86050001D01*
X71069996Y86050001D01*
X71070001Y96450000D01*
X71930000Y96449998D01*
G36*
X70660001Y86049999D02*
X69799999Y86049999D01*
X69800001Y96449999D01*
X70659998Y96450001D01*
X70660001Y86049999D01*
X70660001Y86049999D01*
G37*
X70660001Y86049999D02*
X69799999Y86049999D01*
X69800001Y96449999D01*
X70659998Y96450001D01*
X70660001Y86049999D01*
G36*
X73200000Y86050000D02*
X72340000Y86050000D01*
X72339998Y96449999D01*
X73200001Y96450000D01*
X73200000Y86050000D01*
X73200000Y86050000D01*
G37*
X73200000Y86050000D02*
X72340000Y86050000D01*
X72339998Y96449999D01*
X73200001Y96450000D01*
X73200000Y86050000D01*
G36*
X87200000Y86050000D02*
X86340000Y86050000D01*
X86339998Y96449999D01*
X87200001Y96450000D01*
X87200000Y86050000D01*
X87200000Y86050000D01*
G37*
X87200000Y86050000D02*
X86340000Y86050000D01*
X86339998Y96449999D01*
X87200001Y96450000D01*
X87200000Y86050000D01*
G36*
X70660000Y115550000D02*
X69800000Y115550000D01*
X69800000Y125950000D01*
X70660000Y125950000D01*
X70660000Y115550000D01*
X70660000Y115550000D01*
G37*
X70660000Y115550000D02*
X69800000Y115550000D01*
X69800000Y125950000D01*
X70660000Y125950000D01*
X70660000Y115550000D01*
G36*
X71930000Y115550000D02*
X71070000Y115550000D01*
X71070000Y125950000D01*
X71930000Y125950000D01*
X71930000Y115550000D01*
X71930000Y115550000D01*
G37*
X71930000Y115550000D02*
X71070000Y115550000D01*
X71070000Y125950000D01*
X71930000Y125950000D01*
X71930000Y115550000D01*
G36*
X73200000Y115550000D02*
X72340000Y115550000D01*
X72340000Y125950000D01*
X73200000Y125950000D01*
X73200000Y115550000D01*
X73200000Y115550000D01*
G37*
X73200000Y115550000D02*
X72340000Y115550000D01*
X72340000Y125950000D01*
X73200000Y125950000D01*
X73200000Y115550000D01*
G36*
X84660000Y115550000D02*
X83800000Y115550000D01*
X83800000Y125950000D01*
X84660000Y125950000D01*
X84660000Y115550000D01*
X84660000Y115550000D01*
G37*
X84660000Y115550000D02*
X83800000Y115550000D01*
X83800000Y125950000D01*
X84660000Y125950000D01*
X84660000Y115550000D01*
G36*
X85930000Y115550000D02*
X85070000Y115550000D01*
X85070000Y125950000D01*
X85930000Y125950000D01*
X85930000Y115550000D01*
X85930000Y115550000D01*
G37*
X85930000Y115550000D02*
X85070000Y115550000D01*
X85070000Y125950000D01*
X85930000Y125950000D01*
X85930000Y115550000D01*
G36*
X87200000Y115550000D02*
X86340000Y115550000D01*
X86340000Y125950000D01*
X87200000Y125950000D01*
X87200000Y115550000D01*
X87200000Y115550000D01*
G37*
X87200000Y115550000D02*
X86340000Y115550000D01*
X86340000Y125950000D01*
X87200000Y125950000D01*
X87200000Y115550000D01*
G36*
X71930000Y73550000D02*
X71070000Y73550000D01*
X71070000Y83950000D01*
X71930000Y83950000D01*
X71930000Y73550000D01*
X71930000Y73550000D01*
G37*
X71930000Y73550000D02*
X71070000Y73550000D01*
X71070000Y83950000D01*
X71930000Y83950000D01*
X71930000Y73550000D01*
G36*
X70660000Y73550000D02*
X69800000Y73550000D01*
X69800000Y83950000D01*
X70660000Y83950000D01*
X70660000Y73550000D01*
X70660000Y73550000D01*
G37*
X70660000Y73550000D02*
X69800000Y73550000D01*
X69800000Y83950000D01*
X70660000Y83950000D01*
X70660000Y73550000D01*
G36*
X73200000Y73550000D02*
X72340000Y73550000D01*
X72340000Y83950000D01*
X73200000Y83950000D01*
X73200000Y73550000D01*
X73200000Y73550000D01*
G37*
X73200000Y73550000D02*
X72340000Y73550000D01*
X72340000Y83950000D01*
X73200000Y83950000D01*
X73200000Y73550000D01*
G36*
X87200000Y73550000D02*
X86340000Y73550000D01*
X86340000Y83950000D01*
X87200000Y83950000D01*
X87200000Y73550000D01*
X87200000Y73550000D01*
G37*
X87200000Y73550000D02*
X86340000Y73550000D01*
X86340000Y83950000D01*
X87200000Y83950000D01*
X87200000Y73550000D01*
G36*
X85930000Y73550000D02*
X85070000Y73550000D01*
X85070000Y83950000D01*
X85930000Y83950000D01*
X85930000Y73550000D01*
X85930000Y73550000D01*
G37*
X85930000Y73550000D02*
X85070000Y73550000D01*
X85070000Y83950000D01*
X85930000Y83950000D01*
X85930000Y73550000D01*
G36*
X84660000Y73550000D02*
X83800000Y73550000D01*
X83800000Y83950000D01*
X84660000Y83950000D01*
X84660000Y73550000D01*
X84660000Y73550000D01*
G37*
X84660000Y73550000D02*
X83800000Y73550000D01*
X83800000Y83950000D01*
X84660000Y83950000D01*
X84660000Y73550000D01*
G36*
X73200000Y44050000D02*
X72340000Y44050000D01*
X72339998Y54449999D01*
X73200001Y54450000D01*
X73200000Y44050000D01*
X73200000Y44050000D01*
G37*
X73200000Y44050000D02*
X72340000Y44050000D01*
X72339998Y54449999D01*
X73200001Y54450000D01*
X73200000Y44050000D01*
G36*
X71930000Y54449998D02*
X71930001Y44050001D01*
X71069996Y44050001D01*
X71070001Y54450000D01*
X71930000Y54449998D01*
X71930000Y54449998D01*
G37*
X71930000Y54449998D02*
X71930001Y44050001D01*
X71069996Y44050001D01*
X71070001Y54450000D01*
X71930000Y54449998D01*
G36*
X70660001Y44049999D02*
X69799999Y44049999D01*
X69800001Y54449999D01*
X70659998Y54450001D01*
X70660001Y44049999D01*
X70660001Y44049999D01*
G37*
X70660001Y44049999D02*
X69799999Y44049999D01*
X69800001Y54449999D01*
X70659998Y54450001D01*
X70660001Y44049999D01*
G36*
X84660001Y44049999D02*
X83799999Y44049999D01*
X83800001Y54449999D01*
X84659998Y54450001D01*
X84660001Y44049999D01*
X84660001Y44049999D01*
G37*
X84660001Y44049999D02*
X83799999Y44049999D01*
X83800001Y54449999D01*
X84659998Y54450001D01*
X84660001Y44049999D01*
G36*
X85930000Y54449998D02*
X85930001Y44050001D01*
X85069996Y44050001D01*
X85070001Y54450000D01*
X85930000Y54449998D01*
X85930000Y54449998D01*
G37*
X85930000Y54449998D02*
X85930001Y44050001D01*
X85069996Y44050001D01*
X85070001Y54450000D01*
X85930000Y54449998D01*
G36*
X87200000Y44050000D02*
X86340000Y44050000D01*
X86339998Y54449999D01*
X87200001Y54450000D01*
X87200000Y44050000D01*
X87200000Y44050000D01*
G37*
X87200000Y44050000D02*
X86340000Y44050000D01*
X86339998Y54449999D01*
X87200001Y54450000D01*
X87200000Y44050000D01*
G36*
X59200000Y86050000D02*
X58340000Y86050000D01*
X58339998Y96449999D01*
X59200001Y96450000D01*
X59200000Y86050000D01*
X59200000Y86050000D01*
G37*
X59200000Y86050000D02*
X58340000Y86050000D01*
X58339998Y96449999D01*
X59200001Y96450000D01*
X59200000Y86050000D01*
G36*
X57930000Y96449998D02*
X57930001Y86050001D01*
X57069996Y86050001D01*
X57070001Y96450000D01*
X57930000Y96449998D01*
X57930000Y96449998D01*
G37*
X57930000Y96449998D02*
X57930001Y86050001D01*
X57069996Y86050001D01*
X57070001Y96450000D01*
X57930000Y96449998D01*
G36*
X56660001Y86049999D02*
X55799999Y86049999D01*
X55800001Y96449999D01*
X56659998Y96450001D01*
X56660001Y86049999D01*
X56660001Y86049999D01*
G37*
X56660001Y86049999D02*
X55799999Y86049999D01*
X55800001Y96449999D01*
X56659998Y96450001D01*
X56660001Y86049999D01*
G36*
X56660000Y115550000D02*
X55800000Y115550000D01*
X55800000Y125950000D01*
X56660000Y125950000D01*
X56660000Y115550000D01*
X56660000Y115550000D01*
G37*
X56660000Y115550000D02*
X55800000Y115550000D01*
X55800000Y125950000D01*
X56660000Y125950000D01*
X56660000Y115550000D01*
G36*
X59200000Y115550000D02*
X58340000Y115550000D01*
X58340000Y125950000D01*
X59200000Y125950000D01*
X59200000Y115550000D01*
X59200000Y115550000D01*
G37*
X59200000Y115550000D02*
X58340000Y115550000D01*
X58340000Y125950000D01*
X59200000Y125950000D01*
X59200000Y115550000D01*
G36*
X57930000Y115550000D02*
X57070000Y115550000D01*
X57070000Y125950000D01*
X57930000Y125950000D01*
X57930000Y115550000D01*
X57930000Y115550000D01*
G37*
X57930000Y115550000D02*
X57070000Y115550000D01*
X57070000Y125950000D01*
X57930000Y125950000D01*
X57930000Y115550000D01*
G36*
X57930000Y73550000D02*
X57070000Y73550000D01*
X57070000Y83950000D01*
X57930000Y83950000D01*
X57930000Y73550000D01*
X57930000Y73550000D01*
G37*
X57930000Y73550000D02*
X57070000Y73550000D01*
X57070000Y83950000D01*
X57930000Y83950000D01*
X57930000Y73550000D01*
G36*
X59200000Y73550000D02*
X58340000Y73550000D01*
X58340000Y83950000D01*
X59200000Y83950000D01*
X59200000Y73550000D01*
X59200000Y73550000D01*
G37*
X59200000Y73550000D02*
X58340000Y73550000D01*
X58340000Y83950000D01*
X59200000Y83950000D01*
X59200000Y73550000D01*
G36*
X56660000Y73550000D02*
X55800000Y73550000D01*
X55800000Y83950000D01*
X56660000Y83950000D01*
X56660000Y73550000D01*
X56660000Y73550000D01*
G37*
X56660000Y73550000D02*
X55800000Y73550000D01*
X55800000Y83950000D01*
X56660000Y83950000D01*
X56660000Y73550000D01*
G36*
X56660001Y44049999D02*
X55799999Y44049999D01*
X55800001Y54449999D01*
X56659998Y54450001D01*
X56660001Y44049999D01*
X56660001Y44049999D01*
G37*
X56660001Y44049999D02*
X55799999Y44049999D01*
X55800001Y54449999D01*
X56659998Y54450001D01*
X56660001Y44049999D01*
G36*
X59200000Y44050000D02*
X58340000Y44050000D01*
X58339998Y54449999D01*
X59200001Y54450000D01*
X59200000Y44050000D01*
X59200000Y44050000D01*
G37*
X59200000Y44050000D02*
X58340000Y44050000D01*
X58339998Y54449999D01*
X59200001Y54450000D01*
X59200000Y44050000D01*
G36*
X57930000Y54449998D02*
X57930001Y44050001D01*
X57069996Y44050001D01*
X57070001Y54450000D01*
X57930000Y54449998D01*
X57930000Y54449998D01*
G37*
X57930000Y54449998D02*
X57930001Y44050001D01*
X57069996Y44050001D01*
X57070001Y54450000D01*
X57930000Y54449998D01*
M02*
