G04 #@! TF.FileFunction,Drawing*
%FSLAX46Y46*%
G04 Gerber Fmt 4.6, Leading zero omitted, Abs format (unit mm)*
G04 Created by KiCad (PCBNEW (2016-04-11 BZR 6687, Git f239aee)-product) date Tue 12 Apr 2016 02:23:05 PM CEST*
%MOMM*%
G01*
G04 APERTURE LIST*
%ADD10C,0.150000*%
%ADD11C,0.100000*%
G04 APERTURE END LIST*
D10*
D11*
X71750000Y85000000D02*
G75*
G03X71750000Y85000000I-250000J0D01*
G01*
X71500000Y44000000D02*
X71500000Y126000000D01*
X61000000Y65000000D02*
G75*
G03X63500000Y67500000I0J2500000D01*
G01*
X51500000Y67500000D02*
G75*
G03X54000000Y65000000I2500000J0D01*
G01*
X54000000Y65000000D02*
X61000000Y65000000D01*
X61000000Y63000000D02*
X54000002Y63000000D01*
X61000002Y54249998D02*
G75*
G03X59999998Y53250002I-4J-1000000D01*
G01*
X61000004Y54250001D02*
G75*
G03X63500000Y56750003I-3J2499999D01*
G01*
X54000005Y62999999D02*
G75*
G03X51500000Y60500000I-3J-2500002D01*
G01*
X63500000Y56750003D02*
X63500003Y60500000D01*
X63499997Y60499997D02*
G75*
G03X61000000Y63000000I-2500000J3D01*
G01*
X51500000Y60500000D02*
X51499998Y56749998D01*
X59500000Y44000000D02*
X59999998Y44500000D01*
X59500000Y44000000D02*
X55499998Y44000000D01*
X55499998Y44000000D02*
X55000002Y44500001D01*
X54999998Y46000002D02*
G75*
G03X55000000Y48000000I-999998J1000000D01*
G01*
X55000002Y44500001D02*
X54999999Y46000002D01*
X59999998Y44500000D02*
X59999998Y53250002D01*
X51499997Y56750001D02*
G75*
G03X54000000Y54250000I2500002J1D01*
G01*
X55000000Y48000000D02*
X55000002Y49500001D01*
X54999999Y49500001D02*
G75*
G03X54999999Y51500001I-1000000J1000000D01*
G01*
X55000000Y53250000D02*
G75*
G03X54000000Y54250000I-1000000J0D01*
G01*
X54999999Y51500001D02*
X54999998Y53250001D01*
X60000000Y122000000D02*
X60000000Y120500000D01*
X60000000Y118500000D02*
X60000000Y116750000D01*
X55000000Y125500000D02*
X55000000Y116750000D01*
X60000000Y120500000D02*
G75*
G03X60000000Y118500000I1000000J-1000000D01*
G01*
X54000000Y115750000D02*
G75*
G03X51500000Y113250000I0J-2500000D01*
G01*
X51500000Y109500000D02*
G75*
G03X54000000Y107000000I2500000J0D01*
G01*
X51500000Y113250000D02*
X51500000Y109500000D01*
X54000000Y115750000D02*
G75*
G03X55000000Y116750000I0J1000000D01*
G01*
X60000000Y124000000D02*
G75*
G03X60000000Y122000000I1000000J-1000000D01*
G01*
X59500000Y126000000D02*
X60000000Y125500000D01*
X60000000Y125500000D02*
X60000000Y124000000D01*
X55500000Y126000000D02*
X55000000Y125500000D01*
X55500000Y126000000D02*
X59500000Y126000000D01*
X63499997Y102499997D02*
G75*
G03X61000000Y105000000I-2500000J3D01*
G01*
X61000004Y96250001D02*
G75*
G03X63500000Y98750003I-3J2499999D01*
G01*
X63500000Y98750003D02*
X63500003Y102500000D01*
X61000002Y96249998D02*
G75*
G03X59999998Y95250002I-4J-1000000D01*
G01*
X60000000Y116750000D02*
G75*
G03X61000000Y115750000I1000000J0D01*
G01*
X63500000Y109500000D02*
X63500000Y113250000D01*
X61000000Y107000000D02*
G75*
G03X63500000Y109500000I0J2500000D01*
G01*
X63500000Y113250000D02*
G75*
G03X61000000Y115750000I-2500000J0D01*
G01*
X54000000Y107000000D02*
X61000000Y107000000D01*
X55000000Y95250000D02*
G75*
G03X54000000Y96250000I-1000000J0D01*
G01*
X61000000Y105000000D02*
X54000002Y105000000D01*
X51500000Y102500000D02*
X51499998Y98749998D01*
X54000005Y104999999D02*
G75*
G03X51500000Y102500000I-3J-2500002D01*
G01*
X51499997Y98750001D02*
G75*
G03X54000000Y96250000I2500002J1D01*
G01*
X60000000Y78500000D02*
G75*
G03X60000000Y76500000I1000000J-1000000D01*
G01*
X60000000Y82000000D02*
G75*
G03X60000000Y80000000I1000000J-1000000D01*
G01*
X60000000Y83500000D02*
X60000000Y82000000D01*
X55000000Y83500000D02*
X55000000Y74750000D01*
X60000000Y76500000D02*
X60000000Y74750000D01*
X60000000Y80000000D02*
X60000000Y78500000D01*
X59500000Y84000000D02*
X60000000Y83500000D01*
X59500000Y86000000D02*
X59999998Y86500000D01*
X55500000Y84000000D02*
X55000000Y83500000D01*
X55499998Y86000000D02*
X55000002Y86500001D01*
X59500000Y86000000D02*
X55499998Y86000000D01*
X55500000Y84000000D02*
X59500000Y84000000D01*
X63500000Y71250000D02*
G75*
G03X61000000Y73750000I-2500000J0D01*
G01*
X63500000Y67500000D02*
X63500000Y71250000D01*
X54000000Y73750000D02*
G75*
G03X51500000Y71250000I0J-2500000D01*
G01*
X54000000Y73750000D02*
G75*
G03X55000000Y74750000I0J1000000D01*
G01*
X51500000Y71250000D02*
X51500000Y67500000D01*
X60000000Y74750000D02*
G75*
G03X61000000Y73750000I1000000J0D01*
G01*
X54999998Y88000002D02*
G75*
G03X55000000Y90000000I-999998J1000000D01*
G01*
X54999999Y91500001D02*
G75*
G03X54999999Y93500001I-1000000J1000000D01*
G01*
X55000002Y86500001D02*
X54999999Y88000002D01*
X55000000Y90000000D02*
X55000002Y91500001D01*
X59999998Y86500000D02*
X59999998Y95250002D01*
X54999999Y93500001D02*
X54999998Y95250001D01*
X68999999Y51500001D02*
X68999998Y53250001D01*
X69000000Y53250000D02*
G75*
G03X68000000Y54250000I-1000000J0D01*
G01*
X75000002Y54249998D02*
G75*
G03X73999998Y53250002I-4J-1000000D01*
G01*
X73999998Y44500000D02*
X73999998Y53250002D01*
X68999999Y49500001D02*
G75*
G03X68999999Y51500001I-1000000J1000000D01*
G01*
X69000000Y48000000D02*
X69000002Y49500001D01*
X82999999Y51500001D02*
X82999998Y53250001D01*
X83000000Y48000000D02*
X83000002Y49500001D01*
X87999998Y44500000D02*
X87999998Y53250002D01*
X82999999Y49500001D02*
G75*
G03X82999999Y51500001I-1000000J1000000D01*
G01*
X65500000Y67500000D02*
G75*
G03X68000000Y65000000I2500000J0D01*
G01*
X65499997Y56750001D02*
G75*
G03X68000000Y54250000I2500002J1D01*
G01*
X75000000Y63000000D02*
X68000002Y63000000D01*
X68000005Y62999999D02*
G75*
G03X65500000Y60500000I-3J-2500002D01*
G01*
X68000000Y65000000D02*
X75000000Y65000000D01*
X65500000Y71250000D02*
X65500000Y67500000D01*
X65500000Y60500000D02*
X65499998Y56749998D01*
X91500000Y56750003D02*
X91500003Y60500000D01*
X89000000Y63000000D02*
X82000002Y63000000D01*
X91499997Y60499997D02*
G75*
G03X89000000Y63000000I-2500000J3D01*
G01*
X89000002Y54249998D02*
G75*
G03X87999998Y53250002I-4J-1000000D01*
G01*
X89000004Y54250001D02*
G75*
G03X91500000Y56750003I-3J2499999D01*
G01*
X83000000Y53250000D02*
G75*
G03X82000000Y54250000I-1000000J0D01*
G01*
X87500000Y44000000D02*
X87999998Y44500000D01*
X83499998Y44000000D02*
X83000002Y44500001D01*
X83000002Y44500001D02*
X82999999Y46000002D01*
X87500000Y44000000D02*
X83499998Y44000000D01*
X82999998Y46000002D02*
G75*
G03X83000000Y48000000I-999998J1000000D01*
G01*
X91500000Y67500000D02*
X91500000Y71250000D01*
X89000000Y65000000D02*
G75*
G03X91500000Y67500000I0J2500000D01*
G01*
X79500000Y67500000D02*
G75*
G03X82000000Y65000000I2500000J0D01*
G01*
X79500000Y71250000D02*
X79500000Y67500000D01*
X82000000Y65000000D02*
X89000000Y65000000D01*
X77500000Y67500000D02*
X77500000Y71250000D01*
X75000000Y65000000D02*
G75*
G03X77500000Y67500000I0J2500000D01*
G01*
X69000002Y44500001D02*
X68999999Y46000002D01*
X68999998Y46000002D02*
G75*
G03X69000000Y48000000I-999998J1000000D01*
G01*
X73500000Y44000000D02*
X73999998Y44500000D01*
X69499998Y44000000D02*
X69000002Y44500001D01*
X73500000Y44000000D02*
X69499998Y44000000D01*
X79499997Y56750001D02*
G75*
G03X82000000Y54250000I2500002J1D01*
G01*
X79500000Y60500000D02*
X79499998Y56749998D01*
X77499997Y60499997D02*
G75*
G03X75000000Y63000000I-2500000J3D01*
G01*
X77500000Y56750003D02*
X77500003Y60500000D01*
X75000004Y54250001D02*
G75*
G03X77500000Y56750003I-3J2499999D01*
G01*
X82000005Y62999999D02*
G75*
G03X79500000Y60500000I-3J-2500002D01*
G01*
X68000000Y73750000D02*
G75*
G03X69000000Y74750000I0J1000000D01*
G01*
X74000000Y74750000D02*
G75*
G03X75000000Y73750000I1000000J0D01*
G01*
X77500000Y71250000D02*
G75*
G03X75000000Y73750000I-2500000J0D01*
G01*
X68000000Y73750000D02*
G75*
G03X65500000Y71250000I0J-2500000D01*
G01*
X74000000Y76500000D02*
X74000000Y74750000D01*
X91500000Y71250000D02*
G75*
G03X89000000Y73750000I-2500000J0D01*
G01*
X82000000Y73750000D02*
G75*
G03X83000000Y74750000I0J1000000D01*
G01*
X88000000Y74750000D02*
G75*
G03X89000000Y73750000I1000000J0D01*
G01*
X82000000Y73750000D02*
G75*
G03X79500000Y71250000I0J-2500000D01*
G01*
X88000000Y80000000D02*
X88000000Y78500000D01*
X88000000Y82000000D02*
G75*
G03X88000000Y80000000I1000000J-1000000D01*
G01*
X83000000Y83500000D02*
X83000000Y74750000D01*
X88000000Y83500000D02*
X88000000Y82000000D01*
X88000000Y76500000D02*
X88000000Y74750000D01*
X88000000Y78500000D02*
G75*
G03X88000000Y76500000I1000000J-1000000D01*
G01*
X83500000Y84000000D02*
X83000000Y83500000D01*
X69500000Y84000000D02*
X73500000Y84000000D01*
X87500000Y84000000D02*
X88000000Y83500000D01*
X69500000Y84000000D02*
X69000000Y83500000D01*
X83500000Y84000000D02*
X87500000Y84000000D01*
X73500000Y84000000D02*
X74000000Y83500000D01*
X87500000Y86000000D02*
X87999998Y86500000D01*
X83000002Y86500001D02*
X82999999Y88000002D01*
X87500000Y86000000D02*
X83499998Y86000000D01*
X83499998Y86000000D02*
X83000002Y86500001D01*
X74000000Y82000000D02*
G75*
G03X74000000Y80000000I1000000J-1000000D01*
G01*
X74000000Y83500000D02*
X74000000Y82000000D01*
X74000000Y80000000D02*
X74000000Y78500000D01*
X69000000Y83500000D02*
X69000000Y74750000D01*
X74000000Y78500000D02*
G75*
G03X74000000Y76500000I1000000J-1000000D01*
G01*
X79500000Y113250000D02*
X79500000Y109500000D01*
X82000000Y115750000D02*
G75*
G03X83000000Y116750000I0J1000000D01*
G01*
X79500000Y109500000D02*
G75*
G03X82000000Y107000000I2500000J0D01*
G01*
X82000000Y115750000D02*
G75*
G03X79500000Y113250000I0J-2500000D01*
G01*
X74000000Y116750000D02*
G75*
G03X75000000Y115750000I1000000J0D01*
G01*
X77500000Y113250000D02*
G75*
G03X75000000Y115750000I-2500000J0D01*
G01*
X77500000Y109500000D02*
X77500000Y113250000D01*
X75000000Y107000000D02*
G75*
G03X77500000Y109500000I0J2500000D01*
G01*
X74000000Y122000000D02*
X74000000Y120500000D01*
X74000000Y120500000D02*
G75*
G03X74000000Y118500000I1000000J-1000000D01*
G01*
X74000000Y118500000D02*
X74000000Y116750000D01*
X69000000Y125500000D02*
X69000000Y116750000D01*
X74000000Y124000000D02*
G75*
G03X74000000Y122000000I1000000J-1000000D01*
G01*
X74000000Y125500000D02*
X74000000Y124000000D01*
X69500000Y126000000D02*
X73500000Y126000000D01*
X69500000Y126000000D02*
X69000000Y125500000D01*
X73500000Y126000000D02*
X74000000Y125500000D01*
X88000000Y125500000D02*
X88000000Y124000000D01*
X83500000Y126000000D02*
X83000000Y125500000D01*
X83500000Y126000000D02*
X87500000Y126000000D01*
X87500000Y126000000D02*
X88000000Y125500000D01*
X88000000Y124000000D02*
G75*
G03X88000000Y122000000I1000000J-1000000D01*
G01*
X88000000Y118500000D02*
X88000000Y116750000D01*
X88000000Y120500000D02*
G75*
G03X88000000Y118500000I1000000J-1000000D01*
G01*
X88000000Y122000000D02*
X88000000Y120500000D01*
X83000000Y125500000D02*
X83000000Y116750000D01*
X91500000Y109500000D02*
X91500000Y113250000D01*
X89000000Y107000000D02*
G75*
G03X91500000Y109500000I0J2500000D01*
G01*
X88000000Y116750000D02*
G75*
G03X89000000Y115750000I1000000J0D01*
G01*
X91500000Y113250000D02*
G75*
G03X89000000Y115750000I-2500000J0D01*
G01*
X83000000Y95250000D02*
G75*
G03X82000000Y96250000I-1000000J0D01*
G01*
X82999999Y93500001D02*
X82999998Y95250001D01*
X83000000Y90000000D02*
X83000002Y91500001D01*
X82999998Y88000002D02*
G75*
G03X83000000Y90000000I-999998J1000000D01*
G01*
X87999998Y86500000D02*
X87999998Y95250002D01*
X82999999Y91500001D02*
G75*
G03X82999999Y93500001I-1000000J1000000D01*
G01*
X89000002Y96249998D02*
G75*
G03X87999998Y95250002I-4J-1000000D01*
G01*
X91500000Y98750003D02*
X91500003Y102500000D01*
X89000004Y96250001D02*
G75*
G03X91500000Y98750003I-3J2499999D01*
G01*
X82000000Y107000000D02*
X89000000Y107000000D01*
X89000000Y105000000D02*
X82000002Y105000000D01*
X91499997Y102499997D02*
G75*
G03X89000000Y105000000I-2500000J3D01*
G01*
X68999999Y91500001D02*
G75*
G03X68999999Y93500001I-1000000J1000000D01*
G01*
X68999999Y93500001D02*
X68999998Y95250001D01*
X69000000Y90000000D02*
X69000002Y91500001D01*
X73999998Y86500000D02*
X73999998Y95250002D01*
X69000002Y86500001D02*
X68999999Y88000002D01*
X73500000Y86000000D02*
X73999998Y86500000D01*
X73500000Y86000000D02*
X69499998Y86000000D01*
X69499998Y86000000D02*
X69000002Y86500001D01*
X68999998Y88000002D02*
G75*
G03X69000000Y90000000I-999998J1000000D01*
G01*
X65500000Y102500000D02*
X65499998Y98749998D01*
X68000005Y104999999D02*
G75*
G03X65500000Y102500000I-3J-2500002D01*
G01*
X65499997Y98750001D02*
G75*
G03X68000000Y96250000I2500002J1D01*
G01*
X75000000Y105000000D02*
X68000002Y105000000D01*
X69000000Y95250000D02*
G75*
G03X68000000Y96250000I-1000000J0D01*
G01*
X65500000Y113250000D02*
X65500000Y109500000D01*
X68000000Y115750000D02*
G75*
G03X65500000Y113250000I0J-2500000D01*
G01*
X65500000Y109500000D02*
G75*
G03X68000000Y107000000I2500000J0D01*
G01*
X68000000Y107000000D02*
X75000000Y107000000D01*
X68000000Y115750000D02*
G75*
G03X69000000Y116750000I0J1000000D01*
G01*
X82000005Y104999999D02*
G75*
G03X79500000Y102500000I-3J-2500002D01*
G01*
X79500000Y102500000D02*
X79499998Y98749998D01*
X79499997Y98750001D02*
G75*
G03X82000000Y96250000I2500002J1D01*
G01*
X75000002Y96249998D02*
G75*
G03X73999998Y95250002I-4J-1000000D01*
G01*
X75000004Y96250001D02*
G75*
G03X77500000Y98750003I-3J2499999D01*
G01*
X77500000Y98750003D02*
X77500003Y102500000D01*
X77499997Y102499997D02*
G75*
G03X75000000Y105000000I-2500000J3D01*
G01*
X119500000Y109500000D02*
X119500000Y113250000D01*
X119500000Y67500000D02*
X119500000Y71250000D01*
X119500000Y98750003D02*
X119500003Y102500000D01*
X119500000Y56750003D02*
X119500003Y60500000D01*
X93500000Y102500000D02*
X93499998Y98749998D01*
X96000005Y104999999D02*
G75*
G03X93500000Y102500000I-3J-2500002D01*
G01*
X93500000Y113250000D02*
X93500000Y109500000D01*
X93499997Y98750001D02*
G75*
G03X96000000Y96250000I2500002J1D01*
G01*
X93500000Y67500000D02*
G75*
G03X96000000Y65000000I2500000J0D01*
G01*
X107500000Y71250000D02*
X107500000Y67500000D01*
X107500000Y113250000D02*
X107500000Y109500000D01*
X96000000Y73750000D02*
G75*
G03X97000000Y74750000I0J1000000D01*
G01*
X93500000Y71250000D02*
X93500000Y67500000D01*
X111000000Y95250000D02*
G75*
G03X110000000Y96250000I-1000000J0D01*
G01*
X117000002Y96249998D02*
G75*
G03X115999998Y95250002I-4J-1000000D01*
G01*
X110999999Y93500001D02*
X110999998Y95250001D01*
X110999998Y88000002D02*
G75*
G03X111000000Y90000000I-999998J1000000D01*
G01*
X111000000Y90000000D02*
X111000002Y91500001D01*
X115999998Y86500000D02*
X115999998Y95250002D01*
X110999999Y91500001D02*
G75*
G03X110999999Y93500001I-1000000J1000000D01*
G01*
X116000000Y118500000D02*
X116000000Y116750000D01*
X116000000Y120500000D02*
G75*
G03X116000000Y118500000I1000000J-1000000D01*
G01*
X116000000Y122000000D02*
X116000000Y120500000D01*
X111000000Y125500000D02*
X111000000Y116750000D01*
X117000000Y105000000D02*
X110000002Y105000000D01*
X110000005Y104999999D02*
G75*
G03X107500000Y102500000I-3J-2500002D01*
G01*
X117000004Y96250001D02*
G75*
G03X119500000Y98750003I-3J2499999D01*
G01*
X107499997Y98750001D02*
G75*
G03X110000000Y96250000I2500002J1D01*
G01*
X119499997Y102499997D02*
G75*
G03X117000000Y105000000I-2500000J3D01*
G01*
X107500000Y102500000D02*
X107499998Y98749998D01*
X119500000Y113250000D02*
G75*
G03X117000000Y115750000I-2500000J0D01*
G01*
X107500000Y109500000D02*
G75*
G03X110000000Y107000000I2500000J0D01*
G01*
X110000000Y107000000D02*
X117000000Y107000000D01*
X117000000Y107000000D02*
G75*
G03X119500000Y109500000I0J2500000D01*
G01*
X110000000Y115750000D02*
G75*
G03X111000000Y116750000I0J1000000D01*
G01*
X110000000Y115750000D02*
G75*
G03X107500000Y113250000I0J-2500000D01*
G01*
X116000000Y116750000D02*
G75*
G03X117000000Y115750000I1000000J0D01*
G01*
X116000000Y125500000D02*
X116000000Y124000000D01*
X115500000Y126000000D02*
X116000000Y125500000D01*
X116000000Y124000000D02*
G75*
G03X116000000Y122000000I1000000J-1000000D01*
G01*
X111500000Y126000000D02*
X111000000Y125500000D01*
X111500000Y126000000D02*
X115500000Y126000000D01*
X96999999Y51500001D02*
X96999998Y53250001D01*
X97000000Y48000000D02*
X97000002Y49500001D01*
X101999998Y44500000D02*
X101999998Y53250002D01*
X96999999Y49500001D02*
G75*
G03X96999999Y51500001I-1000000J1000000D01*
G01*
X93499997Y56750001D02*
G75*
G03X96000000Y54250000I2500002J1D01*
G01*
X93500000Y60500000D02*
X93499998Y56749998D01*
X97000000Y53250000D02*
G75*
G03X96000000Y54250000I-1000000J0D01*
G01*
X103000000Y63000000D02*
X96000002Y63000000D01*
X96000005Y62999999D02*
G75*
G03X93500000Y60500000I-3J-2500002D01*
G01*
X110999999Y51500001D02*
X110999998Y53250001D01*
X111000000Y48000000D02*
X111000002Y49500001D01*
X115999998Y44500000D02*
X115999998Y53250002D01*
X110999999Y49500001D02*
G75*
G03X110999999Y51500001I-1000000J1000000D01*
G01*
X119499997Y60499997D02*
G75*
G03X117000000Y63000000I-2500000J3D01*
G01*
X117000002Y54249998D02*
G75*
G03X115999998Y53250002I-4J-1000000D01*
G01*
X117000004Y54250001D02*
G75*
G03X119500000Y56750003I-3J2499999D01*
G01*
X111000000Y53250000D02*
G75*
G03X110000000Y54250000I-1000000J0D01*
G01*
X107499997Y56750001D02*
G75*
G03X110000000Y54250000I2500002J1D01*
G01*
X107500000Y60500000D02*
X107499998Y56749998D01*
X110000005Y62999999D02*
G75*
G03X107500000Y60500000I-3J-2500002D01*
G01*
X117000000Y63000000D02*
X110000002Y63000000D01*
X115500000Y44000000D02*
X115999998Y44500000D01*
X111499998Y44000000D02*
X111000002Y44500001D01*
X111000002Y44500001D02*
X110999999Y46000002D01*
X115500000Y44000000D02*
X111499998Y44000000D01*
X110999998Y46000002D02*
G75*
G03X111000000Y48000000I-999998J1000000D01*
G01*
X97000002Y44500001D02*
X96999999Y46000002D01*
X96999998Y46000002D02*
G75*
G03X97000000Y48000000I-999998J1000000D01*
G01*
X101500000Y44000000D02*
X101999998Y44500000D01*
X97499998Y44000000D02*
X97000002Y44500001D01*
X101500000Y44000000D02*
X97499998Y44000000D01*
X105499997Y60499997D02*
G75*
G03X103000000Y63000000I-2500000J3D01*
G01*
X103000002Y54249998D02*
G75*
G03X101999998Y53250002I-4J-1000000D01*
G01*
X105500000Y56750003D02*
X105500003Y60500000D01*
X103000004Y54250001D02*
G75*
G03X105500000Y56750003I-3J2499999D01*
G01*
X116000000Y80000000D02*
X116000000Y78500000D01*
X116000000Y78500000D02*
G75*
G03X116000000Y76500000I1000000J-1000000D01*
G01*
X116000000Y76500000D02*
X116000000Y74750000D01*
X111000000Y83500000D02*
X111000000Y74750000D01*
X111500000Y84000000D02*
X111000000Y83500000D01*
X115500000Y84000000D02*
X116000000Y83500000D01*
X116000000Y83500000D02*
X116000000Y82000000D01*
X111500000Y84000000D02*
X115500000Y84000000D01*
X116000000Y82000000D02*
G75*
G03X116000000Y80000000I1000000J-1000000D01*
G01*
X119500000Y71250000D02*
G75*
G03X117000000Y73750000I-2500000J0D01*
G01*
X110000000Y73750000D02*
G75*
G03X111000000Y74750000I0J1000000D01*
G01*
X110000000Y65000000D02*
X117000000Y65000000D01*
X117000000Y65000000D02*
G75*
G03X119500000Y67500000I0J2500000D01*
G01*
X116000000Y74750000D02*
G75*
G03X117000000Y73750000I1000000J0D01*
G01*
X107500000Y67500000D02*
G75*
G03X110000000Y65000000I2500000J0D01*
G01*
X110000000Y73750000D02*
G75*
G03X107500000Y71250000I0J-2500000D01*
G01*
X111499998Y86000000D02*
X111000002Y86500001D01*
X115500000Y86000000D02*
X115999998Y86500000D01*
X111000002Y86500001D02*
X110999999Y88000002D01*
X115500000Y86000000D02*
X111499998Y86000000D01*
X96999999Y91500001D02*
G75*
G03X96999999Y93500001I-1000000J1000000D01*
G01*
X97000000Y90000000D02*
X97000002Y91500001D01*
X97000002Y86500001D02*
X96999999Y88000002D01*
X96999998Y88000002D02*
G75*
G03X97000000Y90000000I-999998J1000000D01*
G01*
X101999998Y86500000D02*
X101999998Y95250002D01*
X105500000Y71250000D02*
G75*
G03X103000000Y73750000I-2500000J0D01*
G01*
X105500000Y67500000D02*
X105500000Y71250000D01*
X96000000Y65000000D02*
X103000000Y65000000D01*
X96000000Y73750000D02*
G75*
G03X93500000Y71250000I0J-2500000D01*
G01*
X103000000Y65000000D02*
G75*
G03X105500000Y67500000I0J2500000D01*
G01*
X102000000Y82000000D02*
G75*
G03X102000000Y80000000I1000000J-1000000D01*
G01*
X102000000Y83500000D02*
X102000000Y82000000D01*
X102000000Y80000000D02*
X102000000Y78500000D01*
X97000000Y83500000D02*
X97000000Y74750000D01*
X102000000Y78500000D02*
G75*
G03X102000000Y76500000I1000000J-1000000D01*
G01*
X102000000Y74750000D02*
G75*
G03X103000000Y73750000I1000000J0D01*
G01*
X102000000Y76500000D02*
X102000000Y74750000D01*
X101500000Y86000000D02*
X101999998Y86500000D01*
X101500000Y84000000D02*
X102000000Y83500000D01*
X101500000Y86000000D02*
X97499998Y86000000D01*
X97499998Y86000000D02*
X97000002Y86500001D01*
X97500000Y84000000D02*
X101500000Y84000000D01*
X97500000Y84000000D02*
X97000000Y83500000D01*
X102000000Y122000000D02*
X102000000Y120500000D01*
X102000000Y120500000D02*
G75*
G03X102000000Y118500000I1000000J-1000000D01*
G01*
X102000000Y118500000D02*
X102000000Y116750000D01*
X97000000Y125500000D02*
X97000000Y116750000D01*
X103000004Y96250001D02*
G75*
G03X105500000Y98750003I-3J2499999D01*
G01*
X103000002Y96249998D02*
G75*
G03X101999998Y95250002I-4J-1000000D01*
G01*
X96999999Y93500001D02*
X96999998Y95250001D01*
X97000000Y95250000D02*
G75*
G03X96000000Y96250000I-1000000J0D01*
G01*
X102000000Y124000000D02*
G75*
G03X102000000Y122000000I1000000J-1000000D01*
G01*
X101500000Y126000000D02*
X102000000Y125500000D01*
X102000000Y125500000D02*
X102000000Y124000000D01*
X97500000Y126000000D02*
X101500000Y126000000D01*
X97500000Y126000000D02*
X97000000Y125500000D01*
X102000000Y116750000D02*
G75*
G03X103000000Y115750000I1000000J0D01*
G01*
X96000000Y115750000D02*
G75*
G03X97000000Y116750000I0J1000000D01*
G01*
X96000000Y115750000D02*
G75*
G03X93500000Y113250000I0J-2500000D01*
G01*
X105500000Y113250000D02*
G75*
G03X103000000Y115750000I-2500000J0D01*
G01*
X93500000Y109500000D02*
G75*
G03X96000000Y107000000I2500000J0D01*
G01*
X105500000Y109500000D02*
X105500000Y113250000D01*
X103000000Y107000000D02*
G75*
G03X105500000Y109500000I0J2500000D01*
G01*
X105500000Y98750003D02*
X105500003Y102500000D01*
X96000000Y107000000D02*
X103000000Y107000000D01*
X103000000Y105000000D02*
X96000002Y105000000D01*
X105499997Y102499997D02*
G75*
G03X103000000Y105000000I-2500000J3D01*
G01*
X41000002Y86500001D02*
X40999999Y88000002D01*
X47000004Y96250001D02*
G75*
G03X49500000Y98750003I-3J2499999D01*
G01*
X40999999Y93500001D02*
X40999998Y95250001D01*
X45999998Y86500000D02*
X45999998Y95250002D01*
X40999999Y91500001D02*
G75*
G03X40999999Y93500001I-1000000J1000000D01*
G01*
X41000000Y90000000D02*
X41000002Y91500001D01*
X40999998Y88000002D02*
G75*
G03X41000000Y90000000I-999998J1000000D01*
G01*
X49500000Y67500000D02*
X49500000Y71250000D01*
X49500000Y71250000D02*
G75*
G03X47000000Y73750000I-2500000J0D01*
G01*
X37500000Y71250000D02*
X37500000Y67500000D01*
X40000000Y73750000D02*
G75*
G03X37500000Y71250000I0J-2500000D01*
G01*
X40000000Y73750000D02*
G75*
G03X41000000Y74750000I0J1000000D01*
G01*
X46000000Y74750000D02*
G75*
G03X47000000Y73750000I1000000J0D01*
G01*
X37500000Y102500000D02*
X37499998Y98749998D01*
X40000005Y104999999D02*
G75*
G03X37500000Y102500000I-3J-2500002D01*
G01*
X37499997Y98750001D02*
G75*
G03X40000000Y96250000I2500002J1D01*
G01*
X49500000Y98750003D02*
X49500003Y102500000D01*
X49499997Y102499997D02*
G75*
G03X47000000Y105000000I-2500000J3D01*
G01*
X41000000Y95250000D02*
G75*
G03X40000000Y96250000I-1000000J0D01*
G01*
X47000002Y96249998D02*
G75*
G03X45999998Y95250002I-4J-1000000D01*
G01*
X46000000Y80000000D02*
X46000000Y78500000D01*
X46000000Y82000000D02*
G75*
G03X46000000Y80000000I1000000J-1000000D01*
G01*
X41000000Y83500000D02*
X41000000Y74750000D01*
X46000000Y83500000D02*
X46000000Y82000000D01*
X46000000Y76500000D02*
X46000000Y74750000D01*
X46000000Y78500000D02*
G75*
G03X46000000Y76500000I1000000J-1000000D01*
G01*
X45500000Y86000000D02*
X45999998Y86500000D01*
X45500000Y86000000D02*
X41499998Y86000000D01*
X41499998Y86000000D02*
X41000002Y86500001D01*
X41500000Y84000000D02*
X45500000Y84000000D01*
X45500000Y84000000D02*
X46000000Y83500000D01*
X41500000Y84000000D02*
X41000000Y83500000D01*
X46000000Y122000000D02*
X46000000Y120500000D01*
X46000000Y125500000D02*
X46000000Y124000000D01*
X45500000Y126000000D02*
X46000000Y125500000D01*
X41500000Y126000000D02*
X45500000Y126000000D01*
X41000000Y125500000D02*
X41000000Y116750000D01*
X41500000Y126000000D02*
X41000000Y125500000D01*
X46000000Y120500000D02*
G75*
G03X46000000Y118500000I1000000J-1000000D01*
G01*
X46000000Y124000000D02*
G75*
G03X46000000Y122000000I1000000J-1000000D01*
G01*
X49500000Y109500000D02*
X49500000Y113250000D01*
X49500000Y113250000D02*
G75*
G03X47000000Y115750000I-2500000J0D01*
G01*
X47000000Y107000000D02*
G75*
G03X49500000Y109500000I0J2500000D01*
G01*
X47000000Y105000000D02*
X40000002Y105000000D01*
X46000000Y116750000D02*
G75*
G03X47000000Y115750000I1000000J0D01*
G01*
X37500000Y113250000D02*
X37500000Y109500000D01*
X37500000Y109500000D02*
G75*
G03X40000000Y107000000I2500000J0D01*
G01*
X40000000Y115750000D02*
G75*
G03X41000000Y116750000I0J1000000D01*
G01*
X46000000Y118500000D02*
X46000000Y116750000D01*
X40000000Y115750000D02*
G75*
G03X37500000Y113250000I0J-2500000D01*
G01*
X40000000Y107000000D02*
X47000000Y107000000D01*
X47000000Y63000000D02*
X40000002Y63000000D01*
X47000000Y65000000D02*
G75*
G03X49500000Y67500000I0J2500000D01*
G01*
X37500000Y67500000D02*
G75*
G03X40000000Y65000000I2500000J0D01*
G01*
X40000000Y65000000D02*
X47000000Y65000000D01*
X45999998Y44500000D02*
X45999998Y53250002D01*
X41000000Y53250000D02*
G75*
G03X40000000Y54250000I-1000000J0D01*
G01*
X40999999Y51500001D02*
X40999998Y53250001D01*
X40999999Y49500001D02*
G75*
G03X40999999Y51500001I-1000000J1000000D01*
G01*
X47000002Y54249998D02*
G75*
G03X45999998Y53250002I-4J-1000000D01*
G01*
X41000000Y48000000D02*
X41000002Y49500001D01*
X45500000Y44000000D02*
X45999998Y44500000D01*
X40999998Y46000002D02*
G75*
G03X41000000Y48000000I-999998J1000000D01*
G01*
X45500000Y44000000D02*
X41499998Y44000000D01*
X41499998Y44000000D02*
X41000002Y44500001D01*
X41000002Y44500001D02*
X40999999Y46000002D01*
X49499997Y60499997D02*
G75*
G03X47000000Y63000000I-2500000J3D01*
G01*
X49500000Y56750003D02*
X49500003Y60500000D01*
X47000004Y54250001D02*
G75*
G03X49500000Y56750003I-3J2499999D01*
G01*
X37499997Y56750001D02*
G75*
G03X40000000Y54250000I2500002J1D01*
G01*
X40000005Y62999999D02*
G75*
G03X37500000Y60500000I-3J-2500002D01*
G01*
X37500000Y60500000D02*
X37499998Y56749998D01*
X32000000Y78500000D02*
G75*
G03X32000000Y76500000I1000000J-1000000D01*
G01*
X32000000Y76500000D02*
X32000000Y74750000D01*
X32000000Y80000000D02*
X32000000Y78500000D01*
X27000000Y83500000D02*
X27000000Y74750000D01*
X33000000Y65000000D02*
G75*
G03X35500000Y67500000I0J2500000D01*
G01*
X35500000Y67500000D02*
X35500000Y71250000D01*
X32000000Y74750000D02*
G75*
G03X33000000Y73750000I1000000J0D01*
G01*
X35500000Y71250000D02*
G75*
G03X33000000Y73750000I-2500000J0D01*
G01*
X26000000Y65000000D02*
X33000000Y65000000D01*
X23500000Y67500000D02*
G75*
G03X26000000Y65000000I2500000J0D01*
G01*
X23500000Y71250000D02*
X23500000Y67500000D01*
X26000000Y73750000D02*
G75*
G03X27000000Y74750000I0J1000000D01*
G01*
X26000000Y73750000D02*
G75*
G03X23500000Y71250000I0J-2500000D01*
G01*
X31500000Y84000000D02*
X32000000Y83500000D01*
X27500000Y84000000D02*
X31500000Y84000000D01*
X32000000Y83500000D02*
X32000000Y82000000D01*
X27500000Y84000000D02*
X27000000Y83500000D01*
X32000000Y82000000D02*
G75*
G03X32000000Y80000000I1000000J-1000000D01*
G01*
X27499998Y44000000D02*
X27000002Y44500001D01*
X31500000Y44000000D02*
X31999998Y44500000D01*
X27000002Y44500001D02*
X26999999Y46000002D01*
X31500000Y44000000D02*
X27499998Y44000000D01*
X26000005Y62999999D02*
G75*
G03X23500000Y60500000I-3J-2500002D01*
G01*
X27000000Y53250000D02*
G75*
G03X26000000Y54250000I-1000000J0D01*
G01*
X23499997Y56750001D02*
G75*
G03X26000000Y54250000I2500002J1D01*
G01*
X26999999Y51500001D02*
X26999998Y53250001D01*
X23500000Y60500000D02*
X23499998Y56749998D01*
X27000000Y48000000D02*
X27000002Y49500001D01*
X26999998Y46000002D02*
G75*
G03X27000000Y48000000I-999998J1000000D01*
G01*
X31999998Y44500000D02*
X31999998Y53250002D01*
X26999999Y49500001D02*
G75*
G03X26999999Y51500001I-1000000J1000000D01*
G01*
X33000004Y54250001D02*
G75*
G03X35500000Y56750003I-3J2499999D01*
G01*
X33000002Y54249998D02*
G75*
G03X31999998Y53250002I-4J-1000000D01*
G01*
X35499997Y60499997D02*
G75*
G03X33000000Y63000000I-2500000J3D01*
G01*
X33000000Y63000000D02*
X26000002Y63000000D01*
X35500000Y56750003D02*
X35500003Y60500000D01*
X27500000Y126000000D02*
X31500000Y126000000D01*
X31500000Y126000000D02*
X32000000Y125500000D01*
X32000000Y124000000D02*
G75*
G03X32000000Y122000000I1000000J-1000000D01*
G01*
X32000000Y125500000D02*
X32000000Y124000000D01*
X27500000Y126000000D02*
X27000000Y125500000D01*
X32000000Y122000000D02*
X32000000Y120500000D01*
X27000000Y125500000D02*
X27000000Y116750000D01*
X35500000Y98750003D02*
X35500003Y102500000D01*
X26999999Y93500001D02*
X26999998Y95250001D01*
X33000004Y96250001D02*
G75*
G03X35500000Y98750003I-3J2499999D01*
G01*
X33000002Y96249998D02*
G75*
G03X31999998Y95250002I-4J-1000000D01*
G01*
X27000000Y95250000D02*
G75*
G03X26000000Y96250000I-1000000J0D01*
G01*
X23499997Y98750001D02*
G75*
G03X26000000Y96250000I2500002J1D01*
G01*
X23500000Y102500000D02*
X23499998Y98749998D01*
X26999999Y91500001D02*
G75*
G03X26999999Y93500001I-1000000J1000000D01*
G01*
X31999998Y86500000D02*
X31999998Y95250002D01*
X27000000Y90000000D02*
X27000002Y91500001D01*
X31500000Y86000000D02*
X27499998Y86000000D01*
X27000002Y86500001D02*
X26999999Y88000002D01*
X27499998Y86000000D02*
X27000002Y86500001D01*
X31500000Y86000000D02*
X31999998Y86500000D01*
X26999998Y88000002D02*
G75*
G03X27000000Y90000000I-999998J1000000D01*
G01*
X33000000Y105000000D02*
X26000002Y105000000D01*
X23500000Y109500000D02*
G75*
G03X26000000Y107000000I2500000J0D01*
G01*
X23500000Y113250000D02*
X23500000Y109500000D01*
X35500000Y109500000D02*
X35500000Y113250000D01*
X35499997Y102499997D02*
G75*
G03X33000000Y105000000I-2500000J3D01*
G01*
X26000005Y104999999D02*
G75*
G03X23500000Y102500000I-3J-2500002D01*
G01*
X26000000Y107000000D02*
X33000000Y107000000D01*
X33000000Y107000000D02*
G75*
G03X35500000Y109500000I0J2500000D01*
G01*
X26000000Y115750000D02*
G75*
G03X23500000Y113250000I0J-2500000D01*
G01*
X32000000Y116750000D02*
G75*
G03X33000000Y115750000I1000000J0D01*
G01*
X35500000Y113250000D02*
G75*
G03X33000000Y115750000I-2500000J0D01*
G01*
X32000000Y120500000D02*
G75*
G03X32000000Y118500000I1000000J-1000000D01*
G01*
X32000000Y118500000D02*
X32000000Y116750000D01*
X26000000Y115750000D02*
G75*
G03X27000000Y116750000I0J1000000D01*
G01*
X23500000Y85000000D02*
X119500000Y85000000D01*
M02*
