G04 #@! TF.FileFunction,Other,ECO1*
%FSLAX46Y46*%
G04 Gerber Fmt 4.6, Leading zero omitted, Abs format (unit mm)*
G04 Created by KiCad (PCBNEW (2016-04-11 BZR 6687, Git f239aee)-product) date Tue 12 Apr 2016 02:23:05 PM CEST*
%MOMM*%
G01*
G04 APERTURE LIST*
%ADD10C,0.150000*%
%ADD11C,0.200000*%
%ADD12C,0.100000*%
G04 APERTURE END LIST*
D10*
D11*
X26393809Y106547619D02*
X26727142Y105547619D01*
X27060476Y106547619D01*
X27393809Y105928571D02*
X28155714Y105928571D01*
X28584285Y105595238D02*
X28679523Y105547619D01*
X28870000Y105547619D01*
X28965238Y105595238D01*
X29012857Y105690476D01*
X29012857Y105738095D01*
X28965238Y105833333D01*
X28870000Y105880952D01*
X28727142Y105880952D01*
X28631904Y105928571D01*
X28584285Y106023809D01*
X28584285Y106071428D01*
X28631904Y106166666D01*
X28727142Y106214285D01*
X28870000Y106214285D01*
X28965238Y106166666D01*
X29870000Y105595238D02*
X29774761Y105547619D01*
X29584285Y105547619D01*
X29489047Y105595238D01*
X29441428Y105642857D01*
X29393809Y105738095D01*
X29393809Y106023809D01*
X29441428Y106119047D01*
X29489047Y106166666D01*
X29584285Y106214285D01*
X29774761Y106214285D01*
X29870000Y106166666D01*
X30441428Y105547619D02*
X30346190Y105595238D01*
X30298571Y105642857D01*
X30250952Y105738095D01*
X30250952Y106023809D01*
X30298571Y106119047D01*
X30346190Y106166666D01*
X30441428Y106214285D01*
X30584285Y106214285D01*
X30679523Y106166666D01*
X30727142Y106119047D01*
X30774761Y106023809D01*
X30774761Y105738095D01*
X30727142Y105642857D01*
X30679523Y105595238D01*
X30584285Y105547619D01*
X30441428Y105547619D01*
X31203333Y105547619D02*
X31203333Y106214285D01*
X31203333Y106023809D02*
X31250952Y106119047D01*
X31298571Y106166666D01*
X31393809Y106214285D01*
X31489047Y106214285D01*
X32203333Y105595238D02*
X32108095Y105547619D01*
X31917619Y105547619D01*
X31822380Y105595238D01*
X31774761Y105690476D01*
X31774761Y106071428D01*
X31822380Y106166666D01*
X31917619Y106214285D01*
X32108095Y106214285D01*
X32203333Y106166666D01*
X32250952Y106071428D01*
X32250952Y105976190D01*
X31774761Y105880952D01*
X26393809Y64547619D02*
X26727142Y63547619D01*
X27060476Y64547619D01*
X27393809Y63928571D02*
X28155714Y63928571D01*
X28584285Y63595238D02*
X28679523Y63547619D01*
X28870000Y63547619D01*
X28965238Y63595238D01*
X29012857Y63690476D01*
X29012857Y63738095D01*
X28965238Y63833333D01*
X28870000Y63880952D01*
X28727142Y63880952D01*
X28631904Y63928571D01*
X28584285Y64023809D01*
X28584285Y64071428D01*
X28631904Y64166666D01*
X28727142Y64214285D01*
X28870000Y64214285D01*
X28965238Y64166666D01*
X29870000Y63595238D02*
X29774761Y63547619D01*
X29584285Y63547619D01*
X29489047Y63595238D01*
X29441428Y63642857D01*
X29393809Y63738095D01*
X29393809Y64023809D01*
X29441428Y64119047D01*
X29489047Y64166666D01*
X29584285Y64214285D01*
X29774761Y64214285D01*
X29870000Y64166666D01*
X30441428Y63547619D02*
X30346190Y63595238D01*
X30298571Y63642857D01*
X30250952Y63738095D01*
X30250952Y64023809D01*
X30298571Y64119047D01*
X30346190Y64166666D01*
X30441428Y64214285D01*
X30584285Y64214285D01*
X30679523Y64166666D01*
X30727142Y64119047D01*
X30774761Y64023809D01*
X30774761Y63738095D01*
X30727142Y63642857D01*
X30679523Y63595238D01*
X30584285Y63547619D01*
X30441428Y63547619D01*
X31203333Y63547619D02*
X31203333Y64214285D01*
X31203333Y64023809D02*
X31250952Y64119047D01*
X31298571Y64166666D01*
X31393809Y64214285D01*
X31489047Y64214285D01*
X32203333Y63595238D02*
X32108095Y63547619D01*
X31917619Y63547619D01*
X31822380Y63595238D01*
X31774761Y63690476D01*
X31774761Y64071428D01*
X31822380Y64166666D01*
X31917619Y64214285D01*
X32108095Y64214285D01*
X32203333Y64166666D01*
X32250952Y64071428D01*
X32250952Y63976190D01*
X31774761Y63880952D01*
X26393809Y85547619D02*
X26727142Y84547619D01*
X27060476Y85547619D01*
X27393809Y84928571D02*
X28155714Y84928571D01*
X28584285Y84595238D02*
X28679523Y84547619D01*
X28870000Y84547619D01*
X28965238Y84595238D01*
X29012857Y84690476D01*
X29012857Y84738095D01*
X28965238Y84833333D01*
X28870000Y84880952D01*
X28727142Y84880952D01*
X28631904Y84928571D01*
X28584285Y85023809D01*
X28584285Y85071428D01*
X28631904Y85166666D01*
X28727142Y85214285D01*
X28870000Y85214285D01*
X28965238Y85166666D01*
X29870000Y84595238D02*
X29774761Y84547619D01*
X29584285Y84547619D01*
X29489047Y84595238D01*
X29441428Y84642857D01*
X29393809Y84738095D01*
X29393809Y85023809D01*
X29441428Y85119047D01*
X29489047Y85166666D01*
X29584285Y85214285D01*
X29774761Y85214285D01*
X29870000Y85166666D01*
X30441428Y84547619D02*
X30346190Y84595238D01*
X30298571Y84642857D01*
X30250952Y84738095D01*
X30250952Y85023809D01*
X30298571Y85119047D01*
X30346190Y85166666D01*
X30441428Y85214285D01*
X30584285Y85214285D01*
X30679523Y85166666D01*
X30727142Y85119047D01*
X30774761Y85023809D01*
X30774761Y84738095D01*
X30727142Y84642857D01*
X30679523Y84595238D01*
X30584285Y84547619D01*
X30441428Y84547619D01*
X31203333Y84547619D02*
X31203333Y85214285D01*
X31203333Y85023809D02*
X31250952Y85119047D01*
X31298571Y85166666D01*
X31393809Y85214285D01*
X31489047Y85214285D01*
X32203333Y84595238D02*
X32108095Y84547619D01*
X31917619Y84547619D01*
X31822380Y84595238D01*
X31774761Y84690476D01*
X31774761Y85071428D01*
X31822380Y85166666D01*
X31917619Y85214285D01*
X32108095Y85214285D01*
X32203333Y85166666D01*
X32250952Y85071428D01*
X32250952Y84976190D01*
X31774761Y84880952D01*
X105952380Y118143809D02*
X106952380Y118477142D01*
X105952380Y118810476D01*
X106571428Y119143809D02*
X106571428Y119905714D01*
X106904761Y120334285D02*
X106952380Y120429523D01*
X106952380Y120620000D01*
X106904761Y120715238D01*
X106809523Y120762857D01*
X106761904Y120762857D01*
X106666666Y120715238D01*
X106619047Y120620000D01*
X106619047Y120477142D01*
X106571428Y120381904D01*
X106476190Y120334285D01*
X106428571Y120334285D01*
X106333333Y120381904D01*
X106285714Y120477142D01*
X106285714Y120620000D01*
X106333333Y120715238D01*
X106904761Y121620000D02*
X106952380Y121524761D01*
X106952380Y121334285D01*
X106904761Y121239047D01*
X106857142Y121191428D01*
X106761904Y121143809D01*
X106476190Y121143809D01*
X106380952Y121191428D01*
X106333333Y121239047D01*
X106285714Y121334285D01*
X106285714Y121524761D01*
X106333333Y121620000D01*
X106952380Y122191428D02*
X106904761Y122096190D01*
X106857142Y122048571D01*
X106761904Y122000952D01*
X106476190Y122000952D01*
X106380952Y122048571D01*
X106333333Y122096190D01*
X106285714Y122191428D01*
X106285714Y122334285D01*
X106333333Y122429523D01*
X106380952Y122477142D01*
X106476190Y122524761D01*
X106761904Y122524761D01*
X106857142Y122477142D01*
X106904761Y122429523D01*
X106952380Y122334285D01*
X106952380Y122191428D01*
X106952380Y122953333D02*
X106285714Y122953333D01*
X106476190Y122953333D02*
X106380952Y123000952D01*
X106333333Y123048571D01*
X106285714Y123143809D01*
X106285714Y123239047D01*
X106904761Y123953333D02*
X106952380Y123858095D01*
X106952380Y123667619D01*
X106904761Y123572380D01*
X106809523Y123524761D01*
X106428571Y123524761D01*
X106333333Y123572380D01*
X106285714Y123667619D01*
X106285714Y123858095D01*
X106333333Y123953333D01*
X106428571Y124000952D01*
X106523809Y124000952D01*
X106619047Y123524761D01*
X91952380Y118143809D02*
X92952380Y118477142D01*
X91952380Y118810476D01*
X92571428Y119143809D02*
X92571428Y119905714D01*
X92904761Y120334285D02*
X92952380Y120429523D01*
X92952380Y120620000D01*
X92904761Y120715238D01*
X92809523Y120762857D01*
X92761904Y120762857D01*
X92666666Y120715238D01*
X92619047Y120620000D01*
X92619047Y120477142D01*
X92571428Y120381904D01*
X92476190Y120334285D01*
X92428571Y120334285D01*
X92333333Y120381904D01*
X92285714Y120477142D01*
X92285714Y120620000D01*
X92333333Y120715238D01*
X92904761Y121620000D02*
X92952380Y121524761D01*
X92952380Y121334285D01*
X92904761Y121239047D01*
X92857142Y121191428D01*
X92761904Y121143809D01*
X92476190Y121143809D01*
X92380952Y121191428D01*
X92333333Y121239047D01*
X92285714Y121334285D01*
X92285714Y121524761D01*
X92333333Y121620000D01*
X92952380Y122191428D02*
X92904761Y122096190D01*
X92857142Y122048571D01*
X92761904Y122000952D01*
X92476190Y122000952D01*
X92380952Y122048571D01*
X92333333Y122096190D01*
X92285714Y122191428D01*
X92285714Y122334285D01*
X92333333Y122429523D01*
X92380952Y122477142D01*
X92476190Y122524761D01*
X92761904Y122524761D01*
X92857142Y122477142D01*
X92904761Y122429523D01*
X92952380Y122334285D01*
X92952380Y122191428D01*
X92952380Y122953333D02*
X92285714Y122953333D01*
X92476190Y122953333D02*
X92380952Y123000952D01*
X92333333Y123048571D01*
X92285714Y123143809D01*
X92285714Y123239047D01*
X92904761Y123953333D02*
X92952380Y123858095D01*
X92952380Y123667619D01*
X92904761Y123572380D01*
X92809523Y123524761D01*
X92428571Y123524761D01*
X92333333Y123572380D01*
X92285714Y123667619D01*
X92285714Y123858095D01*
X92333333Y123953333D01*
X92428571Y124000952D01*
X92523809Y124000952D01*
X92619047Y123524761D01*
X63952380Y118143809D02*
X64952380Y118477142D01*
X63952380Y118810476D01*
X64571428Y119143809D02*
X64571428Y119905714D01*
X64904761Y120334285D02*
X64952380Y120429523D01*
X64952380Y120620000D01*
X64904761Y120715238D01*
X64809523Y120762857D01*
X64761904Y120762857D01*
X64666666Y120715238D01*
X64619047Y120620000D01*
X64619047Y120477142D01*
X64571428Y120381904D01*
X64476190Y120334285D01*
X64428571Y120334285D01*
X64333333Y120381904D01*
X64285714Y120477142D01*
X64285714Y120620000D01*
X64333333Y120715238D01*
X64904761Y121620000D02*
X64952380Y121524761D01*
X64952380Y121334285D01*
X64904761Y121239047D01*
X64857142Y121191428D01*
X64761904Y121143809D01*
X64476190Y121143809D01*
X64380952Y121191428D01*
X64333333Y121239047D01*
X64285714Y121334285D01*
X64285714Y121524761D01*
X64333333Y121620000D01*
X64952380Y122191428D02*
X64904761Y122096190D01*
X64857142Y122048571D01*
X64761904Y122000952D01*
X64476190Y122000952D01*
X64380952Y122048571D01*
X64333333Y122096190D01*
X64285714Y122191428D01*
X64285714Y122334285D01*
X64333333Y122429523D01*
X64380952Y122477142D01*
X64476190Y122524761D01*
X64761904Y122524761D01*
X64857142Y122477142D01*
X64904761Y122429523D01*
X64952380Y122334285D01*
X64952380Y122191428D01*
X64952380Y122953333D02*
X64285714Y122953333D01*
X64476190Y122953333D02*
X64380952Y123000952D01*
X64333333Y123048571D01*
X64285714Y123143809D01*
X64285714Y123239047D01*
X64904761Y123953333D02*
X64952380Y123858095D01*
X64952380Y123667619D01*
X64904761Y123572380D01*
X64809523Y123524761D01*
X64428571Y123524761D01*
X64333333Y123572380D01*
X64285714Y123667619D01*
X64285714Y123858095D01*
X64333333Y123953333D01*
X64428571Y124000952D01*
X64523809Y124000952D01*
X64619047Y123524761D01*
X77952380Y118143809D02*
X78952380Y118477142D01*
X77952380Y118810476D01*
X78571428Y119143809D02*
X78571428Y119905714D01*
X78904761Y120334285D02*
X78952380Y120429523D01*
X78952380Y120620000D01*
X78904761Y120715238D01*
X78809523Y120762857D01*
X78761904Y120762857D01*
X78666666Y120715238D01*
X78619047Y120620000D01*
X78619047Y120477142D01*
X78571428Y120381904D01*
X78476190Y120334285D01*
X78428571Y120334285D01*
X78333333Y120381904D01*
X78285714Y120477142D01*
X78285714Y120620000D01*
X78333333Y120715238D01*
X78904761Y121620000D02*
X78952380Y121524761D01*
X78952380Y121334285D01*
X78904761Y121239047D01*
X78857142Y121191428D01*
X78761904Y121143809D01*
X78476190Y121143809D01*
X78380952Y121191428D01*
X78333333Y121239047D01*
X78285714Y121334285D01*
X78285714Y121524761D01*
X78333333Y121620000D01*
X78952380Y122191428D02*
X78904761Y122096190D01*
X78857142Y122048571D01*
X78761904Y122000952D01*
X78476190Y122000952D01*
X78380952Y122048571D01*
X78333333Y122096190D01*
X78285714Y122191428D01*
X78285714Y122334285D01*
X78333333Y122429523D01*
X78380952Y122477142D01*
X78476190Y122524761D01*
X78761904Y122524761D01*
X78857142Y122477142D01*
X78904761Y122429523D01*
X78952380Y122334285D01*
X78952380Y122191428D01*
X78952380Y122953333D02*
X78285714Y122953333D01*
X78476190Y122953333D02*
X78380952Y123000952D01*
X78333333Y123048571D01*
X78285714Y123143809D01*
X78285714Y123239047D01*
X78904761Y123953333D02*
X78952380Y123858095D01*
X78952380Y123667619D01*
X78904761Y123572380D01*
X78809523Y123524761D01*
X78428571Y123524761D01*
X78333333Y123572380D01*
X78285714Y123667619D01*
X78285714Y123858095D01*
X78333333Y123953333D01*
X78428571Y124000952D01*
X78523809Y124000952D01*
X78619047Y123524761D01*
X49952380Y118143809D02*
X50952380Y118477142D01*
X49952380Y118810476D01*
X50571428Y119143809D02*
X50571428Y119905714D01*
X50904761Y120334285D02*
X50952380Y120429523D01*
X50952380Y120620000D01*
X50904761Y120715238D01*
X50809523Y120762857D01*
X50761904Y120762857D01*
X50666666Y120715238D01*
X50619047Y120620000D01*
X50619047Y120477142D01*
X50571428Y120381904D01*
X50476190Y120334285D01*
X50428571Y120334285D01*
X50333333Y120381904D01*
X50285714Y120477142D01*
X50285714Y120620000D01*
X50333333Y120715238D01*
X50904761Y121620000D02*
X50952380Y121524761D01*
X50952380Y121334285D01*
X50904761Y121239047D01*
X50857142Y121191428D01*
X50761904Y121143809D01*
X50476190Y121143809D01*
X50380952Y121191428D01*
X50333333Y121239047D01*
X50285714Y121334285D01*
X50285714Y121524761D01*
X50333333Y121620000D01*
X50952380Y122191428D02*
X50904761Y122096190D01*
X50857142Y122048571D01*
X50761904Y122000952D01*
X50476190Y122000952D01*
X50380952Y122048571D01*
X50333333Y122096190D01*
X50285714Y122191428D01*
X50285714Y122334285D01*
X50333333Y122429523D01*
X50380952Y122477142D01*
X50476190Y122524761D01*
X50761904Y122524761D01*
X50857142Y122477142D01*
X50904761Y122429523D01*
X50952380Y122334285D01*
X50952380Y122191428D01*
X50952380Y122953333D02*
X50285714Y122953333D01*
X50476190Y122953333D02*
X50380952Y123000952D01*
X50333333Y123048571D01*
X50285714Y123143809D01*
X50285714Y123239047D01*
X50904761Y123953333D02*
X50952380Y123858095D01*
X50952380Y123667619D01*
X50904761Y123572380D01*
X50809523Y123524761D01*
X50428571Y123524761D01*
X50333333Y123572380D01*
X50285714Y123667619D01*
X50285714Y123858095D01*
X50333333Y123953333D01*
X50428571Y124000952D01*
X50523809Y124000952D01*
X50619047Y123524761D01*
X35952380Y118143809D02*
X36952380Y118477142D01*
X35952380Y118810476D01*
X36571428Y119143809D02*
X36571428Y119905714D01*
X36904761Y120334285D02*
X36952380Y120429523D01*
X36952380Y120620000D01*
X36904761Y120715238D01*
X36809523Y120762857D01*
X36761904Y120762857D01*
X36666666Y120715238D01*
X36619047Y120620000D01*
X36619047Y120477142D01*
X36571428Y120381904D01*
X36476190Y120334285D01*
X36428571Y120334285D01*
X36333333Y120381904D01*
X36285714Y120477142D01*
X36285714Y120620000D01*
X36333333Y120715238D01*
X36904761Y121620000D02*
X36952380Y121524761D01*
X36952380Y121334285D01*
X36904761Y121239047D01*
X36857142Y121191428D01*
X36761904Y121143809D01*
X36476190Y121143809D01*
X36380952Y121191428D01*
X36333333Y121239047D01*
X36285714Y121334285D01*
X36285714Y121524761D01*
X36333333Y121620000D01*
X36952380Y122191428D02*
X36904761Y122096190D01*
X36857142Y122048571D01*
X36761904Y122000952D01*
X36476190Y122000952D01*
X36380952Y122048571D01*
X36333333Y122096190D01*
X36285714Y122191428D01*
X36285714Y122334285D01*
X36333333Y122429523D01*
X36380952Y122477142D01*
X36476190Y122524761D01*
X36761904Y122524761D01*
X36857142Y122477142D01*
X36904761Y122429523D01*
X36952380Y122334285D01*
X36952380Y122191428D01*
X36952380Y122953333D02*
X36285714Y122953333D01*
X36476190Y122953333D02*
X36380952Y123000952D01*
X36333333Y123048571D01*
X36285714Y123143809D01*
X36285714Y123239047D01*
X36904761Y123953333D02*
X36952380Y123858095D01*
X36952380Y123667619D01*
X36904761Y123572380D01*
X36809523Y123524761D01*
X36428571Y123524761D01*
X36333333Y123572380D01*
X36285714Y123667619D01*
X36285714Y123858095D01*
X36333333Y123953333D01*
X36428571Y124000952D01*
X36523809Y124000952D01*
X36619047Y123524761D01*
D12*
X107500000Y44000000D02*
X107500000Y126000000D01*
X105500000Y126000000D02*
X105500000Y44000000D01*
X93500000Y44000000D02*
X93500000Y126000000D01*
X91500000Y126000000D02*
X91500000Y44000000D01*
X79500000Y44000000D02*
X79500000Y126000000D01*
X77500000Y126000000D02*
X77500000Y44000000D01*
X65500000Y44000000D02*
X65500000Y126000000D01*
X63500000Y126000000D02*
X63500000Y44000000D01*
X51500000Y44000000D02*
X51500000Y126000000D01*
X49500000Y126000000D02*
X49500000Y44000000D01*
X37500000Y126000000D02*
X37500000Y44000000D01*
X35500000Y126000000D02*
X35500000Y44000000D01*
X119500000Y63000000D02*
X23500000Y63000000D01*
X23500000Y65000000D02*
X119500000Y65000000D01*
X119500000Y105000000D02*
X23500000Y105000000D01*
X23500000Y107000000D02*
X119500000Y107000000D01*
X23500000Y86000000D02*
X119500000Y86000000D01*
X23500000Y84000000D02*
X119500000Y84000000D01*
M02*
