M48
METRIC,TZ
T1C1.016
%
G90
G05
T1
X26.96Y111.77
X26.96Y109.23
X26.96Y69.77
X26.96Y67.23
X26.96Y102.77
X26.96Y100.23
X26.96Y60.77
X26.96Y58.23
X29.5Y111.77
X29.5Y109.23
X29.5Y69.77
X29.5Y67.23
X29.5Y102.77
X29.5Y100.23
X29.5Y60.77
X29.5Y58.23
X32.04Y111.77
X32.04Y109.23
X32.04Y69.77
X32.04Y67.23
X32.04Y102.77
X32.04Y100.23
X32.04Y60.77
X32.04Y58.23
X40.96Y111.77
X40.96Y109.23
X40.96Y69.77
X40.96Y67.23
X40.96Y102.77
X40.96Y100.23
X40.96Y60.77
X40.96Y58.23
X43.5Y111.77
X43.5Y109.23
X43.5Y69.77
X43.5Y67.23
X43.5Y102.77
X43.5Y100.23
X43.5Y60.77
X43.5Y58.23
X46.04Y111.77
X46.04Y109.23
X46.04Y69.77
X46.04Y67.23
X46.04Y102.77
X46.04Y100.23
X46.04Y60.77
X46.04Y58.23
X54.96Y111.77
X54.96Y109.23
X54.96Y69.77
X54.96Y67.23
X54.96Y102.77
X54.96Y100.23
X54.96Y60.77
X54.96Y58.23
X57.5Y111.77
X57.5Y109.23
X57.5Y69.77
X57.5Y67.23
X57.5Y102.77
X57.5Y100.23
X57.5Y60.77
X57.5Y58.23
X60.04Y111.77
X60.04Y109.23
X60.04Y69.77
X60.04Y67.23
X60.04Y102.77
X60.04Y100.23
X60.04Y60.77
X60.04Y58.23
X68.96Y111.77
X68.96Y109.23
X68.96Y69.77
X68.96Y67.23
X68.96Y102.77
X68.96Y100.23
X68.96Y60.77
X68.96Y58.23
X71.5Y111.77
X71.5Y109.23
X71.5Y69.77
X71.5Y67.23
X71.5Y102.77
X71.5Y100.23
X71.5Y60.77
X71.5Y58.23
X74.04Y111.77
X74.04Y109.23
X74.04Y69.77
X74.04Y67.23
X74.04Y102.77
X74.04Y100.23
X74.04Y60.77
X74.04Y58.23
X82.96Y111.77
X82.96Y109.23
X82.96Y69.77
X82.96Y67.23
X82.96Y102.77
X82.96Y100.23
X82.96Y60.77
X82.96Y58.23
X85.5Y111.77
X85.5Y109.23
X85.5Y69.77
X85.5Y67.23
X85.5Y102.77
X85.5Y100.23
X85.5Y60.77
X85.5Y58.23
X88.04Y111.77
X88.04Y109.23
X88.04Y69.77
X88.04Y67.23
X88.04Y102.77
X88.04Y100.23
X88.04Y60.77
X88.04Y58.23
X96.96Y111.77
X96.96Y109.23
X96.96Y69.77
X96.96Y67.23
X96.96Y102.77
X96.96Y100.23
X96.96Y60.77
X96.96Y58.23
X99.5Y111.77
X99.5Y109.23
X99.5Y69.77
X99.5Y67.23
X99.5Y102.77
X99.5Y100.23
X99.5Y60.77
X99.5Y58.23
X102.04Y111.77
X102.04Y109.23
X102.04Y69.77
X102.04Y67.23
X102.04Y102.77
X102.04Y100.23
X102.04Y60.77
X102.04Y58.23
X110.96Y111.77
X110.96Y109.23
X110.96Y69.77
X110.96Y67.23
X110.96Y102.77
X110.96Y100.23
X110.96Y60.77
X110.96Y58.23
X113.5Y111.77
X113.5Y109.23
X113.5Y69.77
X113.5Y67.23
X113.5Y102.77
X113.5Y100.23
X113.5Y60.77
X113.5Y58.23
X116.04Y111.77
X116.04Y109.23
X116.04Y69.77
X116.04Y67.23
X116.04Y102.77
X116.04Y100.23
X116.04Y60.77
X116.04Y58.23
T0
M30
