G04 #@! TF.FileFunction,Other,ECO2*
%FSLAX46Y46*%
G04 Gerber Fmt 4.6, Leading zero omitted, Abs format (unit mm)*
G04 Created by KiCad (PCBNEW (2016-04-11 BZR 6687, Git f239aee)-product) date Tue 12 Apr 2016 02:23:05 PM CEST*
%MOMM*%
G01*
G04 APERTURE LIST*
%ADD10C,0.150000*%
%ADD11C,0.200000*%
%ADD12C,1.000000*%
G04 APERTURE END LIST*
D10*
D11*
X106041059Y83300329D02*
X105461999Y83249749D01*
X105755344Y82805457D02*
X104889319Y83305457D01*
X105079795Y83635371D01*
X105168653Y83694041D01*
X105233702Y83711470D01*
X105339990Y83705091D01*
X105463708Y83633662D01*
X105522377Y83544804D01*
X105539807Y83479755D01*
X105533427Y83373467D01*
X105342951Y83043552D01*
X105484557Y84336440D02*
X105579795Y84501397D01*
X105668653Y84560066D01*
X105798751Y84594925D01*
X105987518Y84540927D01*
X106276193Y84374260D01*
X106417341Y84237783D01*
X106452200Y84107685D01*
X106445821Y84001397D01*
X106350582Y83836440D01*
X106261724Y83777771D01*
X106131626Y83742911D01*
X105942860Y83796910D01*
X105654185Y83963576D01*
X105513037Y84100054D01*
X105478177Y84230151D01*
X105484557Y84336440D01*
X105913128Y85078747D02*
X106614197Y84673985D01*
X106720485Y84667605D01*
X106785534Y84685035D01*
X106874392Y84743704D01*
X106969630Y84908662D01*
X106976010Y85014950D01*
X106958580Y85079999D01*
X106899911Y85168857D01*
X106198843Y85573619D01*
X106365509Y85862294D02*
X106651224Y86357166D01*
X107374392Y85609730D02*
X106508367Y86109730D01*
X107230283Y86407745D02*
X107396950Y86696421D01*
X107922011Y86558234D02*
X107683916Y86145841D01*
X106817890Y86645841D01*
X107055986Y87058234D01*
X92041059Y83300329D02*
X91461999Y83249749D01*
X91755344Y82805457D02*
X90889319Y83305457D01*
X91079795Y83635371D01*
X91168653Y83694041D01*
X91233702Y83711470D01*
X91339990Y83705091D01*
X91463708Y83633662D01*
X91522377Y83544804D01*
X91539807Y83479755D01*
X91533427Y83373467D01*
X91342951Y83043552D01*
X91484557Y84336440D02*
X91579795Y84501397D01*
X91668653Y84560066D01*
X91798751Y84594925D01*
X91987518Y84540927D01*
X92276193Y84374260D01*
X92417341Y84237783D01*
X92452200Y84107685D01*
X92445821Y84001397D01*
X92350582Y83836440D01*
X92261724Y83777771D01*
X92131626Y83742911D01*
X91942860Y83796910D01*
X91654185Y83963576D01*
X91513037Y84100054D01*
X91478177Y84230151D01*
X91484557Y84336440D01*
X91913128Y85078747D02*
X92614197Y84673985D01*
X92720485Y84667605D01*
X92785534Y84685035D01*
X92874392Y84743704D01*
X92969630Y84908662D01*
X92976010Y85014950D01*
X92958580Y85079999D01*
X92899911Y85168857D01*
X92198843Y85573619D01*
X92365509Y85862294D02*
X92651224Y86357166D01*
X93374392Y85609730D02*
X92508367Y86109730D01*
X93230283Y86407745D02*
X93396950Y86696421D01*
X93922011Y86558234D02*
X93683916Y86145841D01*
X92817890Y86645841D01*
X93055986Y87058234D01*
X78041059Y83300329D02*
X77461999Y83249749D01*
X77755344Y82805457D02*
X76889319Y83305457D01*
X77079795Y83635371D01*
X77168653Y83694041D01*
X77233702Y83711470D01*
X77339990Y83705091D01*
X77463708Y83633662D01*
X77522377Y83544804D01*
X77539807Y83479755D01*
X77533427Y83373467D01*
X77342951Y83043552D01*
X77484557Y84336440D02*
X77579795Y84501397D01*
X77668653Y84560066D01*
X77798751Y84594925D01*
X77987518Y84540927D01*
X78276193Y84374260D01*
X78417341Y84237783D01*
X78452200Y84107685D01*
X78445821Y84001397D01*
X78350582Y83836440D01*
X78261724Y83777771D01*
X78131626Y83742911D01*
X77942860Y83796910D01*
X77654185Y83963576D01*
X77513037Y84100054D01*
X77478177Y84230151D01*
X77484557Y84336440D01*
X77913128Y85078747D02*
X78614197Y84673985D01*
X78720485Y84667605D01*
X78785534Y84685035D01*
X78874392Y84743704D01*
X78969630Y84908662D01*
X78976010Y85014950D01*
X78958580Y85079999D01*
X78899911Y85168857D01*
X78198843Y85573619D01*
X78365509Y85862294D02*
X78651224Y86357166D01*
X79374392Y85609730D02*
X78508367Y86109730D01*
X79230283Y86407745D02*
X79396950Y86696421D01*
X79922011Y86558234D02*
X79683916Y86145841D01*
X78817890Y86645841D01*
X79055986Y87058234D01*
X64041059Y83300329D02*
X63461999Y83249749D01*
X63755344Y82805457D02*
X62889319Y83305457D01*
X63079795Y83635371D01*
X63168653Y83694041D01*
X63233702Y83711470D01*
X63339990Y83705091D01*
X63463708Y83633662D01*
X63522377Y83544804D01*
X63539807Y83479755D01*
X63533427Y83373467D01*
X63342951Y83043552D01*
X63484557Y84336440D02*
X63579795Y84501397D01*
X63668653Y84560066D01*
X63798751Y84594925D01*
X63987518Y84540927D01*
X64276193Y84374260D01*
X64417341Y84237783D01*
X64452200Y84107685D01*
X64445821Y84001397D01*
X64350582Y83836440D01*
X64261724Y83777771D01*
X64131626Y83742911D01*
X63942860Y83796910D01*
X63654185Y83963576D01*
X63513037Y84100054D01*
X63478177Y84230151D01*
X63484557Y84336440D01*
X63913128Y85078747D02*
X64614197Y84673985D01*
X64720485Y84667605D01*
X64785534Y84685035D01*
X64874392Y84743704D01*
X64969630Y84908662D01*
X64976010Y85014950D01*
X64958580Y85079999D01*
X64899911Y85168857D01*
X64198843Y85573619D01*
X64365509Y85862294D02*
X64651224Y86357166D01*
X65374392Y85609730D02*
X64508367Y86109730D01*
X65230283Y86407745D02*
X65396950Y86696421D01*
X65922011Y86558234D02*
X65683916Y86145841D01*
X64817890Y86645841D01*
X65055986Y87058234D01*
X50041059Y83300329D02*
X49461999Y83249749D01*
X49755344Y82805457D02*
X48889319Y83305457D01*
X49079795Y83635371D01*
X49168653Y83694041D01*
X49233702Y83711470D01*
X49339990Y83705091D01*
X49463708Y83633662D01*
X49522377Y83544804D01*
X49539807Y83479755D01*
X49533427Y83373467D01*
X49342951Y83043552D01*
X49484557Y84336440D02*
X49579795Y84501397D01*
X49668653Y84560066D01*
X49798751Y84594925D01*
X49987518Y84540927D01*
X50276193Y84374260D01*
X50417341Y84237783D01*
X50452200Y84107685D01*
X50445821Y84001397D01*
X50350582Y83836440D01*
X50261724Y83777771D01*
X50131626Y83742911D01*
X49942860Y83796910D01*
X49654185Y83963576D01*
X49513037Y84100054D01*
X49478177Y84230151D01*
X49484557Y84336440D01*
X49913128Y85078747D02*
X50614197Y84673985D01*
X50720485Y84667605D01*
X50785534Y84685035D01*
X50874392Y84743704D01*
X50969630Y84908662D01*
X50976010Y85014950D01*
X50958580Y85079999D01*
X50899911Y85168857D01*
X50198843Y85573619D01*
X50365509Y85862294D02*
X50651224Y86357166D01*
X51374392Y85609730D02*
X50508367Y86109730D01*
X51230283Y86407745D02*
X51396950Y86696421D01*
X51922011Y86558234D02*
X51683916Y86145841D01*
X50817890Y86645841D01*
X51055986Y87058234D01*
X36041059Y83300329D02*
X35461999Y83249749D01*
X35755344Y82805457D02*
X34889319Y83305457D01*
X35079795Y83635371D01*
X35168653Y83694041D01*
X35233702Y83711470D01*
X35339990Y83705091D01*
X35463708Y83633662D01*
X35522377Y83544804D01*
X35539807Y83479755D01*
X35533427Y83373467D01*
X35342951Y83043552D01*
X35484557Y84336440D02*
X35579795Y84501397D01*
X35668653Y84560066D01*
X35798751Y84594925D01*
X35987518Y84540927D01*
X36276193Y84374260D01*
X36417341Y84237783D01*
X36452200Y84107685D01*
X36445821Y84001397D01*
X36350582Y83836440D01*
X36261724Y83777771D01*
X36131626Y83742911D01*
X35942860Y83796910D01*
X35654185Y83963576D01*
X35513037Y84100054D01*
X35478177Y84230151D01*
X35484557Y84336440D01*
X35913128Y85078747D02*
X36614197Y84673985D01*
X36720485Y84667605D01*
X36785534Y84685035D01*
X36874392Y84743704D01*
X36969630Y84908662D01*
X36976010Y85014950D01*
X36958580Y85079999D01*
X36899911Y85168857D01*
X36198843Y85573619D01*
X36365509Y85862294D02*
X36651224Y86357166D01*
X37374392Y85609730D02*
X36508367Y86109730D01*
X37230283Y86407745D02*
X37396950Y86696421D01*
X37922011Y86558234D02*
X37683916Y86145841D01*
X36817890Y86645841D01*
X37055986Y87058234D01*
D12*
X92000000Y56750000D02*
X93000000Y56750000D01*
X92000000Y60500000D02*
X93000000Y60500000D01*
X93000000Y67500000D02*
X92000000Y67500000D01*
X92000000Y71250000D02*
X93000000Y71250000D01*
X93000000Y113250000D02*
X92000000Y113250000D01*
X92000000Y109500000D02*
X93000000Y109500000D01*
X92000000Y98750000D02*
X93000000Y98750000D01*
X92000000Y102500000D02*
X93000000Y102500000D01*
X65000000Y113250000D02*
X64000000Y113250000D01*
X64000000Y109500000D02*
X65000000Y109500000D01*
X65000000Y98750000D02*
X64000000Y98750000D01*
X64000000Y102500000D02*
X65000000Y102500000D01*
X65000000Y71250000D02*
X64000000Y71250000D01*
X64000000Y67500000D02*
X65000000Y67500000D01*
X65000000Y60500000D02*
X64000000Y60500000D01*
X64000000Y56750000D02*
X65000000Y56750000D01*
X51000000Y56750000D02*
X50000000Y56750000D01*
X50000000Y60500000D02*
X51000000Y60500000D01*
X51000000Y67500000D02*
X50000000Y67500000D01*
X50000000Y71250000D02*
X51000000Y71250000D01*
X50000000Y98750000D02*
X51000000Y98750000D01*
X51000000Y102500000D02*
X50000000Y102500000D01*
X51000000Y109500000D02*
X50000000Y109500000D01*
X50000000Y113250000D02*
X51000000Y113250000D01*
X61000000Y95749996D02*
G75*
G03X60500000Y95250000I-2J-499998D01*
G01*
X54499998Y95250002D02*
G75*
G03X53999998Y95749998I-499998J-2D01*
G01*
X60499998Y86250001D02*
X60500000Y95250000D01*
X54499998Y89750003D02*
X54500001Y91750001D01*
X54499994Y91749998D02*
G75*
G03X54500004Y93249998I-499995J750003D01*
G01*
X54500002Y88250003D02*
G75*
G03X54499998Y89750003I-500002J749999D01*
G01*
X54500000Y86249999D02*
X54499997Y88249999D01*
X54500002Y95249999D02*
X54500004Y93249998D01*
X50999995Y98750003D02*
G75*
G03X53999998Y95749998I3000004J-1D01*
G01*
X54000003Y105500000D02*
G75*
G03X50999999Y102499998I-1J-3000003D01*
G01*
X63999997Y102499997D02*
G75*
G03X61000000Y105500000I-3000000J3D01*
G01*
X61000002Y95750000D02*
G75*
G03X64000001Y98750001I-1J3000000D01*
G01*
X55750000Y85500000D02*
X55750000Y84500000D01*
X55250000Y85500000D02*
X55750000Y85500000D01*
X55250000Y84500000D02*
X55750000Y84500000D01*
X55250002Y85500000D02*
X54500000Y86249999D01*
X59750000Y85500000D02*
X59250000Y85500000D01*
X59250000Y85500000D02*
X59250000Y84500000D01*
X59250000Y84500000D02*
X59750000Y84500000D01*
X60499998Y86250001D02*
X59750002Y85500001D01*
X61000000Y63500000D02*
X61000003Y64499998D01*
X61000000Y64500000D02*
G75*
G03X64000000Y67500000I0J3000000D01*
G01*
X63999997Y60499997D02*
G75*
G03X61000000Y63500000I-3000000J3D01*
G01*
X54000002Y63499998D02*
X53999999Y64500001D01*
X59750000Y84500000D02*
X60500000Y83750000D01*
X60500000Y83750000D02*
X60500000Y81750000D01*
X54500000Y83750000D02*
X54500000Y74750000D01*
X54000000Y74250000D02*
G75*
G03X54500000Y74750000I0J500000D01*
G01*
X54500000Y83750000D02*
X55250000Y84500000D01*
X60500000Y81750000D02*
G75*
G03X60500000Y80250000I500000J-750000D01*
G01*
X60500000Y74750000D02*
G75*
G03X61000000Y74250000I500000J0D01*
G01*
X60500000Y78250000D02*
G75*
G03X60500000Y76750000I500000J-750000D01*
G01*
X60500000Y74750000D02*
X60500000Y76750000D01*
X60500000Y80250000D02*
X60500000Y78250000D01*
X64000000Y71250000D02*
G75*
G03X61000000Y74250000I-3000000J0D01*
G01*
X50999995Y56750003D02*
G75*
G03X53999998Y53749998I3000004J-1D01*
G01*
X61000000Y53749996D02*
G75*
G03X60500000Y53250000I-2J-499998D01*
G01*
X61000002Y53750000D02*
G75*
G03X64000001Y56750001I-1J3000000D01*
G01*
X54000003Y63500000D02*
G75*
G03X50999999Y60499998I-1J-3000003D01*
G01*
X54000000Y74250000D02*
G75*
G03X51000000Y71250000I0J-3000000D01*
G01*
X51000000Y67500000D02*
G75*
G03X54000000Y64500000I3000000J0D01*
G01*
X55250002Y43500000D02*
X54500000Y44249999D01*
X54500000Y44249999D02*
X54499997Y46249999D01*
X60499998Y44250001D02*
X59750002Y43500001D01*
X59750002Y43500001D02*
X55250002Y43500000D01*
X54499994Y49749998D02*
G75*
G03X54500004Y51249998I-499995J750003D01*
G01*
X54499998Y53250002D02*
G75*
G03X53999998Y53749998I-499998J-2D01*
G01*
X60499998Y44250001D02*
X60500000Y53250000D01*
X54499998Y47750003D02*
X54500001Y49750001D01*
X54500002Y53249999D02*
X54500004Y51249998D01*
X54500002Y46250003D02*
G75*
G03X54499998Y47750003I-500002J749999D01*
G01*
X60500000Y122250000D02*
X60500000Y120250000D01*
X60500000Y116750000D02*
X60500000Y118750000D01*
X60500000Y120250000D02*
G75*
G03X60500000Y118750000I500000J-750000D01*
G01*
X60500000Y116750000D02*
G75*
G03X61000000Y116250000I500000J0D01*
G01*
X51000000Y109500000D02*
G75*
G03X54000000Y106500000I3000000J0D01*
G01*
X54000000Y116250000D02*
G75*
G03X51000000Y113250000I0J-3000000D01*
G01*
X54000002Y105499998D02*
X53999999Y106500001D01*
X54000000Y116250000D02*
G75*
G03X54500000Y116750000I0J500000D01*
G01*
X61000000Y105500000D02*
X61000003Y106499998D01*
X61000000Y106500000D02*
G75*
G03X64000000Y109500000I0J3000000D01*
G01*
X64000000Y113250000D02*
G75*
G03X61000000Y116250000I-3000000J0D01*
G01*
X54500000Y125750000D02*
X54500000Y116750000D01*
X54500000Y125750000D02*
X55250000Y126500000D01*
X60500000Y123750000D02*
G75*
G03X60500000Y122250000I500000J-750000D01*
G01*
X60500000Y125750000D02*
X60500000Y123750000D01*
X59750000Y126500000D02*
X60500000Y125750000D01*
X55250000Y126500000D02*
X59750000Y126500000D01*
X78000000Y67500000D02*
X79000000Y67500000D01*
X79000000Y67500000D02*
G75*
G03X82000000Y64500000I3000000J0D01*
G01*
X75000000Y64500000D02*
G75*
G03X78000000Y67500000I0J3000000D01*
G01*
X82000000Y74250000D02*
G75*
G03X79000000Y71250000I0J-3000000D01*
G01*
X78000000Y71250000D02*
X79000000Y71250000D01*
X68000000Y74250000D02*
G75*
G03X65000000Y71250000I0J-3000000D01*
G01*
X78000000Y71250000D02*
G75*
G03X75000000Y74250000I-3000000J0D01*
G01*
X65000000Y67500000D02*
G75*
G03X68000000Y64500000I3000000J0D01*
G01*
X79000000Y56750000D02*
X78000000Y56750000D01*
X82000003Y63500000D02*
G75*
G03X78999999Y60499998I-1J-3000003D01*
G01*
X78999995Y56750003D02*
G75*
G03X81999998Y53749998I3000004J-1D01*
G01*
X75000002Y53750000D02*
G75*
G03X78000001Y56750001I-1J3000000D01*
G01*
X82000002Y63499998D02*
X81999999Y64500001D01*
X68000002Y63499998D02*
X67999999Y64500001D01*
X68000003Y63500000D02*
G75*
G03X64999999Y60499998I-1J-3000003D01*
G01*
X78000000Y60500000D02*
X79000000Y60500000D01*
X77999997Y60499997D02*
G75*
G03X75000000Y63500000I-3000000J3D01*
G01*
X75000000Y63500000D02*
X75000003Y64499998D01*
X64999995Y56750003D02*
G75*
G03X67999998Y53749998I3000004J-1D01*
G01*
X68499998Y53250002D02*
G75*
G03X67999998Y53749998I-499998J-2D01*
G01*
X68499994Y49749998D02*
G75*
G03X68500004Y51249998I-499995J750003D01*
G01*
X68500002Y53249999D02*
X68500004Y51249998D01*
X68499998Y47750003D02*
X68500001Y49750001D01*
X68500000Y44249999D02*
X68499997Y46249999D01*
X69250002Y43500000D02*
X68500000Y44249999D01*
X74499998Y44250001D02*
X73750002Y43500001D01*
X73750002Y43500001D02*
X69250002Y43500000D01*
X68500002Y46250003D02*
G75*
G03X68499998Y47750003I-500002J749999D01*
G01*
X75000000Y53749996D02*
G75*
G03X74500000Y53250000I-2J-499998D01*
G01*
X82500002Y53249999D02*
X82500004Y51249998D01*
X74499998Y44250001D02*
X74500000Y53250000D01*
X82499998Y47750003D02*
X82500001Y49750001D01*
X82499994Y49749998D02*
G75*
G03X82500004Y51249998I-499995J750003D01*
G01*
X82499998Y53250002D02*
G75*
G03X81999998Y53749998I-499998J-2D01*
G01*
X83250002Y43500000D02*
X82500000Y44249999D01*
X88499998Y44250001D02*
X88500000Y53250000D01*
X88499998Y44250001D02*
X87750002Y43500001D01*
X87750002Y43500001D02*
X83250002Y43500000D01*
X82500000Y44249999D02*
X82499997Y46249999D01*
X82500002Y46250003D02*
G75*
G03X82499998Y47750003I-500002J749999D01*
G01*
X89000000Y53749996D02*
G75*
G03X88500000Y53250000I-2J-499998D01*
G01*
X91999997Y60499997D02*
G75*
G03X89000000Y63500000I-3000000J3D01*
G01*
X89000000Y64500000D02*
G75*
G03X92000000Y67500000I0J3000000D01*
G01*
X92000000Y71250000D02*
G75*
G03X89000000Y74250000I-3000000J0D01*
G01*
X89000002Y53750000D02*
G75*
G03X92000001Y56750001I-1J3000000D01*
G01*
X89000000Y63500000D02*
X89000003Y64499998D01*
X89000000Y105500000D02*
X89000003Y106499998D01*
X91999997Y102499997D02*
G75*
G03X89000000Y105500000I-3000000J3D01*
G01*
X89000002Y95750000D02*
G75*
G03X92000001Y98750001I-1J3000000D01*
G01*
X82000002Y105499998D02*
X81999999Y106500001D01*
X78000000Y102500000D02*
X79000000Y102500000D01*
X82000003Y105500000D02*
G75*
G03X78999999Y102499998I-1J-3000003D01*
G01*
X74499998Y86250001D02*
X74500000Y95250000D01*
X68499998Y89750003D02*
X68500001Y91750001D01*
X68499998Y95250002D02*
G75*
G03X67999998Y95749998I-499998J-2D01*
G01*
X68499994Y91749998D02*
G75*
G03X68500004Y93249998I-499995J750003D01*
G01*
X68500002Y95249999D02*
X68500004Y93249998D01*
X75000000Y95749996D02*
G75*
G03X74500000Y95250000I-2J-499998D01*
G01*
X78000000Y98750000D02*
X79000000Y98750000D01*
X78999995Y98750003D02*
G75*
G03X81999998Y95749998I3000004J-1D01*
G01*
X77999997Y102499997D02*
G75*
G03X75000000Y105500000I-3000000J3D01*
G01*
X75000000Y105500000D02*
X75000003Y106499998D01*
X75000002Y95750000D02*
G75*
G03X78000001Y98750001I-1J3000000D01*
G01*
X82499994Y91749998D02*
G75*
G03X82500004Y93249998I-499995J750003D01*
G01*
X89000000Y95749996D02*
G75*
G03X88500000Y95250000I-2J-499998D01*
G01*
X88499998Y86250001D02*
X88500000Y95250000D01*
X82499998Y95250002D02*
G75*
G03X81999998Y95749998I-499998J-2D01*
G01*
X82500002Y95249999D02*
X82500004Y93249998D01*
X82499998Y89750003D02*
X82500001Y91750001D01*
X64999995Y98750003D02*
G75*
G03X67999998Y95749998I3000004J-1D01*
G01*
X68000002Y105499998D02*
X67999999Y106500001D01*
X68000003Y105500000D02*
G75*
G03X64999999Y102499998I-1J-3000003D01*
G01*
X65000000Y109500000D02*
G75*
G03X68000000Y106500000I3000000J0D01*
G01*
X68500000Y125750000D02*
X69250000Y126500000D01*
X68000000Y116250000D02*
G75*
G03X68500000Y116750000I0J500000D01*
G01*
X68500000Y125750000D02*
X68500000Y116750000D01*
X69250000Y126500000D02*
X73750000Y126500000D01*
X68000000Y116250000D02*
G75*
G03X65000000Y113250000I0J-3000000D01*
G01*
X78000000Y109500000D02*
X79000000Y109500000D01*
X75000000Y106500000D02*
G75*
G03X78000000Y109500000I0J3000000D01*
G01*
X79000000Y109500000D02*
G75*
G03X82000000Y106500000I3000000J0D01*
G01*
X82000000Y116250000D02*
G75*
G03X79000000Y113250000I0J-3000000D01*
G01*
X78000000Y113250000D02*
X79000000Y113250000D01*
X92000000Y113250000D02*
G75*
G03X89000000Y116250000I-3000000J0D01*
G01*
X89000000Y106500000D02*
G75*
G03X92000000Y109500000I0J3000000D01*
G01*
X74500000Y123750000D02*
G75*
G03X74500000Y122250000I500000J-750000D01*
G01*
X73750000Y126500000D02*
X74500000Y125750000D01*
X74500000Y122250000D02*
X74500000Y120250000D01*
X74500000Y125750000D02*
X74500000Y123750000D01*
X88500000Y122250000D02*
X88500000Y120250000D01*
X88500000Y120250000D02*
G75*
G03X88500000Y118750000I500000J-750000D01*
G01*
X88500000Y123750000D02*
G75*
G03X88500000Y122250000I500000J-750000D01*
G01*
X82500000Y125750000D02*
X82500000Y116750000D01*
X82000000Y116250000D02*
G75*
G03X82500000Y116750000I0J500000D01*
G01*
X88500000Y116750000D02*
X88500000Y118750000D01*
X88500000Y116750000D02*
G75*
G03X89000000Y116250000I500000J0D01*
G01*
X83250000Y126500000D02*
X87750000Y126500000D01*
X88500000Y125750000D02*
X88500000Y123750000D01*
X82500000Y125750000D02*
X83250000Y126500000D01*
X87750000Y126500000D02*
X88500000Y125750000D01*
X74500000Y116750000D02*
X74500000Y118750000D01*
X78000000Y113250000D02*
G75*
G03X75000000Y116250000I-3000000J0D01*
G01*
X74500000Y120250000D02*
G75*
G03X74500000Y118750000I500000J-750000D01*
G01*
X74500000Y116750000D02*
G75*
G03X75000000Y116250000I500000J0D01*
G01*
X74500000Y80250000D02*
X74500000Y78250000D01*
X74500000Y78250000D02*
G75*
G03X74500000Y76750000I500000J-750000D01*
G01*
X74500000Y74750000D02*
G75*
G03X75000000Y74250000I500000J0D01*
G01*
X74500000Y74750000D02*
X74500000Y76750000D01*
X68500000Y83750000D02*
X68500000Y74750000D01*
X68000000Y74250000D02*
G75*
G03X68500000Y74750000I0J500000D01*
G01*
X74500000Y81750000D02*
G75*
G03X74500000Y80250000I500000J-750000D01*
G01*
X74500000Y83750000D02*
X74500000Y81750000D01*
X73750000Y84500000D02*
X74500000Y83750000D01*
X73250000Y85500000D02*
X73250000Y84500000D01*
X73250000Y84500000D02*
X73750000Y84500000D01*
X74499998Y86250001D02*
X73750002Y85500001D01*
X69750000Y85500000D02*
X69750000Y84500000D01*
X68500000Y83750000D02*
X69250000Y84500000D01*
X69250000Y84500000D02*
X69750000Y84500000D01*
X69250000Y85500000D02*
X69750000Y85500000D01*
X88500000Y80250000D02*
X88500000Y78250000D01*
X88500000Y83750000D02*
X88500000Y81750000D01*
X88500000Y74750000D02*
G75*
G03X89000000Y74250000I500000J0D01*
G01*
X82000000Y74250000D02*
G75*
G03X82500000Y74750000I0J500000D01*
G01*
X88500000Y78250000D02*
G75*
G03X88500000Y76750000I500000J-750000D01*
G01*
X88500000Y74750000D02*
X88500000Y76750000D01*
X82500000Y83750000D02*
X82500000Y74750000D01*
X88500000Y81750000D02*
G75*
G03X88500000Y80250000I500000J-750000D01*
G01*
X68500002Y88250003D02*
G75*
G03X68499998Y89750003I-500002J749999D01*
G01*
X69250002Y85500000D02*
X68500000Y86249999D01*
X68500000Y86249999D02*
X68499997Y88249999D01*
X73750000Y85500000D02*
X73250000Y85500000D01*
X87750000Y84500000D02*
X88500000Y83750000D01*
X87250000Y84500000D02*
X87750000Y84500000D01*
X87250000Y85500000D02*
X87250000Y84500000D01*
X87750000Y85500000D02*
X87250000Y85500000D01*
X88499998Y86250001D02*
X87750002Y85500001D01*
X83250000Y85500000D02*
X83750000Y85500000D01*
X83750000Y85500000D02*
X83750000Y84500000D01*
X83250002Y85500000D02*
X82500000Y86249999D01*
X82500000Y83750000D02*
X83250000Y84500000D01*
X83250000Y84500000D02*
X83750000Y84500000D01*
X82500000Y86249999D02*
X82499997Y88249999D01*
X82500002Y88250003D02*
G75*
G03X82499998Y89750003I-500002J749999D01*
G01*
X116500000Y80250000D02*
X116500000Y78250000D01*
X116500000Y74750000D02*
G75*
G03X117000000Y74250000I500000J0D01*
G01*
X116500000Y78250000D02*
G75*
G03X116500000Y76750000I500000J-750000D01*
G01*
X110000000Y74250000D02*
G75*
G03X110500000Y74750000I0J500000D01*
G01*
X116500000Y74750000D02*
X116500000Y76750000D01*
X110500000Y83750000D02*
X110500000Y74750000D01*
X116500000Y81750000D02*
G75*
G03X116500000Y80250000I500000J-750000D01*
G01*
X116500000Y83750000D02*
X116500000Y81750000D01*
X115750000Y84500000D02*
X116500000Y83750000D01*
X111250000Y85500000D02*
X111750000Y85500000D01*
X102500000Y80250000D02*
X102500000Y78250000D01*
X102500000Y78250000D02*
G75*
G03X102500000Y76750000I500000J-750000D01*
G01*
X102500000Y81750000D02*
G75*
G03X102500000Y80250000I500000J-750000D01*
G01*
X102500000Y83750000D02*
X102500000Y81750000D01*
X96500000Y83750000D02*
X96500000Y74750000D01*
X102500000Y74750000D02*
G75*
G03X103000000Y74250000I500000J0D01*
G01*
X102500000Y74750000D02*
X102500000Y76750000D01*
X96000000Y74250000D02*
G75*
G03X96500000Y74750000I0J500000D01*
G01*
X96000003Y63500000D02*
G75*
G03X92999999Y60499998I-1J-3000003D01*
G01*
X93000000Y67500000D02*
G75*
G03X96000000Y64500000I3000000J0D01*
G01*
X96000002Y63499998D02*
X95999999Y64500001D01*
X92999995Y56750003D02*
G75*
G03X95999998Y53749998I3000004J-1D01*
G01*
X96499998Y53250002D02*
G75*
G03X95999998Y53749998I-499998J-2D01*
G01*
X96499994Y49749998D02*
G75*
G03X96500004Y51249998I-499995J750003D01*
G01*
X96499998Y47750003D02*
X96500001Y49750001D01*
X96500002Y53249999D02*
X96500004Y51249998D01*
X96500000Y44249999D02*
X96499997Y46249999D01*
X96500002Y46250003D02*
G75*
G03X96499998Y47750003I-500002J749999D01*
G01*
X97250002Y43500000D02*
X96500000Y44249999D01*
X102499998Y44250001D02*
X101750002Y43500001D01*
X103000000Y53749996D02*
G75*
G03X102500000Y53250000I-2J-499998D01*
G01*
X101750002Y43500001D02*
X97250002Y43500000D01*
X102499998Y44250001D02*
X102500000Y53250000D01*
X111250002Y43500000D02*
X110500000Y44249999D01*
X116499998Y44250001D02*
X115750002Y43500001D01*
X115750002Y43500001D02*
X111250002Y43500000D01*
X110500000Y44249999D02*
X110499997Y46249999D01*
X110500002Y46250003D02*
G75*
G03X110499998Y47750003I-500002J749999D01*
G01*
X110499998Y47750003D02*
X110500001Y49750001D01*
X110499994Y49749998D02*
G75*
G03X110500004Y51249998I-499995J750003D01*
G01*
X106000000Y67500000D02*
X107000000Y67500000D01*
X106000000Y71250000D02*
X107000000Y71250000D01*
X107000000Y67500000D02*
G75*
G03X110000000Y64500000I3000000J0D01*
G01*
X103000000Y64500000D02*
G75*
G03X106000000Y67500000I0J3000000D01*
G01*
X106000000Y71250000D02*
G75*
G03X103000000Y74250000I-3000000J0D01*
G01*
X110000000Y74250000D02*
G75*
G03X107000000Y71250000I0J-3000000D01*
G01*
X96000000Y74250000D02*
G75*
G03X93000000Y71250000I0J-3000000D01*
G01*
X116499998Y44250001D02*
X116500000Y53250000D01*
X110499998Y53250002D02*
G75*
G03X109999998Y53749998I-499998J-2D01*
G01*
X110500002Y53249999D02*
X110500004Y51249998D01*
X117000000Y53749996D02*
G75*
G03X116500000Y53250000I-2J-499998D01*
G01*
X120000000Y67500000D02*
X120000000Y71250000D01*
X120000000Y60499998D02*
X120000001Y56750001D01*
X120000000Y71250000D02*
G75*
G03X117000000Y74250000I-3000000J0D01*
G01*
X117000000Y64500000D02*
G75*
G03X120000000Y67500000I0J3000000D01*
G01*
X119999997Y60499997D02*
G75*
G03X117000000Y63500000I-3000000J3D01*
G01*
X117000002Y53750000D02*
G75*
G03X120000001Y56750001I-1J3000000D01*
G01*
X117000000Y63500000D02*
X117000003Y64499998D01*
X107000000Y56750000D02*
X106000000Y56750000D01*
X106000000Y60500000D02*
X107000000Y60500000D01*
X110000003Y63500000D02*
G75*
G03X106999999Y60499998I-1J-3000003D01*
G01*
X106999995Y56750003D02*
G75*
G03X109999998Y53749998I3000004J-1D01*
G01*
X103000002Y53750000D02*
G75*
G03X106000001Y56750001I-1J3000000D01*
G01*
X103000000Y63500000D02*
X103000003Y64499998D01*
X110000002Y63499998D02*
X109999999Y64500001D01*
X105999997Y60499997D02*
G75*
G03X103000000Y63500000I-3000000J3D01*
G01*
X117000000Y105500000D02*
X117000003Y106499998D01*
X117000002Y95750000D02*
G75*
G03X120000001Y98750001I-1J3000000D01*
G01*
X120000000Y102499998D02*
X120000001Y98750001D01*
X119999997Y102499997D02*
G75*
G03X117000000Y105500000I-3000000J3D01*
G01*
X106000000Y98750000D02*
X107000000Y98750000D01*
X106000000Y102500000D02*
X107000000Y102500000D01*
X106999995Y98750003D02*
G75*
G03X109999998Y95749998I3000004J-1D01*
G01*
X103000002Y95750000D02*
G75*
G03X106000001Y98750001I-1J3000000D01*
G01*
X110000002Y105499998D02*
X109999999Y106500001D01*
X110000003Y105500000D02*
G75*
G03X106999999Y102499998I-1J-3000003D01*
G01*
X105999997Y102499997D02*
G75*
G03X103000000Y105500000I-3000000J3D01*
G01*
X103000000Y105500000D02*
X103000003Y106499998D01*
X110499994Y91749998D02*
G75*
G03X110500004Y93249998I-499995J750003D01*
G01*
X116499998Y86250001D02*
X116500000Y95250000D01*
X110500002Y95249999D02*
X110500004Y93249998D01*
X117000000Y95749996D02*
G75*
G03X116500000Y95250000I-2J-499998D01*
G01*
X116499998Y86250001D02*
X115750002Y85500001D01*
X115250000Y85500000D02*
X115250000Y84500000D01*
X115250000Y84500000D02*
X115750000Y84500000D01*
X115750000Y85500000D02*
X115250000Y85500000D01*
X111750000Y85500000D02*
X111750000Y84500000D01*
X110500000Y83750000D02*
X111250000Y84500000D01*
X111250002Y85500000D02*
X110500000Y86249999D01*
X111250000Y84500000D02*
X111750000Y84500000D01*
X96500002Y88250003D02*
G75*
G03X96499998Y89750003I-500002J749999D01*
G01*
X96500000Y86249999D02*
X96499997Y88249999D01*
X97250002Y85500000D02*
X96500000Y86249999D01*
X102499998Y86250001D02*
X101750002Y85500001D01*
X102499998Y86250001D02*
X102500000Y95250000D01*
X110500000Y86249999D02*
X110499997Y88249999D01*
X110499998Y89750003D02*
X110500001Y91750001D01*
X110500002Y88250003D02*
G75*
G03X110499998Y89750003I-500002J749999D01*
G01*
X110499998Y95250002D02*
G75*
G03X109999998Y95749998I-499998J-2D01*
G01*
X103000000Y95749996D02*
G75*
G03X102500000Y95250000I-2J-499998D01*
G01*
X96500002Y95249999D02*
X96500004Y93249998D01*
X96499998Y95250002D02*
G75*
G03X95999998Y95749998I-499998J-2D01*
G01*
X96499998Y89750003D02*
X96500001Y91750001D01*
X96499994Y91749998D02*
G75*
G03X96500004Y93249998I-499995J750003D01*
G01*
X101750000Y84500000D02*
X102500000Y83750000D01*
X101250000Y84500000D02*
X101750000Y84500000D01*
X101250000Y85500000D02*
X101250000Y84500000D01*
X101750000Y85500000D02*
X101250000Y85500000D01*
X97750000Y85500000D02*
X97750000Y84500000D01*
X96500000Y83750000D02*
X97250000Y84500000D01*
X97250000Y84500000D02*
X97750000Y84500000D01*
X97250000Y85500000D02*
X97750000Y85500000D01*
X93000000Y109500000D02*
G75*
G03X96000000Y106500000I3000000J0D01*
G01*
X92999995Y98750003D02*
G75*
G03X95999998Y95749998I3000004J-1D01*
G01*
X96000002Y105499998D02*
X95999999Y106500001D01*
X96000003Y105500000D02*
G75*
G03X92999999Y102499998I-1J-3000003D01*
G01*
X106000000Y109500000D02*
X107000000Y109500000D01*
X106000000Y113250000D02*
X107000000Y113250000D01*
X120000000Y113250000D02*
G75*
G03X117000000Y116250000I-3000000J0D01*
G01*
X107000000Y109500000D02*
G75*
G03X110000000Y106500000I3000000J0D01*
G01*
X120000000Y109500000D02*
X120000000Y113250000D01*
X110000000Y116250000D02*
G75*
G03X107000000Y113250000I0J-3000000D01*
G01*
X103000000Y106500000D02*
G75*
G03X106000000Y109500000I0J3000000D01*
G01*
X117000000Y106500000D02*
G75*
G03X120000000Y109500000I0J3000000D01*
G01*
X116500000Y122250000D02*
X116500000Y120250000D01*
X110500000Y125750000D02*
X110500000Y116750000D01*
X110000000Y116250000D02*
G75*
G03X110500000Y116750000I0J500000D01*
G01*
X116500000Y116750000D02*
X116500000Y118750000D01*
X116500000Y120250000D02*
G75*
G03X116500000Y118750000I500000J-750000D01*
G01*
X116500000Y116750000D02*
G75*
G03X117000000Y116250000I500000J0D01*
G01*
X116500000Y123750000D02*
G75*
G03X116500000Y122250000I500000J-750000D01*
G01*
X115750000Y126500000D02*
X116500000Y125750000D01*
X111250000Y126500000D02*
X115750000Y126500000D01*
X116500000Y125750000D02*
X116500000Y123750000D01*
X110500000Y125750000D02*
X111250000Y126500000D01*
X102500000Y116750000D02*
G75*
G03X103000000Y116250000I500000J0D01*
G01*
X102500000Y116750000D02*
X102500000Y118750000D01*
X106000000Y113250000D02*
G75*
G03X103000000Y116250000I-3000000J0D01*
G01*
X102500000Y120250000D02*
G75*
G03X102500000Y118750000I500000J-750000D01*
G01*
X96000000Y116250000D02*
G75*
G03X93000000Y113250000I0J-3000000D01*
G01*
X96000000Y116250000D02*
G75*
G03X96500000Y116750000I0J500000D01*
G01*
X96500000Y125750000D02*
X96500000Y116750000D01*
X102500000Y123750000D02*
G75*
G03X102500000Y122250000I500000J-750000D01*
G01*
X102500000Y122250000D02*
X102500000Y120250000D01*
X101750000Y126500000D02*
X102500000Y125750000D01*
X102500000Y125750000D02*
X102500000Y123750000D01*
X96500000Y125750000D02*
X97250000Y126500000D01*
X97250000Y126500000D02*
X101750000Y126500000D01*
X36000000Y98750000D02*
X37000000Y98750000D01*
X36000000Y102500000D02*
X37000000Y102500000D01*
X36000000Y109500000D02*
X37000000Y109500000D01*
X36000000Y113250000D02*
X37000000Y113250000D01*
X37000000Y56750000D02*
X36000000Y56750000D01*
X36000000Y60500000D02*
X37000000Y60500000D01*
X36000000Y67500000D02*
X37000000Y67500000D01*
X36000000Y71250000D02*
X37000000Y71250000D01*
X40500002Y46250003D02*
G75*
G03X40499998Y47750003I-500002J749999D01*
G01*
X40499998Y53250002D02*
G75*
G03X39999998Y53749998I-499998J-2D01*
G01*
X46499998Y44250001D02*
X46500000Y53250000D01*
X40499994Y49749998D02*
G75*
G03X40500004Y51249998I-499995J750003D01*
G01*
X47000000Y53749996D02*
G75*
G03X46500000Y53250000I-2J-499998D01*
G01*
X40499998Y47750003D02*
X40500001Y49750001D01*
X40500002Y53249999D02*
X40500004Y51249998D01*
X36999995Y56750003D02*
G75*
G03X39999998Y53749998I3000004J-1D01*
G01*
X40000002Y63499998D02*
X39999999Y64500001D01*
X37000000Y67500000D02*
G75*
G03X40000000Y64500000I3000000J0D01*
G01*
X40000003Y63500000D02*
G75*
G03X36999999Y60499998I-1J-3000003D01*
G01*
X40000000Y74250000D02*
G75*
G03X37000000Y71250000I0J-3000000D01*
G01*
X41250002Y43500000D02*
X40500000Y44249999D01*
X40500000Y44249999D02*
X40499997Y46249999D01*
X45750002Y43500001D02*
X41250002Y43500000D01*
X46499998Y44250001D02*
X45750002Y43500001D01*
X50000000Y71250000D02*
G75*
G03X47000000Y74250000I-3000000J0D01*
G01*
X47000000Y64500000D02*
G75*
G03X50000000Y67500000I0J3000000D01*
G01*
X47000000Y63500000D02*
X47000003Y64499998D01*
X49999997Y60499997D02*
G75*
G03X47000000Y63500000I-3000000J3D01*
G01*
X47000002Y53750000D02*
G75*
G03X50000001Y56750001I-1J3000000D01*
G01*
X46500000Y81750000D02*
G75*
G03X46500000Y80250000I500000J-750000D01*
G01*
X46500000Y83750000D02*
X46500000Y81750000D01*
X46500000Y80250000D02*
X46500000Y78250000D01*
X46500000Y74750000D02*
G75*
G03X47000000Y74250000I500000J0D01*
G01*
X46500000Y78250000D02*
G75*
G03X46500000Y76750000I500000J-750000D01*
G01*
X45750000Y84500000D02*
X46500000Y83750000D01*
X46500000Y74750000D02*
X46500000Y76750000D01*
X41250000Y85500000D02*
X41750000Y85500000D01*
X40000000Y74250000D02*
G75*
G03X40500000Y74750000I0J500000D01*
G01*
X40500000Y83750000D02*
X41250000Y84500000D01*
X41250002Y85500000D02*
X40500000Y86249999D01*
X40500000Y83750000D02*
X40500000Y74750000D01*
X41250000Y84500000D02*
X41750000Y84500000D01*
X41750000Y85500000D02*
X41750000Y84500000D01*
X45750000Y85500000D02*
X45250000Y85500000D01*
X46499998Y86250001D02*
X45750002Y85500001D01*
X45250000Y85500000D02*
X45250000Y84500000D01*
X45250000Y84500000D02*
X45750000Y84500000D01*
X40500000Y86249999D02*
X40499997Y88249999D01*
X40500002Y95249999D02*
X40500004Y93249998D01*
X40499998Y89750003D02*
X40500001Y91750001D01*
X47000000Y95749996D02*
G75*
G03X46500000Y95250000I-2J-499998D01*
G01*
X40499994Y91749998D02*
G75*
G03X40500004Y93249998I-499995J750003D01*
G01*
X46499998Y86250001D02*
X46500000Y95250000D01*
X40500002Y88250003D02*
G75*
G03X40499998Y89750003I-500002J749999D01*
G01*
X40499998Y95250002D02*
G75*
G03X39999998Y95749998I-499998J-2D01*
G01*
X49999997Y102499997D02*
G75*
G03X47000000Y105500000I-3000000J3D01*
G01*
X47000000Y105500000D02*
X47000003Y106499998D01*
X47000002Y95750000D02*
G75*
G03X50000001Y98750001I-1J3000000D01*
G01*
X37000000Y109500000D02*
G75*
G03X40000000Y106500000I3000000J0D01*
G01*
X50000000Y113250000D02*
G75*
G03X47000000Y116250000I-3000000J0D01*
G01*
X40000000Y116250000D02*
G75*
G03X37000000Y113250000I0J-3000000D01*
G01*
X47000000Y106500000D02*
G75*
G03X50000000Y109500000I0J3000000D01*
G01*
X46500000Y116750000D02*
G75*
G03X47000000Y116250000I500000J0D01*
G01*
X40000000Y116250000D02*
G75*
G03X40500000Y116750000I0J500000D01*
G01*
X46500000Y122250000D02*
X46500000Y120250000D01*
X40500000Y125750000D02*
X40500000Y116750000D01*
X46500000Y120250000D02*
G75*
G03X46500000Y118750000I500000J-750000D01*
G01*
X46500000Y116750000D02*
X46500000Y118750000D01*
X40000003Y105500000D02*
G75*
G03X36999999Y102499998I-1J-3000003D01*
G01*
X40000002Y105499998D02*
X39999999Y106500001D01*
X36999995Y98750003D02*
G75*
G03X39999998Y95749998I3000004J-1D01*
G01*
X46500000Y125750000D02*
X46500000Y123750000D01*
X45750000Y126500000D02*
X46500000Y125750000D01*
X40500000Y125750000D02*
X41250000Y126500000D01*
X41250000Y126500000D02*
X45750000Y126500000D01*
X46500000Y123750000D02*
G75*
G03X46500000Y122250000I500000J-750000D01*
G01*
X31250000Y84500000D02*
X31750000Y84500000D01*
X31250000Y85500000D02*
X31250000Y84500000D01*
X31750000Y85500000D02*
X31250000Y85500000D01*
X27250000Y84500000D02*
X27750000Y84500000D01*
X27750000Y85500000D02*
X27750000Y84500000D01*
X27250000Y85500000D02*
X27750000Y85500000D01*
X31750000Y84500000D02*
X32500000Y83750000D01*
X26500000Y83750000D02*
X27250000Y84500000D01*
X26000000Y74250000D02*
G75*
G03X26500000Y74750000I0J500000D01*
G01*
X32500000Y83750000D02*
X32500000Y81750000D01*
X32500000Y81750000D02*
G75*
G03X32500000Y80250000I500000J-750000D01*
G01*
X26500000Y83750000D02*
X26500000Y74750000D01*
X32500000Y78250000D02*
G75*
G03X32500000Y76750000I500000J-750000D01*
G01*
X32500000Y74750000D02*
X32500000Y76750000D01*
X32500000Y80250000D02*
X32500000Y78250000D01*
X32500000Y74750000D02*
G75*
G03X33000000Y74250000I500000J0D01*
G01*
X36000000Y71250000D02*
G75*
G03X33000000Y74250000I-3000000J0D01*
G01*
X33000000Y63500000D02*
X33000003Y64499998D01*
X33000000Y64500000D02*
G75*
G03X36000000Y67500000I0J3000000D01*
G01*
X23000000Y67500000D02*
X23000000Y71250000D01*
X26000003Y63500000D02*
G75*
G03X22999999Y60499998I-1J-3000003D01*
G01*
X26000002Y63499998D02*
X25999999Y64500001D01*
X26000000Y74250000D02*
G75*
G03X23000000Y71250000I0J-3000000D01*
G01*
X22999999Y60499998D02*
X23000000Y56749997D01*
X23000000Y67500000D02*
G75*
G03X26000000Y64500000I3000000J0D01*
G01*
X26500000Y44249999D02*
X26499997Y46249999D01*
X27250002Y43500000D02*
X26500000Y44249999D01*
X26500002Y46250003D02*
G75*
G03X26499998Y47750003I-500002J749999D01*
G01*
X31750002Y43500001D02*
X27250002Y43500000D01*
X32499998Y44250001D02*
X31750002Y43500001D01*
X32499998Y44250001D02*
X32500000Y53250000D01*
X26499998Y47750003D02*
X26500001Y49750001D01*
X26499994Y49749998D02*
G75*
G03X26500004Y51249998I-499995J750003D01*
G01*
X26500002Y53249999D02*
X26500004Y51249998D01*
X26499998Y53250002D02*
G75*
G03X25999998Y53749998I-499998J-2D01*
G01*
X22999995Y56750003D02*
G75*
G03X25999998Y53749998I3000004J-1D01*
G01*
X33000002Y53750000D02*
G75*
G03X36000001Y56750001I-1J3000000D01*
G01*
X33000000Y53749996D02*
G75*
G03X32500000Y53250000I-2J-499998D01*
G01*
X35999997Y60499997D02*
G75*
G03X33000000Y63500000I-3000000J3D01*
G01*
X23000000Y109500000D02*
X23000000Y113250000D01*
X26500000Y125750000D02*
X27250000Y126500000D01*
X31750000Y126500000D02*
X32500000Y125750000D01*
X27250000Y126500000D02*
X31750000Y126500000D01*
X26000000Y116250000D02*
G75*
G03X26500000Y116750000I0J500000D01*
G01*
X26500000Y125750000D02*
X26500000Y116750000D01*
X32500000Y116750000D02*
G75*
G03X33000000Y116250000I500000J0D01*
G01*
X26000000Y116250000D02*
G75*
G03X23000000Y113250000I0J-3000000D01*
G01*
X32500000Y116750000D02*
X32500000Y118750000D01*
X32500000Y122250000D02*
X32500000Y120250000D01*
X32500000Y120250000D02*
G75*
G03X32500000Y118750000I500000J-750000D01*
G01*
X32500000Y123750000D02*
G75*
G03X32500000Y122250000I500000J-750000D01*
G01*
X32500000Y125750000D02*
X32500000Y123750000D01*
X33000000Y106500000D02*
G75*
G03X36000000Y109500000I0J3000000D01*
G01*
X36000000Y113250000D02*
G75*
G03X33000000Y116250000I-3000000J0D01*
G01*
X33000000Y105500000D02*
X33000003Y106499998D01*
X32499998Y86250001D02*
X31750002Y85500001D01*
X26500000Y86249999D02*
X26499997Y88249999D01*
X27250002Y85500000D02*
X26500000Y86249999D01*
X26500002Y88250003D02*
G75*
G03X26499998Y89750003I-500002J749999D01*
G01*
X26499998Y89750003D02*
X26500001Y91750001D01*
X26499994Y91749998D02*
G75*
G03X26500004Y93249998I-499995J750003D01*
G01*
X26499998Y95250002D02*
G75*
G03X25999998Y95749998I-499998J-2D01*
G01*
X32499998Y86250001D02*
X32500000Y95250000D01*
X33000000Y95749996D02*
G75*
G03X32500000Y95250000I-2J-499998D01*
G01*
X26500002Y95249999D02*
X26500004Y93249998D01*
X35999997Y102499997D02*
G75*
G03X33000000Y105500000I-3000000J3D01*
G01*
X33000002Y95750000D02*
G75*
G03X36000001Y98750001I-1J3000000D01*
G01*
X22999995Y98750003D02*
G75*
G03X25999998Y95749998I3000004J-1D01*
G01*
X23000000Y109500000D02*
G75*
G03X26000000Y106500000I3000000J0D01*
G01*
X26000002Y105499998D02*
X25999999Y106500001D01*
X22999999Y102499998D02*
X23000000Y98749997D01*
X26000003Y105500000D02*
G75*
G03X22999999Y102499998I-1J-3000003D01*
G01*
M02*
