G04 #@! TF.FileFunction,Copper,L1,Top,Signal*
%FSLAX46Y46*%
G04 Gerber Fmt 4.6, Leading zero omitted, Abs format (unit mm)*
G04 Created by KiCad (PCBNEW (2016-04-11 BZR 6687, Git f239aee)-product) date Tue 12 Apr 2016 02:23:05 PM CEST*
%MOMM*%
G01*
G04 APERTURE LIST*
%ADD10C,0.150000*%
%ADD11R,1.500000X2.000000*%
%ADD12O,1.500000X2.000000*%
%ADD13R,0.400000X2.000000*%
%ADD14R,0.400000X3.000000*%
%ADD15R,0.950000X1.000000*%
%ADD16C,0.304800*%
%ADD17C,0.203200*%
G04 APERTURE END LIST*
D10*
D11*
X54960001Y100230002D03*
D12*
X54960001Y102770002D03*
X57500001Y100230002D03*
X57500001Y102770002D03*
X60040001Y100230002D03*
X60040001Y102770002D03*
D13*
X59050001Y87750000D03*
X57780001Y87750000D03*
X57220001Y87750000D03*
X58490001Y87750000D03*
X56510001Y87750000D03*
X55950001Y87750000D03*
D14*
X56510001Y95000000D03*
X55950001Y95000000D03*
D15*
X56230001Y95995800D03*
D14*
X57780001Y95000000D03*
X57220001Y95000000D03*
D15*
X57500001Y95995800D03*
D14*
X58490001Y95000000D03*
X59050001Y95000000D03*
D15*
X58770001Y95995800D03*
D13*
X59050001Y45750000D03*
X57780001Y45750000D03*
X57220001Y45750000D03*
X58490001Y45750000D03*
X56510001Y45750000D03*
X55950001Y45750000D03*
D14*
X56510001Y53000000D03*
X55950001Y53000000D03*
D15*
X56230001Y53995800D03*
D14*
X57780001Y53000000D03*
X57220001Y53000000D03*
D15*
X57500001Y53995800D03*
D14*
X58490001Y53000000D03*
X59050001Y53000000D03*
D15*
X58770001Y53995800D03*
D11*
X54960001Y58230002D03*
D12*
X54960001Y60770002D03*
X57500001Y58230002D03*
X57500001Y60770002D03*
X60040001Y58230002D03*
X60040001Y60770002D03*
D11*
X60040000Y111770000D03*
D12*
X60040000Y109230000D03*
X57500000Y111770000D03*
X57500000Y109230000D03*
X54960000Y111770000D03*
X54960000Y109230000D03*
D13*
X55950000Y124250000D03*
X57220000Y124250000D03*
X57780000Y124250000D03*
X56510000Y124250000D03*
X58490000Y124250000D03*
X59050000Y124250000D03*
D14*
X58490000Y117000000D03*
X59050000Y117000000D03*
D15*
X58770000Y116004200D03*
D14*
X57220000Y117000000D03*
X57780000Y117000000D03*
D15*
X57500000Y116004200D03*
D14*
X56510000Y117000000D03*
X55950000Y117000000D03*
D15*
X56230000Y116004200D03*
D13*
X55950000Y82250000D03*
X57220000Y82250000D03*
X57780000Y82250000D03*
X56510000Y82250000D03*
X58490000Y82250000D03*
X59050000Y82250000D03*
D14*
X58490000Y75000000D03*
X59050000Y75000000D03*
D15*
X58770000Y74004200D03*
D14*
X57220000Y75000000D03*
X57780000Y75000000D03*
D15*
X57500000Y74004200D03*
D14*
X56510000Y75000000D03*
X55950000Y75000000D03*
D15*
X56230000Y74004200D03*
D11*
X60040000Y69770000D03*
D12*
X60040000Y67230000D03*
X57500000Y69770000D03*
X57500000Y67230000D03*
X54960000Y69770000D03*
X54960000Y67230000D03*
D11*
X82960001Y58230002D03*
D12*
X82960001Y60770002D03*
X85500001Y58230002D03*
X85500001Y60770002D03*
X88040001Y58230002D03*
X88040001Y60770002D03*
D11*
X68960001Y58230002D03*
D12*
X68960001Y60770002D03*
X71500001Y58230002D03*
X71500001Y60770002D03*
X74040001Y58230002D03*
X74040001Y60770002D03*
D13*
X87050001Y45750000D03*
X85780001Y45750000D03*
X85220001Y45750000D03*
X86490001Y45750000D03*
X84510001Y45750000D03*
X83950001Y45750000D03*
D14*
X84510001Y53000000D03*
X83950001Y53000000D03*
D15*
X84230001Y53995800D03*
D14*
X85780001Y53000000D03*
X85220001Y53000000D03*
D15*
X85500001Y53995800D03*
D14*
X86490001Y53000000D03*
X87050001Y53000000D03*
D15*
X86770001Y53995800D03*
D13*
X73050001Y45750000D03*
X71780001Y45750000D03*
X71220001Y45750000D03*
X72490001Y45750000D03*
X70510001Y45750000D03*
X69950001Y45750000D03*
D14*
X70510001Y53000000D03*
X69950001Y53000000D03*
D15*
X70230001Y53995800D03*
D14*
X71780001Y53000000D03*
X71220001Y53000000D03*
D15*
X71500001Y53995800D03*
D14*
X72490001Y53000000D03*
X73050001Y53000000D03*
D15*
X72770001Y53995800D03*
D11*
X68960001Y100230002D03*
D12*
X68960001Y102770002D03*
X71500001Y100230002D03*
X71500001Y102770002D03*
X74040001Y100230002D03*
X74040001Y102770002D03*
D11*
X74040000Y111770000D03*
D12*
X74040000Y109230000D03*
X71500000Y111770000D03*
X71500000Y109230000D03*
X68960000Y111770000D03*
X68960000Y109230000D03*
D13*
X83950000Y124250000D03*
X85220000Y124250000D03*
X85780000Y124250000D03*
X84510000Y124250000D03*
X86490000Y124250000D03*
X87050000Y124250000D03*
D14*
X86490000Y117000000D03*
X87050000Y117000000D03*
D15*
X86770000Y116004200D03*
D14*
X85220000Y117000000D03*
X85780000Y117000000D03*
D15*
X85500000Y116004200D03*
D14*
X84510000Y117000000D03*
X83950000Y117000000D03*
D15*
X84230000Y116004200D03*
D11*
X88040000Y111770000D03*
D12*
X88040000Y109230000D03*
X85500000Y111770000D03*
X85500000Y109230000D03*
X82960000Y111770000D03*
X82960000Y109230000D03*
D13*
X69950000Y124250000D03*
X71220000Y124250000D03*
X71780000Y124250000D03*
X70510000Y124250000D03*
X72490000Y124250000D03*
X73050000Y124250000D03*
D14*
X72490000Y117000000D03*
X73050000Y117000000D03*
D15*
X72770000Y116004200D03*
D14*
X71220000Y117000000D03*
X71780000Y117000000D03*
D15*
X71500000Y116004200D03*
D14*
X70510000Y117000000D03*
X69950000Y117000000D03*
D15*
X70230000Y116004200D03*
D11*
X88040000Y69770000D03*
D12*
X88040000Y67230000D03*
X85500000Y69770000D03*
X85500000Y67230000D03*
X82960000Y69770000D03*
X82960000Y67230000D03*
D13*
X69950000Y82250000D03*
X71220000Y82250000D03*
X71780000Y82250000D03*
X70510000Y82250000D03*
X72490000Y82250000D03*
X73050000Y82250000D03*
D14*
X72490000Y75000000D03*
X73050000Y75000000D03*
D15*
X72770000Y74004200D03*
D14*
X71220000Y75000000D03*
X71780000Y75000000D03*
D15*
X71500000Y74004200D03*
D14*
X70510000Y75000000D03*
X69950000Y75000000D03*
D15*
X70230000Y74004200D03*
D13*
X83950000Y82250000D03*
X85220000Y82250000D03*
X85780000Y82250000D03*
X84510000Y82250000D03*
X86490000Y82250000D03*
X87050000Y82250000D03*
D14*
X86490000Y75000000D03*
X87050000Y75000000D03*
D15*
X86770000Y74004200D03*
D14*
X85220000Y75000000D03*
X85780000Y75000000D03*
D15*
X85500000Y74004200D03*
D14*
X84510000Y75000000D03*
X83950000Y75000000D03*
D15*
X84230000Y74004200D03*
D11*
X74040000Y69770000D03*
D12*
X74040000Y67230000D03*
X71500000Y69770000D03*
X71500000Y67230000D03*
X68960000Y69770000D03*
X68960000Y67230000D03*
D11*
X82960001Y100230002D03*
D12*
X82960001Y102770002D03*
X85500001Y100230002D03*
X85500001Y102770002D03*
X88040001Y100230002D03*
X88040001Y102770002D03*
D13*
X87050001Y87750000D03*
X85780001Y87750000D03*
X85220001Y87750000D03*
X86490001Y87750000D03*
X84510001Y87750000D03*
X83950001Y87750000D03*
D14*
X84510001Y95000000D03*
X83950001Y95000000D03*
D15*
X84230001Y95995800D03*
D14*
X85780001Y95000000D03*
X85220001Y95000000D03*
D15*
X85500001Y95995800D03*
D14*
X86490001Y95000000D03*
X87050001Y95000000D03*
D15*
X86770001Y95995800D03*
D13*
X73050001Y87750000D03*
X71780001Y87750000D03*
X71220001Y87750000D03*
X72490001Y87750000D03*
X70510001Y87750000D03*
X69950001Y87750000D03*
D14*
X70510001Y95000000D03*
X69950001Y95000000D03*
D15*
X70230001Y95995800D03*
D14*
X71780001Y95000000D03*
X71220001Y95000000D03*
D15*
X71500001Y95995800D03*
D14*
X72490001Y95000000D03*
X73050001Y95000000D03*
D15*
X72770001Y95995800D03*
D11*
X116040000Y69770000D03*
D12*
X116040000Y67230000D03*
X113500000Y69770000D03*
X113500000Y67230000D03*
X110960000Y69770000D03*
X110960000Y67230000D03*
D13*
X111950000Y82250000D03*
X113220000Y82250000D03*
X113780000Y82250000D03*
X112510000Y82250000D03*
X114490000Y82250000D03*
X115050000Y82250000D03*
D14*
X114490000Y75000000D03*
X115050000Y75000000D03*
D15*
X114770000Y74004200D03*
D14*
X113220000Y75000000D03*
X113780000Y75000000D03*
D15*
X113500000Y74004200D03*
D14*
X112510000Y75000000D03*
X111950000Y75000000D03*
D15*
X112230000Y74004200D03*
D11*
X102040000Y69770000D03*
D12*
X102040000Y67230000D03*
X99500000Y69770000D03*
X99500000Y67230000D03*
X96960000Y69770000D03*
X96960000Y67230000D03*
D11*
X110960001Y58230002D03*
D12*
X110960001Y60770002D03*
X113500001Y58230002D03*
X113500001Y60770002D03*
X116040001Y58230002D03*
X116040001Y60770002D03*
D11*
X96960001Y58230002D03*
D12*
X96960001Y60770002D03*
X99500001Y58230002D03*
X99500001Y60770002D03*
X102040001Y58230002D03*
X102040001Y60770002D03*
D13*
X115050001Y45750000D03*
X113780001Y45750000D03*
X113220001Y45750000D03*
X114490001Y45750000D03*
X112510001Y45750000D03*
X111950001Y45750000D03*
D14*
X112510001Y53000000D03*
X111950001Y53000000D03*
D15*
X112230001Y53995800D03*
D14*
X113780001Y53000000D03*
X113220001Y53000000D03*
D15*
X113500001Y53995800D03*
D14*
X114490001Y53000000D03*
X115050001Y53000000D03*
D15*
X114770001Y53995800D03*
D13*
X101050001Y45750000D03*
X99780001Y45750000D03*
X99220001Y45750000D03*
X100490001Y45750000D03*
X98510001Y45750000D03*
X97950001Y45750000D03*
D14*
X98510001Y53000000D03*
X97950001Y53000000D03*
D15*
X98230001Y53995800D03*
D14*
X99780001Y53000000D03*
X99220001Y53000000D03*
D15*
X99500001Y53995800D03*
D14*
X100490001Y53000000D03*
X101050001Y53000000D03*
D15*
X100770001Y53995800D03*
D13*
X97950000Y82250000D03*
X99220000Y82250000D03*
X99780000Y82250000D03*
X98510000Y82250000D03*
X100490000Y82250000D03*
X101050000Y82250000D03*
D14*
X100490000Y75000000D03*
X101050000Y75000000D03*
D15*
X100770000Y74004200D03*
D14*
X99220000Y75000000D03*
X99780000Y75000000D03*
D15*
X99500000Y74004200D03*
D14*
X98510000Y75000000D03*
X97950000Y75000000D03*
D15*
X98230000Y74004200D03*
D13*
X111950000Y124250000D03*
X113220000Y124250000D03*
X113780000Y124250000D03*
X112510000Y124250000D03*
X114490000Y124250000D03*
X115050000Y124250000D03*
D14*
X114490000Y117000000D03*
X115050000Y117000000D03*
D15*
X114770000Y116004200D03*
D14*
X113220000Y117000000D03*
X113780000Y117000000D03*
D15*
X113500000Y116004200D03*
D14*
X112510000Y117000000D03*
X111950000Y117000000D03*
D15*
X112230000Y116004200D03*
D11*
X116040000Y111770000D03*
D12*
X116040000Y109230000D03*
X113500000Y111770000D03*
X113500000Y109230000D03*
X110960000Y111770000D03*
X110960000Y109230000D03*
D11*
X102040000Y111770000D03*
D12*
X102040000Y109230000D03*
X99500000Y111770000D03*
X99500000Y109230000D03*
X96960000Y111770000D03*
X96960000Y109230000D03*
D13*
X97950000Y124250000D03*
X99220000Y124250000D03*
X99780000Y124250000D03*
X98510000Y124250000D03*
X100490000Y124250000D03*
X101050000Y124250000D03*
D14*
X100490000Y117000000D03*
X101050000Y117000000D03*
D15*
X100770000Y116004200D03*
D14*
X99220000Y117000000D03*
X99780000Y117000000D03*
D15*
X99500000Y116004200D03*
D14*
X98510000Y117000000D03*
X97950000Y117000000D03*
D15*
X98230000Y116004200D03*
D11*
X110960001Y100230002D03*
D12*
X110960001Y102770002D03*
X113500001Y100230002D03*
X113500001Y102770002D03*
X116040001Y100230002D03*
X116040001Y102770002D03*
D13*
X115050001Y87750000D03*
X113780001Y87750000D03*
X113220001Y87750000D03*
X114490001Y87750000D03*
X112510001Y87750000D03*
X111950001Y87750000D03*
D14*
X112510001Y95000000D03*
X111950001Y95000000D03*
D15*
X112230001Y95995800D03*
D14*
X113780001Y95000000D03*
X113220001Y95000000D03*
D15*
X113500001Y95995800D03*
D14*
X114490001Y95000000D03*
X115050001Y95000000D03*
D15*
X114770001Y95995800D03*
D11*
X96960001Y100230002D03*
D12*
X96960001Y102770002D03*
X99500001Y100230002D03*
X99500001Y102770002D03*
X102040001Y100230002D03*
X102040001Y102770002D03*
D13*
X101050001Y87750000D03*
X99780001Y87750000D03*
X99220001Y87750000D03*
X100490001Y87750000D03*
X98510001Y87750000D03*
X97950001Y87750000D03*
D14*
X98510001Y95000000D03*
X97950001Y95000000D03*
D15*
X98230001Y95995800D03*
D14*
X99780001Y95000000D03*
X99220001Y95000000D03*
D15*
X99500001Y95995800D03*
D14*
X100490001Y95000000D03*
X101050001Y95000000D03*
D15*
X100770001Y95995800D03*
D11*
X40960001Y58230002D03*
D12*
X40960001Y60770002D03*
X43500001Y58230002D03*
X43500001Y60770002D03*
X46040001Y58230002D03*
X46040001Y60770002D03*
D13*
X45050001Y45750000D03*
X43780001Y45750000D03*
X43220001Y45750000D03*
X44490001Y45750000D03*
X42510001Y45750000D03*
X41950001Y45750000D03*
D14*
X42510001Y53000000D03*
X41950001Y53000000D03*
D15*
X42230001Y53995800D03*
D14*
X43780001Y53000000D03*
X43220001Y53000000D03*
D15*
X43500001Y53995800D03*
D14*
X44490001Y53000000D03*
X45050001Y53000000D03*
D15*
X44770001Y53995800D03*
D11*
X46040000Y69770000D03*
D12*
X46040000Y67230000D03*
X43500000Y69770000D03*
X43500000Y67230000D03*
X40960000Y69770000D03*
X40960000Y67230000D03*
D13*
X45050001Y87750000D03*
X43780001Y87750000D03*
X43220001Y87750000D03*
X44490001Y87750000D03*
X42510001Y87750000D03*
X41950001Y87750000D03*
D14*
X42510001Y95000000D03*
X41950001Y95000000D03*
D15*
X42230001Y95995800D03*
D14*
X43780001Y95000000D03*
X43220001Y95000000D03*
D15*
X43500001Y95995800D03*
D14*
X44490001Y95000000D03*
X45050001Y95000000D03*
D15*
X44770001Y95995800D03*
D13*
X41950000Y82250000D03*
X43220000Y82250000D03*
X43780000Y82250000D03*
X42510000Y82250000D03*
X44490000Y82250000D03*
X45050000Y82250000D03*
D14*
X44490000Y75000000D03*
X45050000Y75000000D03*
D15*
X44770000Y74004200D03*
D14*
X43220000Y75000000D03*
X43780000Y75000000D03*
D15*
X43500000Y74004200D03*
D14*
X42510000Y75000000D03*
X41950000Y75000000D03*
D15*
X42230000Y74004200D03*
D11*
X40960001Y100230002D03*
D12*
X40960001Y102770002D03*
X43500001Y100230002D03*
X43500001Y102770002D03*
X46040001Y100230002D03*
X46040001Y102770002D03*
D11*
X46040000Y111770000D03*
D12*
X46040000Y109230000D03*
X43500000Y111770000D03*
X43500000Y109230000D03*
X40960000Y111770000D03*
X40960000Y109230000D03*
D13*
X41950000Y124250000D03*
X43220000Y124250000D03*
X43780000Y124250000D03*
X42510000Y124250000D03*
X44490000Y124250000D03*
X45050000Y124250000D03*
D14*
X44490000Y117000000D03*
X45050000Y117000000D03*
D15*
X44770000Y116004200D03*
D14*
X43220000Y117000000D03*
X43780000Y117000000D03*
D15*
X43500000Y116004200D03*
D14*
X42510000Y117000000D03*
X41950000Y117000000D03*
D15*
X42230000Y116004200D03*
D11*
X32040000Y69770000D03*
D12*
X32040000Y67230000D03*
X29500000Y69770000D03*
X29500000Y67230000D03*
X26960000Y69770000D03*
X26960000Y67230000D03*
D13*
X27950000Y82250000D03*
X29220000Y82250000D03*
X29780000Y82250000D03*
X28510000Y82250000D03*
X30490000Y82250000D03*
X31050000Y82250000D03*
D14*
X30490000Y75000000D03*
X31050000Y75000000D03*
D15*
X30770000Y74004200D03*
D14*
X29220000Y75000000D03*
X29780000Y75000000D03*
D15*
X29500000Y74004200D03*
D14*
X28510000Y75000000D03*
X27950000Y75000000D03*
D15*
X28230000Y74004200D03*
D11*
X26960001Y58230002D03*
D12*
X26960001Y60770002D03*
X29500001Y58230002D03*
X29500001Y60770002D03*
X32040001Y58230002D03*
X32040001Y60770002D03*
D13*
X31050001Y45750000D03*
X29780001Y45750000D03*
X29220001Y45750000D03*
X30490001Y45750000D03*
X28510001Y45750000D03*
X27950001Y45750000D03*
D14*
X28510001Y53000000D03*
X27950001Y53000000D03*
D15*
X28230001Y53995800D03*
D14*
X29780001Y53000000D03*
X29220001Y53000000D03*
D15*
X29500001Y53995800D03*
D14*
X30490001Y53000000D03*
X31050001Y53000000D03*
D15*
X30770001Y53995800D03*
D13*
X27950000Y124250000D03*
X29220000Y124250000D03*
X29780000Y124250000D03*
X28510000Y124250000D03*
X30490000Y124250000D03*
X31050000Y124250000D03*
D14*
X30490000Y117000000D03*
X31050000Y117000000D03*
D15*
X30770000Y116004200D03*
D14*
X29220000Y117000000D03*
X29780000Y117000000D03*
D15*
X29500000Y116004200D03*
D14*
X28510000Y117000000D03*
X27950000Y117000000D03*
D15*
X28230000Y116004200D03*
D11*
X32040000Y111770000D03*
D12*
X32040000Y109230000D03*
X29500000Y111770000D03*
X29500000Y109230000D03*
X26960000Y111770000D03*
X26960000Y109230000D03*
D11*
X26960001Y100230002D03*
D12*
X26960001Y102770002D03*
X29500001Y100230002D03*
X29500001Y102770002D03*
X32040001Y100230002D03*
X32040001Y102770002D03*
D13*
X31050001Y87750000D03*
X29780001Y87750000D03*
X29220001Y87750000D03*
X30490001Y87750000D03*
X28510001Y87750000D03*
X27950001Y87750000D03*
D14*
X28510001Y95000000D03*
X27950001Y95000000D03*
D15*
X28230001Y95995800D03*
D14*
X29780001Y95000000D03*
X29220001Y95000000D03*
D15*
X29500001Y95995800D03*
D14*
X30490001Y95000000D03*
X31050001Y95000000D03*
D15*
X30770001Y95995800D03*
D16*
X58490000Y75000000D02*
X58490000Y74284200D01*
X59050000Y74284200D02*
X58770000Y74004200D01*
D17*
X58750000Y73984200D02*
X58770000Y74004200D01*
D16*
X59050000Y75000000D02*
X59050000Y74284200D01*
X58490000Y74284200D02*
X58770000Y74004200D01*
X58750000Y73000000D02*
X58750000Y73984200D01*
X60040000Y71710000D02*
X58750000Y73000000D01*
X60040000Y69770000D02*
X60040000Y71710000D01*
X60040000Y111770000D02*
X60040000Y113710000D01*
X58750000Y115000000D02*
X58750000Y115984200D01*
X60040000Y113710000D02*
X58750000Y115000000D01*
X58490000Y117000000D02*
X58490000Y116284200D01*
X58490000Y116284200D02*
X58770000Y116004200D01*
X59050000Y116284200D02*
X58770000Y116004200D01*
D17*
X58750000Y115984200D02*
X58770000Y116004200D01*
D16*
X59050000Y117000000D02*
X59050000Y116284200D01*
X56510002Y52999999D02*
X56510000Y53715799D01*
D17*
X56250001Y54015801D02*
X56230000Y53995800D01*
D16*
X55949998Y53000001D02*
X55950001Y53715802D01*
X55950001Y53715802D02*
X56230000Y53995800D01*
X56510000Y53715799D02*
X56230000Y53995800D01*
X56249998Y54999999D02*
X56250001Y54015801D01*
X54960000Y58230003D02*
X54960000Y56290000D01*
X54960000Y56290000D02*
X56249998Y54999999D01*
X55949998Y95000001D02*
X55950001Y95715802D01*
X56510000Y95715799D02*
X56230000Y95995800D01*
X56510002Y94999999D02*
X56510000Y95715799D01*
X55950001Y95715802D02*
X56230000Y95995800D01*
D17*
X56250001Y96015801D02*
X56230000Y95995800D01*
D16*
X56249998Y96999999D02*
X56250001Y96015801D01*
X54960000Y98290000D02*
X56249998Y96999999D01*
X54960000Y100230003D02*
X54960000Y98290000D01*
X72750000Y115000000D02*
X72750000Y115984200D01*
X74040000Y113710000D02*
X72750000Y115000000D01*
X74040000Y111770000D02*
X74040000Y113710000D01*
X86490000Y117000000D02*
X86490000Y116284200D01*
X86490000Y116284200D02*
X86770000Y116004200D01*
X87050000Y116284200D02*
X86770000Y116004200D01*
D17*
X86750000Y115984200D02*
X86770000Y116004200D01*
D16*
X87050000Y117000000D02*
X87050000Y116284200D01*
X86750000Y115000000D02*
X86750000Y115984200D01*
X88040000Y113710000D02*
X86750000Y115000000D01*
X88040000Y111770000D02*
X88040000Y113710000D01*
X72490000Y117000000D02*
X72490000Y116284200D01*
X73050000Y117000000D02*
X73050000Y116284200D01*
X73050000Y116284200D02*
X72770000Y116004200D01*
X72490000Y116284200D02*
X72770000Y116004200D01*
D17*
X72750000Y115984200D02*
X72770000Y116004200D01*
D16*
X68960000Y98290000D02*
X70249998Y96999999D01*
X70249998Y96999999D02*
X70250001Y96015801D01*
X68960000Y100230003D02*
X68960000Y98290000D01*
X84510000Y95715799D02*
X84230000Y95995800D01*
X83950001Y95715802D02*
X84230000Y95995800D01*
X83949998Y95000001D02*
X83950001Y95715802D01*
X84510002Y94999999D02*
X84510000Y95715799D01*
X84249998Y96999999D02*
X84250001Y96015801D01*
X82960000Y100230003D02*
X82960000Y98290000D01*
D17*
X84250001Y96015801D02*
X84230000Y95995800D01*
D16*
X82960000Y98290000D02*
X84249998Y96999999D01*
X69950001Y95715802D02*
X70230000Y95995800D01*
X70510000Y95715799D02*
X70230000Y95995800D01*
X69949998Y95000001D02*
X69950001Y95715802D01*
D17*
X70250001Y96015801D02*
X70230000Y95995800D01*
D16*
X70510002Y94999999D02*
X70510000Y95715799D01*
X72750000Y73000000D02*
X72750000Y73984200D01*
X74040000Y71710000D02*
X72750000Y73000000D01*
X74040000Y69770000D02*
X74040000Y71710000D01*
X72490000Y75000000D02*
X72490000Y74284200D01*
X72490000Y74284200D02*
X72770000Y74004200D01*
D17*
X72750000Y73984200D02*
X72770000Y74004200D01*
D16*
X73050000Y74284200D02*
X72770000Y74004200D01*
X73050000Y75000000D02*
X73050000Y74284200D01*
X87050000Y75000000D02*
X87050000Y74284200D01*
X86750000Y73000000D02*
X86750000Y73984200D01*
X88040000Y69770000D02*
X88040000Y71710000D01*
X86490000Y75000000D02*
X86490000Y74284200D01*
X86490000Y74284200D02*
X86770000Y74004200D01*
X87050000Y74284200D02*
X86770000Y74004200D01*
D17*
X86750000Y73984200D02*
X86770000Y74004200D01*
D16*
X88040000Y71710000D02*
X86750000Y73000000D01*
X84510002Y52999999D02*
X84510000Y53715799D01*
D17*
X84250001Y54015801D02*
X84230000Y53995800D01*
D16*
X83950001Y53715802D02*
X84230000Y53995800D01*
X84510000Y53715799D02*
X84230000Y53995800D01*
X83949998Y53000001D02*
X83950001Y53715802D01*
X84249998Y54999999D02*
X84250001Y54015801D01*
X82960000Y56290000D02*
X84249998Y54999999D01*
X82960000Y58230003D02*
X82960000Y56290000D01*
X70249998Y54999999D02*
X70250001Y54015801D01*
X68960000Y58230003D02*
X68960000Y56290000D01*
X68960000Y56290000D02*
X70249998Y54999999D01*
D17*
X70250001Y54015801D02*
X70230000Y53995800D01*
D16*
X69949998Y53000001D02*
X69950001Y53715802D01*
X70510002Y52999999D02*
X70510000Y53715799D01*
X70510000Y53715799D02*
X70230000Y53995800D01*
X69950001Y53715802D02*
X70230000Y53995800D01*
X110960000Y58230003D02*
X110960000Y56290000D01*
X112510002Y52999999D02*
X112510000Y53715799D01*
X112510000Y53715799D02*
X112230000Y53995800D01*
X111949998Y53000001D02*
X111950001Y53715802D01*
X112249998Y54999999D02*
X112250001Y54015801D01*
X110960000Y56290000D02*
X112249998Y54999999D01*
D17*
X112250001Y54015801D02*
X112230000Y53995800D01*
D16*
X111950001Y53715802D02*
X112230000Y53995800D01*
X98249998Y54999999D02*
X98250001Y54015801D01*
X96960000Y56290000D02*
X98249998Y54999999D01*
X96960000Y58230003D02*
X96960000Y56290000D01*
D17*
X98250001Y54015801D02*
X98230000Y53995800D01*
D16*
X97950001Y53715802D02*
X98230000Y53995800D01*
X97949998Y53000001D02*
X97950001Y53715802D01*
X98510002Y52999999D02*
X98510000Y53715799D01*
X98510000Y53715799D02*
X98230000Y53995800D01*
X115050000Y75000000D02*
X115050000Y74284200D01*
X114490000Y75000000D02*
X114490000Y74284200D01*
X114490000Y74284200D02*
X114770000Y74004200D01*
X115050000Y74284200D02*
X114770000Y74004200D01*
D17*
X114750000Y73984200D02*
X114770000Y74004200D01*
D16*
X116040000Y71710000D02*
X114750000Y73000000D01*
X116040000Y69770000D02*
X116040000Y71710000D01*
X114750000Y73000000D02*
X114750000Y73984200D01*
X114490000Y117000000D02*
X114490000Y116284200D01*
X115050000Y117000000D02*
X115050000Y116284200D01*
X114490000Y116284200D02*
X114770000Y116004200D01*
X115050000Y116284200D02*
X114770000Y116004200D01*
D17*
X114750000Y115984200D02*
X114770000Y116004200D01*
D16*
X114750000Y115000000D02*
X114750000Y115984200D01*
X116040000Y113710000D02*
X114750000Y115000000D01*
X116040000Y111770000D02*
X116040000Y113710000D01*
X100750000Y115000000D02*
X100750000Y115984200D01*
X102040000Y113710000D02*
X100750000Y115000000D01*
X102040000Y111770000D02*
X102040000Y113710000D01*
D17*
X100750000Y115984200D02*
X100770000Y116004200D01*
D16*
X100490000Y117000000D02*
X100490000Y116284200D01*
X101050000Y117000000D02*
X101050000Y116284200D01*
X101050000Y116284200D02*
X100770000Y116004200D01*
X100490000Y116284200D02*
X100770000Y116004200D01*
X112510000Y95715799D02*
X112230000Y95995800D01*
X111950001Y95715802D02*
X112230000Y95995800D01*
X111949998Y95000001D02*
X111950001Y95715802D01*
X112510002Y94999999D02*
X112510000Y95715799D01*
D17*
X112250001Y96015801D02*
X112230000Y95995800D01*
D16*
X110960000Y98290000D02*
X112249998Y96999999D01*
X110960000Y100230003D02*
X110960000Y98290000D01*
X112249998Y96999999D02*
X112250001Y96015801D01*
X100490000Y75000000D02*
X100490000Y74284200D01*
X101050000Y74284200D02*
X100770000Y74004200D01*
X101050000Y75000000D02*
X101050000Y74284200D01*
X102040000Y71710000D02*
X100750000Y73000000D01*
X102040000Y69770000D02*
X102040000Y71710000D01*
X100490000Y74284200D02*
X100770000Y74004200D01*
X100750000Y73000000D02*
X100750000Y73984200D01*
D17*
X100750000Y73984200D02*
X100770000Y74004200D01*
D16*
X97950001Y95715802D02*
X98230000Y95995800D01*
X98510000Y95715799D02*
X98230000Y95995800D01*
X98510002Y94999999D02*
X98510000Y95715799D01*
X97949998Y95000001D02*
X97950001Y95715802D01*
D17*
X98250001Y96015801D02*
X98230000Y95995800D01*
D16*
X98249998Y96999999D02*
X98250001Y96015801D01*
X96960000Y100230003D02*
X96960000Y98290000D01*
X96960000Y98290000D02*
X98249998Y96999999D01*
X45050000Y117000000D02*
X45050000Y116284200D01*
X44490000Y117000000D02*
X44490000Y116284200D01*
X45050000Y116284200D02*
X44770000Y116004200D01*
X44490000Y116284200D02*
X44770000Y116004200D01*
X44490000Y75000000D02*
X44490000Y74284200D01*
X45050000Y75000000D02*
X45050000Y74284200D01*
X45050000Y74284200D02*
X44770000Y74004200D01*
D17*
X44750000Y73984200D02*
X44770000Y74004200D01*
D16*
X44490000Y74284200D02*
X44770000Y74004200D01*
X44750000Y73000000D02*
X44750000Y73984200D01*
X46040000Y71710000D02*
X44750000Y73000000D01*
X46040000Y69770000D02*
X46040000Y71710000D01*
X42249998Y54999999D02*
X42250001Y54015801D01*
D17*
X42250001Y54015801D02*
X42230000Y53995800D01*
D16*
X41949998Y53000001D02*
X41950001Y53715802D01*
X42510000Y53715799D02*
X42230000Y53995800D01*
X41950001Y53715802D02*
X42230000Y53995800D01*
X42510002Y52999999D02*
X42510000Y53715799D01*
X40960000Y58230003D02*
X40960000Y56290000D01*
X40960000Y56290000D02*
X42249998Y54999999D01*
X40960000Y100230003D02*
X40960000Y98290000D01*
X42249998Y96999999D02*
X42250001Y96015801D01*
X40960000Y98290000D02*
X42249998Y96999999D01*
X46040000Y113710000D02*
X44750000Y115000000D01*
X44750000Y115000000D02*
X44750000Y115984200D01*
D17*
X44750000Y115984200D02*
X44770000Y116004200D01*
D16*
X46040000Y111770000D02*
X46040000Y113710000D01*
X42510000Y95715799D02*
X42230000Y95995800D01*
X41950001Y95715802D02*
X42230000Y95995800D01*
X42510002Y94999999D02*
X42510000Y95715799D01*
X41949998Y95000001D02*
X41950001Y95715802D01*
D17*
X42250001Y96015801D02*
X42230000Y95995800D01*
D16*
X26960000Y56290000D02*
X28249998Y54999999D01*
X28249998Y54999999D02*
X28250001Y54015801D01*
X26960000Y58230003D02*
X26960000Y56290000D01*
X28510002Y52999999D02*
X28510000Y53715799D01*
X27949998Y53000001D02*
X27950001Y53715802D01*
X27950001Y53715802D02*
X28230000Y53995800D01*
D17*
X28250001Y54015801D02*
X28230000Y53995800D01*
D16*
X28510000Y53715799D02*
X28230000Y53995800D01*
X32040000Y69770000D02*
X32040000Y71710000D01*
X32040000Y71710000D02*
X30750000Y73000000D01*
X31050000Y74284200D02*
X30770000Y74004200D01*
D17*
X30750000Y73984200D02*
X30770000Y74004200D01*
D16*
X30490000Y74284200D02*
X30770000Y74004200D01*
X30750000Y73000000D02*
X30750000Y73984200D01*
X31050000Y75000000D02*
X31050000Y74284200D01*
X30490000Y75000000D02*
X30490000Y74284200D01*
X26960000Y100230003D02*
X26960000Y98290000D01*
X28249998Y96999999D02*
X28250001Y96015801D01*
X26960000Y98290000D02*
X28249998Y96999999D01*
X28510002Y94999999D02*
X28510000Y95715799D01*
X28510000Y95715799D02*
X28230000Y95995800D01*
D17*
X28250001Y96015801D02*
X28230000Y95995800D01*
D16*
X27950001Y95715802D02*
X28230000Y95995800D01*
X27949998Y95000001D02*
X27950001Y95715802D01*
X32040000Y111770000D02*
X32040000Y113710000D01*
X32040000Y113710000D02*
X30750000Y115000000D01*
X30490000Y116284200D02*
X30770000Y116004200D01*
X31050000Y116284200D02*
X30770000Y116004200D01*
X30750000Y115000000D02*
X30750000Y115984200D01*
D17*
X30750000Y115984200D02*
X30770000Y116004200D01*
D16*
X30490000Y117000000D02*
X30490000Y116284200D01*
X31050000Y117000000D02*
X31050000Y116284200D01*
X55950000Y75000000D02*
X55950000Y74284200D01*
X56250000Y73000000D02*
X56250000Y73984200D01*
X55950000Y74284200D02*
X56230000Y74004200D01*
X56510000Y75000000D02*
X56510000Y74284200D01*
D17*
X56250000Y73984200D02*
X56230000Y74004200D01*
D16*
X56510000Y74284200D02*
X56230000Y74004200D01*
X54960000Y71710000D02*
X56250000Y73000000D01*
X54960000Y69770000D02*
X54960000Y71710000D01*
X55950000Y117000000D02*
X55950000Y116284200D01*
X55950000Y116284200D02*
X56230000Y116004200D01*
X56510000Y117000000D02*
X56510000Y116284200D01*
X56510000Y116284200D02*
X56230000Y116004200D01*
D17*
X56250000Y115984200D02*
X56230000Y116004200D01*
D16*
X54960000Y113710000D02*
X56250000Y115000000D01*
X54960000Y111770000D02*
X54960000Y113710000D01*
X56250000Y115000000D02*
X56250000Y115984200D01*
X60040001Y56289998D02*
X58750000Y54999999D01*
X58750000Y54999999D02*
X58749997Y54015801D01*
X60040000Y58230000D02*
X60040001Y56289998D01*
X58490000Y53000000D02*
X58490003Y53715800D01*
X58490003Y53715800D02*
X58769999Y53995800D01*
X59050002Y53000001D02*
X59049998Y53715801D01*
X59049998Y53715801D02*
X58769999Y53995800D01*
D17*
X58749997Y54015801D02*
X58769999Y53995800D01*
X58749997Y96015801D02*
X58769999Y95995800D01*
D16*
X58750000Y96999999D02*
X58749997Y96015801D01*
X60040001Y98289998D02*
X58750000Y96999999D01*
X60040000Y100230000D02*
X60040001Y98289998D01*
X58490000Y95000000D02*
X58490003Y95715800D01*
X59049998Y95715801D02*
X58769999Y95995800D01*
X59050002Y95000001D02*
X59049998Y95715801D01*
X58490003Y95715800D02*
X58769999Y95995800D01*
X82960000Y113710000D02*
X84250000Y115000000D01*
X84250000Y115000000D02*
X84250000Y115984200D01*
X82960000Y111770000D02*
X82960000Y113710000D01*
X70250000Y115000000D02*
X70250000Y115984200D01*
X68960000Y113710000D02*
X70250000Y115000000D01*
X68960000Y111770000D02*
X68960000Y113710000D01*
X69950000Y117000000D02*
X69950000Y116284200D01*
X69950000Y116284200D02*
X70230000Y116004200D01*
X70510000Y117000000D02*
X70510000Y116284200D01*
D17*
X70250000Y115984200D02*
X70230000Y116004200D01*
D16*
X70510000Y116284200D02*
X70230000Y116004200D01*
D17*
X84250000Y115984200D02*
X84230000Y116004200D01*
D16*
X84510000Y116284200D02*
X84230000Y116004200D01*
X83950000Y117000000D02*
X83950000Y116284200D01*
X84510000Y117000000D02*
X84510000Y116284200D01*
X83950000Y116284200D02*
X84230000Y116004200D01*
X74040000Y100230000D02*
X74040001Y98289998D01*
X74040001Y98289998D02*
X72750000Y96999999D01*
X72750000Y96999999D02*
X72749997Y96015801D01*
X88040000Y100230000D02*
X88040001Y98289998D01*
X88040001Y98289998D02*
X86750000Y96999999D01*
X86750000Y96999999D02*
X86749997Y96015801D01*
D17*
X86749997Y96015801D02*
X86769999Y95995800D01*
D16*
X86490003Y95715800D02*
X86769999Y95995800D01*
X87050002Y95000001D02*
X87049998Y95715801D01*
X87049998Y95715801D02*
X86769999Y95995800D01*
X86490000Y95000000D02*
X86490003Y95715800D01*
X73050002Y95000001D02*
X73049998Y95715801D01*
X73049998Y95715801D02*
X72769999Y95995800D01*
X72490000Y95000000D02*
X72490003Y95715800D01*
D17*
X72749997Y96015801D02*
X72769999Y95995800D01*
D16*
X72490003Y95715800D02*
X72769999Y95995800D01*
X68960000Y71710000D02*
X70250000Y73000000D01*
X70250000Y73000000D02*
X70250000Y73984200D01*
X68960000Y69770000D02*
X68960000Y71710000D01*
D17*
X70250000Y73984200D02*
X70230000Y74004200D01*
D16*
X70510000Y75000000D02*
X70510000Y74284200D01*
X70510000Y74284200D02*
X70230000Y74004200D01*
X69950000Y74284200D02*
X70230000Y74004200D01*
X69950000Y75000000D02*
X69950000Y74284200D01*
X84510000Y75000000D02*
X84510000Y74284200D01*
X83950000Y74284200D02*
X84230000Y74004200D01*
X83950000Y75000000D02*
X83950000Y74284200D01*
D17*
X84250000Y73984200D02*
X84230000Y74004200D01*
D16*
X84510000Y74284200D02*
X84230000Y74004200D01*
X84250000Y73000000D02*
X84250000Y73984200D01*
X82960000Y71710000D02*
X84250000Y73000000D01*
X82960000Y69770000D02*
X82960000Y71710000D01*
X87049998Y53715801D02*
X86769999Y53995800D01*
X87050002Y53000001D02*
X87049998Y53715801D01*
X86490000Y53000000D02*
X86490003Y53715800D01*
X86490003Y53715800D02*
X86769999Y53995800D01*
D17*
X86749997Y54015801D02*
X86769999Y53995800D01*
D16*
X86750000Y54999999D02*
X86749997Y54015801D01*
X88040000Y58230000D02*
X88040001Y56289998D01*
X88040001Y56289998D02*
X86750000Y54999999D01*
X74040000Y58230000D02*
X74040001Y56289998D01*
X74040001Y56289998D02*
X72750000Y54999999D01*
X72750000Y54999999D02*
X72749997Y54015801D01*
X73049998Y53715801D02*
X72769999Y53995800D01*
X73050002Y53000001D02*
X73049998Y53715801D01*
X72490003Y53715800D02*
X72769999Y53995800D01*
D17*
X72749997Y54015801D02*
X72769999Y53995800D01*
D16*
X72490000Y53000000D02*
X72490003Y53715800D01*
X114750000Y54999999D02*
X114749997Y54015801D01*
X116040000Y58230000D02*
X116040001Y56289998D01*
X116040001Y56289998D02*
X114750000Y54999999D01*
X115049998Y53715801D02*
X114769999Y53995800D01*
X115050002Y53000001D02*
X115049998Y53715801D01*
X114490003Y53715800D02*
X114769999Y53995800D01*
X114490000Y53000000D02*
X114490003Y53715800D01*
D17*
X114749997Y54015801D02*
X114769999Y53995800D01*
D16*
X102040001Y56289998D02*
X100750000Y54999999D01*
X100750000Y54999999D02*
X100749997Y54015801D01*
X102040000Y58230000D02*
X102040001Y56289998D01*
X101049998Y53715801D02*
X100769999Y53995800D01*
X100490000Y53000000D02*
X100490003Y53715800D01*
X101050002Y53000001D02*
X101049998Y53715801D01*
X100490003Y53715800D02*
X100769999Y53995800D01*
D17*
X100749997Y54015801D02*
X100769999Y53995800D01*
D16*
X112510000Y75000000D02*
X112510000Y74284200D01*
D17*
X112250000Y73984200D02*
X112230000Y74004200D01*
D16*
X111950000Y74284200D02*
X112230000Y74004200D01*
X111950000Y75000000D02*
X111950000Y74284200D01*
X112510000Y74284200D02*
X112230000Y74004200D01*
X112250000Y73000000D02*
X112250000Y73984200D01*
X110960000Y69770000D02*
X110960000Y71710000D01*
X110960000Y71710000D02*
X112250000Y73000000D01*
X97950000Y117000000D02*
X97950000Y116284200D01*
X98510000Y117000000D02*
X98510000Y116284200D01*
X97950000Y116284200D02*
X98230000Y116004200D01*
X98510000Y116284200D02*
X98230000Y116004200D01*
X98250000Y115000000D02*
X98250000Y115984200D01*
X96960000Y113710000D02*
X98250000Y115000000D01*
D17*
X98250000Y115984200D02*
X98230000Y116004200D01*
D16*
X110960000Y111770000D02*
X110960000Y113710000D01*
X112250000Y115000000D02*
X112250000Y115984200D01*
X110960000Y113710000D02*
X112250000Y115000000D01*
D17*
X112250000Y115984200D02*
X112230000Y116004200D01*
D16*
X112510000Y116284200D02*
X112230000Y116004200D01*
X111950000Y117000000D02*
X111950000Y116284200D01*
X112510000Y117000000D02*
X112510000Y116284200D01*
X111950000Y116284200D02*
X112230000Y116004200D01*
X96960000Y111770000D02*
X96960000Y113710000D01*
X116040000Y100230000D02*
X116040001Y98289998D01*
X114750000Y96999999D02*
X114749997Y96015801D01*
X116040001Y98289998D02*
X114750000Y96999999D01*
D17*
X114749997Y96015801D02*
X114769999Y95995800D01*
D16*
X114490000Y95000000D02*
X114490003Y95715800D01*
X114490003Y95715800D02*
X114769999Y95995800D01*
X115050002Y95000001D02*
X115049998Y95715801D01*
X115049998Y95715801D02*
X114769999Y95995800D01*
D17*
X98250000Y73984200D02*
X98230000Y74004200D01*
D16*
X98510000Y74284200D02*
X98230000Y74004200D01*
X97950000Y74284200D02*
X98230000Y74004200D01*
X97950000Y75000000D02*
X97950000Y74284200D01*
X98510000Y75000000D02*
X98510000Y74284200D01*
X96960000Y71710000D02*
X98250000Y73000000D01*
X98250000Y73000000D02*
X98250000Y73984200D01*
X96960000Y69770000D02*
X96960000Y71710000D01*
X101050002Y95000001D02*
X101049998Y95715801D01*
X100490000Y95000000D02*
X100490003Y95715800D01*
X102040000Y100230000D02*
X102040001Y98289998D01*
X101049998Y95715801D02*
X100769999Y95995800D01*
X102040001Y98289998D02*
X100750000Y96999999D01*
D17*
X100749997Y96015801D02*
X100769999Y95995800D01*
D16*
X100750000Y96999999D02*
X100749997Y96015801D01*
X100490003Y95715800D02*
X100769999Y95995800D01*
X42510000Y116284200D02*
X42230000Y116004200D01*
X41950000Y116284200D02*
X42230000Y116004200D01*
X42510000Y117000000D02*
X42510000Y116284200D01*
X41950000Y117000000D02*
X41950000Y116284200D01*
X40960000Y71710000D02*
X42250000Y73000000D01*
X40960000Y69770000D02*
X40960000Y71710000D01*
X42250000Y73000000D02*
X42250000Y73984200D01*
X41950000Y74284200D02*
X42230000Y74004200D01*
X44490003Y53715800D02*
X44769999Y53995800D01*
D17*
X44749997Y54015801D02*
X44769999Y53995800D01*
D16*
X45050002Y53000001D02*
X45049998Y53715801D01*
X44490000Y53000000D02*
X44490003Y53715800D01*
X45049998Y53715801D02*
X44769999Y53995800D01*
X44750000Y54999999D02*
X44749997Y54015801D01*
X46040000Y58230000D02*
X46040001Y56289998D01*
X46040001Y56289998D02*
X44750000Y54999999D01*
X42510000Y75000000D02*
X42510000Y74284200D01*
X42510000Y74284200D02*
X42230000Y74004200D01*
X41950000Y75000000D02*
X41950000Y74284200D01*
D17*
X42250000Y73984200D02*
X42230000Y74004200D01*
D16*
X46040001Y98289998D02*
X44750000Y96999999D01*
X44750000Y96999999D02*
X44749997Y96015801D01*
X46040000Y100230000D02*
X46040001Y98289998D01*
X42250000Y115000000D02*
X42250000Y115984200D01*
X40960000Y111770000D02*
X40960000Y113710000D01*
D17*
X42250000Y115984200D02*
X42230000Y116004200D01*
D16*
X40960000Y113710000D02*
X42250000Y115000000D01*
X45049998Y95715801D02*
X44769999Y95995800D01*
D17*
X44749997Y96015801D02*
X44769999Y95995800D01*
D16*
X44490003Y95715800D02*
X44769999Y95995800D01*
X44490000Y95000000D02*
X44490003Y95715800D01*
X45050002Y95000001D02*
X45049998Y95715801D01*
X32040000Y58230000D02*
X32040001Y56289998D01*
X31050002Y53000001D02*
X31049998Y53715801D01*
X30490000Y53000000D02*
X30490003Y53715800D01*
X32040001Y56289998D02*
X30750000Y54999999D01*
X31049998Y53715801D02*
X30769999Y53995800D01*
X30750000Y54999999D02*
X30749997Y54015801D01*
D17*
X30749997Y54015801D02*
X30769999Y53995800D01*
D16*
X30490003Y53715800D02*
X30769999Y53995800D01*
X26960000Y71710000D02*
X28250000Y73000000D01*
X28250000Y73000000D02*
X28250000Y73984200D01*
X26960000Y69770000D02*
X26960000Y71710000D01*
X27950000Y75000000D02*
X27950000Y74284200D01*
X28510000Y74284200D02*
X28230000Y74004200D01*
D17*
X28250000Y73984200D02*
X28230000Y74004200D01*
D16*
X28510000Y75000000D02*
X28510000Y74284200D01*
X27950000Y74284200D02*
X28230000Y74004200D01*
X32040001Y98289998D02*
X30750000Y96999999D01*
X32040000Y100230000D02*
X32040001Y98289998D01*
X30750000Y96999999D02*
X30749997Y96015801D01*
D17*
X30749997Y96015801D02*
X30769999Y95995800D01*
D16*
X30490000Y95000000D02*
X30490003Y95715800D01*
X30490003Y95715800D02*
X30769999Y95995800D01*
X31050002Y95000001D02*
X31049998Y95715801D01*
X31049998Y95715801D02*
X30769999Y95995800D01*
X28510000Y116284200D02*
X28230000Y116004200D01*
D17*
X28250000Y115984200D02*
X28230000Y116004200D01*
D16*
X27950000Y117000000D02*
X27950000Y116284200D01*
X28510000Y117000000D02*
X28510000Y116284200D01*
X27950000Y116284200D02*
X28230000Y116004200D01*
X28250000Y115000000D02*
X28250000Y115984200D01*
X26960000Y113710000D02*
X28250000Y115000000D01*
X26960000Y111770000D02*
X26960000Y113710000D01*
X57780000Y74284200D02*
X57500000Y74004200D01*
X57780000Y75000000D02*
X57780000Y74284200D01*
X57220000Y74284200D02*
X57500000Y74004200D01*
X57220000Y75000000D02*
X57220000Y74284200D01*
X57500000Y74004200D02*
X57500000Y69770000D01*
X57780000Y117000000D02*
X57780000Y116284200D01*
X57220000Y116284200D02*
X57500000Y116004200D01*
X57780000Y116284200D02*
X57500000Y116004200D01*
X57220000Y117000000D02*
X57220000Y116284200D01*
X57500000Y116004200D02*
X57500000Y111770000D01*
X57779999Y53715801D02*
X57500001Y53995798D01*
X57220000Y53000000D02*
X57219998Y53715800D01*
X57780000Y53000000D02*
X57779999Y53715801D01*
X57219998Y53715800D02*
X57500001Y53995798D01*
X57500001Y53995798D02*
X57500002Y58230000D01*
X57500001Y95995798D02*
X57500002Y100230000D01*
X57779999Y95715801D02*
X57500001Y95995798D01*
X57220000Y95000000D02*
X57219998Y95715800D01*
X57780000Y95000000D02*
X57779999Y95715801D01*
X57219998Y95715800D02*
X57500001Y95995798D01*
X85220000Y116284200D02*
X85500000Y116004200D01*
X71500000Y116004200D02*
X71500000Y111770000D01*
X85780000Y116284200D02*
X85500000Y116004200D01*
X85780000Y117000000D02*
X85780000Y116284200D01*
X85500000Y116004200D02*
X85500000Y111770000D01*
X71220000Y117000000D02*
X71220000Y116284200D01*
X71220000Y116284200D02*
X71500000Y116004200D01*
X85220000Y117000000D02*
X85220000Y116284200D01*
X71780000Y117000000D02*
X71780000Y116284200D01*
X71780000Y116284200D02*
X71500000Y116004200D01*
X71500001Y95995798D02*
X71500002Y100230000D01*
X85780000Y95000000D02*
X85779999Y95715801D01*
X85219998Y95715800D02*
X85500001Y95995798D01*
X85779999Y95715801D02*
X85500001Y95995798D01*
X85220000Y95000000D02*
X85219998Y95715800D01*
X85500001Y95995798D02*
X85500002Y100230000D01*
X71780000Y95000000D02*
X71779999Y95715801D01*
X71219998Y95715800D02*
X71500001Y95995798D01*
X71779999Y95715801D02*
X71500001Y95995798D01*
X71220000Y95000000D02*
X71219998Y95715800D01*
X85220000Y74284200D02*
X85500000Y74004200D01*
X85780000Y74284200D02*
X85500000Y74004200D01*
X85220000Y75000000D02*
X85220000Y74284200D01*
X85780000Y75000000D02*
X85780000Y74284200D01*
X71500000Y74004200D02*
X71500000Y69770000D01*
X71220000Y75000000D02*
X71220000Y74284200D01*
X71220000Y74284200D02*
X71500000Y74004200D01*
X71780000Y74284200D02*
X71500000Y74004200D01*
X71780000Y75000000D02*
X71780000Y74284200D01*
X85500000Y74004200D02*
X85500000Y69770000D01*
X85779999Y53715801D02*
X85500001Y53995798D01*
X85780000Y53000000D02*
X85779999Y53715801D01*
X85220000Y53000000D02*
X85219998Y53715800D01*
X85219998Y53715800D02*
X85500001Y53995798D01*
X85500001Y53995798D02*
X85500002Y58230000D01*
X71500001Y53995798D02*
X71500002Y58230000D01*
X71220000Y53000000D02*
X71219998Y53715800D01*
X71219998Y53715800D02*
X71500001Y53995798D01*
X71779999Y53715801D02*
X71500001Y53995798D01*
X71780000Y53000000D02*
X71779999Y53715801D01*
X113500001Y53995798D02*
X113500002Y58230000D01*
X113780000Y53000000D02*
X113779999Y53715801D01*
X113779999Y53715801D02*
X113500001Y53995798D01*
X113220000Y53000000D02*
X113219998Y53715800D01*
X113219998Y53715800D02*
X113500001Y53995798D01*
X99500001Y53995798D02*
X99500002Y58230000D01*
X99780000Y53000000D02*
X99779999Y53715801D01*
X99220000Y53000000D02*
X99219998Y53715800D01*
X99219998Y53715800D02*
X99500001Y53995798D01*
X99779999Y53715801D02*
X99500001Y53995798D01*
X113220000Y75000000D02*
X113220000Y74284200D01*
X113780000Y75000000D02*
X113780000Y74284200D01*
X113500000Y74004200D02*
X113500000Y69770000D01*
X113220000Y74284200D02*
X113500000Y74004200D01*
X113780000Y74284200D02*
X113500000Y74004200D01*
X99780000Y117000000D02*
X99780000Y116284200D01*
X99220000Y116284200D02*
X99500000Y116004200D01*
X99220000Y117000000D02*
X99220000Y116284200D01*
X99780000Y116284200D02*
X99500000Y116004200D01*
X113780000Y116284200D02*
X113500000Y116004200D01*
X113780000Y117000000D02*
X113780000Y116284200D01*
X113500000Y116004200D02*
X113500000Y111770000D01*
X113220000Y117000000D02*
X113220000Y116284200D01*
X113220000Y116284200D02*
X113500000Y116004200D01*
X99500000Y116004200D02*
X99500000Y111770000D01*
X113780000Y95000000D02*
X113779999Y95715801D01*
X113220000Y95000000D02*
X113219998Y95715800D01*
X113219998Y95715800D02*
X113500001Y95995798D01*
X113779999Y95715801D02*
X113500001Y95995798D01*
X113500001Y95995798D02*
X113500002Y100230000D01*
X99220000Y75000000D02*
X99220000Y74284200D01*
X99780000Y75000000D02*
X99780000Y74284200D01*
X99500000Y74004200D02*
X99500000Y69770000D01*
X99220000Y74284200D02*
X99500000Y74004200D01*
X99780000Y74284200D02*
X99500000Y74004200D01*
X99219998Y95715800D02*
X99500001Y95995798D01*
X99779999Y95715801D02*
X99500001Y95995798D01*
X99220000Y95000000D02*
X99219998Y95715800D01*
X99780000Y95000000D02*
X99779999Y95715801D01*
X99500001Y95995798D02*
X99500002Y100230000D01*
X43780000Y116284200D02*
X43500000Y116004200D01*
X43500000Y116004200D02*
X43500000Y111770000D01*
X43220000Y116284200D02*
X43500000Y116004200D01*
X43780000Y117000000D02*
X43780000Y116284200D01*
X43220000Y117000000D02*
X43220000Y116284200D01*
X43500000Y74004200D02*
X43500000Y69770000D01*
X43220000Y53000000D02*
X43219998Y53715800D01*
X43780000Y53000000D02*
X43779999Y53715801D01*
X43779999Y53715801D02*
X43500001Y53995798D01*
X43219998Y53715800D02*
X43500001Y53995798D01*
X43500001Y53995798D02*
X43500002Y58230000D01*
X43780000Y75000000D02*
X43780000Y74284200D01*
X43220000Y75000000D02*
X43220000Y74284200D01*
X43220000Y74284200D02*
X43500000Y74004200D01*
X43780000Y74284200D02*
X43500000Y74004200D01*
X43780000Y95000000D02*
X43779999Y95715801D01*
X43219998Y95715800D02*
X43500001Y95995798D01*
X43220000Y95000000D02*
X43219998Y95715800D01*
X43779999Y95715801D02*
X43500001Y95995798D01*
X43500001Y95995798D02*
X43500002Y100230000D01*
X29500001Y53995798D02*
X29500002Y58230000D01*
X29220000Y53000000D02*
X29219998Y53715800D01*
X29779999Y53715801D02*
X29500001Y53995798D01*
X29780000Y53000000D02*
X29779999Y53715801D01*
X29219998Y53715800D02*
X29500001Y53995798D01*
X29500000Y74004200D02*
X29500000Y69770000D01*
X29780000Y75000000D02*
X29780000Y74284200D01*
X29220000Y74284200D02*
X29500000Y74004200D01*
X29780000Y74284200D02*
X29500000Y74004200D01*
X29220000Y75000000D02*
X29220000Y74284200D01*
X29779999Y95715801D02*
X29500001Y95995798D01*
X29219998Y95715800D02*
X29500001Y95995798D01*
X29500001Y95995798D02*
X29500002Y100230000D01*
X29780000Y95000000D02*
X29779999Y95715801D01*
X29220000Y95000000D02*
X29219998Y95715800D01*
X29220000Y117000000D02*
X29220000Y116284200D01*
X29220000Y116284200D02*
X29500000Y116004200D01*
X29780000Y116284200D02*
X29500000Y116004200D01*
X29780000Y117000000D02*
X29780000Y116284200D01*
X29500000Y116004200D02*
X29500000Y111770000D01*
M02*
