M48
METRIC,TZ
T1C1.016
T2C0.500
%
G90
G05
T1
X34.21Y-58.23
X34.21Y-60.77
X34.21Y-66.23
X34.21Y-68.77
X36.75Y-58.23
X36.75Y-60.77
X36.75Y-66.23
X36.75Y-68.77
X39.29Y-58.23
X39.29Y-60.77
X39.29Y-66.23
X39.29Y-68.77
X40.21Y-87.98
X40.21Y-90.52
X41.21Y-36.48
X41.21Y-39.02
X42.75Y-87.98
X42.75Y-90.52
X43.75Y-36.48
X43.75Y-39.02
X45.29Y-87.98
X45.29Y-90.52
X46.29Y-36.48
X46.29Y-39.02
X47.21Y-66.23
X47.21Y-68.77
X47.21Y-58.23
X47.21Y-60.77
X49.75Y-66.23
X49.75Y-68.77
X49.75Y-58.23
X49.75Y-60.77
X52.29Y-66.23
X52.29Y-68.77
X52.29Y-58.23
X52.29Y-60.77
X53.21Y-87.98
X53.21Y-90.52
X54.21Y-36.48
X54.21Y-39.02
X55.75Y-87.98
X55.75Y-90.52
X56.75Y-36.48
X56.75Y-39.02
X58.29Y-87.98
X58.29Y-90.52
X59.29Y-36.48
X59.29Y-39.02
X60.21Y-58.23
X60.21Y-60.77
X60.21Y-66.23
X60.21Y-68.77
X62.75Y-58.23
X62.75Y-60.77
X62.75Y-66.23
X62.75Y-68.77
X65.29Y-58.23
X65.29Y-60.77
X65.29Y-66.23
X65.29Y-68.77
X66.21Y-87.98
X66.21Y-90.52
X67.21Y-36.48
X67.21Y-39.02
X68.75Y-87.98
X68.75Y-90.52
X69.75Y-36.48
X69.75Y-39.02
X71.29Y-87.98
X71.29Y-90.52
X72.29Y-36.48
X72.29Y-39.02
X73.21Y-66.23
X73.21Y-68.77
X73.21Y-58.23
X73.21Y-60.77
X75.75Y-66.23
X75.75Y-68.77
X75.75Y-58.23
X75.75Y-60.77
X78.29Y-66.23
X78.29Y-68.77
X78.29Y-58.23
X78.29Y-60.77
X79.21Y-87.98
X79.21Y-90.52
X80.21Y-36.48
X80.21Y-39.02
X81.75Y-87.98
X81.75Y-90.52
X82.75Y-36.48
X82.75Y-39.02
X84.29Y-87.98
X84.29Y-90.52
X85.29Y-36.48
X85.29Y-39.02
X86.21Y-66.23
X86.21Y-68.77
X86.21Y-58.23
X86.21Y-60.77
X88.75Y-66.23
X88.75Y-68.77
X88.75Y-58.23
X88.75Y-60.77
X91.29Y-66.23
X91.29Y-68.77
X91.29Y-58.23
X91.29Y-60.77
X92.21Y-87.98
X92.21Y-90.52
X93.21Y-36.48
X93.21Y-39.02
X94.75Y-87.98
X94.75Y-90.52
X95.75Y-36.48
X95.75Y-39.02
X97.29Y-87.98
X97.29Y-90.52
X98.29Y-36.48
X98.29Y-39.02
X99.21Y-58.23
X99.21Y-60.77
X99.21Y-66.23
X99.21Y-68.77
X101.75Y-58.23
X101.75Y-60.77
X101.75Y-66.23
X101.75Y-68.77
X104.29Y-58.23
X104.29Y-60.77
X104.29Y-66.23
X104.29Y-68.77
X105.21Y-87.98
X105.21Y-90.52
X106.21Y-36.48
X106.21Y-39.02
X107.75Y-87.98
X107.75Y-90.52
X108.75Y-36.48
X108.75Y-39.02
X110.29Y-87.98
X110.29Y-90.52
X111.29Y-36.48
X111.29Y-39.02
X112.21Y-58.23
X112.21Y-60.77
X112.21Y-66.23
X112.21Y-68.77
X114.75Y-58.23
X114.75Y-60.77
X114.75Y-66.23
X114.75Y-68.77
X117.29Y-58.23
X117.29Y-60.77
X117.29Y-66.23
X117.29Y-68.77
X118.21Y-87.98
X118.21Y-90.52
X119.21Y-36.48
X119.21Y-39.02
X120.75Y-87.98
X120.75Y-90.52
X121.75Y-36.48
X121.75Y-39.02
X123.29Y-87.98
X123.29Y-90.52
X124.29Y-36.48
X124.29Y-39.02
X125.21Y-58.23
X125.21Y-60.77
X125.21Y-66.23
X125.21Y-68.77
X127.75Y-58.23
X127.75Y-60.77
X127.75Y-66.23
X127.75Y-68.77
X130.29Y-58.23
X130.29Y-60.77
X130.29Y-66.23
X130.29Y-68.77
T2
X29.25Y-59.15
X29.25Y-59.85
X29.25Y-67.15
X29.25Y-67.85
X29.5Y-58.35
X29.5Y-60.65
X29.5Y-66.35
X29.5Y-68.65
X31.Y-58.35
X31.Y-60.65
X31.Y-66.35
X31.Y-68.65
X31.25Y-59.15
X31.25Y-59.85
X31.25Y-67.15
X31.25Y-67.85
X32.75Y-48.15
X32.75Y-48.85
X33.Y-47.35
X33.Y-49.65
X34.5Y-47.35
X34.5Y-49.65
X34.75Y-48.15
X34.75Y-48.85
X35.25Y-88.9
X35.25Y-89.6
X35.5Y-88.1
X35.5Y-90.4
X35.6Y-62.75
X35.6Y-64.25
X36.25Y-37.4
X36.25Y-38.1
X36.4Y-62.5
X36.4Y-64.5
X36.5Y-36.6
X36.5Y-38.9
X37.Y-88.1
X37.Y-90.4
X37.1Y-62.5
X37.1Y-64.5
X37.25Y-88.9
X37.25Y-89.6
X37.9Y-62.75
X37.9Y-64.25
X38.Y-36.6
X38.Y-38.9
X38.25Y-37.4
X38.25Y-38.1
X38.75Y-77.9
X38.75Y-78.6
X39.Y-77.1
X39.Y-79.4
X40.5Y-77.1
X40.5Y-79.4
X40.75Y-77.9
X40.75Y-78.6
X41.6Y-92.5
X41.6Y-94.
X42.25Y-59.15
X42.25Y-59.85
X42.25Y-67.15
X42.25Y-67.85
X42.4Y-92.25
X42.4Y-94.25
X42.5Y-58.35
X42.5Y-60.65
X42.5Y-66.35
X42.5Y-68.65
X42.6Y-33.
X42.6Y-34.5
X43.1Y-92.25
X43.1Y-94.25
X43.4Y-32.75
X43.4Y-34.75
X43.9Y-92.5
X43.9Y-94.
X44.Y-58.35
X44.Y-60.65
X44.Y-66.35
X44.Y-68.65
X44.1Y-32.75
X44.1Y-34.75
X44.25Y-59.15
X44.25Y-59.85
X44.25Y-67.15
X44.25Y-67.85
X44.9Y-33.
X44.9Y-34.5
X45.75Y-48.15
X45.75Y-48.85
X46.Y-47.35
X46.Y-49.65
X47.5Y-47.35
X47.5Y-49.65
X47.75Y-48.15
X47.75Y-48.85
X48.25Y-88.9
X48.25Y-89.6
X48.5Y-88.1
X48.5Y-90.4
X48.6Y-62.75
X48.6Y-64.25
X49.25Y-37.4
X49.25Y-38.1
X49.4Y-62.5
X49.4Y-64.5
X49.5Y-36.6
X49.5Y-38.9
X50.Y-88.1
X50.Y-90.4
X50.1Y-62.5
X50.1Y-64.5
X50.25Y-88.9
X50.25Y-89.6
X50.9Y-62.75
X50.9Y-64.25
X51.Y-36.6
X51.Y-38.9
X51.25Y-37.4
X51.25Y-38.1
X51.75Y-77.9
X51.75Y-78.6
X52.Y-77.1
X52.Y-79.4
X53.5Y-77.1
X53.5Y-79.4
X53.75Y-77.9
X53.75Y-78.6
X54.6Y-92.5
X54.6Y-94.
X55.25Y-59.15
X55.25Y-59.85
X55.25Y-67.15
X55.25Y-67.85
X55.4Y-92.25
X55.4Y-94.25
X55.5Y-58.35
X55.5Y-60.65
X55.5Y-66.35
X55.5Y-68.65
X55.6Y-33.
X55.6Y-34.5
X56.1Y-92.25
X56.1Y-94.25
X56.4Y-32.75
X56.4Y-34.75
X56.9Y-92.5
X56.9Y-94.
X57.Y-58.35
X57.Y-60.65
X57.Y-66.35
X57.Y-68.65
X57.1Y-32.75
X57.1Y-34.75
X57.25Y-59.15
X57.25Y-59.85
X57.25Y-67.15
X57.25Y-67.85
X57.9Y-33.
X57.9Y-34.5
X58.75Y-48.15
X58.75Y-48.85
X59.Y-47.35
X59.Y-49.65
X60.5Y-47.35
X60.5Y-49.65
X60.75Y-48.15
X60.75Y-48.85
X61.25Y-88.9
X61.25Y-89.6
X61.5Y-88.1
X61.5Y-90.4
X61.6Y-62.75
X61.6Y-64.25
X62.25Y-37.4
X62.25Y-38.1
X62.4Y-62.5
X62.4Y-64.5
X62.5Y-36.6
X62.5Y-38.9
X63.Y-88.1
X63.Y-90.4
X63.1Y-62.5
X63.1Y-64.5
X63.25Y-88.9
X63.25Y-89.6
X63.9Y-62.75
X63.9Y-64.25
X64.Y-36.6
X64.Y-38.9
X64.25Y-37.4
X64.25Y-38.1
X64.75Y-77.9
X64.75Y-78.6
X65.Y-77.1
X65.Y-79.4
X66.5Y-77.1
X66.5Y-79.4
X66.75Y-77.9
X66.75Y-78.6
X67.6Y-92.5
X67.6Y-94.
X68.25Y-59.15
X68.25Y-59.85
X68.25Y-67.15
X68.25Y-67.85
X68.4Y-92.25
X68.4Y-94.25
X68.5Y-58.35
X68.5Y-60.65
X68.5Y-66.35
X68.5Y-68.65
X68.6Y-33.
X68.6Y-34.5
X69.1Y-92.25
X69.1Y-94.25
X69.4Y-32.75
X69.4Y-34.75
X69.9Y-92.5
X69.9Y-94.
X70.Y-58.35
X70.Y-60.65
X70.Y-66.35
X70.Y-68.65
X70.1Y-32.75
X70.1Y-34.75
X70.25Y-59.15
X70.25Y-59.85
X70.25Y-67.15
X70.25Y-67.85
X70.9Y-33.
X70.9Y-34.5
X71.75Y-48.15
X71.75Y-48.85
X72.Y-47.35
X72.Y-49.65
X73.5Y-47.35
X73.5Y-49.65
X73.75Y-48.15
X73.75Y-48.85
X74.25Y-88.9
X74.25Y-89.6
X74.5Y-88.1
X74.5Y-90.4
X74.6Y-62.75
X74.6Y-64.25
X75.25Y-37.4
X75.25Y-38.1
X75.4Y-62.5
X75.4Y-64.5
X75.5Y-36.6
X75.5Y-38.9
X76.Y-88.1
X76.Y-90.4
X76.1Y-62.5
X76.1Y-64.5
X76.25Y-88.9
X76.25Y-89.6
X76.9Y-62.75
X76.9Y-64.25
X77.Y-36.6
X77.Y-38.9
X77.25Y-37.4
X77.25Y-38.1
X77.75Y-77.9
X77.75Y-78.6
X78.Y-77.1
X78.Y-79.4
X79.5Y-77.1
X79.5Y-79.4
X79.75Y-77.9
X79.75Y-78.6
X80.6Y-92.5
X80.6Y-94.
X81.25Y-59.15
X81.25Y-59.85
X81.25Y-67.15
X81.25Y-67.85
X81.4Y-92.25
X81.4Y-94.25
X81.5Y-58.35
X81.5Y-60.65
X81.5Y-66.35
X81.5Y-68.65
X81.6Y-33.
X81.6Y-34.5
X82.1Y-92.25
X82.1Y-94.25
X82.4Y-32.75
X82.4Y-34.75
X82.9Y-92.5
X82.9Y-94.
X83.Y-58.35
X83.Y-60.65
X83.Y-66.35
X83.Y-68.65
X83.1Y-32.75
X83.1Y-34.75
X83.25Y-59.15
X83.25Y-59.85
X83.25Y-67.15
X83.25Y-67.85
X83.9Y-33.
X83.9Y-34.5
X84.75Y-48.15
X84.75Y-48.85
X85.Y-47.35
X85.Y-49.65
X86.5Y-47.35
X86.5Y-49.65
X86.75Y-48.15
X86.75Y-48.85
X87.25Y-88.9
X87.25Y-89.6
X87.5Y-88.1
X87.5Y-90.4
X87.6Y-62.75
X87.6Y-64.25
X88.25Y-37.4
X88.25Y-38.1
X88.4Y-62.5
X88.4Y-64.5
X88.5Y-36.6
X88.5Y-38.9
X89.Y-88.1
X89.Y-90.4
X89.1Y-62.5
X89.1Y-64.5
X89.25Y-88.9
X89.25Y-89.6
X89.9Y-62.75
X89.9Y-64.25
X90.Y-36.6
X90.Y-38.9
X90.25Y-37.4
X90.25Y-38.1
X90.75Y-77.9
X90.75Y-78.6
X91.Y-77.1
X91.Y-79.4
X92.5Y-77.1
X92.5Y-79.4
X92.75Y-77.9
X92.75Y-78.6
X93.6Y-92.5
X93.6Y-94.
X94.25Y-59.15
X94.25Y-59.85
X94.25Y-67.15
X94.25Y-67.85
X94.4Y-92.25
X94.4Y-94.25
X94.5Y-58.35
X94.5Y-60.65
X94.5Y-66.35
X94.5Y-68.65
X94.6Y-33.
X94.6Y-34.5
X95.1Y-92.25
X95.1Y-94.25
X95.4Y-32.75
X95.4Y-34.75
X95.9Y-92.5
X95.9Y-94.
X96.Y-58.35
X96.Y-60.65
X96.Y-66.35
X96.Y-68.65
X96.1Y-32.75
X96.1Y-34.75
X96.25Y-59.15
X96.25Y-59.85
X96.25Y-67.15
X96.25Y-67.85
X96.9Y-33.
X96.9Y-34.5
X97.75Y-48.15
X97.75Y-48.85
X98.Y-47.35
X98.Y-49.65
X99.5Y-47.35
X99.5Y-49.65
X99.75Y-48.15
X99.75Y-48.85
X100.25Y-88.9
X100.25Y-89.6
X100.5Y-88.1
X100.5Y-90.4
X100.6Y-62.75
X100.6Y-64.25
X101.25Y-37.4
X101.25Y-38.1
X101.4Y-62.5
X101.4Y-64.5
X101.5Y-36.6
X101.5Y-38.9
X102.Y-88.1
X102.Y-90.4
X102.1Y-62.5
X102.1Y-64.5
X102.25Y-88.9
X102.25Y-89.6
X102.9Y-62.75
X102.9Y-64.25
X103.Y-36.6
X103.Y-38.9
X103.25Y-37.4
X103.25Y-38.1
X103.75Y-77.9
X103.75Y-78.6
X104.Y-77.1
X104.Y-79.4
X105.5Y-77.1
X105.5Y-79.4
X105.75Y-77.9
X105.75Y-78.6
X106.6Y-92.5
X106.6Y-94.
X107.25Y-67.15
X107.25Y-67.85
X107.25Y-59.15
X107.25Y-59.85
X107.4Y-92.25
X107.4Y-94.25
X107.5Y-66.35
X107.5Y-68.65
X107.5Y-58.35
X107.5Y-60.65
X107.6Y-33.
X107.6Y-34.5
X108.1Y-92.25
X108.1Y-94.25
X108.4Y-32.75
X108.4Y-34.75
X108.9Y-92.5
X108.9Y-94.
X109.Y-66.35
X109.Y-68.65
X109.Y-58.35
X109.Y-60.65
X109.1Y-32.75
X109.1Y-34.75
X109.25Y-67.15
X109.25Y-67.85
X109.25Y-59.15
X109.25Y-59.85
X109.9Y-33.
X109.9Y-34.5
X110.75Y-48.15
X110.75Y-48.85
X111.Y-47.35
X111.Y-49.65
X112.5Y-47.35
X112.5Y-49.65
X112.75Y-48.15
X112.75Y-48.85
X113.25Y-88.9
X113.25Y-89.6
X113.5Y-88.1
X113.5Y-90.4
X113.6Y-62.75
X113.6Y-64.25
X114.25Y-37.4
X114.25Y-38.1
X114.4Y-62.5
X114.4Y-64.5
X114.5Y-36.6
X114.5Y-38.9
X115.Y-88.1
X115.Y-90.4
X115.1Y-62.5
X115.1Y-64.5
X115.25Y-88.9
X115.25Y-89.6
X115.9Y-62.75
X115.9Y-64.25
X116.Y-36.6
X116.Y-38.9
X116.25Y-37.4
X116.25Y-38.1
X116.75Y-77.9
X116.75Y-78.6
X117.Y-77.1
X117.Y-79.4
X118.5Y-77.1
X118.5Y-79.4
X118.75Y-77.9
X118.75Y-78.6
X119.6Y-92.5
X119.6Y-94.
X120.25Y-59.15
X120.25Y-59.85
X120.25Y-67.15
X120.25Y-67.85
X120.4Y-92.25
X120.4Y-94.25
X120.5Y-58.35
X120.5Y-60.65
X120.5Y-66.35
X120.5Y-68.65
X120.6Y-33.
X120.6Y-34.5
X121.1Y-92.25
X121.1Y-94.25
X121.4Y-32.75
X121.4Y-34.75
X121.9Y-92.5
X121.9Y-94.
X122.Y-58.35
X122.Y-60.65
X122.Y-66.35
X122.Y-68.65
X122.1Y-32.75
X122.1Y-34.75
X122.25Y-59.15
X122.25Y-59.85
X122.25Y-67.15
X122.25Y-67.85
X122.9Y-33.
X122.9Y-34.5
X123.75Y-48.15
X123.75Y-48.85
X124.Y-47.35
X124.Y-49.65
X125.5Y-47.35
X125.5Y-49.65
X125.75Y-48.15
X125.75Y-48.85
X126.25Y-88.9
X126.25Y-89.6
X126.5Y-88.1
X126.5Y-90.4
X126.6Y-62.75
X126.6Y-64.25
X127.25Y-37.4
X127.25Y-38.1
X127.4Y-62.5
X127.4Y-64.5
X127.5Y-36.6
X127.5Y-38.9
X128.Y-88.1
X128.Y-90.4
X128.1Y-62.5
X128.1Y-64.5
X128.25Y-88.9
X128.25Y-89.6
X128.9Y-62.75
X128.9Y-64.25
X129.Y-36.6
X129.Y-38.9
X129.25Y-37.4
X129.25Y-38.1
X129.75Y-77.9
X129.75Y-78.6
X130.Y-77.1
X130.Y-79.4
X131.5Y-77.1
X131.5Y-79.4
X131.75Y-77.9
X131.75Y-78.6
X133.25Y-59.15
X133.25Y-59.85
X133.25Y-67.15
X133.25Y-67.85
X133.5Y-58.35
X133.5Y-60.65
X133.5Y-66.35
X133.5Y-68.65
X135.Y-58.35
X135.Y-60.65
X135.Y-66.35
X135.Y-68.65
X135.25Y-59.15
X135.25Y-59.85
X135.25Y-67.15
X135.25Y-67.85
T0
M30
