G04 #@! TF.FileFunction,Copper,L2,Bot,Signal*
%FSLAX46Y46*%
G04 Gerber Fmt 4.6, Leading zero omitted, Abs format (unit mm)*
G04 Created by KiCad (PCBNEW (2016-04-11 BZR 6687, Git f239aee)-product) date Tue 12 Apr 2016 03:58:06 PM CEST*
%MOMM*%
G01*
G04 APERTURE LIST*
%ADD10C,0.150000*%
%ADD11R,0.400000X2.000000*%
%ADD12R,0.400000X3.000000*%
%ADD13R,0.950000X1.000000*%
%ADD14R,1.500000X2.000000*%
%ADD15O,1.500000X2.000000*%
%ADD16C,0.304800*%
%ADD17C,0.406400*%
%ADD18C,0.500000*%
%ADD19C,0.203200*%
G04 APERTURE END LIST*
D10*
D11*
X38300000Y-81250001D03*
X37030000Y-81250001D03*
X36470000Y-81250001D03*
X37740000Y-81250001D03*
X35760000Y-81250001D03*
X35200000Y-81250001D03*
D12*
X35760000Y-74000001D03*
X35200000Y-74000001D03*
D13*
X35480000Y-73004201D03*
D12*
X37030000Y-74000001D03*
X36470000Y-74000001D03*
D13*
X36750000Y-73004201D03*
D12*
X37740000Y-74000001D03*
X38300000Y-74000001D03*
D13*
X38020000Y-73004201D03*
D14*
X34210000Y-68770000D03*
D15*
X34210000Y-66230000D03*
X36750000Y-68770000D03*
X36750000Y-66230000D03*
X39290000Y-68770000D03*
X39290000Y-66230000D03*
D14*
X130290000Y-58230000D03*
D15*
X130290000Y-60770000D03*
X127750000Y-58230000D03*
X127750000Y-60770000D03*
X125210000Y-58230000D03*
X125210000Y-60770000D03*
D11*
X126200000Y-45750000D03*
X127470000Y-45750000D03*
X128030000Y-45750000D03*
X126760000Y-45750000D03*
X128740000Y-45750000D03*
X129300000Y-45750000D03*
D12*
X128740000Y-53000000D03*
X129300000Y-53000000D03*
D13*
X129020000Y-53995800D03*
D12*
X127470000Y-53000000D03*
X128030000Y-53000000D03*
D13*
X127750000Y-53995800D03*
D12*
X126760000Y-53000000D03*
X126200000Y-53000000D03*
D13*
X126480000Y-53995800D03*
D14*
X73209999Y-68770002D03*
D15*
X73209999Y-66230002D03*
X75749999Y-68770002D03*
X75749999Y-66230002D03*
X78289999Y-68770002D03*
X78289999Y-66230002D03*
D11*
X80200000Y-75500000D03*
X81470000Y-75500000D03*
X82030000Y-75500000D03*
X80760000Y-75500000D03*
X82740000Y-75500000D03*
X83300000Y-75500000D03*
D12*
X82740000Y-82750000D03*
X83300000Y-82750000D03*
D13*
X83020000Y-83745800D03*
D12*
X81470000Y-82750000D03*
X82030000Y-82750000D03*
D13*
X81750000Y-83745800D03*
D12*
X80760000Y-82750000D03*
X80200000Y-82750000D03*
D13*
X80480000Y-83745800D03*
D11*
X77300001Y-81250002D03*
X76030001Y-81250002D03*
X75470001Y-81250002D03*
X76740001Y-81250002D03*
X74760001Y-81250002D03*
X74200001Y-81250002D03*
D12*
X74760001Y-74000002D03*
X74200001Y-74000002D03*
D13*
X74480001Y-73004202D03*
D12*
X76030001Y-74000002D03*
X75470001Y-74000002D03*
D13*
X75750001Y-73004202D03*
D12*
X76740001Y-74000002D03*
X77300001Y-74000002D03*
D13*
X77020001Y-73004202D03*
D14*
X99210001Y-68769998D03*
D15*
X99210001Y-66229998D03*
X101750001Y-68769998D03*
X101750001Y-66229998D03*
X104290001Y-68769998D03*
X104290001Y-66229998D03*
D11*
X106200000Y-75500000D03*
X107470000Y-75500000D03*
X108030000Y-75500000D03*
X106760000Y-75500000D03*
X108740000Y-75500000D03*
X109300000Y-75500000D03*
D12*
X108740000Y-82750000D03*
X109300000Y-82750000D03*
D13*
X109020000Y-83745800D03*
D12*
X107470000Y-82750000D03*
X108030000Y-82750000D03*
D13*
X107750000Y-83745800D03*
D12*
X106760000Y-82750000D03*
X106200000Y-82750000D03*
D13*
X106480000Y-83745800D03*
D11*
X103300000Y-81250000D03*
X102030000Y-81250000D03*
X101470000Y-81250000D03*
X102740000Y-81250000D03*
X100760000Y-81250000D03*
X100200000Y-81250000D03*
D12*
X100760000Y-74000000D03*
X100200000Y-74000000D03*
D13*
X100480000Y-73004200D03*
D12*
X102030000Y-74000000D03*
X101470000Y-74000000D03*
D13*
X101750000Y-73004200D03*
D12*
X102740000Y-74000000D03*
X103300000Y-74000000D03*
D13*
X103020000Y-73004200D03*
D11*
X93200000Y-75500000D03*
X94470000Y-75500000D03*
X95030000Y-75500000D03*
X93760000Y-75500000D03*
X95740000Y-75500000D03*
X96300000Y-75500000D03*
D12*
X95740000Y-82750000D03*
X96300000Y-82750000D03*
D13*
X96020000Y-83745800D03*
D12*
X94470000Y-82750000D03*
X95030000Y-82750000D03*
D13*
X94750000Y-83745800D03*
D12*
X93760000Y-82750000D03*
X93200000Y-82750000D03*
D13*
X93480000Y-83745800D03*
D11*
X90300004Y-81250000D03*
X89030004Y-81250000D03*
X88470004Y-81250000D03*
X89740004Y-81250000D03*
X87760004Y-81250000D03*
X87200004Y-81250000D03*
D12*
X87760004Y-74000000D03*
X87200004Y-74000000D03*
D13*
X87480004Y-73004200D03*
D12*
X89030004Y-74000000D03*
X88470004Y-74000000D03*
D13*
X88750004Y-73004200D03*
D12*
X89740004Y-74000000D03*
X90300004Y-74000000D03*
D13*
X90020004Y-73004200D03*
D14*
X86209997Y-68770001D03*
D15*
X86209997Y-66230001D03*
X88749997Y-68770001D03*
X88749997Y-66230001D03*
X91289997Y-68770001D03*
X91289997Y-66230001D03*
D14*
X71290000Y-87980000D03*
D15*
X71290000Y-90520000D03*
X68750000Y-87980000D03*
X68750000Y-90520000D03*
X66210000Y-87980000D03*
X66210000Y-90520000D03*
D14*
X58290000Y-87980000D03*
D15*
X58290000Y-90520000D03*
X55750000Y-87980000D03*
X55750000Y-90520000D03*
X53210000Y-87980000D03*
X53210000Y-90520000D03*
D14*
X45290000Y-87980000D03*
D15*
X45290000Y-90520000D03*
X42750000Y-87980000D03*
X42750000Y-90520000D03*
X40210000Y-87980000D03*
X40210000Y-90520000D03*
D14*
X60210000Y-68770000D03*
D15*
X60210000Y-66230000D03*
X62750000Y-68770000D03*
X62750000Y-66230000D03*
X65290000Y-68770000D03*
X65290000Y-66230000D03*
D11*
X64300000Y-81250000D03*
X63030000Y-81250000D03*
X62470000Y-81250000D03*
X63740000Y-81250000D03*
X61760000Y-81250000D03*
X61200000Y-81250000D03*
D12*
X61760000Y-74000000D03*
X61200000Y-74000000D03*
D13*
X61480000Y-73004200D03*
D12*
X63030000Y-74000000D03*
X62470000Y-74000000D03*
D13*
X62750000Y-73004200D03*
D12*
X63740000Y-74000000D03*
X64300000Y-74000000D03*
D13*
X64020000Y-73004200D03*
D11*
X67200000Y-75500000D03*
X68470000Y-75500000D03*
X69030000Y-75500000D03*
X67760000Y-75500000D03*
X69740000Y-75500000D03*
X70300000Y-75500000D03*
D12*
X69740000Y-82750000D03*
X70300000Y-82750000D03*
D13*
X70020000Y-83745800D03*
D12*
X68470000Y-82750000D03*
X69030000Y-82750000D03*
D13*
X68750000Y-83745800D03*
D12*
X67760000Y-82750000D03*
X67200000Y-82750000D03*
D13*
X67480000Y-83745800D03*
D14*
X47209999Y-68769999D03*
D15*
X47209999Y-66229999D03*
X49749999Y-68769999D03*
X49749999Y-66229999D03*
X52289999Y-68769999D03*
X52289999Y-66229999D03*
D11*
X51300000Y-81249998D03*
X50030000Y-81249998D03*
X49470000Y-81249998D03*
X50740000Y-81249998D03*
X48760000Y-81249998D03*
X48200000Y-81249998D03*
D12*
X48760000Y-73999998D03*
X48200000Y-73999998D03*
D13*
X48480000Y-73004198D03*
D12*
X50030000Y-73999998D03*
X49470000Y-73999998D03*
D13*
X49750000Y-73004198D03*
D12*
X50740000Y-73999998D03*
X51300000Y-73999998D03*
D13*
X51020000Y-73004198D03*
D11*
X54200000Y-75500000D03*
X55470000Y-75500000D03*
X56030000Y-75500000D03*
X54760000Y-75500000D03*
X56740000Y-75500000D03*
X57300000Y-75500000D03*
D12*
X56740000Y-82750000D03*
X57300000Y-82750000D03*
D13*
X57020000Y-83745800D03*
D12*
X55470000Y-82750000D03*
X56030000Y-82750000D03*
D13*
X55750000Y-83745800D03*
D12*
X54760000Y-82750000D03*
X54200000Y-82750000D03*
D13*
X54480000Y-83745800D03*
D11*
X41200000Y-75500000D03*
X42470000Y-75500000D03*
X43030000Y-75500000D03*
X41760000Y-75500000D03*
X43740000Y-75500000D03*
X44300000Y-75500000D03*
D12*
X43740000Y-82750000D03*
X44300000Y-82750000D03*
D13*
X44020000Y-83745800D03*
D12*
X42470000Y-82750000D03*
X43030000Y-82750000D03*
D13*
X42750000Y-83745800D03*
D12*
X41760000Y-82750000D03*
X41200000Y-82750000D03*
D13*
X41480000Y-83745800D03*
D14*
X110290000Y-87980000D03*
D15*
X110290000Y-90520000D03*
X107750000Y-87980000D03*
X107750000Y-90520000D03*
X105210000Y-87980000D03*
X105210000Y-90520000D03*
D14*
X123290000Y-87980000D03*
D15*
X123290000Y-90520000D03*
X120750000Y-87980000D03*
X120750000Y-90520000D03*
X118210000Y-87980000D03*
X118210000Y-90520000D03*
D11*
X119200000Y-75500000D03*
X120470000Y-75500000D03*
X121030000Y-75500000D03*
X119760000Y-75500000D03*
X121740000Y-75500000D03*
X122300000Y-75500000D03*
D12*
X121740000Y-82750000D03*
X122300000Y-82750000D03*
D13*
X122020000Y-83745800D03*
D12*
X120470000Y-82750000D03*
X121030000Y-82750000D03*
D13*
X120750000Y-83745800D03*
D12*
X119760000Y-82750000D03*
X119200000Y-82750000D03*
D13*
X119480000Y-83745800D03*
D11*
X116299999Y-81249998D03*
X115029999Y-81249998D03*
X114469999Y-81249998D03*
X115739999Y-81249998D03*
X113759999Y-81249998D03*
X113199999Y-81249998D03*
D12*
X113759999Y-73999998D03*
X113199999Y-73999998D03*
D13*
X113479999Y-73004198D03*
D12*
X115029999Y-73999998D03*
X114469999Y-73999998D03*
D13*
X114749999Y-73004198D03*
D12*
X115739999Y-73999998D03*
X116299999Y-73999998D03*
D13*
X116019999Y-73004198D03*
D11*
X129300000Y-81250000D03*
X128030000Y-81250000D03*
X127470000Y-81250000D03*
X128740000Y-81250000D03*
X126760000Y-81250000D03*
X126200000Y-81250000D03*
D12*
X126760000Y-74000000D03*
X126200000Y-74000000D03*
D13*
X126480000Y-73004200D03*
D12*
X128030000Y-74000000D03*
X127470000Y-74000000D03*
D13*
X127750000Y-73004200D03*
D12*
X128740000Y-74000000D03*
X129300000Y-74000000D03*
D13*
X129020000Y-73004200D03*
D14*
X125210001Y-68770001D03*
D15*
X125210001Y-66230001D03*
X127750001Y-68770001D03*
X127750001Y-66230001D03*
X130290001Y-68770001D03*
X130290001Y-66230001D03*
D14*
X97290000Y-87980000D03*
D15*
X97290000Y-90520000D03*
X94750000Y-87980000D03*
X94750000Y-90520000D03*
X92210000Y-87980000D03*
X92210000Y-90520000D03*
D14*
X84290000Y-87980000D03*
D15*
X84290000Y-90520000D03*
X81750000Y-87980000D03*
X81750000Y-90520000D03*
X79210000Y-87980000D03*
X79210000Y-90520000D03*
D14*
X112210000Y-68770000D03*
D15*
X112210000Y-66230000D03*
X114750000Y-68770000D03*
X114750000Y-66230000D03*
X117290000Y-68770000D03*
X117290000Y-66230000D03*
D14*
X67209999Y-39020002D03*
D15*
X67209999Y-36480002D03*
X69749999Y-39020002D03*
X69749999Y-36480002D03*
X72289999Y-39020002D03*
X72289999Y-36480002D03*
D11*
X71300001Y-51500002D03*
X70030001Y-51500002D03*
X69470001Y-51500002D03*
X70740001Y-51500002D03*
X68760001Y-51500002D03*
X68200001Y-51500002D03*
D12*
X68760001Y-44250002D03*
X68200001Y-44250002D03*
D13*
X68480001Y-43254202D03*
D12*
X70030001Y-44250002D03*
X69470001Y-44250002D03*
D13*
X69750001Y-43254202D03*
D12*
X70740001Y-44250002D03*
X71300001Y-44250002D03*
D13*
X71020001Y-43254202D03*
D11*
X84300004Y-51500000D03*
X83030004Y-51500000D03*
X82470004Y-51500000D03*
X83740004Y-51500000D03*
X81760004Y-51500000D03*
X81200004Y-51500000D03*
D12*
X81760004Y-44250000D03*
X81200004Y-44250000D03*
D13*
X81480004Y-43254200D03*
D12*
X83030004Y-44250000D03*
X82470004Y-44250000D03*
D13*
X82750004Y-43254200D03*
D12*
X83740004Y-44250000D03*
X84300004Y-44250000D03*
D13*
X84020004Y-43254200D03*
D14*
X54210000Y-39020000D03*
D15*
X54210000Y-36480000D03*
X56750000Y-39020000D03*
X56750000Y-36480000D03*
X59290000Y-39020000D03*
X59290000Y-36480000D03*
D14*
X119210001Y-39020001D03*
D15*
X119210001Y-36480001D03*
X121750001Y-39020001D03*
X121750001Y-36480001D03*
X124290001Y-39020001D03*
X124290001Y-36480001D03*
D11*
X123300000Y-51500000D03*
X122030000Y-51500000D03*
X121470000Y-51500000D03*
X122740000Y-51500000D03*
X120760000Y-51500000D03*
X120200000Y-51500000D03*
D12*
X120760000Y-44250000D03*
X120200000Y-44250000D03*
D13*
X120480000Y-43254200D03*
D12*
X122030000Y-44250000D03*
X121470000Y-44250000D03*
D13*
X121750000Y-43254200D03*
D12*
X122740000Y-44250000D03*
X123300000Y-44250000D03*
D13*
X123020000Y-43254200D03*
D14*
X80209997Y-39020001D03*
D15*
X80209997Y-36480001D03*
X82749997Y-39020001D03*
X82749997Y-36480001D03*
X85289997Y-39020001D03*
X85289997Y-36480001D03*
D14*
X41209999Y-39019999D03*
D15*
X41209999Y-36479999D03*
X43749999Y-39019999D03*
X43749999Y-36479999D03*
X46289999Y-39019999D03*
X46289999Y-36479999D03*
D11*
X58300000Y-51500000D03*
X57030000Y-51500000D03*
X56470000Y-51500000D03*
X57740000Y-51500000D03*
X55760000Y-51500000D03*
X55200000Y-51500000D03*
D12*
X55760000Y-44250000D03*
X55200000Y-44250000D03*
D13*
X55480000Y-43254200D03*
D12*
X57030000Y-44250000D03*
X56470000Y-44250000D03*
D13*
X56750000Y-43254200D03*
D12*
X57740000Y-44250000D03*
X58300000Y-44250000D03*
D13*
X58020000Y-43254200D03*
D11*
X45300000Y-51499998D03*
X44030000Y-51499998D03*
X43470000Y-51499998D03*
X44740000Y-51499998D03*
X42760000Y-51499998D03*
X42200000Y-51499998D03*
D12*
X42760000Y-44249998D03*
X42200000Y-44249998D03*
D13*
X42480000Y-43254198D03*
D12*
X44030000Y-44249998D03*
X43470000Y-44249998D03*
D13*
X43750000Y-43254198D03*
D12*
X44740000Y-44249998D03*
X45300000Y-44249998D03*
D13*
X45020000Y-43254198D03*
D14*
X93210001Y-39019998D03*
D15*
X93210001Y-36479998D03*
X95750001Y-39019998D03*
X95750001Y-36479998D03*
X98290001Y-39019998D03*
X98290001Y-36479998D03*
D11*
X97300000Y-51500000D03*
X96030000Y-51500000D03*
X95470000Y-51500000D03*
X96740000Y-51500000D03*
X94760000Y-51500000D03*
X94200000Y-51500000D03*
D12*
X94760000Y-44250000D03*
X94200000Y-44250000D03*
D13*
X94480000Y-43254200D03*
D12*
X96030000Y-44250000D03*
X95470000Y-44250000D03*
D13*
X95750000Y-43254200D03*
D12*
X96740000Y-44250000D03*
X97300000Y-44250000D03*
D13*
X97020000Y-43254200D03*
D14*
X106210000Y-39020000D03*
D15*
X106210000Y-36480000D03*
X108750000Y-39020000D03*
X108750000Y-36480000D03*
X111290000Y-39020000D03*
X111290000Y-36480000D03*
D11*
X110299999Y-51499998D03*
X109029999Y-51499998D03*
X108469999Y-51499998D03*
X109739999Y-51499998D03*
X107759999Y-51499998D03*
X107199999Y-51499998D03*
D12*
X107759999Y-44249998D03*
X107199999Y-44249998D03*
D13*
X107479999Y-43254198D03*
D12*
X109029999Y-44249998D03*
X108469999Y-44249998D03*
D13*
X108749999Y-43254198D03*
D12*
X109739999Y-44249998D03*
X110299999Y-44249998D03*
D13*
X110019999Y-43254198D03*
D11*
X113200000Y-45750000D03*
X114470000Y-45750000D03*
X115030000Y-45750000D03*
X113760000Y-45750000D03*
X115740000Y-45750000D03*
X116300000Y-45750000D03*
D12*
X115740000Y-53000000D03*
X116300000Y-53000000D03*
D13*
X116020000Y-53995800D03*
D12*
X114470000Y-53000000D03*
X115030000Y-53000000D03*
D13*
X114750000Y-53995800D03*
D12*
X113760000Y-53000000D03*
X113200000Y-53000000D03*
D13*
X113480000Y-53995800D03*
D14*
X117290000Y-58230000D03*
D15*
X117290000Y-60770000D03*
X114750000Y-58230000D03*
X114750000Y-60770000D03*
X112210000Y-58230000D03*
X112210000Y-60770000D03*
D14*
X91290000Y-58230000D03*
D15*
X91290000Y-60770000D03*
X88750000Y-58230000D03*
X88750000Y-60770000D03*
X86210000Y-58230000D03*
X86210000Y-60770000D03*
D11*
X100200000Y-45750000D03*
X101470000Y-45750000D03*
X102030000Y-45750000D03*
X100760000Y-45750000D03*
X102740000Y-45750000D03*
X103300000Y-45750000D03*
D12*
X102740000Y-53000000D03*
X103300000Y-53000000D03*
D13*
X103020000Y-53995800D03*
D12*
X101470000Y-53000000D03*
X102030000Y-53000000D03*
D13*
X101750000Y-53995800D03*
D12*
X100760000Y-53000000D03*
X100200000Y-53000000D03*
D13*
X100480000Y-53995800D03*
D11*
X87200000Y-45750000D03*
X88470000Y-45750000D03*
X89030000Y-45750000D03*
X87760000Y-45750000D03*
X89740000Y-45750000D03*
X90300000Y-45750000D03*
D12*
X89740000Y-53000000D03*
X90300000Y-53000000D03*
D13*
X90020000Y-53995800D03*
D12*
X88470000Y-53000000D03*
X89030000Y-53000000D03*
D13*
X88750000Y-53995800D03*
D12*
X87760000Y-53000000D03*
X87200000Y-53000000D03*
D13*
X87480000Y-53995800D03*
D14*
X104290000Y-58230000D03*
D15*
X104290000Y-60770000D03*
X101750000Y-58230000D03*
X101750000Y-60770000D03*
X99210000Y-58230000D03*
X99210000Y-60770000D03*
D14*
X65290000Y-58230000D03*
D15*
X65290000Y-60770000D03*
X62750000Y-58230000D03*
X62750000Y-60770000D03*
X60210000Y-58230000D03*
X60210000Y-60770000D03*
D11*
X61200000Y-45750000D03*
X62470000Y-45750000D03*
X63030000Y-45750000D03*
X61760000Y-45750000D03*
X63740000Y-45750000D03*
X64300000Y-45750000D03*
D12*
X63740000Y-53000000D03*
X64300000Y-53000000D03*
D13*
X64020000Y-53995800D03*
D12*
X62470000Y-53000000D03*
X63030000Y-53000000D03*
D13*
X62750000Y-53995800D03*
D12*
X61760000Y-53000000D03*
X61200000Y-53000000D03*
D13*
X61480000Y-53995800D03*
D11*
X74200000Y-45750000D03*
X75470000Y-45750000D03*
X76030000Y-45750000D03*
X74760000Y-45750000D03*
X76740000Y-45750000D03*
X77300000Y-45750000D03*
D12*
X76740000Y-53000000D03*
X77300000Y-53000000D03*
D13*
X77020000Y-53995800D03*
D12*
X75470000Y-53000000D03*
X76030000Y-53000000D03*
D13*
X75750000Y-53995800D03*
D12*
X74760000Y-53000000D03*
X74200000Y-53000000D03*
D13*
X74480000Y-53995800D03*
D14*
X78290000Y-58230000D03*
D15*
X78290000Y-60770000D03*
X75750000Y-58230000D03*
X75750000Y-60770000D03*
X73210000Y-58230000D03*
X73210000Y-60770000D03*
D11*
X48200000Y-45750000D03*
X49470000Y-45750000D03*
X50030000Y-45750000D03*
X48760000Y-45750000D03*
X50740000Y-45750000D03*
X51300000Y-45750000D03*
D12*
X50740000Y-53000000D03*
X51300000Y-53000000D03*
D13*
X51020000Y-53995800D03*
D12*
X49470000Y-53000000D03*
X50030000Y-53000000D03*
D13*
X49750000Y-53995800D03*
D12*
X48760000Y-53000000D03*
X48200000Y-53000000D03*
D13*
X48480000Y-53995800D03*
D14*
X52290000Y-58230000D03*
D15*
X52290000Y-60770000D03*
X49750000Y-58230000D03*
X49750000Y-60770000D03*
X47210000Y-58230000D03*
X47210000Y-60770000D03*
D14*
X39290000Y-58230000D03*
D15*
X39290000Y-60770000D03*
X36750000Y-58230000D03*
X36750000Y-60770000D03*
X34210000Y-58230000D03*
X34210000Y-60770000D03*
D11*
X35200000Y-45750000D03*
X36470000Y-45750000D03*
X37030000Y-45750000D03*
X35760000Y-45750000D03*
X37740000Y-45750000D03*
X38300000Y-45750000D03*
D12*
X37740000Y-53000000D03*
X38300000Y-53000000D03*
D13*
X38020000Y-53995800D03*
D12*
X36470000Y-53000000D03*
X37030000Y-53000000D03*
D13*
X36750000Y-53995800D03*
D12*
X35760000Y-53000000D03*
X35200000Y-53000000D03*
D13*
X35480000Y-53995800D03*
D16*
X38300000Y-73284197D02*
X38020000Y-73004200D01*
X37740000Y-73284200D02*
X38020000Y-73004200D01*
D17*
X38000002Y-72984198D02*
X38020000Y-73004200D01*
D18*
X37999999Y-72000002D02*
X38000002Y-72984198D01*
X40749998Y-70000000D02*
X39500001Y-71250002D01*
X38749999Y-71250000D02*
X37999999Y-72000002D01*
X39500001Y-71250002D02*
X38749999Y-71250000D01*
D16*
X38300001Y-74000001D02*
X38300000Y-73284197D01*
X37739999Y-73999998D02*
X37740000Y-73284200D01*
D18*
X40230002Y-66229998D02*
X40750002Y-66750001D01*
X40750002Y-66750001D02*
X40749998Y-70000000D01*
X39290000Y-66230000D02*
X40230002Y-66229998D01*
X125000000Y-55750000D02*
X125750000Y-55750000D01*
X123750000Y-57000000D02*
X125000000Y-55750000D01*
X125750000Y-55750000D02*
X126500000Y-55000000D01*
X126500000Y-55000000D02*
X126500000Y-54015800D01*
X125210000Y-60770000D02*
X124270000Y-60770000D01*
X123750000Y-60250000D02*
X123750000Y-57000000D01*
X124270000Y-60770000D02*
X123750000Y-60250000D01*
D16*
X126200000Y-53000000D02*
X126200000Y-53715800D01*
X126760000Y-53000000D02*
X126760000Y-53715800D01*
X126760000Y-53715800D02*
X126480000Y-53995800D01*
X126200000Y-53715800D02*
X126480000Y-53995800D01*
D17*
X126500000Y-54015800D02*
X126480000Y-53995800D01*
D18*
X78270000Y-90520000D02*
X77750000Y-90000000D01*
X79210000Y-90520000D02*
X78270000Y-90520000D01*
X77750000Y-90000000D02*
X77750000Y-86750000D01*
D17*
X80500000Y-83765800D02*
X80480000Y-83745800D01*
D18*
X79750000Y-85500000D02*
X80500000Y-84750000D01*
X80500000Y-84750000D02*
X80500000Y-83765800D01*
X79000000Y-85500000D02*
X79750000Y-85500000D01*
X77750000Y-86750000D02*
X79000000Y-85500000D01*
X91270000Y-90520000D02*
X90750000Y-90000000D01*
X92210000Y-90520000D02*
X91270000Y-90520000D01*
X90750000Y-86750000D02*
X92000000Y-85500000D01*
X92000000Y-85500000D02*
X92750000Y-85500000D01*
X90750000Y-90000000D02*
X90750000Y-86750000D01*
D17*
X77000002Y-72984201D02*
X77020000Y-73004198D01*
D18*
X77749999Y-71250002D02*
X76999998Y-72000001D01*
X76999998Y-72000001D02*
X77000002Y-72984201D01*
X79750001Y-69999998D02*
X78500000Y-71249997D01*
X79749999Y-66750002D02*
X79750001Y-69999998D01*
X78500000Y-71249997D02*
X77749999Y-71250002D01*
X78290000Y-66230000D02*
X79230001Y-66230000D01*
X79230001Y-66230000D02*
X79749999Y-66750002D01*
D16*
X76740000Y-74000002D02*
X76740001Y-73284197D01*
X77300001Y-74000001D02*
X77300002Y-73284199D01*
X77300002Y-73284199D02*
X77020000Y-73004198D01*
X76740001Y-73284197D02*
X77020000Y-73004198D01*
X80760000Y-83465800D02*
X80480000Y-83745800D01*
X80200000Y-82750000D02*
X80200000Y-83465800D01*
X80200000Y-83465800D02*
X80480000Y-83745800D01*
X80760000Y-82750000D02*
X80760000Y-83465800D01*
D18*
X92750000Y-85500000D02*
X93500000Y-84750000D01*
X93500000Y-84750000D02*
X93500000Y-83765800D01*
D16*
X93760000Y-82750000D02*
X93760000Y-83465800D01*
X93760000Y-83465800D02*
X93480000Y-83745800D01*
X93200000Y-82750000D02*
X93200000Y-83465800D01*
X93200000Y-83465800D02*
X93480000Y-83745800D01*
D17*
X93500000Y-83765800D02*
X93480000Y-83745800D01*
D16*
X90300000Y-74000002D02*
X90300002Y-73284201D01*
X90300002Y-73284201D02*
X90019999Y-73004198D01*
D17*
X90000002Y-72984201D02*
X90019999Y-73004198D01*
D18*
X90000001Y-71999998D02*
X90000002Y-72984201D01*
D16*
X89740002Y-73284199D02*
X90019999Y-73004198D01*
X89739999Y-73999999D02*
X89740002Y-73284199D01*
D18*
X90749998Y-71250001D02*
X90000001Y-71999998D01*
X91500001Y-71250000D02*
X90749998Y-71250001D01*
X92750000Y-66750000D02*
X92750000Y-70000000D01*
X92750000Y-70000000D02*
X91500001Y-71250000D01*
X91289999Y-66229998D02*
X92230002Y-66230001D01*
X92230002Y-66230001D02*
X92750000Y-66750000D01*
X131750002Y-66749999D02*
X131750001Y-70000002D01*
X131230000Y-66230001D02*
X131750002Y-66749999D01*
X130289998Y-66230002D02*
X131230000Y-66230001D01*
D17*
X128999999Y-72984201D02*
X129019998Y-73004202D01*
D18*
X129000000Y-72000002D02*
X128999999Y-72984201D01*
D16*
X129300003Y-73284200D02*
X129019998Y-73004202D01*
X128739998Y-73284198D02*
X129019998Y-73004202D01*
X128740000Y-74000000D02*
X128739998Y-73284198D01*
X129300000Y-74000002D02*
X129300003Y-73284200D01*
D18*
X129750001Y-71249999D02*
X129000000Y-72000002D01*
X130500000Y-71249998D02*
X129750001Y-71249999D01*
X131750001Y-70000002D02*
X130500000Y-71249998D01*
X117270000Y-90520000D02*
X116750000Y-90000000D01*
X118210000Y-90520000D02*
X117270000Y-90520000D01*
X119500000Y-84750000D02*
X119500000Y-83765800D01*
D17*
X119500000Y-83765800D02*
X119480000Y-83745800D01*
D16*
X119760000Y-83465800D02*
X119480000Y-83745800D01*
X119200000Y-83465800D02*
X119480000Y-83745800D01*
D18*
X118750000Y-85500000D02*
X119500000Y-84750000D01*
D16*
X119200000Y-82750000D02*
X119200000Y-83465800D01*
X119760000Y-82750000D02*
X119760000Y-83465800D01*
D18*
X116750000Y-90000000D02*
X116750000Y-86750000D01*
X116750000Y-86750000D02*
X118000000Y-85500000D01*
X118000000Y-85500000D02*
X118750000Y-85500000D01*
X118750000Y-66750000D02*
X118749998Y-70000000D01*
X116750001Y-71250002D02*
X116000002Y-72000003D01*
X118749998Y-70000000D02*
X117499998Y-71250002D01*
X117499998Y-71250002D02*
X116750001Y-71250002D01*
X117289999Y-66229999D02*
X118230000Y-66230000D01*
X118230000Y-66230000D02*
X118750000Y-66750000D01*
D17*
X115999999Y-72984199D02*
X116020003Y-73004199D01*
D18*
X116000002Y-72000003D02*
X115999999Y-72984199D01*
D16*
X115740000Y-74000000D02*
X115740004Y-73284202D01*
X116299998Y-73284202D02*
X116020003Y-73004199D01*
X115740004Y-73284202D02*
X116020003Y-73004199D01*
X116299999Y-74000000D02*
X116299998Y-73284202D01*
D18*
X103750000Y-86750000D02*
X105000000Y-85500000D01*
X104270000Y-90520000D02*
X103750000Y-90000000D01*
X105000000Y-85500000D02*
X105750000Y-85500000D01*
X103750000Y-90000000D02*
X103750000Y-86750000D01*
X105210000Y-90520000D02*
X104270000Y-90520000D01*
X105750000Y-85500000D02*
X106500000Y-84750000D01*
D17*
X106500000Y-83765800D02*
X106480000Y-83745800D01*
D18*
X106500000Y-84750000D02*
X106500000Y-83765800D01*
D16*
X106200000Y-83465800D02*
X106480000Y-83745800D01*
X106200000Y-82750000D02*
X106200000Y-83465800D01*
X106760000Y-83465800D02*
X106480000Y-83745800D01*
X106760000Y-82750000D02*
X106760000Y-83465800D01*
D18*
X105749998Y-66750001D02*
X105750002Y-70000000D01*
X105750002Y-70000000D02*
X104500000Y-71250000D01*
X104500000Y-71250000D02*
X103750001Y-71249998D01*
X103750001Y-71249998D02*
X102999999Y-71999997D01*
D17*
X102999999Y-72984199D02*
X103020000Y-73004200D01*
D18*
X102999999Y-71999997D02*
X102999999Y-72984199D01*
X104290001Y-66229998D02*
X105229999Y-66230000D01*
X105229999Y-66230000D02*
X105749998Y-66750001D01*
D16*
X103299999Y-73999997D02*
X103299996Y-73284199D01*
X102740002Y-73284201D02*
X103020000Y-73004200D01*
X102740002Y-73999999D02*
X102740002Y-73284201D01*
X103299996Y-73284199D02*
X103020000Y-73004200D01*
X67200000Y-83465800D02*
X67480000Y-83745800D01*
X67760000Y-82750000D02*
X67760000Y-83465800D01*
X67200000Y-82750000D02*
X67200000Y-83465800D01*
X67760000Y-83465800D02*
X67480000Y-83745800D01*
D18*
X65270000Y-90520000D02*
X64750000Y-90000000D01*
X64750000Y-86750000D02*
X66000000Y-85500000D01*
X64750000Y-90000000D02*
X64750000Y-86750000D01*
X66210000Y-90520000D02*
X65270000Y-90520000D01*
D17*
X67500000Y-83765800D02*
X67480000Y-83745800D01*
D18*
X67500000Y-84750000D02*
X67500000Y-83765800D01*
X66000000Y-85500000D02*
X66750000Y-85500000D01*
X66750000Y-85500000D02*
X67500000Y-84750000D01*
D16*
X63740000Y-73999997D02*
X63740000Y-73284202D01*
X64300001Y-74000002D02*
X64300000Y-73284200D01*
D17*
X64000000Y-72984197D02*
X64020000Y-73004200D01*
D18*
X63999999Y-71999999D02*
X64000000Y-72984197D01*
D16*
X64300000Y-73284200D02*
X64020000Y-73004200D01*
X63740000Y-73284202D02*
X64020000Y-73004200D01*
D18*
X64750000Y-71250000D02*
X63999999Y-71999999D01*
X65290002Y-66230000D02*
X66230001Y-66229998D01*
X66230001Y-66229998D02*
X66749998Y-66749998D01*
X66749998Y-66749998D02*
X66749999Y-69999999D01*
X66749999Y-69999999D02*
X65500001Y-71250001D01*
X65500001Y-71250001D02*
X64750000Y-71250000D01*
X52270000Y-90520000D02*
X51750000Y-90000000D01*
X53210000Y-90520000D02*
X52270000Y-90520000D01*
X51750000Y-90000000D02*
X51750000Y-86750000D01*
X53000000Y-85500000D02*
X53750000Y-85500000D01*
X51750000Y-86750000D02*
X53000000Y-85500000D01*
D16*
X54760000Y-82750000D02*
X54760000Y-83465800D01*
X54200000Y-82750000D02*
X54200000Y-83465800D01*
X54760000Y-83465800D02*
X54480000Y-83745800D01*
D18*
X53750000Y-85500000D02*
X54500000Y-84750000D01*
D17*
X54500000Y-83765800D02*
X54480000Y-83745800D01*
D18*
X54500000Y-84750000D02*
X54500000Y-83765800D01*
D16*
X54200000Y-83465800D02*
X54480000Y-83745800D01*
D18*
X40000000Y-85500000D02*
X40750000Y-85500000D01*
X39270000Y-90520000D02*
X38750000Y-90000000D01*
X38750000Y-86750000D02*
X40000000Y-85500000D01*
X40210000Y-90520000D02*
X39270000Y-90520000D01*
X38750000Y-90000000D02*
X38750000Y-86750000D01*
D16*
X41200000Y-83465800D02*
X41480000Y-83745800D01*
X41760000Y-83465800D02*
X41480000Y-83745800D01*
X41760000Y-82750000D02*
X41760000Y-83465800D01*
X41200000Y-82750000D02*
X41200000Y-83465800D01*
D17*
X41500000Y-83765800D02*
X41480000Y-83745800D01*
D18*
X40750000Y-85500000D02*
X41500000Y-84750000D01*
X41500000Y-84750000D02*
X41500000Y-83765800D01*
X51750000Y-71249999D02*
X50999999Y-71999999D01*
D17*
X51000000Y-72984200D02*
X51020001Y-73004198D01*
D18*
X50999999Y-71999999D02*
X51000000Y-72984200D01*
D16*
X51299999Y-73284200D02*
X51020001Y-73004198D01*
X51299999Y-73999998D02*
X51299999Y-73284200D01*
X50739999Y-73284202D02*
X51020001Y-73004198D01*
D18*
X52290000Y-66230000D02*
X53229997Y-66229999D01*
X53229997Y-66229999D02*
X53750000Y-66750000D01*
X53750000Y-66750000D02*
X53750000Y-70000000D01*
X52499999Y-71249998D02*
X51750000Y-71249999D01*
X53750000Y-70000000D02*
X52499999Y-71249998D01*
D16*
X50739999Y-74000001D02*
X50739999Y-73284202D01*
D18*
X59500001Y-41500001D02*
X58750000Y-41500000D01*
X59290002Y-36480000D02*
X60230001Y-36479998D01*
X60749999Y-40249999D02*
X59500001Y-41500001D01*
X60230001Y-36479998D02*
X60749998Y-36999998D01*
X60749998Y-36999998D02*
X60749999Y-40249999D01*
D16*
X57740000Y-44249997D02*
X57740000Y-43534202D01*
X58300000Y-43534200D02*
X58020000Y-43254200D01*
X57740000Y-43534202D02*
X58020000Y-43254200D01*
X58300001Y-44250002D02*
X58300000Y-43534200D01*
D17*
X58000000Y-43234197D02*
X58020000Y-43254200D01*
D18*
X58750000Y-41500000D02*
X57999999Y-42249999D01*
X57999999Y-42249999D02*
X58000000Y-43234197D01*
X111499998Y-41500002D02*
X110750001Y-41500002D01*
X112749998Y-40250000D02*
X111499998Y-41500002D01*
D16*
X110299999Y-44250000D02*
X110299998Y-43534202D01*
X110299998Y-43534202D02*
X110020003Y-43254199D01*
D17*
X109999999Y-43234199D02*
X110020003Y-43254199D01*
D16*
X109740000Y-44250000D02*
X109740004Y-43534202D01*
D18*
X110000002Y-42250003D02*
X109999999Y-43234199D01*
D16*
X109740004Y-43534202D02*
X110020003Y-43254199D01*
D18*
X110750001Y-41500002D02*
X110000002Y-42250003D01*
X112230000Y-36480000D02*
X112750000Y-37000000D01*
X111289999Y-36479999D02*
X112230000Y-36480000D01*
X112750000Y-37000000D02*
X112749998Y-40250000D01*
X72290000Y-36480000D02*
X73230001Y-36480000D01*
X73230001Y-36480000D02*
X73749999Y-37000002D01*
X73749999Y-37000002D02*
X73750001Y-40249998D01*
X71749999Y-41500002D02*
X70999998Y-42250001D01*
D16*
X71300001Y-44250001D02*
X71300002Y-43534199D01*
D17*
X71000002Y-43234201D02*
X71020000Y-43254198D01*
D16*
X70740001Y-43534197D02*
X71020000Y-43254198D01*
X70740000Y-44250002D02*
X70740001Y-43534197D01*
D18*
X70999998Y-42250001D02*
X71000002Y-43234201D01*
D16*
X71300002Y-43534199D02*
X71020000Y-43254198D01*
D18*
X72500000Y-41499997D02*
X71749999Y-41500002D01*
X73750001Y-40249998D02*
X72500000Y-41499997D01*
X97750001Y-41499998D02*
X96999999Y-42249997D01*
X96999999Y-42249997D02*
X96999999Y-43234199D01*
X99750002Y-40250000D02*
X98500000Y-41500000D01*
D17*
X96999999Y-43234199D02*
X97020000Y-43254200D01*
D18*
X98500000Y-41500000D02*
X97750001Y-41499998D01*
D16*
X96740002Y-43534201D02*
X97020000Y-43254200D01*
X97299996Y-43534199D02*
X97020000Y-43254200D01*
X96740002Y-44249999D02*
X96740002Y-43534201D01*
X97299999Y-44249997D02*
X97299996Y-43534199D01*
D18*
X99749998Y-37000001D02*
X99750002Y-40250000D01*
X98290001Y-36479998D02*
X99229999Y-36480000D01*
X99229999Y-36480000D02*
X99749998Y-37000001D01*
D16*
X122739998Y-43534198D02*
X123019998Y-43254202D01*
X123300000Y-44250002D02*
X123300003Y-43534200D01*
X122740000Y-44250000D02*
X122739998Y-43534198D01*
X123300003Y-43534200D02*
X123019998Y-43254202D01*
D18*
X123000000Y-42250002D02*
X122999999Y-43234201D01*
X125750001Y-40250002D02*
X124500000Y-41499998D01*
X124500000Y-41499998D02*
X123750001Y-41499999D01*
X123750001Y-41499999D02*
X123000000Y-42250002D01*
D17*
X122999999Y-43234201D02*
X123019998Y-43254202D01*
D18*
X125230000Y-36480001D02*
X125750002Y-36999999D01*
X124289998Y-36480002D02*
X125230000Y-36480001D01*
X125750002Y-36999999D02*
X125750001Y-40250002D01*
D16*
X44739999Y-43534202D02*
X45020001Y-43254198D01*
X44739999Y-44250001D02*
X44739999Y-43534202D01*
X45299999Y-43534200D02*
X45020001Y-43254198D01*
X45299999Y-44249998D02*
X45299999Y-43534200D01*
D18*
X45750000Y-41499999D02*
X44999999Y-42249999D01*
X47750000Y-40250000D02*
X46499999Y-41499998D01*
X44999999Y-42249999D02*
X45000000Y-43234200D01*
D17*
X45000000Y-43234200D02*
X45020001Y-43254198D01*
D18*
X46499999Y-41499998D02*
X45750000Y-41499999D01*
X47750000Y-37000000D02*
X47750000Y-40250000D01*
X46290000Y-36480000D02*
X47229997Y-36479999D01*
X47229997Y-36479999D02*
X47750000Y-37000000D01*
D16*
X84300002Y-43534201D02*
X84019999Y-43254198D01*
D18*
X84000001Y-42249998D02*
X84000002Y-43234201D01*
D16*
X83739999Y-44249999D02*
X83740002Y-43534199D01*
D17*
X84000002Y-43234201D02*
X84019999Y-43254198D01*
D16*
X84300000Y-44250002D02*
X84300002Y-43534201D01*
X83740002Y-43534199D02*
X84019999Y-43254198D01*
D18*
X85500001Y-41500000D02*
X84749998Y-41500001D01*
X86750000Y-40250000D02*
X85500001Y-41500000D01*
X84749998Y-41500001D02*
X84000001Y-42249998D01*
X86750000Y-37000000D02*
X86750000Y-40250000D01*
X85289999Y-36479998D02*
X86230002Y-36480001D01*
X86230002Y-36480001D02*
X86750000Y-37000000D01*
D16*
X113760000Y-53715800D02*
X113480000Y-53995800D01*
X113760000Y-53000000D02*
X113760000Y-53715800D01*
D18*
X111270000Y-60770000D02*
X110750000Y-60250000D01*
X110750000Y-60250000D02*
X110750000Y-57000000D01*
X110750000Y-57000000D02*
X112000000Y-55750000D01*
X112210000Y-60770000D02*
X111270000Y-60770000D01*
X112750000Y-55750000D02*
X113500000Y-55000000D01*
D16*
X113200000Y-53715800D02*
X113480000Y-53995800D01*
D18*
X113500000Y-55000000D02*
X113500000Y-54015800D01*
D16*
X113200000Y-53000000D02*
X113200000Y-53715800D01*
D17*
X113500000Y-54015800D02*
X113480000Y-53995800D01*
D18*
X112000000Y-55750000D02*
X112750000Y-55750000D01*
X86750000Y-55750000D02*
X87500000Y-55000000D01*
D16*
X87200000Y-53000000D02*
X87200000Y-53715800D01*
X87760000Y-53000000D02*
X87760000Y-53715800D01*
X87200000Y-53715800D02*
X87480000Y-53995800D01*
X87760000Y-53715800D02*
X87480000Y-53995800D01*
D18*
X87500000Y-55000000D02*
X87500000Y-54015800D01*
D17*
X87500000Y-54015800D02*
X87480000Y-53995800D01*
D18*
X86210000Y-60770000D02*
X85270000Y-60770000D01*
X85270000Y-60770000D02*
X84750000Y-60250000D01*
X84750000Y-60250000D02*
X84750000Y-57000000D01*
X86000000Y-55750000D02*
X86750000Y-55750000D01*
X84750000Y-57000000D02*
X86000000Y-55750000D01*
D17*
X100500000Y-54015800D02*
X100480000Y-53995800D01*
D18*
X100500000Y-55000000D02*
X100500000Y-54015800D01*
D16*
X100200000Y-53715800D02*
X100480000Y-53995800D01*
X100760000Y-53715800D02*
X100480000Y-53995800D01*
X100760000Y-53000000D02*
X100760000Y-53715800D01*
X100200000Y-53000000D02*
X100200000Y-53715800D01*
D18*
X97750000Y-60250000D02*
X97750000Y-57000000D01*
X98270000Y-60770000D02*
X97750000Y-60250000D01*
X99750000Y-55750000D02*
X100500000Y-55000000D01*
X97750000Y-57000000D02*
X99000000Y-55750000D01*
X99000000Y-55750000D02*
X99750000Y-55750000D01*
X99210000Y-60770000D02*
X98270000Y-60770000D01*
D16*
X74200000Y-53000000D02*
X74200000Y-53715800D01*
X74760000Y-53000000D02*
X74760000Y-53715800D01*
X74760000Y-53715800D02*
X74480000Y-53995800D01*
D18*
X74500000Y-55000000D02*
X74500000Y-54015800D01*
D17*
X74500000Y-54015800D02*
X74480000Y-53995800D01*
D16*
X74200000Y-53715800D02*
X74480000Y-53995800D01*
D18*
X60750000Y-55750000D02*
X61500000Y-55000000D01*
X58750000Y-57000000D02*
X60000000Y-55750000D01*
X60000000Y-55750000D02*
X60750000Y-55750000D01*
D16*
X61760000Y-53715800D02*
X61480000Y-53995800D01*
D17*
X61500000Y-54015800D02*
X61480000Y-53995800D01*
D16*
X61200000Y-53715800D02*
X61480000Y-53995800D01*
X61760000Y-53000000D02*
X61760000Y-53715800D01*
D18*
X61500000Y-55000000D02*
X61500000Y-54015800D01*
D16*
X61200000Y-53000000D02*
X61200000Y-53715800D01*
D18*
X73000000Y-55750000D02*
X73750000Y-55750000D01*
X72270000Y-60770000D02*
X71750000Y-60250000D01*
X71750000Y-60250000D02*
X71750000Y-57000000D01*
X73210000Y-60770000D02*
X72270000Y-60770000D01*
X73750000Y-55750000D02*
X74500000Y-55000000D01*
X71750000Y-57000000D02*
X73000000Y-55750000D01*
X59270000Y-60770000D02*
X58750000Y-60250000D01*
X60210000Y-60770000D02*
X59270000Y-60770000D01*
X58750000Y-60250000D02*
X58750000Y-57000000D01*
X45750000Y-57000000D02*
X47000000Y-55750000D01*
X45750000Y-60250000D02*
X45750000Y-57000000D01*
X47000000Y-55750000D02*
X47750000Y-55750000D01*
X47210000Y-60770000D02*
X46270000Y-60770000D01*
X46270000Y-60770000D02*
X45750000Y-60250000D01*
D16*
X48200000Y-53000000D02*
X48200000Y-53715800D01*
X48760000Y-53000000D02*
X48760000Y-53715800D01*
X48200000Y-53715800D02*
X48480000Y-53995800D01*
D17*
X48500000Y-54015800D02*
X48480000Y-53995800D01*
D16*
X48760000Y-53715800D02*
X48480000Y-53995800D01*
D18*
X47750000Y-55750000D02*
X48500000Y-55000000D01*
X48500000Y-55000000D02*
X48500000Y-54015800D01*
X34000000Y-55750000D02*
X34750000Y-55750000D01*
X34210000Y-60770000D02*
X33270000Y-60770000D01*
X32750000Y-60250000D02*
X32750000Y-57000000D01*
X33270000Y-60770000D02*
X32750000Y-60250000D01*
X32750000Y-57000000D02*
X34000000Y-55750000D01*
D17*
X35500000Y-54015800D02*
X35480000Y-53995800D01*
D16*
X35760000Y-53715800D02*
X35480000Y-53995800D01*
D18*
X35500000Y-55000000D02*
X35500000Y-54015800D01*
D16*
X35200000Y-53715800D02*
X35480000Y-53995800D01*
X35200000Y-53000000D02*
X35200000Y-53715800D01*
X35760000Y-53000000D02*
X35760000Y-53715800D01*
D18*
X34750000Y-55750000D02*
X35500000Y-55000000D01*
D16*
X36749998Y-73004198D02*
X36749999Y-71250000D01*
X38025400Y-70000000D02*
X36749999Y-71250000D01*
X36470001Y-74000002D02*
X36469999Y-73284196D01*
X37030000Y-73284200D02*
X36749998Y-73004198D01*
X36469999Y-73284196D02*
X36749998Y-73004198D01*
X37030002Y-73999999D02*
X37030000Y-73284200D01*
D19*
X36750000Y-66250000D02*
X36750000Y-66230000D01*
D16*
X38025402Y-67500002D02*
X38025400Y-70000000D01*
X36750000Y-66250000D02*
X38025402Y-67500002D01*
X126474600Y-57000000D02*
X127750000Y-55750000D01*
X127750000Y-53995800D02*
X127750000Y-55750000D01*
X128030000Y-53000000D02*
X128030000Y-53715800D01*
X128030000Y-53715800D02*
X127750000Y-53995800D01*
X126474600Y-59500000D02*
X126474600Y-57000000D01*
D19*
X127750000Y-60750000D02*
X127750000Y-60770000D01*
D16*
X127750000Y-60750000D02*
X126474600Y-59500000D01*
X127470000Y-53715800D02*
X127750000Y-53995800D01*
X127470000Y-53000000D02*
X127470000Y-53715800D01*
X81750000Y-90500000D02*
X80474600Y-89250000D01*
D19*
X81750000Y-90500000D02*
X81750000Y-90520000D01*
D16*
X81750000Y-83745800D02*
X81750000Y-85500000D01*
X80474600Y-86750000D02*
X81750000Y-85500000D01*
X80474600Y-89250000D02*
X80474600Y-86750000D01*
X75750002Y-73004201D02*
X75749998Y-71249999D01*
X77025398Y-70000002D02*
X75749998Y-71249999D01*
X77025403Y-67499999D02*
X77025398Y-70000002D01*
D19*
X75750000Y-66250002D02*
X75749996Y-66229998D01*
D16*
X75750000Y-66250002D02*
X77025403Y-67499999D01*
X76030002Y-73284200D02*
X75750002Y-73004201D01*
X75470000Y-73284200D02*
X75750002Y-73004201D01*
X76029998Y-73999998D02*
X76030002Y-73284200D01*
X75470000Y-74000002D02*
X75470000Y-73284200D01*
X82030000Y-82750000D02*
X82030000Y-83465800D01*
X82030000Y-83465800D02*
X81750000Y-83745800D01*
X81470000Y-82750000D02*
X81470000Y-83465800D01*
X81470000Y-83465800D02*
X81750000Y-83745800D01*
X93474600Y-86750000D02*
X94750000Y-85500000D01*
X93474600Y-89250000D02*
X93474600Y-86750000D01*
X95030000Y-82750000D02*
X95030000Y-83465800D01*
D19*
X94750000Y-90500000D02*
X94750000Y-90520000D01*
D16*
X94750000Y-90500000D02*
X93474600Y-89250000D01*
X94470000Y-83465800D02*
X94750000Y-83745800D01*
X95030000Y-83465800D02*
X94750000Y-83745800D01*
X94750000Y-83745800D02*
X94750000Y-85500000D01*
X94470000Y-82750000D02*
X94470000Y-83465800D01*
X88750000Y-73004203D02*
X88750001Y-71250001D01*
X89029997Y-73284199D02*
X88750000Y-73004203D01*
X88469998Y-74000000D02*
X88470003Y-73284200D01*
X88470003Y-73284200D02*
X88750000Y-73004203D01*
X89030001Y-74000001D02*
X89029997Y-73284199D01*
X90025401Y-69999999D02*
X88750001Y-71250001D01*
X90025400Y-67499998D02*
X90025401Y-69999999D01*
X88749998Y-66250002D02*
X90025400Y-67499998D01*
D19*
X88749998Y-66250002D02*
X88750000Y-66230003D01*
D16*
X127750000Y-73004198D02*
X127750000Y-71250000D01*
D19*
X127750000Y-66250000D02*
X127750000Y-66230000D01*
D16*
X127750000Y-66250000D02*
X129025400Y-67500000D01*
X129025400Y-67500000D02*
X129025401Y-69999998D01*
X127469999Y-74000002D02*
X127469999Y-73284196D01*
X128029998Y-73284200D02*
X127750000Y-73004198D01*
X127469999Y-73284196D02*
X127750000Y-73004198D01*
X128030001Y-74000001D02*
X128029998Y-73284200D01*
X129025401Y-69999998D02*
X127750000Y-71250000D01*
X120750000Y-90500000D02*
X119474600Y-89250000D01*
D19*
X120750000Y-90500000D02*
X120750000Y-90520000D01*
D16*
X120750000Y-83745800D02*
X120750000Y-85500000D01*
X120470000Y-82750000D02*
X120470000Y-83465800D01*
X121030000Y-83465800D02*
X120750000Y-83745800D01*
X120470000Y-83465800D02*
X120750000Y-83745800D01*
X121030000Y-82750000D02*
X121030000Y-83465800D01*
X119474600Y-89250000D02*
X119474600Y-86750000D01*
X119474600Y-86750000D02*
X120750000Y-85500000D01*
X116025399Y-69999999D02*
X114750001Y-71249998D01*
X116025399Y-67499999D02*
X116025399Y-69999999D01*
D19*
X114750002Y-66249997D02*
X114749998Y-66230001D01*
D16*
X114750002Y-66249997D02*
X116025399Y-67499999D01*
X115030000Y-74000000D02*
X115030002Y-73284199D01*
X114469999Y-73284202D02*
X114749998Y-73004200D01*
X114470000Y-73999998D02*
X114469999Y-73284202D01*
X115030002Y-73284199D02*
X114749998Y-73004200D01*
X114749998Y-73004200D02*
X114750001Y-71249998D01*
X107470000Y-82750000D02*
X107470000Y-83465800D01*
X108030000Y-82750000D02*
X108030000Y-83465800D01*
X107470000Y-83465800D02*
X107750000Y-83745800D01*
X108030000Y-83465800D02*
X107750000Y-83745800D01*
X107750000Y-83745800D02*
X107750000Y-85500000D01*
X106474600Y-86750000D02*
X107750000Y-85500000D01*
X107750000Y-90500000D02*
X106474600Y-89250000D01*
X106474600Y-89250000D02*
X106474600Y-86750000D01*
D19*
X107750000Y-90500000D02*
X107750000Y-90520000D01*
D16*
X101470000Y-73999997D02*
X101469998Y-73284200D01*
X102030000Y-73284200D02*
X101749999Y-73004199D01*
X102030002Y-73999997D02*
X102030000Y-73284200D01*
X101469998Y-73284200D02*
X101749999Y-73004199D01*
X103025400Y-67500000D02*
X103025403Y-70000001D01*
X101749999Y-73004199D02*
X101749998Y-71249999D01*
X103025403Y-70000001D02*
X101749998Y-71249999D01*
X101750000Y-66250000D02*
X103025400Y-67500000D01*
D19*
X101750000Y-66250000D02*
X101750000Y-66230000D01*
D16*
X69030000Y-82750000D02*
X69030000Y-83465800D01*
X68470000Y-83465800D02*
X68750000Y-83745800D01*
X68470000Y-82750000D02*
X68470000Y-83465800D01*
X69030000Y-83465800D02*
X68750000Y-83745800D01*
X68750000Y-83745800D02*
X68750000Y-85500000D01*
X68750000Y-90500000D02*
X67474600Y-89250000D01*
X67474600Y-89250000D02*
X67474600Y-86750000D01*
X67474600Y-86750000D02*
X68750000Y-85500000D01*
D19*
X68750000Y-90500000D02*
X68750000Y-90520000D01*
D16*
X62750001Y-66250001D02*
X64025399Y-67499999D01*
D19*
X62750001Y-66250001D02*
X62749997Y-66230000D01*
D16*
X64025398Y-70000000D02*
X62749999Y-71249998D01*
X64025399Y-67499999D02*
X64025398Y-70000000D01*
X63030001Y-73999999D02*
X63030000Y-73284202D01*
X62470002Y-73284203D02*
X62750001Y-73004202D01*
X63030000Y-73284202D02*
X62750001Y-73004202D01*
X62470001Y-73999996D02*
X62470002Y-73284203D01*
X62750001Y-73004202D02*
X62749999Y-71249998D01*
X55750000Y-83745800D02*
X55750000Y-85500000D01*
X55750000Y-90500000D02*
X54474600Y-89250000D01*
D19*
X55750000Y-90500000D02*
X55750000Y-90520000D01*
D16*
X54474600Y-89250000D02*
X54474600Y-86750000D01*
X54474600Y-86750000D02*
X55750000Y-85500000D01*
X56030000Y-83465800D02*
X55750000Y-83745800D01*
X55470000Y-83465800D02*
X55750000Y-83745800D01*
X55470000Y-82750000D02*
X55470000Y-83465800D01*
X56030000Y-82750000D02*
X56030000Y-83465800D01*
D19*
X42750000Y-90500000D02*
X42750000Y-90520000D01*
D16*
X41474600Y-89250000D02*
X41474600Y-86750000D01*
X41474600Y-86750000D02*
X42750000Y-85500000D01*
X42750000Y-90500000D02*
X41474600Y-89250000D01*
X42750000Y-83745800D02*
X42750000Y-85500000D01*
X42470000Y-82750000D02*
X42470000Y-83465800D01*
X43030000Y-82750000D02*
X43030000Y-83465800D01*
X42470000Y-83465800D02*
X42750000Y-83745800D01*
X43030000Y-83465800D02*
X42750000Y-83745800D01*
X51025401Y-70000001D02*
X49750000Y-71250000D01*
X49470001Y-74000002D02*
X49470002Y-73284199D01*
X50030002Y-73284200D02*
X49750000Y-73004201D01*
X50029999Y-74000002D02*
X50030002Y-73284200D01*
X51025402Y-67499999D02*
X51025401Y-70000001D01*
X49750000Y-66250000D02*
X51025402Y-67499999D01*
D19*
X49750000Y-66250000D02*
X49750003Y-66229998D01*
D16*
X49470002Y-73284199D02*
X49750000Y-73004201D01*
X49750000Y-73004201D02*
X49750000Y-71250000D01*
X56470001Y-44249996D02*
X56470002Y-43534203D01*
X57030000Y-43534202D02*
X56750001Y-43254202D01*
X56470002Y-43534203D02*
X56750001Y-43254202D01*
X57030001Y-44249999D02*
X57030000Y-43534202D01*
X58025399Y-37749999D02*
X58025398Y-40250000D01*
D19*
X56750001Y-36500001D02*
X56749997Y-36480000D01*
D16*
X56750001Y-36500001D02*
X58025399Y-37749999D01*
X58025398Y-40250000D02*
X56749999Y-41499998D01*
X56750001Y-43254202D02*
X56749999Y-41499998D01*
X110025399Y-40249999D02*
X108750001Y-41499998D01*
X110025399Y-37749999D02*
X110025399Y-40249999D01*
X108749998Y-43254200D02*
X108750001Y-41499998D01*
X108750002Y-36499997D02*
X110025399Y-37749999D01*
D19*
X108750002Y-36499997D02*
X108749998Y-36480001D01*
D16*
X108469999Y-43534202D02*
X108749998Y-43254200D01*
X108470000Y-44249998D02*
X108469999Y-43534202D01*
X109030000Y-44250000D02*
X109030002Y-43534199D01*
X109030002Y-43534199D02*
X108749998Y-43254200D01*
X70030002Y-43534200D02*
X69750002Y-43254201D01*
X69470000Y-43534200D02*
X69750002Y-43254201D01*
X69750002Y-43254201D02*
X69749998Y-41499999D01*
X69750000Y-36500002D02*
X71025403Y-37749999D01*
D19*
X69750000Y-36500002D02*
X69749996Y-36479998D01*
D16*
X70029998Y-44249998D02*
X70030002Y-43534200D01*
X69470000Y-44250002D02*
X69470000Y-43534200D01*
X71025398Y-40250002D02*
X69749998Y-41499999D01*
X71025403Y-37749999D02*
X71025398Y-40250002D01*
X97025403Y-40250001D02*
X95749998Y-41499999D01*
X95749999Y-43254199D02*
X95749998Y-41499999D01*
X96030000Y-43534200D02*
X95749999Y-43254199D01*
X96030002Y-44249997D02*
X96030000Y-43534200D01*
X95469998Y-43534200D02*
X95749999Y-43254199D01*
X95470000Y-44249997D02*
X95469998Y-43534200D01*
X97025400Y-37750000D02*
X97025403Y-40250001D01*
X95750000Y-36500000D02*
X97025400Y-37750000D01*
D19*
X95750000Y-36500000D02*
X95750000Y-36480000D01*
D16*
X122030001Y-44250001D02*
X122029998Y-43534200D01*
X121469999Y-44250002D02*
X121469999Y-43534196D01*
X121469999Y-43534196D02*
X121750000Y-43254198D01*
X122029998Y-43534200D02*
X121750000Y-43254198D01*
X121750000Y-43254198D02*
X121750000Y-41500000D01*
X123025401Y-40249998D02*
X121750000Y-41500000D01*
X121750000Y-36500000D02*
X123025400Y-37750000D01*
X123025400Y-37750000D02*
X123025401Y-40249998D01*
D19*
X121750000Y-36500000D02*
X121750000Y-36480000D01*
X43750000Y-36500000D02*
X43750003Y-36479998D01*
D16*
X43470002Y-43534199D02*
X43750000Y-43254201D01*
X44029999Y-44250002D02*
X44030002Y-43534200D01*
X44030002Y-43534200D02*
X43750000Y-43254201D01*
X43470001Y-44250002D02*
X43470002Y-43534199D01*
X43750000Y-43254201D02*
X43750000Y-41500000D01*
X45025401Y-40250001D02*
X43750000Y-41500000D01*
X43750000Y-36500000D02*
X45025402Y-37749999D01*
X45025402Y-37749999D02*
X45025401Y-40250001D01*
X82470003Y-43534200D02*
X82750000Y-43254203D01*
X83030001Y-44250001D02*
X83029997Y-43534199D01*
X82469998Y-44250000D02*
X82470003Y-43534200D01*
X83029997Y-43534199D02*
X82750000Y-43254203D01*
X82750000Y-43254203D02*
X82750001Y-41500001D01*
X84025400Y-37749998D02*
X84025401Y-40249999D01*
X84025401Y-40249999D02*
X82750001Y-41500001D01*
X82749998Y-36500002D02*
X84025400Y-37749998D01*
D19*
X82749998Y-36500002D02*
X82750000Y-36480003D01*
D16*
X113474600Y-59500000D02*
X113474600Y-57000000D01*
X114750000Y-60750000D02*
X113474600Y-59500000D01*
X113474600Y-57000000D02*
X114750000Y-55750000D01*
D19*
X114750000Y-60750000D02*
X114750000Y-60770000D01*
D16*
X115030000Y-53715800D02*
X114750000Y-53995800D01*
X115030000Y-53000000D02*
X115030000Y-53715800D01*
X114470000Y-53000000D02*
X114470000Y-53715800D01*
X114470000Y-53715800D02*
X114750000Y-53995800D01*
X114750000Y-53995800D02*
X114750000Y-55750000D01*
X88470000Y-53000000D02*
X88470000Y-53715800D01*
X88750000Y-53995800D02*
X88750000Y-55750000D01*
X89030000Y-53000000D02*
X89030000Y-53715800D01*
X88470000Y-53715800D02*
X88750000Y-53995800D01*
X89030000Y-53715800D02*
X88750000Y-53995800D01*
X88750000Y-60750000D02*
X87474600Y-59500000D01*
D19*
X88750000Y-60750000D02*
X88750000Y-60770000D01*
D16*
X87474600Y-57000000D02*
X88750000Y-55750000D01*
X87474600Y-59500000D02*
X87474600Y-57000000D01*
X101470000Y-53715800D02*
X101750000Y-53995800D01*
X102030000Y-53000000D02*
X102030000Y-53715800D01*
X101470000Y-53000000D02*
X101470000Y-53715800D01*
X102030000Y-53715800D02*
X101750000Y-53995800D01*
D19*
X101750000Y-60750000D02*
X101750000Y-60770000D01*
D16*
X100474600Y-59500000D02*
X100474600Y-57000000D01*
X101750000Y-60750000D02*
X100474600Y-59500000D01*
X100474600Y-57000000D02*
X101750000Y-55750000D01*
X101750000Y-53995800D02*
X101750000Y-55750000D01*
X74474600Y-57000000D02*
X75750000Y-55750000D01*
D19*
X75750000Y-60750000D02*
X75750000Y-60770000D01*
D16*
X74474600Y-59500000D02*
X74474600Y-57000000D01*
X75750000Y-60750000D02*
X74474600Y-59500000D01*
X75750000Y-53995800D02*
X75750000Y-55750000D01*
X76030000Y-53715800D02*
X75750000Y-53995800D01*
X76030000Y-53000000D02*
X76030000Y-53715800D01*
X75470000Y-53000000D02*
X75470000Y-53715800D01*
X75470000Y-53715800D02*
X75750000Y-53995800D01*
X61474600Y-57000000D02*
X62750000Y-55750000D01*
X61474600Y-59500000D02*
X61474600Y-57000000D01*
X62750000Y-53995800D02*
X62750000Y-55750000D01*
X62470000Y-53000000D02*
X62470000Y-53715800D01*
X62470000Y-53715800D02*
X62750000Y-53995800D01*
X62750000Y-60750000D02*
X61474600Y-59500000D01*
D19*
X62750000Y-60750000D02*
X62750000Y-60770000D01*
D16*
X63030000Y-53000000D02*
X63030000Y-53715800D01*
X63030000Y-53715800D02*
X62750000Y-53995800D01*
X48474600Y-59500000D02*
X48474600Y-57000000D01*
D19*
X49750000Y-60750000D02*
X49750000Y-60770000D01*
D16*
X49750000Y-60750000D02*
X48474600Y-59500000D01*
X49470000Y-53000000D02*
X49470000Y-53715800D01*
X50030000Y-53715800D02*
X49750000Y-53995800D01*
X49470000Y-53715800D02*
X49750000Y-53995800D01*
X50030000Y-53000000D02*
X50030000Y-53715800D01*
X48474600Y-57000000D02*
X49750000Y-55750000D01*
X49750000Y-53995800D02*
X49750000Y-55750000D01*
D19*
X36750000Y-60750000D02*
X36750000Y-60770000D01*
D16*
X35474600Y-59500000D02*
X35474600Y-57000000D01*
X36750000Y-60750000D02*
X35474600Y-59500000D01*
X35474600Y-57000000D02*
X36750000Y-55750000D01*
X36750000Y-53995800D02*
X36750000Y-55750000D01*
X36470000Y-53000000D02*
X36470000Y-53715800D01*
X36470000Y-53715800D02*
X36750000Y-53995800D01*
X37030000Y-53000000D02*
X37030000Y-53715800D01*
X37030000Y-53715800D02*
X36750000Y-53995800D01*
D18*
X32750002Y-70000001D02*
X33999999Y-71250001D01*
X32749998Y-66750002D02*
X32750002Y-70000001D01*
X33999999Y-71250001D02*
X34750001Y-71250000D01*
X33270003Y-66230000D02*
X32749998Y-66750002D01*
X34210003Y-66230000D02*
X33270003Y-66230000D01*
X34750001Y-71250000D02*
X35500001Y-71999999D01*
X35500001Y-71999999D02*
X35500000Y-72984200D01*
D16*
X35760000Y-73999998D02*
X35760002Y-73284201D01*
X35200002Y-74000002D02*
X35200001Y-73284202D01*
X35760002Y-73284201D02*
X35479998Y-73004201D01*
D17*
X35500000Y-72984200D02*
X35479998Y-73004201D01*
D16*
X35200001Y-73284202D02*
X35479998Y-73004201D01*
D18*
X131750000Y-57000000D02*
X130500000Y-55750000D01*
X130290000Y-60770000D02*
X131230000Y-60770000D01*
X129750000Y-55750000D02*
X129000000Y-55000000D01*
X130500000Y-55750000D02*
X129750000Y-55750000D01*
X131230000Y-60770000D02*
X131750000Y-60250000D01*
X131750000Y-60250000D02*
X131750000Y-57000000D01*
D16*
X129300000Y-53715800D02*
X129020000Y-53995800D01*
D18*
X129000000Y-55000000D02*
X129000000Y-54015800D01*
D16*
X128740000Y-53000000D02*
X128740000Y-53715800D01*
X128740000Y-53715800D02*
X129020000Y-53995800D01*
D17*
X129000000Y-54015800D02*
X129020000Y-53995800D01*
D16*
X129300000Y-53000000D02*
X129300000Y-53715800D01*
D18*
X84500000Y-85500000D02*
X83750000Y-85500000D01*
X83000000Y-84750000D02*
X83000000Y-83765800D01*
D17*
X83000000Y-83765800D02*
X83020000Y-83745800D01*
D18*
X83750000Y-85500000D02*
X83000000Y-84750000D01*
X84290000Y-90520000D02*
X85230000Y-90520000D01*
X85230000Y-90520000D02*
X85750000Y-90000000D01*
X85750000Y-90000000D02*
X85750000Y-86750000D01*
X85750000Y-86750000D02*
X84500000Y-85500000D01*
X86749999Y-71249999D02*
X87499998Y-71999997D01*
D17*
X87499998Y-72984201D02*
X87479999Y-73004198D01*
D16*
X87200000Y-73284199D02*
X87479999Y-73004198D01*
X87199997Y-73999999D02*
X87200000Y-73284199D01*
D18*
X87499998Y-71999997D02*
X87499998Y-72984201D01*
D16*
X87760004Y-73999998D02*
X87759999Y-73284203D01*
X87759999Y-73284203D02*
X87479999Y-73004198D01*
D18*
X86210000Y-66230001D02*
X85270000Y-66230000D01*
X84750000Y-70000003D02*
X86000000Y-71250000D01*
X86000000Y-71250000D02*
X86749999Y-71249999D01*
X85270000Y-66230000D02*
X84749999Y-66750003D01*
X84749999Y-66750003D02*
X84750000Y-70000003D01*
D17*
X74500001Y-72984202D02*
X74480002Y-73004200D01*
D18*
X73750002Y-71249998D02*
X74500000Y-71999998D01*
X74500000Y-71999998D02*
X74500001Y-72984202D01*
D16*
X74759999Y-73999997D02*
X74760001Y-73284200D01*
X74200002Y-73999999D02*
X74200000Y-73284200D01*
X74760001Y-73284200D02*
X74480002Y-73004200D01*
X74200000Y-73284200D02*
X74480002Y-73004200D01*
X82740000Y-82750000D02*
X82740000Y-83465800D01*
X83300000Y-82750000D02*
X83300000Y-83465800D01*
X82740000Y-83465800D02*
X83020000Y-83745800D01*
X83300000Y-83465800D02*
X83020000Y-83745800D01*
D18*
X98230000Y-90520000D02*
X98750000Y-90000000D01*
X98750000Y-90000000D02*
X98750000Y-86750000D01*
X97290000Y-90520000D02*
X98230000Y-90520000D01*
X97500000Y-85500000D02*
X96750000Y-85500000D01*
X98750000Y-86750000D02*
X97500000Y-85500000D01*
X96750000Y-85500000D02*
X96000000Y-84750000D01*
D16*
X96300000Y-82750000D02*
X96300000Y-83465800D01*
X95740000Y-83465800D02*
X96020000Y-83745800D01*
X96300000Y-83465800D02*
X96020000Y-83745800D01*
D18*
X96000000Y-84750000D02*
X96000000Y-83765800D01*
D16*
X95740000Y-82750000D02*
X95740000Y-83465800D01*
D17*
X96000000Y-83765800D02*
X96020000Y-83745800D01*
D18*
X99750001Y-71249999D02*
X100499999Y-72000004D01*
X99000000Y-71250002D02*
X99750001Y-71249999D01*
D16*
X100760000Y-74000002D02*
X100760000Y-73284200D01*
X100200000Y-73284200D02*
X100480000Y-73004203D01*
D18*
X100499999Y-72000004D02*
X100500000Y-72984202D01*
D17*
X100500000Y-72984202D02*
X100480000Y-73004203D01*
D16*
X100760000Y-73284200D02*
X100480000Y-73004203D01*
X100200000Y-74000000D02*
X100200000Y-73284200D01*
D18*
X98269999Y-66230002D02*
X97750002Y-66749998D01*
X97750000Y-70000002D02*
X99000000Y-71250002D01*
X97750002Y-66749998D02*
X97750000Y-70000002D01*
X99210001Y-66230001D02*
X98269999Y-66230002D01*
X123750000Y-70000000D02*
X124999999Y-71249998D01*
X125210000Y-66229999D02*
X124269998Y-66230001D01*
X123750002Y-66750004D02*
X123750000Y-70000000D01*
X124999999Y-71249998D02*
X125750000Y-71250000D01*
X124269998Y-66230001D02*
X123750002Y-66750004D01*
X125750000Y-71250000D02*
X126500000Y-72000000D01*
X126500000Y-72000000D02*
X126500001Y-72984198D01*
D17*
X126500001Y-72984198D02*
X126480001Y-73004199D01*
D16*
X126200000Y-74000000D02*
X126199999Y-73284201D01*
X126759998Y-73999999D02*
X126760001Y-73284198D01*
X126199999Y-73284201D02*
X126480001Y-73004199D01*
X126760001Y-73284198D02*
X126480001Y-73004199D01*
D18*
X124750000Y-90000000D02*
X124750000Y-86750000D01*
X124750000Y-86750000D02*
X123500000Y-85500000D01*
X124230000Y-90520000D02*
X124750000Y-90000000D01*
X123290000Y-90520000D02*
X124230000Y-90520000D01*
D16*
X121740000Y-83465800D02*
X122020000Y-83745800D01*
X122300000Y-82750000D02*
X122300000Y-83465800D01*
X122300000Y-83465800D02*
X122020000Y-83745800D01*
X121740000Y-82750000D02*
X121740000Y-83465800D01*
D17*
X122000000Y-83765800D02*
X122020000Y-83745800D01*
D18*
X122000000Y-84750000D02*
X122000000Y-83765800D01*
X123500000Y-85500000D02*
X122750000Y-85500000D01*
X122750000Y-85500000D02*
X122000000Y-84750000D01*
D16*
X113200000Y-74000001D02*
X113200000Y-73284200D01*
X113760000Y-74000000D02*
X113759998Y-73284201D01*
X113759998Y-73284201D02*
X113479999Y-73004199D01*
X113200000Y-73284200D02*
X113479999Y-73004199D01*
D17*
X113500000Y-72984202D02*
X113479999Y-73004199D01*
D18*
X112749999Y-71250003D02*
X113500000Y-72000000D01*
X113500000Y-72000000D02*
X113500000Y-72984202D01*
X111999998Y-71250001D02*
X112749999Y-71250003D01*
X109750000Y-85500000D02*
X109000000Y-84750000D01*
X109000000Y-84750000D02*
X109000000Y-83765800D01*
D17*
X109000000Y-83765800D02*
X109020000Y-83745800D01*
D16*
X109300000Y-82750000D02*
X109300000Y-83465800D01*
X108740000Y-82750000D02*
X108740000Y-83465800D01*
X108740000Y-83465800D02*
X109020000Y-83745800D01*
X109300000Y-83465800D02*
X109020000Y-83745800D01*
D18*
X111750000Y-86750000D02*
X110500000Y-85500000D01*
X110500000Y-85500000D02*
X109750000Y-85500000D01*
X111230000Y-90520000D02*
X111750000Y-90000000D01*
X111750000Y-90000000D02*
X111750000Y-86750000D01*
X110290000Y-90520000D02*
X111230000Y-90520000D01*
X110749999Y-69999996D02*
X111999998Y-71250001D01*
X112210000Y-66230000D02*
X111269999Y-66230001D01*
X111269999Y-66230001D02*
X110750000Y-66750000D01*
X110750000Y-66750000D02*
X110749999Y-69999996D01*
D16*
X69740000Y-82750000D02*
X69740000Y-83465800D01*
X70300000Y-82750000D02*
X70300000Y-83465800D01*
X69740000Y-83465800D02*
X70020000Y-83745800D01*
X70300000Y-83465800D02*
X70020000Y-83745800D01*
D18*
X70000000Y-84750000D02*
X70000000Y-83765800D01*
X70750000Y-85500000D02*
X70000000Y-84750000D01*
D17*
X70000000Y-83765800D02*
X70020000Y-83745800D01*
D18*
X71290000Y-90520000D02*
X72230000Y-90520000D01*
X71500000Y-85500000D02*
X70750000Y-85500000D01*
X72230000Y-90520000D02*
X72750000Y-90000000D01*
X72750000Y-86750000D02*
X71500000Y-85500000D01*
X72750000Y-90000000D02*
X72750000Y-86750000D01*
D16*
X61760001Y-74000004D02*
X61759999Y-73284199D01*
X61759999Y-73284199D02*
X61480002Y-73004200D01*
X61200000Y-74000000D02*
X61199998Y-73284199D01*
X61199998Y-73284199D02*
X61480002Y-73004200D01*
D17*
X61500002Y-72984200D02*
X61480002Y-73004200D01*
D18*
X60749999Y-71249999D02*
X61499998Y-72000001D01*
X61499998Y-72000001D02*
X61500002Y-72984200D01*
X73000002Y-71249999D02*
X73750002Y-71249998D01*
X73210000Y-66230000D02*
X72270001Y-66230001D01*
X72270001Y-66230001D02*
X71749999Y-66749999D01*
X71749999Y-66749999D02*
X71750000Y-69999997D01*
X71750000Y-69999997D02*
X73000002Y-71249999D01*
X57000000Y-84750000D02*
X57000000Y-83765800D01*
X57750000Y-85500000D02*
X57000000Y-84750000D01*
D17*
X57000000Y-83765800D02*
X57020000Y-83745800D01*
D18*
X58500000Y-85500000D02*
X57750000Y-85500000D01*
X59750000Y-86750000D02*
X58500000Y-85500000D01*
X58290000Y-90520000D02*
X59230000Y-90520000D01*
X59230000Y-90520000D02*
X59750000Y-90000000D01*
X59750000Y-90000000D02*
X59750000Y-86750000D01*
D16*
X57300000Y-82750000D02*
X57300000Y-83465800D01*
X57300000Y-83465800D02*
X57020000Y-83745800D01*
X56740000Y-82750000D02*
X56740000Y-83465800D01*
X56740000Y-83465800D02*
X57020000Y-83745800D01*
D18*
X46230000Y-90520000D02*
X46750000Y-90000000D01*
X45290000Y-90520000D02*
X46230000Y-90520000D01*
X46750000Y-86750000D02*
X45500000Y-85500000D01*
X46750000Y-90000000D02*
X46750000Y-86750000D01*
X44000000Y-84750000D02*
X44000000Y-83765800D01*
D17*
X44000000Y-83765800D02*
X44020000Y-83745800D01*
D18*
X45500000Y-85500000D02*
X44750000Y-85500000D01*
X44750000Y-85500000D02*
X44000000Y-84750000D01*
D16*
X44300000Y-82750000D02*
X44300000Y-83465800D01*
X43740000Y-83465800D02*
X44020000Y-83745800D01*
X44300000Y-83465800D02*
X44020000Y-83745800D01*
X43740000Y-82750000D02*
X43740000Y-83465800D01*
D18*
X58749999Y-70000002D02*
X59999998Y-71250000D01*
X59999998Y-71250000D02*
X60749999Y-71249999D01*
X59270001Y-66229999D02*
X58750000Y-66750000D01*
X60209999Y-66230001D02*
X59270001Y-66229999D01*
X58750000Y-66750000D02*
X58749999Y-70000002D01*
X45750002Y-66750001D02*
X45750001Y-70000000D01*
X46270000Y-66230000D02*
X45750002Y-66750001D01*
X45750001Y-70000000D02*
X47000000Y-71250000D01*
X47000000Y-71250000D02*
X47749998Y-71250000D01*
D16*
X48760000Y-73284200D02*
X48480002Y-73004201D01*
X48200000Y-73999997D02*
X48200001Y-73284199D01*
X48200001Y-73284199D02*
X48480002Y-73004201D01*
X48760000Y-74000000D02*
X48760000Y-73284200D01*
D18*
X47210000Y-66229998D02*
X46270000Y-66230000D01*
D17*
X48500001Y-72984199D02*
X48480002Y-73004201D01*
D18*
X47749998Y-71250000D02*
X48500000Y-72000000D01*
X48500000Y-72000000D02*
X48500001Y-72984199D01*
X55499998Y-42250001D02*
X55500002Y-43234200D01*
D16*
X55199998Y-43534199D02*
X55480002Y-43254200D01*
D18*
X54749999Y-41499999D02*
X55499998Y-42250001D01*
D17*
X55500002Y-43234200D02*
X55480002Y-43254200D01*
D16*
X55200000Y-44250000D02*
X55199998Y-43534199D01*
X55759999Y-43534199D02*
X55480002Y-43254200D01*
D18*
X52750000Y-37000000D02*
X52749999Y-40250002D01*
X54209999Y-36480001D02*
X53270001Y-36479999D01*
X53999998Y-41500000D02*
X54749999Y-41499999D01*
X52749999Y-40250002D02*
X53999998Y-41500000D01*
X53270001Y-36479999D02*
X52750000Y-37000000D01*
D16*
X55760001Y-44250004D02*
X55759999Y-43534199D01*
D18*
X65750000Y-40249997D02*
X67000002Y-41499999D01*
X67210000Y-36480000D02*
X66270001Y-36480001D01*
X67750002Y-41499998D02*
X68500000Y-42249998D01*
X67000002Y-41499999D02*
X67750002Y-41499998D01*
X65749999Y-36999999D02*
X65750000Y-40249997D01*
X66270001Y-36480001D02*
X65749999Y-36999999D01*
D16*
X107759998Y-43534201D02*
X107479999Y-43254199D01*
D18*
X106749999Y-41500003D02*
X107500000Y-42250000D01*
D17*
X107500000Y-43234202D02*
X107479999Y-43254199D01*
D18*
X107500000Y-42250000D02*
X107500000Y-43234202D01*
X105999998Y-41500001D02*
X106749999Y-41500003D01*
X104750000Y-37000000D02*
X104749999Y-40249996D01*
X104749999Y-40249996D02*
X105999998Y-41500001D01*
X106210000Y-36480000D02*
X105269999Y-36480001D01*
X105269999Y-36480001D02*
X104750000Y-37000000D01*
D16*
X107200000Y-44250001D02*
X107200000Y-43534200D01*
X107760000Y-44250000D02*
X107759998Y-43534201D01*
X107200000Y-43534200D02*
X107479999Y-43254199D01*
D18*
X68500000Y-42249998D02*
X68500001Y-43234202D01*
D17*
X68500001Y-43234202D02*
X68480002Y-43254200D01*
D16*
X68200002Y-44249999D02*
X68200000Y-43534200D01*
X68759999Y-44249997D02*
X68760001Y-43534200D01*
X68760001Y-43534200D02*
X68480002Y-43254200D01*
X68200000Y-43534200D02*
X68480002Y-43254200D01*
D17*
X94500000Y-43234202D02*
X94480000Y-43254203D01*
D18*
X94499999Y-42250004D02*
X94500000Y-43234202D01*
X93750001Y-41499999D02*
X94499999Y-42250004D01*
D16*
X94200000Y-43534200D02*
X94480000Y-43254203D01*
D18*
X93210001Y-36480001D02*
X92269999Y-36480002D01*
X92269999Y-36480002D02*
X91750002Y-36999998D01*
X91750002Y-36999998D02*
X91750000Y-40250002D01*
X91750000Y-40250002D02*
X93000000Y-41500002D01*
X93000000Y-41500002D02*
X93750001Y-41499999D01*
D16*
X94200000Y-44250000D02*
X94200000Y-43534200D01*
X94760000Y-43534200D02*
X94480000Y-43254203D01*
X94760000Y-44250002D02*
X94760000Y-43534200D01*
D18*
X120500000Y-42250000D02*
X120500001Y-43234198D01*
X118999999Y-41499998D02*
X119750000Y-41500000D01*
X118269998Y-36480001D02*
X117750002Y-37000004D01*
X117750000Y-40250000D02*
X118999999Y-41499998D01*
X119750000Y-41500000D02*
X120500000Y-42250000D01*
X117750002Y-37000004D02*
X117750000Y-40250000D01*
X119210000Y-36479999D02*
X118269998Y-36480001D01*
D17*
X120500001Y-43234198D02*
X120480001Y-43254199D01*
D16*
X120200000Y-44250000D02*
X120199999Y-43534201D01*
X120199999Y-43534201D02*
X120480001Y-43254199D01*
X120760001Y-43534198D02*
X120480001Y-43254199D01*
X120759998Y-44249999D02*
X120760001Y-43534198D01*
D18*
X41210000Y-36479998D02*
X40270000Y-36480000D01*
X39750002Y-37000001D02*
X39750001Y-40250000D01*
X41000000Y-41500000D02*
X41749998Y-41500000D01*
X39750001Y-40250000D02*
X41000000Y-41500000D01*
X40270000Y-36480000D02*
X39750002Y-37000001D01*
D16*
X42760000Y-44250000D02*
X42760000Y-43534200D01*
X42200000Y-44249997D02*
X42200001Y-43534199D01*
D17*
X42500001Y-43234199D02*
X42480002Y-43254201D01*
D18*
X42500000Y-42250000D02*
X42500001Y-43234199D01*
D16*
X42760000Y-43534200D02*
X42480002Y-43254201D01*
X42200001Y-43534199D02*
X42480002Y-43254201D01*
D18*
X41749998Y-41500000D02*
X42500000Y-42250000D01*
D16*
X81760004Y-44249998D02*
X81759999Y-43534203D01*
X81199997Y-44249999D02*
X81200000Y-43534199D01*
X81759999Y-43534203D02*
X81479999Y-43254198D01*
X81200000Y-43534199D02*
X81479999Y-43254198D01*
D18*
X81499998Y-42249997D02*
X81499998Y-43234201D01*
D17*
X81499998Y-43234201D02*
X81479999Y-43254198D01*
D18*
X80749999Y-41499999D02*
X81499998Y-42249997D01*
X78749999Y-37000003D02*
X78750000Y-40250003D01*
X80210000Y-36480001D02*
X79270000Y-36480000D01*
X79270000Y-36480000D02*
X78749999Y-37000003D01*
X78750000Y-40250003D02*
X80000000Y-41500000D01*
X80000000Y-41500000D02*
X80749999Y-41499999D01*
D17*
X116000000Y-54015800D02*
X116020000Y-53995800D01*
D16*
X116300000Y-53715800D02*
X116020000Y-53995800D01*
D18*
X116750000Y-55750000D02*
X116000000Y-55000000D01*
X116000000Y-55000000D02*
X116000000Y-54015800D01*
D16*
X115740000Y-53000000D02*
X115740000Y-53715800D01*
X115740000Y-53715800D02*
X116020000Y-53995800D01*
X116300000Y-53000000D02*
X116300000Y-53715800D01*
D18*
X117290000Y-60770000D02*
X118230000Y-60770000D01*
X117500000Y-55750000D02*
X116750000Y-55750000D01*
X118750000Y-60250000D02*
X118750000Y-57000000D01*
X118230000Y-60770000D02*
X118750000Y-60250000D01*
X118750000Y-57000000D02*
X117500000Y-55750000D01*
X105750000Y-60250000D02*
X105750000Y-57000000D01*
X105230000Y-60770000D02*
X105750000Y-60250000D01*
X104290000Y-60770000D02*
X105230000Y-60770000D01*
X104500000Y-55750000D02*
X103750000Y-55750000D01*
X103000000Y-55000000D02*
X103000000Y-54015800D01*
D17*
X103000000Y-54015800D02*
X103020000Y-53995800D01*
D18*
X105750000Y-57000000D02*
X104500000Y-55750000D01*
X103750000Y-55750000D02*
X103000000Y-55000000D01*
D16*
X103300000Y-53715800D02*
X103020000Y-53995800D01*
X102740000Y-53000000D02*
X102740000Y-53715800D01*
X103300000Y-53000000D02*
X103300000Y-53715800D01*
X102740000Y-53715800D02*
X103020000Y-53995800D01*
D18*
X90000000Y-55000000D02*
X90000000Y-54015800D01*
X90750000Y-55750000D02*
X90000000Y-55000000D01*
D17*
X90000000Y-54015800D02*
X90020000Y-53995800D01*
D16*
X89740000Y-53715800D02*
X90020000Y-53995800D01*
X90300000Y-53000000D02*
X90300000Y-53715800D01*
X89740000Y-53000000D02*
X89740000Y-53715800D01*
X90300000Y-53715800D02*
X90020000Y-53995800D01*
D18*
X91500000Y-55750000D02*
X90750000Y-55750000D01*
X92750000Y-57000000D02*
X91500000Y-55750000D01*
X92230000Y-60770000D02*
X92750000Y-60250000D01*
X91290000Y-60770000D02*
X92230000Y-60770000D01*
X92750000Y-60250000D02*
X92750000Y-57000000D01*
X78500000Y-55750000D02*
X77750000Y-55750000D01*
X79750000Y-60250000D02*
X79750000Y-57000000D01*
X78290000Y-60770000D02*
X79230000Y-60770000D01*
X79230000Y-60770000D02*
X79750000Y-60250000D01*
X79750000Y-57000000D02*
X78500000Y-55750000D01*
D17*
X77000000Y-54015800D02*
X77020000Y-53995800D01*
D16*
X76740000Y-53715800D02*
X77020000Y-53995800D01*
D18*
X77000000Y-55000000D02*
X77000000Y-54015800D01*
X77750000Y-55750000D02*
X77000000Y-55000000D01*
D16*
X77300000Y-53000000D02*
X77300000Y-53715800D01*
X76740000Y-53000000D02*
X76740000Y-53715800D01*
X77300000Y-53715800D02*
X77020000Y-53995800D01*
D18*
X64000000Y-55000000D02*
X64000000Y-54015800D01*
X64750000Y-55750000D02*
X64000000Y-55000000D01*
D17*
X64000000Y-54015800D02*
X64020000Y-53995800D01*
D16*
X64300000Y-53715800D02*
X64020000Y-53995800D01*
D18*
X65290000Y-60770000D02*
X66230000Y-60770000D01*
X66750000Y-57000000D02*
X65500000Y-55750000D01*
X66230000Y-60770000D02*
X66750000Y-60250000D01*
X66750000Y-60250000D02*
X66750000Y-57000000D01*
X65500000Y-55750000D02*
X64750000Y-55750000D01*
D16*
X63740000Y-53000000D02*
X63740000Y-53715800D01*
X63740000Y-53715800D02*
X64020000Y-53995800D01*
X64300000Y-53000000D02*
X64300000Y-53715800D01*
D18*
X52500000Y-55750000D02*
X51750000Y-55750000D01*
X53230000Y-60770000D02*
X53750000Y-60250000D01*
X52290000Y-60770000D02*
X53230000Y-60770000D01*
X53750000Y-57000000D02*
X52500000Y-55750000D01*
X53750000Y-60250000D02*
X53750000Y-57000000D01*
D17*
X51000000Y-54015800D02*
X51020000Y-53995800D01*
D18*
X51750000Y-55750000D02*
X51000000Y-55000000D01*
X51000000Y-55000000D02*
X51000000Y-54015800D01*
D16*
X51300000Y-53715800D02*
X51020000Y-53995800D01*
X50740000Y-53715800D02*
X51020000Y-53995800D01*
X51300000Y-53000000D02*
X51300000Y-53715800D01*
X50740000Y-53000000D02*
X50740000Y-53715800D01*
D18*
X39290000Y-60770000D02*
X40230000Y-60770000D01*
X40750000Y-57000000D02*
X39500000Y-55750000D01*
X39500000Y-55750000D02*
X38750000Y-55750000D01*
X40230000Y-60770000D02*
X40750000Y-60250000D01*
X40750000Y-60250000D02*
X40750000Y-57000000D01*
D16*
X38300000Y-53715800D02*
X38020000Y-53995800D01*
X37740000Y-53715800D02*
X38020000Y-53995800D01*
X37740000Y-53000000D02*
X37740000Y-53715800D01*
X38300000Y-53000000D02*
X38300000Y-53715800D01*
D18*
X38000000Y-55000000D02*
X38000000Y-54015800D01*
D17*
X38000000Y-54015800D02*
X38020000Y-53995800D01*
D18*
X38750000Y-55750000D02*
X38000000Y-55000000D01*
M02*
