%FSLAX34Y34*%
G04 Gerber Fmt 3.4, Leading zero omitted, Abs format*
G04 (created by PCBNEW (2014-05-09 BZR 4859)-product) date Mon 12 May 2014 07:35:00 PM CEST*
%MOIN*%
G01*
G70*
G90*
G04 APERTURE LIST*
%ADD10C,0.005906*%
%ADD11R,0.059055X0.078740*%
%ADD12O,0.059055X0.078740*%
%ADD13R,0.015748X0.393701*%
%ADD14R,0.037402X0.039370*%
%ADD15C,0.012000*%
%ADD16C,0.008000*%
G04 APERTURE END LIST*
G54D10*
G54D11*
X27968Y-30208D03*
G54D12*
X27968Y-31208D03*
X26968Y-30208D03*
X26968Y-31208D03*
X25968Y-30208D03*
X25968Y-31208D03*
G54D13*
X26358Y-26771D03*
X27362Y-26771D03*
X27578Y-26771D03*
X26858Y-26771D03*
X27078Y-26771D03*
X26578Y-26771D03*
G54D14*
X26468Y-28541D03*
X26968Y-28541D03*
X27468Y-28541D03*
G54D15*
X27968Y-30208D02*
X27968Y-29444D01*
X27968Y-29444D02*
X27460Y-28937D01*
G54D16*
X27468Y-28541D02*
X27578Y-28431D01*
X27578Y-28431D02*
X27578Y-26771D01*
X27362Y-26771D02*
X27362Y-28435D01*
X27362Y-28435D02*
X27468Y-28541D01*
G54D15*
X27460Y-28937D02*
X27460Y-28549D01*
G54D16*
X27460Y-28549D02*
X27468Y-28541D01*
X26468Y-28541D02*
X26578Y-28431D01*
X26578Y-28431D02*
X26578Y-26771D01*
X26358Y-26771D02*
X26358Y-28431D01*
X26358Y-28431D02*
X26468Y-28541D01*
G54D15*
X26476Y-28937D02*
X26476Y-28549D01*
G54D16*
X26476Y-28549D02*
X26468Y-28541D01*
G54D15*
X25968Y-29444D02*
X26476Y-28937D01*
X25968Y-30208D02*
X25968Y-29444D01*
G54D16*
X26968Y-28541D02*
X27078Y-28431D01*
X27078Y-28431D02*
X27078Y-26771D01*
X26858Y-26771D02*
X26858Y-28431D01*
X26858Y-28431D02*
X26968Y-28541D01*
G54D15*
X26968Y-28541D02*
X26968Y-30208D01*
M02*
