M48
METRIC,TZ
T1C0.500
T2C0.750
T3C1.016
%
G90
G05
T1
X073925Y-075200
X073925Y-075950
X073925Y-076700
X075825Y-075200
X075825Y-075950
X075825Y-076700
T2
X067330Y-072565
X067330Y-073835
X068600Y-072565
X068600Y-073835
X069870Y-072565
X069870Y-073835
X077365Y-074680
X077365Y-075950
X077365Y-077220
X078635Y-074680
X078635Y-075950
X078635Y-077220
T3
X066060Y-076930
X066060Y-079470
X068600Y-076930
X068600Y-079470
X071140Y-076930
X071140Y-079470
T0
M30
