%FSLAX46Y46*%
G04 Gerber Fmt 4.6, Leading zero omitted, Abs format (unit mm)*
G04 Created by KiCad (PCBNEW (2014-09-18 BZR 5141)-product) date Thu 18 Sep 2014 03:20:17 PM CEST*
%MOMM*%
G01*
G04 APERTURE LIST*
%ADD10C,0.150000*%
%ADD11C,0.200000*%
%ADD12R,1.500000X2.000000*%
%ADD13O,1.500000X2.000000*%
%ADD14R,0.400000X10.000000*%
%ADD15R,0.950000X1.000000*%
%ADD16C,0.100000*%
G04 APERTURE END LIST*
D10*
D11*
X72747619Y-79559524D02*
X73747619Y-79559524D01*
X73747619Y-79178571D01*
X73700000Y-79083333D01*
X73652381Y-79035714D01*
X73557143Y-78988095D01*
X73414286Y-78988095D01*
X73319048Y-79035714D01*
X73271429Y-79083333D01*
X73223810Y-79178571D01*
X73223810Y-79559524D01*
X73747619Y-78369048D02*
X73747619Y-78178571D01*
X73700000Y-78083333D01*
X73604762Y-77988095D01*
X73414286Y-77940476D01*
X73080952Y-77940476D01*
X72890476Y-77988095D01*
X72795238Y-78083333D01*
X72747619Y-78178571D01*
X72747619Y-78369048D01*
X72795238Y-78464286D01*
X72890476Y-78559524D01*
X73080952Y-78607143D01*
X73414286Y-78607143D01*
X73604762Y-78559524D01*
X73700000Y-78464286D01*
X73747619Y-78369048D01*
X73700000Y-76988095D02*
X73747619Y-77083333D01*
X73747619Y-77226190D01*
X73700000Y-77369048D01*
X73604762Y-77464286D01*
X73509524Y-77511905D01*
X73319048Y-77559524D01*
X73176190Y-77559524D01*
X72985714Y-77511905D01*
X72890476Y-77464286D01*
X72795238Y-77369048D01*
X72747619Y-77226190D01*
X72747619Y-77130952D01*
X72795238Y-76988095D01*
X72842857Y-76940476D01*
X73176190Y-76940476D01*
X73176190Y-77130952D01*
X73747619Y-76321429D02*
X73747619Y-76130952D01*
X73700000Y-76035714D01*
X73604762Y-75940476D01*
X73414286Y-75892857D01*
X73080952Y-75892857D01*
X72890476Y-75940476D01*
X72795238Y-76035714D01*
X72747619Y-76130952D01*
X72747619Y-76321429D01*
X72795238Y-76416667D01*
X72890476Y-76511905D01*
X73080952Y-76559524D01*
X73414286Y-76559524D01*
X73604762Y-76511905D01*
X73700000Y-76416667D01*
X73747619Y-76321429D01*
X63197619Y-78892857D02*
X64197619Y-78892857D01*
X63197619Y-78321428D02*
X63769048Y-78750000D01*
X64197619Y-78321428D02*
X63626190Y-78892857D01*
X63721429Y-77892857D02*
X63721429Y-77559523D01*
X63197619Y-77416666D02*
X63197619Y-77892857D01*
X64197619Y-77892857D01*
X64197619Y-77416666D01*
X63673810Y-76797619D02*
X63197619Y-76797619D01*
X64197619Y-77130952D02*
X63673810Y-76797619D01*
X64197619Y-76464285D01*
X72921429Y-73985714D02*
X72921429Y-74795238D01*
X72964286Y-74890476D01*
X73007143Y-74938095D01*
X73092858Y-74985714D01*
X73221429Y-74985714D01*
X73307143Y-74938095D01*
X72921429Y-74604762D02*
X73007143Y-74652381D01*
X73178572Y-74652381D01*
X73264286Y-74604762D01*
X73307143Y-74557143D01*
X73350000Y-74461905D01*
X73350000Y-74176190D01*
X73307143Y-74080952D01*
X73264286Y-74033333D01*
X73178572Y-73985714D01*
X73007143Y-73985714D01*
X72921429Y-74033333D01*
X72364286Y-74652381D02*
X72450000Y-74604762D01*
X72492857Y-74557143D01*
X72535714Y-74461905D01*
X72535714Y-74176190D01*
X72492857Y-74080952D01*
X72450000Y-74033333D01*
X72364286Y-73985714D01*
X72235714Y-73985714D01*
X72150000Y-74033333D01*
X72107143Y-74080952D01*
X72064286Y-74176190D01*
X72064286Y-74461905D01*
X72107143Y-74557143D01*
X72150000Y-74604762D01*
X72235714Y-74652381D01*
X72364286Y-74652381D01*
X71550000Y-74652381D02*
X71635714Y-74604762D01*
X71678571Y-74557143D01*
X71721428Y-74461905D01*
X71721428Y-74176190D01*
X71678571Y-74080952D01*
X71635714Y-74033333D01*
X71550000Y-73985714D01*
X71421428Y-73985714D01*
X71335714Y-74033333D01*
X71292857Y-74080952D01*
X71250000Y-74176190D01*
X71250000Y-74461905D01*
X71292857Y-74557143D01*
X71335714Y-74604762D01*
X71421428Y-74652381D01*
X71550000Y-74652381D01*
X70864285Y-74557143D02*
X70821428Y-74604762D01*
X70864285Y-74652381D01*
X70907142Y-74604762D01*
X70864285Y-74557143D01*
X70864285Y-74652381D01*
X70050000Y-73985714D02*
X70050000Y-74795238D01*
X70092857Y-74890476D01*
X70135714Y-74938095D01*
X70221429Y-74985714D01*
X70350000Y-74985714D01*
X70435714Y-74938095D01*
X70050000Y-74604762D02*
X70135714Y-74652381D01*
X70307143Y-74652381D01*
X70392857Y-74604762D01*
X70435714Y-74557143D01*
X70478571Y-74461905D01*
X70478571Y-74176190D01*
X70435714Y-74080952D01*
X70392857Y-74033333D01*
X70307143Y-73985714D01*
X70135714Y-73985714D01*
X70050000Y-74033333D01*
X69492857Y-74652381D02*
X69578571Y-74604762D01*
X69621428Y-74509524D01*
X69621428Y-73652381D01*
X68507142Y-73604762D02*
X69278571Y-74890476D01*
X68207142Y-74652381D02*
X68207142Y-73985714D01*
X68207142Y-74176190D02*
X68164285Y-74080952D01*
X68121428Y-74033333D01*
X68035714Y-73985714D01*
X67949999Y-73985714D01*
X67735714Y-73985714D02*
X67564285Y-74652381D01*
X67392856Y-74176190D01*
X67221428Y-74652381D01*
X67049999Y-73985714D01*
X66792857Y-74652381D02*
X66321428Y-73985714D01*
X66792857Y-73985714D02*
X66321428Y-74652381D01*
X65592857Y-73985714D02*
X65592857Y-74652381D01*
X65978571Y-73985714D02*
X65978571Y-74509524D01*
X65935714Y-74604762D01*
X65850000Y-74652381D01*
X65721428Y-74652381D01*
X65635714Y-74604762D01*
X65592857Y-74557143D01*
X64650000Y-74652381D02*
X64950000Y-74176190D01*
X65164285Y-74652381D02*
X65164285Y-73652381D01*
X64821428Y-73652381D01*
X64735714Y-73700000D01*
X64692857Y-73747619D01*
X64650000Y-73842857D01*
X64650000Y-73985714D01*
X64692857Y-74080952D01*
X64735714Y-74128571D01*
X64821428Y-74176190D01*
X65164285Y-74176190D01*
X63964285Y-74128571D02*
X63835714Y-74176190D01*
X63792857Y-74223810D01*
X63750000Y-74319048D01*
X63750000Y-74461905D01*
X63792857Y-74557143D01*
X63835714Y-74604762D01*
X63921428Y-74652381D01*
X64264285Y-74652381D01*
X64264285Y-73652381D01*
X63964285Y-73652381D01*
X63878571Y-73700000D01*
X63835714Y-73747619D01*
X63792857Y-73842857D01*
X63792857Y-73938095D01*
X63835714Y-74033333D01*
X63878571Y-74080952D01*
X63964285Y-74128571D01*
X64264285Y-74128571D01*
%LPC*%
D12*
X71040000Y-76730000D03*
D13*
X71040000Y-79270000D03*
X68500000Y-76730000D03*
X68500000Y-79270000D03*
X65960000Y-76730000D03*
X65960000Y-79270000D03*
D14*
X67510000Y-68000000D03*
X68780000Y-68000000D03*
X68220000Y-68000000D03*
X69500000Y-68000000D03*
X70050000Y-68000000D03*
X66950000Y-68000000D03*
D15*
X67230000Y-72495800D03*
X68500000Y-72495800D03*
X69770000Y-72495800D03*
D16*
G36*
X67660000Y-72950000D02*
X66800000Y-72950000D01*
X66800000Y-62550000D01*
X67660000Y-62550000D01*
X67660000Y-72950000D01*
X67660000Y-72950000D01*
G37*
X67660000Y-72950000D02*
X66800000Y-72950000D01*
X66800000Y-62550000D01*
X67660000Y-62550000D01*
X67660000Y-72950000D01*
G36*
X68930000Y-72950000D02*
X68070000Y-72950000D01*
X68070000Y-62550000D01*
X68930000Y-62550000D01*
X68930000Y-72950000D01*
X68930000Y-72950000D01*
G37*
X68930000Y-72950000D02*
X68070000Y-72950000D01*
X68070000Y-62550000D01*
X68930000Y-62550000D01*
X68930000Y-72950000D01*
G36*
X70200000Y-72950000D02*
X69350000Y-72950000D01*
X69350000Y-62550000D01*
X70200000Y-62550000D01*
X70200000Y-72950000D01*
X70200000Y-72950000D01*
G37*
X70200000Y-72950000D02*
X69350000Y-72950000D01*
X69350000Y-62550000D01*
X70200000Y-62550000D01*
X70200000Y-72950000D01*
M02*
