%FSLAX34Y34*%
G04 Gerber Fmt 3.4, Leading zero omitted, Abs format*
G04 (created by PCBNEW (2013-12-19 BZR 4560)-product) date Thu 19 Dec 2013 07:05:52 PM CET*
%MOIN*%
G01*
G70*
G90*
G04 APERTURE LIST*
%ADD10C,0.005906*%
%ADD11C,0.003937*%
G04 APERTURE END LIST*
G54D10*
G54D11*
X25984Y-24803D02*
X25984Y-28248D01*
X26181Y-24606D02*
X27755Y-24606D01*
X26181Y-24606D02*
X25984Y-24803D01*
X27952Y-27559D02*
X27952Y-28248D01*
X27952Y-26181D02*
X27952Y-26771D01*
X27952Y-26771D02*
G75*
G03X27952Y-27559I393J-393D01*
G74*
G01*
X27952Y-24803D02*
X27952Y-25393D01*
X27952Y-25393D02*
G75*
G03X27952Y-26181I393J-393D01*
G74*
G01*
X25984Y-32480D02*
G75*
G03X27952Y-32480I984J0D01*
G74*
G01*
X25984Y-32480D02*
G75*
G03X25590Y-32086I-393J0D01*
G74*
G01*
X28346Y-32086D02*
G75*
G03X27952Y-32480I0J-393D01*
G74*
G01*
X27460Y-32480D02*
G75*
G03X27460Y-32480I-492J0D01*
G74*
G01*
X27755Y-24606D02*
X27952Y-24803D01*
X25590Y-28641D02*
G75*
G03X25984Y-28248I0J393D01*
G74*
G01*
X27952Y-28248D02*
G75*
G03X28346Y-28641I393J0D01*
G74*
G01*
X29330Y-31102D02*
X29330Y-29625D01*
X24606Y-29625D02*
X24606Y-31102D01*
X25590Y-28641D02*
G75*
G03X24606Y-29625I0J-984D01*
G74*
G01*
X29330Y-29625D02*
G75*
G03X28346Y-28641I-984J0D01*
G74*
G01*
X24606Y-31102D02*
G75*
G03X25590Y-32086I984J0D01*
G74*
G01*
X28346Y-32086D02*
G75*
G03X29330Y-31102I0J984D01*
G74*
G01*
M02*
