G04 (created by PCBNEW (2013-05-25 BZR 4170)-testing) date Sat 25 May 2013 08:27:08 PM CEST*
%MOIN*%
G04 Gerber Fmt 3.4, Leading zero omitted, Abs format*
%FSLAX34Y34*%
G01*
G70*
G90*
G04 APERTURE LIST*
%ADD10C,0.005906*%
%ADD11R,0.041339X0.059055*%
%ADD12O,0.041339X0.059055*%
%ADD13R,0.060000X0.060000*%
%ADD14C,0.060000*%
%ADD15C,0.016000*%
%ADD16C,0.008000*%
G04 APERTURE END LIST*
G54D10*
G54D11*
X27507Y-28490D03*
G54D12*
X27507Y-29147D03*
X27007Y-28490D03*
X27007Y-29147D03*
X26507Y-28490D03*
X26507Y-29147D03*
G54D13*
X28007Y-30287D03*
G54D14*
X28007Y-31287D03*
X27007Y-30287D03*
X27007Y-31287D03*
X26007Y-30287D03*
X26007Y-31287D03*
G54D15*
X25472Y-30944D02*
X25814Y-31287D01*
X25734Y-29068D02*
X25472Y-29330D01*
X25472Y-29330D02*
X25472Y-30944D01*
X26507Y-29068D02*
X25734Y-29068D01*
X25814Y-31287D02*
X26007Y-31287D01*
G54D16*
X26496Y-30551D02*
X26496Y-30775D01*
X26496Y-30775D02*
X27007Y-31287D01*
X27007Y-29068D02*
X27007Y-29370D01*
X27007Y-29370D02*
X26496Y-29881D01*
X26496Y-29881D02*
X26496Y-30551D01*
X26496Y-30551D02*
X26496Y-30578D01*
X27519Y-30602D02*
X27204Y-30287D01*
X27519Y-31535D02*
X27519Y-30602D01*
X27716Y-31732D02*
X27519Y-31535D01*
X28425Y-31732D02*
X27716Y-31732D01*
X28779Y-31377D02*
X28425Y-31732D01*
X28779Y-28897D02*
X28779Y-31377D01*
X27874Y-27992D02*
X28779Y-28897D01*
X27125Y-27992D02*
X27874Y-27992D01*
X27007Y-28110D02*
X27125Y-27992D01*
X27007Y-28568D02*
X27007Y-28110D01*
X27204Y-30287D02*
X27007Y-30287D01*
G54D15*
X28543Y-30984D02*
X28240Y-31287D01*
X28320Y-29068D02*
X28543Y-29291D01*
X28543Y-29291D02*
X28543Y-30984D01*
X27507Y-29068D02*
X28320Y-29068D01*
X28240Y-31287D02*
X28007Y-31287D01*
M02*
