G04 (created by PCBNEW (2013-09-03 BZR 4311)-product) date Wed 04 Sep 2013 04:47:05 PM CEST*
%MOIN*%
G04 Gerber Fmt 3.4, Leading zero omitted, Abs format*
%FSLAX34Y34*%
G01*
G70*
G90*
G04 APERTURE LIST*
%ADD10C,0.005906*%
%ADD11C,0.003937*%
G04 APERTURE END LIST*
G54D10*
G54D11*
X28381Y-35023D02*
X25625Y-35023D01*
X25035Y-34432D02*
G75*
G03X25625Y-35023I590J0D01*
G74*
G01*
X28381Y-35023D02*
G75*
G03X28972Y-34432I0J590D01*
G74*
G01*
X25035Y-34432D02*
X25035Y-33125D01*
X28972Y-34432D02*
X28972Y-33125D01*
X27921Y-32125D02*
G75*
G03X27921Y-33125I0J-500D01*
G74*
G01*
X26086Y-33125D02*
G75*
G03X26086Y-32125I0J500D01*
G74*
G01*
X26086Y-27677D02*
G75*
G03X26086Y-26677I0J500D01*
G74*
G01*
X27921Y-26677D02*
G75*
G03X27921Y-27677I0J-500D01*
G74*
G01*
X27921Y-33125D02*
X28972Y-33125D01*
X26086Y-33125D02*
X25035Y-33125D01*
X27921Y-32125D02*
X28385Y-32125D01*
X25629Y-32125D02*
X26086Y-32125D01*
X25629Y-27677D02*
X26086Y-27677D01*
X28385Y-27677D02*
X27921Y-27677D01*
X25035Y-26677D02*
X26086Y-26677D01*
X27921Y-26677D02*
X28972Y-26677D01*
X25035Y-25370D02*
X25035Y-26677D01*
X28976Y-28267D02*
X28976Y-31535D01*
X28972Y-25370D02*
X28972Y-26677D01*
X25625Y-24779D02*
G75*
G03X25035Y-25370I0J-590D01*
G74*
G01*
X28972Y-25370D02*
G75*
G03X28381Y-24779I-590J0D01*
G74*
G01*
X25625Y-24779D02*
X28381Y-24779D01*
X25039Y-31535D02*
X25039Y-28267D01*
X28976Y-28267D02*
G75*
G03X28385Y-27677I-590J0D01*
G74*
G01*
X28385Y-32125D02*
G75*
G03X28976Y-31535I0J590D01*
G74*
G01*
X25039Y-31535D02*
G75*
G03X25629Y-32125I590J0D01*
G74*
G01*
X25629Y-27677D02*
G75*
G03X25039Y-28267I0J-590D01*
G74*
G01*
M02*
