M48
METRIC,TZ
T1C0.500
T2C0.635
T3C0.750
T4C1.016
%
G90
G05
T1
X067790Y-067930
X067790Y-070130
X067790Y-081770
X067790Y-083970
X068590Y-067930
X068590Y-070130
X068590Y-081770
X068590Y-083970
X069390Y-067930
X069390Y-070130
X069390Y-081770
X069390Y-083970
T2
X067320Y-065205
X067320Y-066475
X068590Y-065205
X068590Y-066475
X069860Y-065205
X069860Y-066475
T3
X067320Y-085165
X067320Y-086435
X067330Y-072565
X067330Y-073835
X068590Y-085165
X068590Y-086435
X068600Y-072565
X068600Y-073835
X069860Y-085165
X069860Y-086435
X069870Y-072565
X069870Y-073835
T4
X066060Y-076930
X066060Y-079470
X068600Y-076930
X068600Y-079470
X071140Y-076930
X071140Y-079470
T0
M30
