%FSLAX34Y34*%
G04 Gerber Fmt 3.4, Leading zero omitted, Abs format*
G04 (created by PCBNEW (2013-12-18 BZR 4558)-product) date Thu 19 Dec 2013 12:59:42 AM CET*
%MOIN*%
G01*
G70*
G90*
G04 APERTURE LIST*
%ADD10C,0.005906*%
%ADD11C,0.007874*%
%ADD12R,0.015748X0.393701*%
%ADD13R,0.037402X0.039370*%
%ADD14R,0.064961X0.064961*%
%ADD15C,0.064961*%
%ADD16C,0.003937*%
G04 APERTURE END LIST*
G54D10*
G54D11*
X28640Y-31322D02*
X29034Y-31322D01*
X29034Y-31172D01*
X29015Y-31135D01*
X28997Y-31116D01*
X28959Y-31097D01*
X28903Y-31097D01*
X28865Y-31116D01*
X28847Y-31135D01*
X28828Y-31172D01*
X28828Y-31322D01*
X29034Y-30853D02*
X29034Y-30778D01*
X29015Y-30741D01*
X28978Y-30703D01*
X28903Y-30685D01*
X28772Y-30685D01*
X28697Y-30703D01*
X28659Y-30741D01*
X28640Y-30778D01*
X28640Y-30853D01*
X28659Y-30891D01*
X28697Y-30928D01*
X28772Y-30947D01*
X28903Y-30947D01*
X28978Y-30928D01*
X29015Y-30891D01*
X29034Y-30853D01*
X29015Y-30310D02*
X29034Y-30347D01*
X29034Y-30404D01*
X29015Y-30460D01*
X28978Y-30497D01*
X28940Y-30516D01*
X28865Y-30535D01*
X28809Y-30535D01*
X28734Y-30516D01*
X28697Y-30497D01*
X28659Y-30460D01*
X28640Y-30404D01*
X28640Y-30366D01*
X28659Y-30310D01*
X28678Y-30291D01*
X28809Y-30291D01*
X28809Y-30366D01*
X29034Y-30047D02*
X29034Y-29972D01*
X29015Y-29935D01*
X28978Y-29897D01*
X28903Y-29879D01*
X28772Y-29879D01*
X28697Y-29897D01*
X28659Y-29935D01*
X28640Y-29972D01*
X28640Y-30047D01*
X28659Y-30085D01*
X28697Y-30122D01*
X28772Y-30141D01*
X28903Y-30141D01*
X28978Y-30122D01*
X29015Y-30085D01*
X29034Y-30047D01*
X24880Y-31060D02*
X25274Y-31060D01*
X24880Y-30835D02*
X25105Y-31003D01*
X25274Y-30835D02*
X25049Y-31060D01*
X25087Y-30666D02*
X25087Y-30535D01*
X24880Y-30479D02*
X24880Y-30666D01*
X25274Y-30666D01*
X25274Y-30479D01*
X25068Y-30235D02*
X24880Y-30235D01*
X25274Y-30366D02*
X25068Y-30235D01*
X25274Y-30104D01*
X28709Y-29128D02*
X28709Y-29446D01*
X28726Y-29484D01*
X28742Y-29503D01*
X28776Y-29521D01*
X28827Y-29521D01*
X28861Y-29503D01*
X28709Y-29371D02*
X28742Y-29390D01*
X28810Y-29390D01*
X28844Y-29371D01*
X28861Y-29353D01*
X28877Y-29315D01*
X28877Y-29203D01*
X28861Y-29165D01*
X28844Y-29146D01*
X28810Y-29128D01*
X28742Y-29128D01*
X28709Y-29146D01*
X28489Y-29390D02*
X28523Y-29371D01*
X28540Y-29353D01*
X28557Y-29315D01*
X28557Y-29203D01*
X28540Y-29165D01*
X28523Y-29146D01*
X28489Y-29128D01*
X28439Y-29128D01*
X28405Y-29146D01*
X28388Y-29165D01*
X28371Y-29203D01*
X28371Y-29315D01*
X28388Y-29353D01*
X28405Y-29371D01*
X28439Y-29390D01*
X28489Y-29390D01*
X28169Y-29390D02*
X28203Y-29371D01*
X28219Y-29353D01*
X28236Y-29315D01*
X28236Y-29203D01*
X28219Y-29165D01*
X28203Y-29146D01*
X28169Y-29128D01*
X28118Y-29128D01*
X28084Y-29146D01*
X28068Y-29165D01*
X28051Y-29203D01*
X28051Y-29315D01*
X28068Y-29353D01*
X28084Y-29371D01*
X28118Y-29390D01*
X28169Y-29390D01*
X27899Y-29353D02*
X27882Y-29371D01*
X27899Y-29390D01*
X27916Y-29371D01*
X27899Y-29353D01*
X27899Y-29390D01*
X27578Y-29128D02*
X27578Y-29446D01*
X27595Y-29484D01*
X27612Y-29503D01*
X27646Y-29521D01*
X27696Y-29521D01*
X27730Y-29503D01*
X27578Y-29371D02*
X27612Y-29390D01*
X27679Y-29390D01*
X27713Y-29371D01*
X27730Y-29353D01*
X27747Y-29315D01*
X27747Y-29203D01*
X27730Y-29165D01*
X27713Y-29146D01*
X27679Y-29128D01*
X27612Y-29128D01*
X27578Y-29146D01*
X27359Y-29390D02*
X27393Y-29371D01*
X27410Y-29334D01*
X27410Y-28997D01*
X26971Y-28978D02*
X27275Y-29484D01*
X26853Y-29390D02*
X26853Y-29128D01*
X26853Y-29203D02*
X26836Y-29165D01*
X26819Y-29146D01*
X26785Y-29128D01*
X26751Y-29128D01*
X26667Y-29128D02*
X26600Y-29390D01*
X26532Y-29203D01*
X26465Y-29390D01*
X26397Y-29128D01*
X26296Y-29390D02*
X26110Y-29128D01*
X26296Y-29128D02*
X26110Y-29390D01*
X25823Y-29128D02*
X25823Y-29390D01*
X25975Y-29128D02*
X25975Y-29334D01*
X25958Y-29371D01*
X25925Y-29390D01*
X25874Y-29390D01*
X25840Y-29371D01*
X25823Y-29353D01*
X25452Y-29390D02*
X25570Y-29203D01*
X25655Y-29390D02*
X25655Y-28997D01*
X25520Y-28997D01*
X25486Y-29015D01*
X25469Y-29034D01*
X25452Y-29071D01*
X25452Y-29128D01*
X25469Y-29165D01*
X25486Y-29184D01*
X25520Y-29203D01*
X25655Y-29203D01*
X25182Y-29184D02*
X25132Y-29203D01*
X25115Y-29221D01*
X25098Y-29259D01*
X25098Y-29315D01*
X25115Y-29353D01*
X25132Y-29371D01*
X25165Y-29390D01*
X25300Y-29390D01*
X25300Y-28997D01*
X25182Y-28997D01*
X25149Y-29015D01*
X25132Y-29034D01*
X25115Y-29071D01*
X25115Y-29109D01*
X25132Y-29146D01*
X25149Y-29165D01*
X25182Y-29184D01*
X25300Y-29184D01*
%LPC*%
G54D12*
X26578Y-26771D03*
X27078Y-26771D03*
X26858Y-26771D03*
X27362Y-26771D03*
X27578Y-26771D03*
X26358Y-26771D03*
G54D13*
X26468Y-28541D03*
X26968Y-28541D03*
X27468Y-28541D03*
G54D14*
X27968Y-30208D03*
G54D15*
X27968Y-31208D03*
X26968Y-30208D03*
X26968Y-31208D03*
X25968Y-30208D03*
X25968Y-31208D03*
G54D10*
G36*
X26637Y-28720D02*
X26299Y-28720D01*
X26299Y-24625D01*
X26637Y-24625D01*
X26637Y-28720D01*
X26637Y-28720D01*
G37*
G54D16*
X26637Y-28720D02*
X26299Y-28720D01*
X26299Y-24625D01*
X26637Y-24625D01*
X26637Y-28720D01*
G54D10*
G36*
X27137Y-28720D02*
X26799Y-28720D01*
X26799Y-24625D01*
X27137Y-24625D01*
X27137Y-28720D01*
X27137Y-28720D01*
G37*
G54D16*
X27137Y-28720D02*
X26799Y-28720D01*
X26799Y-24625D01*
X27137Y-24625D01*
X27137Y-28720D01*
G54D10*
G36*
X27637Y-28720D02*
X27303Y-28720D01*
X27303Y-24625D01*
X27637Y-24625D01*
X27637Y-28720D01*
X27637Y-28720D01*
G37*
G54D16*
X27637Y-28720D02*
X27303Y-28720D01*
X27303Y-24625D01*
X27637Y-24625D01*
X27637Y-28720D01*
M02*
