G04 (created by PCBNEW (2013-09-01 BZR 4308)-product) date Mon 02 Sep 2013 01:41:27 PM CEST*
%MOIN*%
G04 Gerber Fmt 3.4, Leading zero omitted, Abs format*
%FSLAX34Y34*%
G01*
G70*
G90*
G04 APERTURE LIST*
%ADD10C,0.005906*%
%ADD11R,0.064961X0.064961*%
%ADD12C,0.064961*%
%ADD13C,0.019685*%
%ADD14O,0.059055X0.041339*%
%ADD15R,0.041339X0.059055*%
%ADD16O,0.041339X0.059055*%
%ADD17C,0.008000*%
G04 APERTURE END LIST*
G54D10*
G54D11*
X28007Y-30287D03*
G54D12*
X28007Y-31287D03*
X27007Y-30287D03*
X27007Y-31287D03*
X26007Y-30287D03*
X26007Y-31287D03*
G54D13*
X29104Y-29901D03*
X29852Y-29901D03*
X29104Y-29606D03*
X29104Y-30196D03*
X29852Y-30196D03*
X29852Y-29606D03*
G54D14*
X30379Y-29401D03*
X31037Y-29401D03*
X30379Y-29901D03*
X31037Y-29901D03*
X30379Y-30401D03*
X31037Y-30401D03*
G54D15*
X27507Y-28490D03*
G54D16*
X27507Y-29147D03*
X27007Y-28490D03*
X27007Y-29147D03*
X26507Y-28490D03*
X26507Y-29147D03*
G54D17*
X28007Y-28716D02*
X28007Y-28106D01*
X28007Y-30287D02*
X28007Y-28716D01*
X27500Y-28561D02*
X27507Y-28568D01*
X27500Y-28061D02*
X27500Y-28561D01*
X27618Y-27942D02*
X27500Y-28061D01*
X27844Y-27942D02*
X27618Y-27942D01*
X28007Y-28106D02*
X27844Y-27942D01*
X26007Y-28716D02*
X26007Y-28125D01*
X26007Y-30287D02*
X26007Y-28716D01*
X26507Y-28033D02*
X26507Y-28568D01*
X26417Y-27942D02*
X26507Y-28033D01*
X26190Y-27942D02*
X26417Y-27942D01*
X26007Y-28125D02*
X26190Y-27942D01*
M02*
