%FSLAX34Y34*%
G04 Gerber Fmt 3.4, Leading zero omitted, Abs format*
G04 (created by PCBNEW (2013-12-19 BZR 4560)-product) date Thu 19 Dec 2013 07:05:52 PM CET*
%MOIN*%
G01*
G70*
G90*
G04 APERTURE LIST*
%ADD10C,0.005906*%
%ADD11R,0.015748X0.393701*%
%ADD12R,0.037402X0.039370*%
%ADD13R,0.064961X0.064961*%
%ADD14C,0.064961*%
%ADD15C,0.016000*%
%ADD16C,0.008000*%
G04 APERTURE END LIST*
G54D10*
G54D11*
X26578Y-26771D03*
X27078Y-26771D03*
X26858Y-26771D03*
X27362Y-26771D03*
X27578Y-26771D03*
X26358Y-26771D03*
G54D12*
X26468Y-28541D03*
X26968Y-28541D03*
X27468Y-28541D03*
G54D13*
X27968Y-30208D03*
G54D14*
X27968Y-31208D03*
X26968Y-30208D03*
X26968Y-31208D03*
X25968Y-30208D03*
X25968Y-31208D03*
G54D15*
X26578Y-26771D02*
X26578Y-28431D01*
X26578Y-28431D02*
X26468Y-28541D01*
X26468Y-28541D02*
X26358Y-28431D01*
X26358Y-28431D02*
X26358Y-26771D01*
X26476Y-28937D02*
X26476Y-28549D01*
X25598Y-31208D02*
X25393Y-31003D01*
X25393Y-31003D02*
X25393Y-29724D01*
X25393Y-29724D02*
X25885Y-29232D01*
X25885Y-29232D02*
X26181Y-29232D01*
X26181Y-29232D02*
X26476Y-28937D01*
X25968Y-31208D02*
X25598Y-31208D01*
X26476Y-28549D02*
X26468Y-28541D01*
G54D16*
X26968Y-28541D02*
X27078Y-28431D01*
X27078Y-28431D02*
X27078Y-26771D01*
X26968Y-28541D02*
X26858Y-28431D01*
X26858Y-28431D02*
X26858Y-26771D01*
X26968Y-28541D02*
X26968Y-28838D01*
X26968Y-31200D02*
X26476Y-30708D01*
X26476Y-30708D02*
X26476Y-29724D01*
X26476Y-29724D02*
X26968Y-29232D01*
X26968Y-29232D02*
X26968Y-28838D01*
X26968Y-31200D02*
X26968Y-31208D01*
G54D15*
X27578Y-26771D02*
X27578Y-28431D01*
X27578Y-28431D02*
X27468Y-28541D01*
X27468Y-28541D02*
X27362Y-28435D01*
X27362Y-28435D02*
X27362Y-26771D01*
X27460Y-28937D02*
X27460Y-28549D01*
X28338Y-31208D02*
X28543Y-31003D01*
X28543Y-31003D02*
X28543Y-29724D01*
X28543Y-29724D02*
X28051Y-29232D01*
X28051Y-29232D02*
X27755Y-29232D01*
X27755Y-29232D02*
X27460Y-28937D01*
X27968Y-31208D02*
X28338Y-31208D01*
X27460Y-28549D02*
X27468Y-28541D01*
M02*
