G04 #@! TF.FileFunction,Legend,Top*
%FSLAX46Y46*%
G04 Gerber Fmt 4.6, Leading zero omitted, Abs format (unit mm)*
G04 Created by KiCad (PCBNEW (2015-07-22 BZR 5980, Git 49d8b90)-product) date Thu 23 Jul 2015 06:11:10 PM CEST*
%MOMM*%
G01*
G04 APERTURE LIST*
%ADD10C,0.150000*%
%ADD11C,0.250000*%
%ADD12C,0.002540*%
%ADD13R,0.400000X2.500000*%
%ADD14R,0.400000X5.000000*%
%ADD15R,0.950000X1.000000*%
%ADD16R,1.500000X2.000000*%
%ADD17O,1.500000X2.000000*%
%ADD18C,0.100000*%
G04 APERTURE END LIST*
D10*
D11*
X73400000Y-76800000D02*
X73800000Y-76900000D01*
X73100000Y-76800000D02*
X73800000Y-77100000D01*
X73800000Y-76500000D02*
X73500000Y-76600000D01*
X73100000Y-76700000D02*
X73800000Y-76300000D01*
X72700000Y-76700000D02*
X73900000Y-76700000D01*
X73900000Y-77300000D02*
X72700000Y-76700000D01*
X73900000Y-76100000D02*
X73900000Y-77300000D01*
X72700000Y-76700000D02*
X73900000Y-76100000D01*
X66785714Y-73797619D02*
X66833333Y-73750000D01*
X66928571Y-73702381D01*
X67166667Y-73702381D01*
X67261905Y-73750000D01*
X67309524Y-73797619D01*
X67357143Y-73892857D01*
X67357143Y-73988095D01*
X67309524Y-74130952D01*
X66738095Y-74702381D01*
X67357143Y-74702381D01*
X67976190Y-73702381D02*
X68071429Y-73702381D01*
X68166667Y-73750000D01*
X68214286Y-73797619D01*
X68261905Y-73892857D01*
X68309524Y-74083333D01*
X68309524Y-74321429D01*
X68261905Y-74511905D01*
X68214286Y-74607143D01*
X68166667Y-74654762D01*
X68071429Y-74702381D01*
X67976190Y-74702381D01*
X67880952Y-74654762D01*
X67833333Y-74607143D01*
X67785714Y-74511905D01*
X67738095Y-74321429D01*
X67738095Y-74083333D01*
X67785714Y-73892857D01*
X67833333Y-73797619D01*
X67880952Y-73750000D01*
X67976190Y-73702381D01*
X69261905Y-74702381D02*
X68690476Y-74702381D01*
X68976190Y-74702381D02*
X68976190Y-73702381D01*
X68880952Y-73845238D01*
X68785714Y-73940476D01*
X68690476Y-73988095D01*
X70166667Y-73702381D02*
X69690476Y-73702381D01*
X69642857Y-74178571D01*
X69690476Y-74130952D01*
X69785714Y-74083333D01*
X70023810Y-74083333D01*
X70119048Y-74130952D01*
X70166667Y-74178571D01*
X70214286Y-74273810D01*
X70214286Y-74511905D01*
X70166667Y-74607143D01*
X70119048Y-74654762D01*
X70023810Y-74702381D01*
X69785714Y-74702381D01*
X69690476Y-74654762D01*
X69642857Y-74607143D01*
D12*
G36*
X71345480Y-75096620D02*
X71355640Y-75091540D01*
X71378500Y-75076300D01*
X71411520Y-75055980D01*
X71452160Y-75028040D01*
X71490260Y-75002640D01*
X71523280Y-74979780D01*
X71546140Y-74964540D01*
X71556300Y-74959460D01*
X71561380Y-74962000D01*
X71579160Y-74972160D01*
X71607100Y-74984860D01*
X71622340Y-74992480D01*
X71647740Y-75005180D01*
X71660440Y-75007720D01*
X71662980Y-75002640D01*
X71673140Y-74984860D01*
X71685840Y-74951840D01*
X71706160Y-74908660D01*
X71726480Y-74857860D01*
X71749340Y-74801980D01*
X71772200Y-74746100D01*
X71795060Y-74692760D01*
X71815380Y-74644500D01*
X71830620Y-74606400D01*
X71840780Y-74578460D01*
X71845860Y-74568300D01*
X71843320Y-74565760D01*
X71830620Y-74553060D01*
X71810300Y-74537820D01*
X71762040Y-74497180D01*
X71716320Y-74438760D01*
X71685840Y-74372720D01*
X71678220Y-74299060D01*
X71685840Y-74233020D01*
X71711240Y-74169520D01*
X71756960Y-74108560D01*
X71812840Y-74065380D01*
X71878880Y-74037440D01*
X71950000Y-74029820D01*
X72018580Y-74037440D01*
X72084620Y-74062840D01*
X72145580Y-74108560D01*
X72168440Y-74136500D01*
X72204000Y-74197460D01*
X72224320Y-74258420D01*
X72224320Y-74273660D01*
X72221780Y-74344780D01*
X72201460Y-74413360D01*
X72165900Y-74471780D01*
X72112560Y-74522580D01*
X72107480Y-74527660D01*
X72082080Y-74545440D01*
X72066840Y-74555600D01*
X72054140Y-74565760D01*
X72143040Y-74781660D01*
X72158280Y-74817220D01*
X72183680Y-74875640D01*
X72204000Y-74926440D01*
X72221780Y-74967080D01*
X72234480Y-74992480D01*
X72239560Y-75005180D01*
X72239560Y-75005180D01*
X72247180Y-75005180D01*
X72262420Y-75000100D01*
X72292900Y-74984860D01*
X72313220Y-74974700D01*
X72336080Y-74964540D01*
X72346240Y-74959460D01*
X72356400Y-74964540D01*
X72376720Y-74979780D01*
X72409740Y-75000100D01*
X72447840Y-75025500D01*
X72483400Y-75050900D01*
X72518960Y-75073760D01*
X72541820Y-75089000D01*
X72554520Y-75096620D01*
X72557060Y-75096620D01*
X72567220Y-75089000D01*
X72587540Y-75073760D01*
X72615480Y-75045820D01*
X72656120Y-75005180D01*
X72663740Y-75000100D01*
X72696760Y-74964540D01*
X72724700Y-74934060D01*
X72745020Y-74913740D01*
X72750100Y-74906120D01*
X72750100Y-74906120D01*
X72745020Y-74893420D01*
X72729780Y-74868020D01*
X72706920Y-74835000D01*
X72678980Y-74794360D01*
X72607860Y-74690220D01*
X72648500Y-74593700D01*
X72658660Y-74563220D01*
X72673900Y-74527660D01*
X72686600Y-74502260D01*
X72691680Y-74489560D01*
X72701840Y-74487020D01*
X72729780Y-74479400D01*
X72767880Y-74471780D01*
X72813600Y-74464160D01*
X72859320Y-74454000D01*
X72897420Y-74446380D01*
X72927900Y-74441300D01*
X72940600Y-74438760D01*
X72943140Y-74436220D01*
X72945680Y-74431140D01*
X72948220Y-74418440D01*
X72948220Y-74393040D01*
X72948220Y-74354940D01*
X72948220Y-74299060D01*
X72948220Y-74293980D01*
X72948220Y-74240640D01*
X72948220Y-74200000D01*
X72945680Y-74174600D01*
X72943140Y-74164440D01*
X72943140Y-74164440D01*
X72930440Y-74159360D01*
X72902500Y-74154280D01*
X72864400Y-74146660D01*
X72816140Y-74136500D01*
X72813600Y-74136500D01*
X72765340Y-74128880D01*
X72727240Y-74118720D01*
X72699300Y-74113640D01*
X72686600Y-74108560D01*
X72684060Y-74106020D01*
X72673900Y-74088240D01*
X72661200Y-74057760D01*
X72645960Y-74022200D01*
X72630720Y-73986640D01*
X72615480Y-73951080D01*
X72607860Y-73928220D01*
X72605320Y-73915520D01*
X72605320Y-73915520D01*
X72612940Y-73905360D01*
X72628180Y-73879960D01*
X72651040Y-73846940D01*
X72678980Y-73806300D01*
X72681520Y-73801220D01*
X72709460Y-73763120D01*
X72729780Y-73727560D01*
X72745020Y-73704700D01*
X72750100Y-73694540D01*
X72750100Y-73692000D01*
X72742480Y-73681840D01*
X72722160Y-73658980D01*
X72691680Y-73628500D01*
X72656120Y-73592940D01*
X72645960Y-73582780D01*
X72607860Y-73544680D01*
X72579920Y-73519280D01*
X72562140Y-73506580D01*
X72554520Y-73501500D01*
X72554520Y-73504040D01*
X72541820Y-73509120D01*
X72516420Y-73526900D01*
X72483400Y-73549760D01*
X72442760Y-73577700D01*
X72440220Y-73580240D01*
X72399580Y-73605640D01*
X72366560Y-73628500D01*
X72343700Y-73643740D01*
X72333540Y-73651360D01*
X72331000Y-73651360D01*
X72315760Y-73646280D01*
X72285280Y-73636120D01*
X72252260Y-73623420D01*
X72214160Y-73608180D01*
X72181140Y-73592940D01*
X72155740Y-73582780D01*
X72143040Y-73575160D01*
X72143040Y-73575160D01*
X72137960Y-73559920D01*
X72132880Y-73529440D01*
X72122720Y-73488800D01*
X72115100Y-73440540D01*
X72112560Y-73432920D01*
X72104940Y-73384660D01*
X72097320Y-73346560D01*
X72089700Y-73318620D01*
X72087160Y-73305920D01*
X72082080Y-73305920D01*
X72056680Y-73303380D01*
X72021120Y-73303380D01*
X71977940Y-73303380D01*
X71934760Y-73303380D01*
X71891580Y-73303380D01*
X71853480Y-73305920D01*
X71828080Y-73305920D01*
X71815380Y-73308460D01*
X71815380Y-73311000D01*
X71810300Y-73323700D01*
X71805220Y-73354180D01*
X71795060Y-73394820D01*
X71787440Y-73445620D01*
X71784900Y-73453240D01*
X71777280Y-73501500D01*
X71767120Y-73539600D01*
X71762040Y-73567540D01*
X71759500Y-73577700D01*
X71754420Y-73580240D01*
X71736640Y-73587860D01*
X71703620Y-73600560D01*
X71662980Y-73618340D01*
X71571540Y-73653900D01*
X71459780Y-73577700D01*
X71449620Y-73570080D01*
X71408980Y-73542140D01*
X71375960Y-73521820D01*
X71353100Y-73506580D01*
X71342940Y-73501500D01*
X71342940Y-73501500D01*
X71332780Y-73511660D01*
X71309920Y-73531980D01*
X71279440Y-73562460D01*
X71243880Y-73595480D01*
X71218480Y-73623420D01*
X71188000Y-73653900D01*
X71167680Y-73674220D01*
X71157520Y-73689460D01*
X71152440Y-73697080D01*
X71154980Y-73702160D01*
X71160060Y-73714860D01*
X71177840Y-73737720D01*
X71200700Y-73773280D01*
X71228640Y-73811380D01*
X71251500Y-73846940D01*
X71274360Y-73882500D01*
X71289600Y-73910440D01*
X71297220Y-73923140D01*
X71294680Y-73928220D01*
X71287060Y-73951080D01*
X71274360Y-73984100D01*
X71256580Y-74024740D01*
X71218480Y-74113640D01*
X71160060Y-74123800D01*
X71124500Y-74131420D01*
X71073700Y-74139040D01*
X71027980Y-74149200D01*
X70954320Y-74164440D01*
X70951780Y-74431140D01*
X70961940Y-74436220D01*
X70974640Y-74441300D01*
X71000040Y-74446380D01*
X71040680Y-74454000D01*
X71086400Y-74461620D01*
X71124500Y-74469240D01*
X71165140Y-74476860D01*
X71193080Y-74481940D01*
X71205780Y-74484480D01*
X71208320Y-74489560D01*
X71218480Y-74509880D01*
X71233720Y-74540360D01*
X71248960Y-74575920D01*
X71264200Y-74614020D01*
X71276900Y-74649580D01*
X71287060Y-74674980D01*
X71292140Y-74690220D01*
X71287060Y-74700380D01*
X71271820Y-74723240D01*
X71248960Y-74756260D01*
X71223560Y-74794360D01*
X71195620Y-74835000D01*
X71172760Y-74868020D01*
X71157520Y-74893420D01*
X71149900Y-74903580D01*
X71154980Y-74911200D01*
X71170220Y-74928980D01*
X71198160Y-74959460D01*
X71243880Y-75005180D01*
X71251500Y-75010260D01*
X71284520Y-75045820D01*
X71315000Y-75071220D01*
X71335320Y-75091540D01*
X71345480Y-75096620D01*
X71345480Y-75096620D01*
G37*
X71345480Y-75096620D02*
X71355640Y-75091540D01*
X71378500Y-75076300D01*
X71411520Y-75055980D01*
X71452160Y-75028040D01*
X71490260Y-75002640D01*
X71523280Y-74979780D01*
X71546140Y-74964540D01*
X71556300Y-74959460D01*
X71561380Y-74962000D01*
X71579160Y-74972160D01*
X71607100Y-74984860D01*
X71622340Y-74992480D01*
X71647740Y-75005180D01*
X71660440Y-75007720D01*
X71662980Y-75002640D01*
X71673140Y-74984860D01*
X71685840Y-74951840D01*
X71706160Y-74908660D01*
X71726480Y-74857860D01*
X71749340Y-74801980D01*
X71772200Y-74746100D01*
X71795060Y-74692760D01*
X71815380Y-74644500D01*
X71830620Y-74606400D01*
X71840780Y-74578460D01*
X71845860Y-74568300D01*
X71843320Y-74565760D01*
X71830620Y-74553060D01*
X71810300Y-74537820D01*
X71762040Y-74497180D01*
X71716320Y-74438760D01*
X71685840Y-74372720D01*
X71678220Y-74299060D01*
X71685840Y-74233020D01*
X71711240Y-74169520D01*
X71756960Y-74108560D01*
X71812840Y-74065380D01*
X71878880Y-74037440D01*
X71950000Y-74029820D01*
X72018580Y-74037440D01*
X72084620Y-74062840D01*
X72145580Y-74108560D01*
X72168440Y-74136500D01*
X72204000Y-74197460D01*
X72224320Y-74258420D01*
X72224320Y-74273660D01*
X72221780Y-74344780D01*
X72201460Y-74413360D01*
X72165900Y-74471780D01*
X72112560Y-74522580D01*
X72107480Y-74527660D01*
X72082080Y-74545440D01*
X72066840Y-74555600D01*
X72054140Y-74565760D01*
X72143040Y-74781660D01*
X72158280Y-74817220D01*
X72183680Y-74875640D01*
X72204000Y-74926440D01*
X72221780Y-74967080D01*
X72234480Y-74992480D01*
X72239560Y-75005180D01*
X72239560Y-75005180D01*
X72247180Y-75005180D01*
X72262420Y-75000100D01*
X72292900Y-74984860D01*
X72313220Y-74974700D01*
X72336080Y-74964540D01*
X72346240Y-74959460D01*
X72356400Y-74964540D01*
X72376720Y-74979780D01*
X72409740Y-75000100D01*
X72447840Y-75025500D01*
X72483400Y-75050900D01*
X72518960Y-75073760D01*
X72541820Y-75089000D01*
X72554520Y-75096620D01*
X72557060Y-75096620D01*
X72567220Y-75089000D01*
X72587540Y-75073760D01*
X72615480Y-75045820D01*
X72656120Y-75005180D01*
X72663740Y-75000100D01*
X72696760Y-74964540D01*
X72724700Y-74934060D01*
X72745020Y-74913740D01*
X72750100Y-74906120D01*
X72750100Y-74906120D01*
X72745020Y-74893420D01*
X72729780Y-74868020D01*
X72706920Y-74835000D01*
X72678980Y-74794360D01*
X72607860Y-74690220D01*
X72648500Y-74593700D01*
X72658660Y-74563220D01*
X72673900Y-74527660D01*
X72686600Y-74502260D01*
X72691680Y-74489560D01*
X72701840Y-74487020D01*
X72729780Y-74479400D01*
X72767880Y-74471780D01*
X72813600Y-74464160D01*
X72859320Y-74454000D01*
X72897420Y-74446380D01*
X72927900Y-74441300D01*
X72940600Y-74438760D01*
X72943140Y-74436220D01*
X72945680Y-74431140D01*
X72948220Y-74418440D01*
X72948220Y-74393040D01*
X72948220Y-74354940D01*
X72948220Y-74299060D01*
X72948220Y-74293980D01*
X72948220Y-74240640D01*
X72948220Y-74200000D01*
X72945680Y-74174600D01*
X72943140Y-74164440D01*
X72943140Y-74164440D01*
X72930440Y-74159360D01*
X72902500Y-74154280D01*
X72864400Y-74146660D01*
X72816140Y-74136500D01*
X72813600Y-74136500D01*
X72765340Y-74128880D01*
X72727240Y-74118720D01*
X72699300Y-74113640D01*
X72686600Y-74108560D01*
X72684060Y-74106020D01*
X72673900Y-74088240D01*
X72661200Y-74057760D01*
X72645960Y-74022200D01*
X72630720Y-73986640D01*
X72615480Y-73951080D01*
X72607860Y-73928220D01*
X72605320Y-73915520D01*
X72605320Y-73915520D01*
X72612940Y-73905360D01*
X72628180Y-73879960D01*
X72651040Y-73846940D01*
X72678980Y-73806300D01*
X72681520Y-73801220D01*
X72709460Y-73763120D01*
X72729780Y-73727560D01*
X72745020Y-73704700D01*
X72750100Y-73694540D01*
X72750100Y-73692000D01*
X72742480Y-73681840D01*
X72722160Y-73658980D01*
X72691680Y-73628500D01*
X72656120Y-73592940D01*
X72645960Y-73582780D01*
X72607860Y-73544680D01*
X72579920Y-73519280D01*
X72562140Y-73506580D01*
X72554520Y-73501500D01*
X72554520Y-73504040D01*
X72541820Y-73509120D01*
X72516420Y-73526900D01*
X72483400Y-73549760D01*
X72442760Y-73577700D01*
X72440220Y-73580240D01*
X72399580Y-73605640D01*
X72366560Y-73628500D01*
X72343700Y-73643740D01*
X72333540Y-73651360D01*
X72331000Y-73651360D01*
X72315760Y-73646280D01*
X72285280Y-73636120D01*
X72252260Y-73623420D01*
X72214160Y-73608180D01*
X72181140Y-73592940D01*
X72155740Y-73582780D01*
X72143040Y-73575160D01*
X72143040Y-73575160D01*
X72137960Y-73559920D01*
X72132880Y-73529440D01*
X72122720Y-73488800D01*
X72115100Y-73440540D01*
X72112560Y-73432920D01*
X72104940Y-73384660D01*
X72097320Y-73346560D01*
X72089700Y-73318620D01*
X72087160Y-73305920D01*
X72082080Y-73305920D01*
X72056680Y-73303380D01*
X72021120Y-73303380D01*
X71977940Y-73303380D01*
X71934760Y-73303380D01*
X71891580Y-73303380D01*
X71853480Y-73305920D01*
X71828080Y-73305920D01*
X71815380Y-73308460D01*
X71815380Y-73311000D01*
X71810300Y-73323700D01*
X71805220Y-73354180D01*
X71795060Y-73394820D01*
X71787440Y-73445620D01*
X71784900Y-73453240D01*
X71777280Y-73501500D01*
X71767120Y-73539600D01*
X71762040Y-73567540D01*
X71759500Y-73577700D01*
X71754420Y-73580240D01*
X71736640Y-73587860D01*
X71703620Y-73600560D01*
X71662980Y-73618340D01*
X71571540Y-73653900D01*
X71459780Y-73577700D01*
X71449620Y-73570080D01*
X71408980Y-73542140D01*
X71375960Y-73521820D01*
X71353100Y-73506580D01*
X71342940Y-73501500D01*
X71342940Y-73501500D01*
X71332780Y-73511660D01*
X71309920Y-73531980D01*
X71279440Y-73562460D01*
X71243880Y-73595480D01*
X71218480Y-73623420D01*
X71188000Y-73653900D01*
X71167680Y-73674220D01*
X71157520Y-73689460D01*
X71152440Y-73697080D01*
X71154980Y-73702160D01*
X71160060Y-73714860D01*
X71177840Y-73737720D01*
X71200700Y-73773280D01*
X71228640Y-73811380D01*
X71251500Y-73846940D01*
X71274360Y-73882500D01*
X71289600Y-73910440D01*
X71297220Y-73923140D01*
X71294680Y-73928220D01*
X71287060Y-73951080D01*
X71274360Y-73984100D01*
X71256580Y-74024740D01*
X71218480Y-74113640D01*
X71160060Y-74123800D01*
X71124500Y-74131420D01*
X71073700Y-74139040D01*
X71027980Y-74149200D01*
X70954320Y-74164440D01*
X70951780Y-74431140D01*
X70961940Y-74436220D01*
X70974640Y-74441300D01*
X71000040Y-74446380D01*
X71040680Y-74454000D01*
X71086400Y-74461620D01*
X71124500Y-74469240D01*
X71165140Y-74476860D01*
X71193080Y-74481940D01*
X71205780Y-74484480D01*
X71208320Y-74489560D01*
X71218480Y-74509880D01*
X71233720Y-74540360D01*
X71248960Y-74575920D01*
X71264200Y-74614020D01*
X71276900Y-74649580D01*
X71287060Y-74674980D01*
X71292140Y-74690220D01*
X71287060Y-74700380D01*
X71271820Y-74723240D01*
X71248960Y-74756260D01*
X71223560Y-74794360D01*
X71195620Y-74835000D01*
X71172760Y-74868020D01*
X71157520Y-74893420D01*
X71149900Y-74903580D01*
X71154980Y-74911200D01*
X71170220Y-74928980D01*
X71198160Y-74959460D01*
X71243880Y-75005180D01*
X71251500Y-75010260D01*
X71284520Y-75045820D01*
X71315000Y-75071220D01*
X71335320Y-75091540D01*
X71345480Y-75096620D01*
G36*
X65125920Y-75123760D02*
X65151320Y-75121220D01*
X65174180Y-75113600D01*
X65184340Y-75108520D01*
X65207200Y-75093280D01*
X65222440Y-75075500D01*
X65235140Y-75052640D01*
X65245300Y-75029780D01*
X65247840Y-75006920D01*
X65247840Y-74981520D01*
X65242760Y-74956120D01*
X65230060Y-74933260D01*
X65222440Y-74923100D01*
X65212280Y-74912940D01*
X65202120Y-74900240D01*
X65191960Y-74892620D01*
X65186880Y-74890080D01*
X65166560Y-74879920D01*
X65143700Y-74874840D01*
X65118300Y-74874840D01*
X65110680Y-74874840D01*
X65095440Y-74877380D01*
X65085280Y-74879920D01*
X65070040Y-74885000D01*
X65057340Y-74892620D01*
X65037020Y-74910400D01*
X65019240Y-74930720D01*
X65006540Y-74953580D01*
X65004000Y-74963740D01*
X65001460Y-74976440D01*
X64998920Y-74984060D01*
X64998920Y-74986600D01*
X64998920Y-74986600D01*
X64998920Y-74981520D01*
X64998920Y-74981520D01*
X64993840Y-74963740D01*
X64988760Y-74948500D01*
X64981140Y-74933260D01*
X64965900Y-74915480D01*
X64948120Y-74897700D01*
X64925260Y-74885000D01*
X64899860Y-74877380D01*
X64874460Y-74874840D01*
X64866840Y-74874840D01*
X64849060Y-74877380D01*
X64828740Y-74882460D01*
X64826200Y-74882460D01*
X64803340Y-74895160D01*
X64785560Y-74910400D01*
X64770320Y-74930720D01*
X64757620Y-74951040D01*
X64752540Y-74973900D01*
X64750000Y-74973900D01*
X64750000Y-74978980D01*
X64750000Y-74981520D01*
X64750000Y-74981520D01*
X64750000Y-74978980D01*
X64747460Y-74973900D01*
X64747460Y-74971360D01*
X64739840Y-74948500D01*
X64729680Y-74928180D01*
X64711900Y-74907860D01*
X64696660Y-74895160D01*
X64676340Y-74885000D01*
X64650940Y-74877380D01*
X64625540Y-74874840D01*
X64607760Y-74874840D01*
X64582360Y-74882460D01*
X64559500Y-74892620D01*
X64539180Y-74907860D01*
X64523940Y-74928180D01*
X64521400Y-74930720D01*
X64516320Y-74940880D01*
X64511240Y-74948500D01*
X64508700Y-74953580D01*
X64506160Y-74966280D01*
X64503620Y-74976440D01*
X64501080Y-74984060D01*
X64501080Y-74986600D01*
X64501080Y-74986600D01*
X64501080Y-74981520D01*
X64498540Y-74966280D01*
X64490920Y-74951040D01*
X64483300Y-74935800D01*
X64468060Y-74915480D01*
X64450280Y-74897700D01*
X64427420Y-74885000D01*
X64402020Y-74877380D01*
X64376620Y-74874840D01*
X64353760Y-74874840D01*
X64328360Y-74882460D01*
X64308040Y-74895160D01*
X64287720Y-74912940D01*
X64277560Y-74923100D01*
X64267400Y-74935800D01*
X64259780Y-74953580D01*
X64254700Y-74966280D01*
X64252160Y-74991680D01*
X64252160Y-75014540D01*
X64257240Y-75037400D01*
X64267400Y-75060260D01*
X64280100Y-75080580D01*
X64297880Y-75095820D01*
X64318200Y-75111060D01*
X64341060Y-75118680D01*
X64366460Y-75123760D01*
X64369000Y-75123760D01*
X64394400Y-75123760D01*
X64417260Y-75116140D01*
X64440120Y-75105980D01*
X64450280Y-75100900D01*
X64465520Y-75085660D01*
X64480760Y-75067880D01*
X64490920Y-75050100D01*
X64493460Y-75042480D01*
X64496000Y-75032320D01*
X64498540Y-75019620D01*
X64501080Y-75012000D01*
X64501080Y-75006920D01*
X64501080Y-75012000D01*
X64501080Y-75017080D01*
X64503620Y-75027240D01*
X64508700Y-75039940D01*
X64511240Y-75050100D01*
X64518860Y-75062800D01*
X64534100Y-75083120D01*
X64551880Y-75098360D01*
X64574740Y-75113600D01*
X64600140Y-75121220D01*
X64602680Y-75121220D01*
X64620460Y-75123760D01*
X64638240Y-75123760D01*
X64656020Y-75121220D01*
X64671260Y-75116140D01*
X64694120Y-75103440D01*
X64716980Y-75085660D01*
X64716980Y-75085660D01*
X64732220Y-75067880D01*
X64742380Y-75045020D01*
X64747460Y-75024700D01*
X64750000Y-75024700D01*
X64750000Y-75017080D01*
X64750000Y-75014540D01*
X64750000Y-75017080D01*
X64750000Y-75022160D01*
X64750000Y-75024700D01*
X64755080Y-75037400D01*
X64760160Y-75050100D01*
X64767780Y-75065340D01*
X64777940Y-75080580D01*
X64798260Y-75098360D01*
X64818580Y-75111060D01*
X64843980Y-75121220D01*
X64849060Y-75121220D01*
X64864300Y-75123760D01*
X64884620Y-75123760D01*
X64899860Y-75121220D01*
X64912560Y-75116140D01*
X64937960Y-75105980D01*
X64958280Y-75090740D01*
X64976060Y-75072960D01*
X64988760Y-75050100D01*
X64991300Y-75042480D01*
X64993840Y-75032320D01*
X64996380Y-75019620D01*
X64998920Y-75012000D01*
X64998920Y-75012000D01*
X64998920Y-75012000D01*
X64998920Y-75017080D01*
X64998920Y-75017080D01*
X65004000Y-75032320D01*
X65009080Y-75050100D01*
X65016700Y-75062800D01*
X65019240Y-75067880D01*
X65037020Y-75088200D01*
X65057340Y-75103440D01*
X65077660Y-75116140D01*
X65100520Y-75121220D01*
X65125920Y-75123760D01*
X65125920Y-75123760D01*
G37*
X65125920Y-75123760D02*
X65151320Y-75121220D01*
X65174180Y-75113600D01*
X65184340Y-75108520D01*
X65207200Y-75093280D01*
X65222440Y-75075500D01*
X65235140Y-75052640D01*
X65245300Y-75029780D01*
X65247840Y-75006920D01*
X65247840Y-74981520D01*
X65242760Y-74956120D01*
X65230060Y-74933260D01*
X65222440Y-74923100D01*
X65212280Y-74912940D01*
X65202120Y-74900240D01*
X65191960Y-74892620D01*
X65186880Y-74890080D01*
X65166560Y-74879920D01*
X65143700Y-74874840D01*
X65118300Y-74874840D01*
X65110680Y-74874840D01*
X65095440Y-74877380D01*
X65085280Y-74879920D01*
X65070040Y-74885000D01*
X65057340Y-74892620D01*
X65037020Y-74910400D01*
X65019240Y-74930720D01*
X65006540Y-74953580D01*
X65004000Y-74963740D01*
X65001460Y-74976440D01*
X64998920Y-74984060D01*
X64998920Y-74986600D01*
X64998920Y-74986600D01*
X64998920Y-74981520D01*
X64998920Y-74981520D01*
X64993840Y-74963740D01*
X64988760Y-74948500D01*
X64981140Y-74933260D01*
X64965900Y-74915480D01*
X64948120Y-74897700D01*
X64925260Y-74885000D01*
X64899860Y-74877380D01*
X64874460Y-74874840D01*
X64866840Y-74874840D01*
X64849060Y-74877380D01*
X64828740Y-74882460D01*
X64826200Y-74882460D01*
X64803340Y-74895160D01*
X64785560Y-74910400D01*
X64770320Y-74930720D01*
X64757620Y-74951040D01*
X64752540Y-74973900D01*
X64750000Y-74973900D01*
X64750000Y-74978980D01*
X64750000Y-74981520D01*
X64750000Y-74981520D01*
X64750000Y-74978980D01*
X64747460Y-74973900D01*
X64747460Y-74971360D01*
X64739840Y-74948500D01*
X64729680Y-74928180D01*
X64711900Y-74907860D01*
X64696660Y-74895160D01*
X64676340Y-74885000D01*
X64650940Y-74877380D01*
X64625540Y-74874840D01*
X64607760Y-74874840D01*
X64582360Y-74882460D01*
X64559500Y-74892620D01*
X64539180Y-74907860D01*
X64523940Y-74928180D01*
X64521400Y-74930720D01*
X64516320Y-74940880D01*
X64511240Y-74948500D01*
X64508700Y-74953580D01*
X64506160Y-74966280D01*
X64503620Y-74976440D01*
X64501080Y-74984060D01*
X64501080Y-74986600D01*
X64501080Y-74986600D01*
X64501080Y-74981520D01*
X64498540Y-74966280D01*
X64490920Y-74951040D01*
X64483300Y-74935800D01*
X64468060Y-74915480D01*
X64450280Y-74897700D01*
X64427420Y-74885000D01*
X64402020Y-74877380D01*
X64376620Y-74874840D01*
X64353760Y-74874840D01*
X64328360Y-74882460D01*
X64308040Y-74895160D01*
X64287720Y-74912940D01*
X64277560Y-74923100D01*
X64267400Y-74935800D01*
X64259780Y-74953580D01*
X64254700Y-74966280D01*
X64252160Y-74991680D01*
X64252160Y-75014540D01*
X64257240Y-75037400D01*
X64267400Y-75060260D01*
X64280100Y-75080580D01*
X64297880Y-75095820D01*
X64318200Y-75111060D01*
X64341060Y-75118680D01*
X64366460Y-75123760D01*
X64369000Y-75123760D01*
X64394400Y-75123760D01*
X64417260Y-75116140D01*
X64440120Y-75105980D01*
X64450280Y-75100900D01*
X64465520Y-75085660D01*
X64480760Y-75067880D01*
X64490920Y-75050100D01*
X64493460Y-75042480D01*
X64496000Y-75032320D01*
X64498540Y-75019620D01*
X64501080Y-75012000D01*
X64501080Y-75006920D01*
X64501080Y-75012000D01*
X64501080Y-75017080D01*
X64503620Y-75027240D01*
X64508700Y-75039940D01*
X64511240Y-75050100D01*
X64518860Y-75062800D01*
X64534100Y-75083120D01*
X64551880Y-75098360D01*
X64574740Y-75113600D01*
X64600140Y-75121220D01*
X64602680Y-75121220D01*
X64620460Y-75123760D01*
X64638240Y-75123760D01*
X64656020Y-75121220D01*
X64671260Y-75116140D01*
X64694120Y-75103440D01*
X64716980Y-75085660D01*
X64716980Y-75085660D01*
X64732220Y-75067880D01*
X64742380Y-75045020D01*
X64747460Y-75024700D01*
X64750000Y-75024700D01*
X64750000Y-75017080D01*
X64750000Y-75014540D01*
X64750000Y-75017080D01*
X64750000Y-75022160D01*
X64750000Y-75024700D01*
X64755080Y-75037400D01*
X64760160Y-75050100D01*
X64767780Y-75065340D01*
X64777940Y-75080580D01*
X64798260Y-75098360D01*
X64818580Y-75111060D01*
X64843980Y-75121220D01*
X64849060Y-75121220D01*
X64864300Y-75123760D01*
X64884620Y-75123760D01*
X64899860Y-75121220D01*
X64912560Y-75116140D01*
X64937960Y-75105980D01*
X64958280Y-75090740D01*
X64976060Y-75072960D01*
X64988760Y-75050100D01*
X64991300Y-75042480D01*
X64993840Y-75032320D01*
X64996380Y-75019620D01*
X64998920Y-75012000D01*
X64998920Y-75012000D01*
X64998920Y-75012000D01*
X64998920Y-75017080D01*
X64998920Y-75017080D01*
X65004000Y-75032320D01*
X65009080Y-75050100D01*
X65016700Y-75062800D01*
X65019240Y-75067880D01*
X65037020Y-75088200D01*
X65057340Y-75103440D01*
X65077660Y-75116140D01*
X65100520Y-75121220D01*
X65125920Y-75123760D01*
G36*
X64117540Y-74874840D02*
X64132780Y-74872300D01*
X64148020Y-74872300D01*
X64165800Y-74867220D01*
X64188660Y-74857060D01*
X64208980Y-74841820D01*
X64226760Y-74824040D01*
X64239460Y-74801180D01*
X64247080Y-74778320D01*
X64252160Y-74752920D01*
X64249620Y-74727520D01*
X64242000Y-74704660D01*
X64231840Y-74681800D01*
X64216600Y-74661480D01*
X64196280Y-74643700D01*
X64188660Y-74641160D01*
X64165800Y-74631000D01*
X64140400Y-74623380D01*
X64115000Y-74623380D01*
X64089600Y-74628460D01*
X64069280Y-74638620D01*
X64046420Y-74651320D01*
X64028640Y-74671640D01*
X64013400Y-74691960D01*
X64005780Y-74717360D01*
X64003240Y-74730060D01*
X64000700Y-74747840D01*
X64000700Y-74763080D01*
X64003240Y-74775780D01*
X64005780Y-74780860D01*
X64015940Y-74806260D01*
X64028640Y-74829120D01*
X64048960Y-74846900D01*
X64071820Y-74862140D01*
X64081980Y-74864680D01*
X64097220Y-74869760D01*
X64109920Y-74872300D01*
X64117540Y-74874840D01*
X64117540Y-74874840D01*
G37*
X64117540Y-74874840D02*
X64132780Y-74872300D01*
X64148020Y-74872300D01*
X64165800Y-74867220D01*
X64188660Y-74857060D01*
X64208980Y-74841820D01*
X64226760Y-74824040D01*
X64239460Y-74801180D01*
X64247080Y-74778320D01*
X64252160Y-74752920D01*
X64249620Y-74727520D01*
X64242000Y-74704660D01*
X64231840Y-74681800D01*
X64216600Y-74661480D01*
X64196280Y-74643700D01*
X64188660Y-74641160D01*
X64165800Y-74631000D01*
X64140400Y-74623380D01*
X64115000Y-74623380D01*
X64089600Y-74628460D01*
X64069280Y-74638620D01*
X64046420Y-74651320D01*
X64028640Y-74671640D01*
X64013400Y-74691960D01*
X64005780Y-74717360D01*
X64003240Y-74730060D01*
X64000700Y-74747840D01*
X64000700Y-74763080D01*
X64003240Y-74775780D01*
X64005780Y-74780860D01*
X64015940Y-74806260D01*
X64028640Y-74829120D01*
X64048960Y-74846900D01*
X64071820Y-74862140D01*
X64081980Y-74864680D01*
X64097220Y-74869760D01*
X64109920Y-74872300D01*
X64117540Y-74874840D01*
G36*
X65377380Y-74874840D02*
X65402780Y-74869760D01*
X65428180Y-74862140D01*
X65451040Y-74846900D01*
X65456120Y-74844360D01*
X65471360Y-74826580D01*
X65486600Y-74803720D01*
X65494220Y-74778320D01*
X65496760Y-74765620D01*
X65499300Y-74750380D01*
X65499300Y-74735140D01*
X65496760Y-74722440D01*
X65494220Y-74714820D01*
X65484060Y-74689420D01*
X65471360Y-74669100D01*
X65451040Y-74651320D01*
X65430720Y-74638620D01*
X65407860Y-74628460D01*
X65379920Y-74623380D01*
X65372300Y-74623380D01*
X65346900Y-74625920D01*
X65321500Y-74633540D01*
X65301180Y-74646240D01*
X65283400Y-74664020D01*
X65268160Y-74681800D01*
X65258000Y-74704660D01*
X65250380Y-74727520D01*
X65250380Y-74755460D01*
X65250380Y-74770700D01*
X65252920Y-74783400D01*
X65258000Y-74798640D01*
X65268160Y-74816420D01*
X65285940Y-74836740D01*
X65303720Y-74851980D01*
X65326580Y-74864680D01*
X65351980Y-74872300D01*
X65377380Y-74874840D01*
X65377380Y-74874840D01*
G37*
X65377380Y-74874840D02*
X65402780Y-74869760D01*
X65428180Y-74862140D01*
X65451040Y-74846900D01*
X65456120Y-74844360D01*
X65471360Y-74826580D01*
X65486600Y-74803720D01*
X65494220Y-74778320D01*
X65496760Y-74765620D01*
X65499300Y-74750380D01*
X65499300Y-74735140D01*
X65496760Y-74722440D01*
X65494220Y-74714820D01*
X65484060Y-74689420D01*
X65471360Y-74669100D01*
X65451040Y-74651320D01*
X65430720Y-74638620D01*
X65407860Y-74628460D01*
X65379920Y-74623380D01*
X65372300Y-74623380D01*
X65346900Y-74625920D01*
X65321500Y-74633540D01*
X65301180Y-74646240D01*
X65283400Y-74664020D01*
X65268160Y-74681800D01*
X65258000Y-74704660D01*
X65250380Y-74727520D01*
X65250380Y-74755460D01*
X65250380Y-74770700D01*
X65252920Y-74783400D01*
X65258000Y-74798640D01*
X65268160Y-74816420D01*
X65285940Y-74836740D01*
X65303720Y-74851980D01*
X65326580Y-74864680D01*
X65351980Y-74872300D01*
X65377380Y-74874840D01*
G36*
X63868620Y-74623380D02*
X63886400Y-74623380D01*
X63901640Y-74620840D01*
X63919420Y-74615760D01*
X63942280Y-74603060D01*
X63965140Y-74587820D01*
X63977840Y-74572580D01*
X63990540Y-74549720D01*
X63998160Y-74524320D01*
X64000700Y-74516700D01*
X64000700Y-74501460D01*
X64000700Y-74486220D01*
X63998160Y-74473520D01*
X63995620Y-74465900D01*
X63988000Y-74440500D01*
X63972760Y-74420180D01*
X63954980Y-74399860D01*
X63932120Y-74387160D01*
X63921960Y-74382080D01*
X63906720Y-74377000D01*
X63891480Y-74374460D01*
X63871160Y-74374460D01*
X63861000Y-74374460D01*
X63845760Y-74377000D01*
X63833060Y-74379540D01*
X63820360Y-74387160D01*
X63812740Y-74392240D01*
X63792420Y-74407480D01*
X63774640Y-74425260D01*
X63761940Y-74448120D01*
X63754320Y-74473520D01*
X63751780Y-74481140D01*
X63751780Y-74493840D01*
X63751780Y-74509080D01*
X63754320Y-74524320D01*
X63754320Y-74531940D01*
X63764480Y-74557340D01*
X63779720Y-74577660D01*
X63797500Y-74595440D01*
X63820360Y-74610680D01*
X63845760Y-74620840D01*
X63853380Y-74620840D01*
X63868620Y-74623380D01*
X63868620Y-74623380D01*
G37*
X63868620Y-74623380D02*
X63886400Y-74623380D01*
X63901640Y-74620840D01*
X63919420Y-74615760D01*
X63942280Y-74603060D01*
X63965140Y-74587820D01*
X63977840Y-74572580D01*
X63990540Y-74549720D01*
X63998160Y-74524320D01*
X64000700Y-74516700D01*
X64000700Y-74501460D01*
X64000700Y-74486220D01*
X63998160Y-74473520D01*
X63995620Y-74465900D01*
X63988000Y-74440500D01*
X63972760Y-74420180D01*
X63954980Y-74399860D01*
X63932120Y-74387160D01*
X63921960Y-74382080D01*
X63906720Y-74377000D01*
X63891480Y-74374460D01*
X63871160Y-74374460D01*
X63861000Y-74374460D01*
X63845760Y-74377000D01*
X63833060Y-74379540D01*
X63820360Y-74387160D01*
X63812740Y-74392240D01*
X63792420Y-74407480D01*
X63774640Y-74425260D01*
X63761940Y-74448120D01*
X63754320Y-74473520D01*
X63751780Y-74481140D01*
X63751780Y-74493840D01*
X63751780Y-74509080D01*
X63754320Y-74524320D01*
X63754320Y-74531940D01*
X63764480Y-74557340D01*
X63779720Y-74577660D01*
X63797500Y-74595440D01*
X63820360Y-74610680D01*
X63845760Y-74620840D01*
X63853380Y-74620840D01*
X63868620Y-74623380D01*
G36*
X64871920Y-74623380D02*
X64894780Y-74620840D01*
X64920180Y-74615760D01*
X64932880Y-74608140D01*
X64955740Y-74592900D01*
X64973520Y-74575120D01*
X64986220Y-74552260D01*
X64993840Y-74529400D01*
X64996380Y-74524320D01*
X64998920Y-74504000D01*
X64998920Y-74483680D01*
X64993840Y-74463360D01*
X64983680Y-74437960D01*
X64968440Y-74417640D01*
X64950660Y-74399860D01*
X64927800Y-74387160D01*
X64902400Y-74377000D01*
X64887160Y-74371920D01*
X64894780Y-74371920D01*
X64897320Y-74371920D01*
X64915100Y-74366840D01*
X64932880Y-74359220D01*
X64950660Y-74346520D01*
X64953200Y-74343980D01*
X64970980Y-74326200D01*
X64986220Y-74305880D01*
X64993840Y-74283020D01*
X64998920Y-74257620D01*
X64998920Y-74234760D01*
X64991300Y-74211900D01*
X64981140Y-74186500D01*
X64981140Y-74186500D01*
X64965900Y-74166180D01*
X64945580Y-74148400D01*
X64925260Y-74138240D01*
X64902400Y-74130620D01*
X64879540Y-74125540D01*
X64854140Y-74128080D01*
X64831280Y-74133160D01*
X64808420Y-74145860D01*
X64788100Y-74161100D01*
X64777940Y-74171260D01*
X64765240Y-74191580D01*
X64755080Y-74209360D01*
X64750000Y-74229680D01*
X64750000Y-74232220D01*
X64750000Y-74234760D01*
X64750000Y-74234760D01*
X64750000Y-74229680D01*
X64744920Y-74211900D01*
X64737300Y-74194120D01*
X64727140Y-74176340D01*
X64719520Y-74168720D01*
X64701740Y-74150940D01*
X64678880Y-74138240D01*
X64656020Y-74130620D01*
X64630620Y-74125540D01*
X64605220Y-74128080D01*
X64589980Y-74130620D01*
X64564580Y-74140780D01*
X64544260Y-74156020D01*
X64526480Y-74173800D01*
X64513780Y-74196660D01*
X64503620Y-74222060D01*
X64503620Y-74234760D01*
X64501080Y-74257620D01*
X64506160Y-74283020D01*
X64513780Y-74305880D01*
X64529020Y-74326200D01*
X64546800Y-74343980D01*
X64569660Y-74359220D01*
X64579820Y-74364300D01*
X64589980Y-74369380D01*
X64600140Y-74371920D01*
X64610300Y-74371920D01*
X64610300Y-74371920D01*
X64610300Y-74374460D01*
X64605220Y-74374460D01*
X64592520Y-74379540D01*
X64574740Y-74384620D01*
X64562040Y-74392240D01*
X64554420Y-74397320D01*
X64536640Y-74412560D01*
X64521400Y-74430340D01*
X64511240Y-74448120D01*
X64503620Y-74468440D01*
X64501080Y-74491300D01*
X64501080Y-74514160D01*
X64503620Y-74516700D01*
X64508700Y-74544640D01*
X64521400Y-74567500D01*
X64539180Y-74587820D01*
X64551880Y-74600520D01*
X64574740Y-74613220D01*
X64600140Y-74620840D01*
X64607760Y-74623380D01*
X64623000Y-74623380D01*
X64635700Y-74623380D01*
X64650940Y-74620840D01*
X64661100Y-74618300D01*
X64668720Y-74615760D01*
X64691580Y-74605600D01*
X64714440Y-74587820D01*
X64729680Y-74567500D01*
X64737300Y-74557340D01*
X64744920Y-74542100D01*
X64747460Y-74524320D01*
X64750000Y-74524320D01*
X64750000Y-74516700D01*
X64750000Y-74514160D01*
X64750000Y-74514160D01*
X64750000Y-74481140D01*
X64750000Y-74481140D01*
X64750000Y-74478600D01*
X64747460Y-74473520D01*
X64747460Y-74470980D01*
X64739840Y-74448120D01*
X64729680Y-74427800D01*
X64711900Y-74410020D01*
X64694120Y-74394780D01*
X64673800Y-74382080D01*
X64671260Y-74382080D01*
X64661100Y-74379540D01*
X64650940Y-74377000D01*
X64638240Y-74374460D01*
X64648400Y-74371920D01*
X64663640Y-74366840D01*
X64686500Y-74359220D01*
X64706820Y-74343980D01*
X64724600Y-74326200D01*
X64737300Y-74305880D01*
X64742380Y-74295720D01*
X64747460Y-74283020D01*
X64750000Y-74270320D01*
X64750000Y-74267780D01*
X64750000Y-74265240D01*
X64750000Y-74265240D01*
X64750000Y-74270320D01*
X64752540Y-74280480D01*
X64757620Y-74293180D01*
X64762700Y-74305880D01*
X64770320Y-74318580D01*
X64785560Y-74338900D01*
X64805880Y-74354140D01*
X64828740Y-74364300D01*
X64851600Y-74371920D01*
X64861760Y-74374460D01*
X64851600Y-74377000D01*
X64849060Y-74377000D01*
X64838900Y-74379540D01*
X64826200Y-74382080D01*
X64826200Y-74384620D01*
X64803340Y-74394780D01*
X64785560Y-74410020D01*
X64770320Y-74430340D01*
X64757620Y-74450660D01*
X64752540Y-74473520D01*
X64750000Y-74473520D01*
X64750000Y-74478600D01*
X64750000Y-74481140D01*
X64750000Y-74514160D01*
X64750000Y-74514160D01*
X64750000Y-74519240D01*
X64752540Y-74524320D01*
X64755080Y-74542100D01*
X64765240Y-74562420D01*
X64780480Y-74582740D01*
X64800800Y-74600520D01*
X64821120Y-74613220D01*
X64821120Y-74613220D01*
X64846520Y-74620840D01*
X64871920Y-74623380D01*
X64871920Y-74623380D01*
G37*
X64871920Y-74623380D02*
X64894780Y-74620840D01*
X64920180Y-74615760D01*
X64932880Y-74608140D01*
X64955740Y-74592900D01*
X64973520Y-74575120D01*
X64986220Y-74552260D01*
X64993840Y-74529400D01*
X64996380Y-74524320D01*
X64998920Y-74504000D01*
X64998920Y-74483680D01*
X64993840Y-74463360D01*
X64983680Y-74437960D01*
X64968440Y-74417640D01*
X64950660Y-74399860D01*
X64927800Y-74387160D01*
X64902400Y-74377000D01*
X64887160Y-74371920D01*
X64894780Y-74371920D01*
X64897320Y-74371920D01*
X64915100Y-74366840D01*
X64932880Y-74359220D01*
X64950660Y-74346520D01*
X64953200Y-74343980D01*
X64970980Y-74326200D01*
X64986220Y-74305880D01*
X64993840Y-74283020D01*
X64998920Y-74257620D01*
X64998920Y-74234760D01*
X64991300Y-74211900D01*
X64981140Y-74186500D01*
X64981140Y-74186500D01*
X64965900Y-74166180D01*
X64945580Y-74148400D01*
X64925260Y-74138240D01*
X64902400Y-74130620D01*
X64879540Y-74125540D01*
X64854140Y-74128080D01*
X64831280Y-74133160D01*
X64808420Y-74145860D01*
X64788100Y-74161100D01*
X64777940Y-74171260D01*
X64765240Y-74191580D01*
X64755080Y-74209360D01*
X64750000Y-74229680D01*
X64750000Y-74232220D01*
X64750000Y-74234760D01*
X64750000Y-74234760D01*
X64750000Y-74229680D01*
X64744920Y-74211900D01*
X64737300Y-74194120D01*
X64727140Y-74176340D01*
X64719520Y-74168720D01*
X64701740Y-74150940D01*
X64678880Y-74138240D01*
X64656020Y-74130620D01*
X64630620Y-74125540D01*
X64605220Y-74128080D01*
X64589980Y-74130620D01*
X64564580Y-74140780D01*
X64544260Y-74156020D01*
X64526480Y-74173800D01*
X64513780Y-74196660D01*
X64503620Y-74222060D01*
X64503620Y-74234760D01*
X64501080Y-74257620D01*
X64506160Y-74283020D01*
X64513780Y-74305880D01*
X64529020Y-74326200D01*
X64546800Y-74343980D01*
X64569660Y-74359220D01*
X64579820Y-74364300D01*
X64589980Y-74369380D01*
X64600140Y-74371920D01*
X64610300Y-74371920D01*
X64610300Y-74371920D01*
X64610300Y-74374460D01*
X64605220Y-74374460D01*
X64592520Y-74379540D01*
X64574740Y-74384620D01*
X64562040Y-74392240D01*
X64554420Y-74397320D01*
X64536640Y-74412560D01*
X64521400Y-74430340D01*
X64511240Y-74448120D01*
X64503620Y-74468440D01*
X64501080Y-74491300D01*
X64501080Y-74514160D01*
X64503620Y-74516700D01*
X64508700Y-74544640D01*
X64521400Y-74567500D01*
X64539180Y-74587820D01*
X64551880Y-74600520D01*
X64574740Y-74613220D01*
X64600140Y-74620840D01*
X64607760Y-74623380D01*
X64623000Y-74623380D01*
X64635700Y-74623380D01*
X64650940Y-74620840D01*
X64661100Y-74618300D01*
X64668720Y-74615760D01*
X64691580Y-74605600D01*
X64714440Y-74587820D01*
X64729680Y-74567500D01*
X64737300Y-74557340D01*
X64744920Y-74542100D01*
X64747460Y-74524320D01*
X64750000Y-74524320D01*
X64750000Y-74516700D01*
X64750000Y-74514160D01*
X64750000Y-74514160D01*
X64750000Y-74481140D01*
X64750000Y-74481140D01*
X64750000Y-74478600D01*
X64747460Y-74473520D01*
X64747460Y-74470980D01*
X64739840Y-74448120D01*
X64729680Y-74427800D01*
X64711900Y-74410020D01*
X64694120Y-74394780D01*
X64673800Y-74382080D01*
X64671260Y-74382080D01*
X64661100Y-74379540D01*
X64650940Y-74377000D01*
X64638240Y-74374460D01*
X64648400Y-74371920D01*
X64663640Y-74366840D01*
X64686500Y-74359220D01*
X64706820Y-74343980D01*
X64724600Y-74326200D01*
X64737300Y-74305880D01*
X64742380Y-74295720D01*
X64747460Y-74283020D01*
X64750000Y-74270320D01*
X64750000Y-74267780D01*
X64750000Y-74265240D01*
X64750000Y-74265240D01*
X64750000Y-74270320D01*
X64752540Y-74280480D01*
X64757620Y-74293180D01*
X64762700Y-74305880D01*
X64770320Y-74318580D01*
X64785560Y-74338900D01*
X64805880Y-74354140D01*
X64828740Y-74364300D01*
X64851600Y-74371920D01*
X64861760Y-74374460D01*
X64851600Y-74377000D01*
X64849060Y-74377000D01*
X64838900Y-74379540D01*
X64826200Y-74382080D01*
X64826200Y-74384620D01*
X64803340Y-74394780D01*
X64785560Y-74410020D01*
X64770320Y-74430340D01*
X64757620Y-74450660D01*
X64752540Y-74473520D01*
X64750000Y-74473520D01*
X64750000Y-74478600D01*
X64750000Y-74481140D01*
X64750000Y-74514160D01*
X64750000Y-74514160D01*
X64750000Y-74519240D01*
X64752540Y-74524320D01*
X64755080Y-74542100D01*
X64765240Y-74562420D01*
X64780480Y-74582740D01*
X64800800Y-74600520D01*
X64821120Y-74613220D01*
X64821120Y-74613220D01*
X64846520Y-74620840D01*
X64871920Y-74623380D01*
G36*
X65613600Y-74623380D02*
X65633920Y-74623380D01*
X65654240Y-74620840D01*
X65664400Y-74615760D01*
X65689800Y-74605600D01*
X65710120Y-74590360D01*
X65725360Y-74572580D01*
X65738060Y-74549720D01*
X65745680Y-74524320D01*
X65748220Y-74498920D01*
X65748220Y-74488760D01*
X65743140Y-74463360D01*
X65732980Y-74437960D01*
X65717740Y-74415100D01*
X65712660Y-74412560D01*
X65694880Y-74397320D01*
X65674560Y-74384620D01*
X65654240Y-74377000D01*
X65651700Y-74377000D01*
X65633920Y-74374460D01*
X65613600Y-74374460D01*
X65595820Y-74377000D01*
X65588200Y-74379540D01*
X65565340Y-74389700D01*
X65542480Y-74402400D01*
X65527240Y-74420180D01*
X65512000Y-74440500D01*
X65504380Y-74463360D01*
X65499300Y-74488760D01*
X65499300Y-74514160D01*
X65504380Y-74539560D01*
X65514540Y-74557340D01*
X65527240Y-74577660D01*
X65547560Y-74597980D01*
X65567880Y-74610680D01*
X65593280Y-74620840D01*
X65595820Y-74620840D01*
X65613600Y-74623380D01*
X65613600Y-74623380D01*
G37*
X65613600Y-74623380D02*
X65633920Y-74623380D01*
X65654240Y-74620840D01*
X65664400Y-74615760D01*
X65689800Y-74605600D01*
X65710120Y-74590360D01*
X65725360Y-74572580D01*
X65738060Y-74549720D01*
X65745680Y-74524320D01*
X65748220Y-74498920D01*
X65748220Y-74488760D01*
X65743140Y-74463360D01*
X65732980Y-74437960D01*
X65717740Y-74415100D01*
X65712660Y-74412560D01*
X65694880Y-74397320D01*
X65674560Y-74384620D01*
X65654240Y-74377000D01*
X65651700Y-74377000D01*
X65633920Y-74374460D01*
X65613600Y-74374460D01*
X65595820Y-74377000D01*
X65588200Y-74379540D01*
X65565340Y-74389700D01*
X65542480Y-74402400D01*
X65527240Y-74420180D01*
X65512000Y-74440500D01*
X65504380Y-74463360D01*
X65499300Y-74488760D01*
X65499300Y-74514160D01*
X65504380Y-74539560D01*
X65514540Y-74557340D01*
X65527240Y-74577660D01*
X65547560Y-74597980D01*
X65567880Y-74610680D01*
X65593280Y-74620840D01*
X65595820Y-74620840D01*
X65613600Y-74623380D01*
G36*
X64379160Y-73876620D02*
X64404560Y-73874080D01*
X64429960Y-73863920D01*
X64440120Y-73858840D01*
X64450280Y-73851220D01*
X64462980Y-73841060D01*
X64475680Y-73825820D01*
X64488380Y-73805500D01*
X64498540Y-73780100D01*
X64498540Y-73775020D01*
X64501080Y-73757240D01*
X64501080Y-73739460D01*
X64498540Y-73724220D01*
X64490920Y-73703900D01*
X64480760Y-73681040D01*
X64465520Y-73663260D01*
X64462980Y-73660720D01*
X64450280Y-73650560D01*
X64437580Y-73642940D01*
X64424880Y-73635320D01*
X64419800Y-73635320D01*
X64409640Y-73630240D01*
X64399480Y-73627700D01*
X64391860Y-73627700D01*
X64389320Y-73627700D01*
X64394400Y-73625160D01*
X64399480Y-73625160D01*
X64407100Y-73622620D01*
X64417260Y-73620080D01*
X64435040Y-73609920D01*
X64452820Y-73599760D01*
X64468060Y-73587060D01*
X64470600Y-73581980D01*
X64485840Y-73561660D01*
X64496000Y-73538800D01*
X64501080Y-73513400D01*
X64501080Y-73488000D01*
X64501080Y-73482920D01*
X64493460Y-73457520D01*
X64480760Y-73434660D01*
X64462980Y-73411800D01*
X64447740Y-73399100D01*
X64427420Y-73386400D01*
X64402020Y-73378780D01*
X64396940Y-73378780D01*
X64381700Y-73376240D01*
X64363920Y-73376240D01*
X64348680Y-73378780D01*
X64333440Y-73383860D01*
X64310580Y-73394020D01*
X64290260Y-73409260D01*
X64275020Y-73429580D01*
X64262320Y-73449900D01*
X64254700Y-73475300D01*
X64252160Y-73477840D01*
X64252160Y-73482920D01*
X64249620Y-73485460D01*
X64249620Y-73482920D01*
X64249620Y-73477840D01*
X64247080Y-73467680D01*
X64242000Y-73457520D01*
X64239460Y-73447360D01*
X64234380Y-73439740D01*
X64219140Y-73416880D01*
X64201360Y-73399100D01*
X64178500Y-73386400D01*
X64153100Y-73378780D01*
X64127700Y-73376240D01*
X64107380Y-73378780D01*
X64081980Y-73383860D01*
X64061660Y-73394020D01*
X64048960Y-73404180D01*
X64028640Y-73421960D01*
X64015940Y-73442280D01*
X64005780Y-73465140D01*
X64000700Y-73490540D01*
X64000700Y-73515940D01*
X64008320Y-73538800D01*
X64018480Y-73564200D01*
X64033720Y-73584520D01*
X64051500Y-73602300D01*
X64074360Y-73615000D01*
X64099760Y-73622620D01*
X64115000Y-73627700D01*
X64104840Y-73627700D01*
X64099760Y-73627700D01*
X64079440Y-73635320D01*
X64061660Y-73645480D01*
X64041340Y-73658180D01*
X64028640Y-73673420D01*
X64018480Y-73686120D01*
X64010860Y-73703900D01*
X64005780Y-73721680D01*
X64003240Y-73734380D01*
X64000700Y-73749620D01*
X64000700Y-73764860D01*
X64003240Y-73777560D01*
X64008320Y-73792800D01*
X64021020Y-73818200D01*
X64036260Y-73838520D01*
X64056580Y-73853760D01*
X64079440Y-73866460D01*
X64104840Y-73874080D01*
X64112460Y-73876620D01*
X64127700Y-73876620D01*
X64142940Y-73874080D01*
X64158180Y-73871540D01*
X64168340Y-73869000D01*
X64191200Y-73858840D01*
X64211520Y-73843600D01*
X64229300Y-73823280D01*
X64242000Y-73800420D01*
X64249620Y-73775020D01*
X64249620Y-73775020D01*
X64249620Y-73767400D01*
X64252160Y-73769940D01*
X64252160Y-73734380D01*
X64249620Y-73734380D01*
X64249620Y-73729300D01*
X64249620Y-73726760D01*
X64244540Y-73711520D01*
X64236920Y-73693740D01*
X64226760Y-73675960D01*
X64219140Y-73668340D01*
X64198820Y-73650560D01*
X64175960Y-73637860D01*
X64150560Y-73627700D01*
X64140400Y-73625160D01*
X64148020Y-73625160D01*
X64155640Y-73622620D01*
X64163260Y-73620080D01*
X64168340Y-73620080D01*
X64191200Y-73607380D01*
X64211520Y-73592140D01*
X64229300Y-73574360D01*
X64239460Y-73551500D01*
X64249620Y-73528640D01*
X64249620Y-73521020D01*
X64252160Y-73518480D01*
X64252160Y-73521020D01*
X64254700Y-73528640D01*
X64254700Y-73528640D01*
X64257240Y-73541340D01*
X64264860Y-73556580D01*
X64272480Y-73569280D01*
X64277560Y-73579440D01*
X64290260Y-73589600D01*
X64302960Y-73602300D01*
X64313120Y-73609920D01*
X64315660Y-73609920D01*
X64333440Y-73617540D01*
X64353760Y-73625160D01*
X64363920Y-73625160D01*
X64353760Y-73627700D01*
X64330900Y-73635320D01*
X64308040Y-73645480D01*
X64287720Y-73660720D01*
X64272480Y-73681040D01*
X64269940Y-73686120D01*
X64262320Y-73698820D01*
X64257240Y-73711520D01*
X64254700Y-73724220D01*
X64252160Y-73731840D01*
X64252160Y-73731840D01*
X64252160Y-73734380D01*
X64252160Y-73769940D01*
X64252160Y-73769940D01*
X64252160Y-73775020D01*
X64254700Y-73782640D01*
X64257240Y-73790260D01*
X64262320Y-73802960D01*
X64275020Y-73823280D01*
X64290260Y-73843600D01*
X64310580Y-73856300D01*
X64333440Y-73869000D01*
X64356300Y-73874080D01*
X64379160Y-73876620D01*
X64379160Y-73876620D01*
G37*
X64379160Y-73876620D02*
X64404560Y-73874080D01*
X64429960Y-73863920D01*
X64440120Y-73858840D01*
X64450280Y-73851220D01*
X64462980Y-73841060D01*
X64475680Y-73825820D01*
X64488380Y-73805500D01*
X64498540Y-73780100D01*
X64498540Y-73775020D01*
X64501080Y-73757240D01*
X64501080Y-73739460D01*
X64498540Y-73724220D01*
X64490920Y-73703900D01*
X64480760Y-73681040D01*
X64465520Y-73663260D01*
X64462980Y-73660720D01*
X64450280Y-73650560D01*
X64437580Y-73642940D01*
X64424880Y-73635320D01*
X64419800Y-73635320D01*
X64409640Y-73630240D01*
X64399480Y-73627700D01*
X64391860Y-73627700D01*
X64389320Y-73627700D01*
X64394400Y-73625160D01*
X64399480Y-73625160D01*
X64407100Y-73622620D01*
X64417260Y-73620080D01*
X64435040Y-73609920D01*
X64452820Y-73599760D01*
X64468060Y-73587060D01*
X64470600Y-73581980D01*
X64485840Y-73561660D01*
X64496000Y-73538800D01*
X64501080Y-73513400D01*
X64501080Y-73488000D01*
X64501080Y-73482920D01*
X64493460Y-73457520D01*
X64480760Y-73434660D01*
X64462980Y-73411800D01*
X64447740Y-73399100D01*
X64427420Y-73386400D01*
X64402020Y-73378780D01*
X64396940Y-73378780D01*
X64381700Y-73376240D01*
X64363920Y-73376240D01*
X64348680Y-73378780D01*
X64333440Y-73383860D01*
X64310580Y-73394020D01*
X64290260Y-73409260D01*
X64275020Y-73429580D01*
X64262320Y-73449900D01*
X64254700Y-73475300D01*
X64252160Y-73477840D01*
X64252160Y-73482920D01*
X64249620Y-73485460D01*
X64249620Y-73482920D01*
X64249620Y-73477840D01*
X64247080Y-73467680D01*
X64242000Y-73457520D01*
X64239460Y-73447360D01*
X64234380Y-73439740D01*
X64219140Y-73416880D01*
X64201360Y-73399100D01*
X64178500Y-73386400D01*
X64153100Y-73378780D01*
X64127700Y-73376240D01*
X64107380Y-73378780D01*
X64081980Y-73383860D01*
X64061660Y-73394020D01*
X64048960Y-73404180D01*
X64028640Y-73421960D01*
X64015940Y-73442280D01*
X64005780Y-73465140D01*
X64000700Y-73490540D01*
X64000700Y-73515940D01*
X64008320Y-73538800D01*
X64018480Y-73564200D01*
X64033720Y-73584520D01*
X64051500Y-73602300D01*
X64074360Y-73615000D01*
X64099760Y-73622620D01*
X64115000Y-73627700D01*
X64104840Y-73627700D01*
X64099760Y-73627700D01*
X64079440Y-73635320D01*
X64061660Y-73645480D01*
X64041340Y-73658180D01*
X64028640Y-73673420D01*
X64018480Y-73686120D01*
X64010860Y-73703900D01*
X64005780Y-73721680D01*
X64003240Y-73734380D01*
X64000700Y-73749620D01*
X64000700Y-73764860D01*
X64003240Y-73777560D01*
X64008320Y-73792800D01*
X64021020Y-73818200D01*
X64036260Y-73838520D01*
X64056580Y-73853760D01*
X64079440Y-73866460D01*
X64104840Y-73874080D01*
X64112460Y-73876620D01*
X64127700Y-73876620D01*
X64142940Y-73874080D01*
X64158180Y-73871540D01*
X64168340Y-73869000D01*
X64191200Y-73858840D01*
X64211520Y-73843600D01*
X64229300Y-73823280D01*
X64242000Y-73800420D01*
X64249620Y-73775020D01*
X64249620Y-73775020D01*
X64249620Y-73767400D01*
X64252160Y-73769940D01*
X64252160Y-73734380D01*
X64249620Y-73734380D01*
X64249620Y-73729300D01*
X64249620Y-73726760D01*
X64244540Y-73711520D01*
X64236920Y-73693740D01*
X64226760Y-73675960D01*
X64219140Y-73668340D01*
X64198820Y-73650560D01*
X64175960Y-73637860D01*
X64150560Y-73627700D01*
X64140400Y-73625160D01*
X64148020Y-73625160D01*
X64155640Y-73622620D01*
X64163260Y-73620080D01*
X64168340Y-73620080D01*
X64191200Y-73607380D01*
X64211520Y-73592140D01*
X64229300Y-73574360D01*
X64239460Y-73551500D01*
X64249620Y-73528640D01*
X64249620Y-73521020D01*
X64252160Y-73518480D01*
X64252160Y-73521020D01*
X64254700Y-73528640D01*
X64254700Y-73528640D01*
X64257240Y-73541340D01*
X64264860Y-73556580D01*
X64272480Y-73569280D01*
X64277560Y-73579440D01*
X64290260Y-73589600D01*
X64302960Y-73602300D01*
X64313120Y-73609920D01*
X64315660Y-73609920D01*
X64333440Y-73617540D01*
X64353760Y-73625160D01*
X64363920Y-73625160D01*
X64353760Y-73627700D01*
X64330900Y-73635320D01*
X64308040Y-73645480D01*
X64287720Y-73660720D01*
X64272480Y-73681040D01*
X64269940Y-73686120D01*
X64262320Y-73698820D01*
X64257240Y-73711520D01*
X64254700Y-73724220D01*
X64252160Y-73731840D01*
X64252160Y-73731840D01*
X64252160Y-73734380D01*
X64252160Y-73769940D01*
X64252160Y-73769940D01*
X64252160Y-73775020D01*
X64254700Y-73782640D01*
X64257240Y-73790260D01*
X64262320Y-73802960D01*
X64275020Y-73823280D01*
X64290260Y-73843600D01*
X64310580Y-73856300D01*
X64333440Y-73869000D01*
X64356300Y-73874080D01*
X64379160Y-73876620D01*
G36*
X65131000Y-73876620D02*
X65153860Y-73871540D01*
X65179260Y-73863920D01*
X65199580Y-73851220D01*
X65217360Y-73833440D01*
X65232600Y-73813120D01*
X65242760Y-73790260D01*
X65245300Y-73782640D01*
X65247840Y-73775020D01*
X65247840Y-73772480D01*
X65247840Y-73767400D01*
X65247840Y-73767400D01*
X65247840Y-73734380D01*
X65247840Y-73729300D01*
X65245300Y-73721680D01*
X65240220Y-73706440D01*
X65230060Y-73683580D01*
X65214820Y-73665800D01*
X65194500Y-73648020D01*
X65174180Y-73635320D01*
X65148780Y-73627700D01*
X65136080Y-73625160D01*
X65146240Y-73625160D01*
X65146240Y-73625160D01*
X65166560Y-73617540D01*
X65186880Y-73609920D01*
X65194500Y-73604840D01*
X65207200Y-73594680D01*
X65219900Y-73581980D01*
X65227520Y-73569280D01*
X65235140Y-73559120D01*
X65242760Y-73543880D01*
X65245300Y-73528640D01*
X65247840Y-73521020D01*
X65247840Y-73518480D01*
X65250380Y-73521020D01*
X65250380Y-73528640D01*
X65255460Y-73543880D01*
X65268160Y-73566740D01*
X65283400Y-73587060D01*
X65303720Y-73604840D01*
X65326580Y-73617540D01*
X65351980Y-73625160D01*
X65359600Y-73625160D01*
X65349440Y-73627700D01*
X65336740Y-73632780D01*
X65313880Y-73642940D01*
X65291020Y-73658180D01*
X65273240Y-73675960D01*
X65268160Y-73683580D01*
X65263080Y-73696280D01*
X65255460Y-73708980D01*
X65252920Y-73716600D01*
X65250380Y-73726760D01*
X65250380Y-73726760D01*
X65250380Y-73731840D01*
X65247840Y-73734380D01*
X65247840Y-73767400D01*
X65250380Y-73769940D01*
X65250380Y-73775020D01*
X65252920Y-73785180D01*
X65260540Y-73802960D01*
X65270700Y-73820740D01*
X65278320Y-73830900D01*
X65296100Y-73848680D01*
X65318960Y-73863920D01*
X65344360Y-73871540D01*
X65354520Y-73874080D01*
X65372300Y-73876620D01*
X65390080Y-73874080D01*
X65405320Y-73871540D01*
X65405320Y-73871540D01*
X65430720Y-73861380D01*
X65453580Y-73848680D01*
X65471360Y-73828360D01*
X65486600Y-73808040D01*
X65494220Y-73782640D01*
X65496760Y-73769940D01*
X65499300Y-73752160D01*
X65496760Y-73736920D01*
X65494220Y-73721680D01*
X65491680Y-73706440D01*
X65481520Y-73688660D01*
X65471360Y-73673420D01*
X65461200Y-73660720D01*
X65445960Y-73648020D01*
X65428180Y-73637860D01*
X65423100Y-73635320D01*
X65410400Y-73632780D01*
X65400240Y-73627700D01*
X65390080Y-73627700D01*
X65390080Y-73627700D01*
X65392620Y-73625160D01*
X65400240Y-73622620D01*
X65415480Y-73620080D01*
X65430720Y-73612460D01*
X65443420Y-73604840D01*
X65448500Y-73602300D01*
X65463740Y-73587060D01*
X65478980Y-73569280D01*
X65489140Y-73551500D01*
X65491680Y-73541340D01*
X65496760Y-73518480D01*
X65499300Y-73490540D01*
X65494220Y-73467680D01*
X65491680Y-73460060D01*
X65481520Y-73437200D01*
X65466280Y-73416880D01*
X65448500Y-73399100D01*
X65425640Y-73386400D01*
X65400240Y-73378780D01*
X65397700Y-73378780D01*
X65379920Y-73376240D01*
X65362140Y-73376240D01*
X65344360Y-73378780D01*
X65341820Y-73381320D01*
X65316420Y-73388940D01*
X65293560Y-73404180D01*
X65275780Y-73424500D01*
X65260540Y-73447360D01*
X65258000Y-73452440D01*
X65255460Y-73465140D01*
X65250380Y-73475300D01*
X65250380Y-73482920D01*
X65250380Y-73485460D01*
X65250380Y-73485460D01*
X65247840Y-73482920D01*
X65245300Y-73475300D01*
X65242760Y-73457520D01*
X65230060Y-73437200D01*
X65214820Y-73416880D01*
X65197040Y-73399100D01*
X65174180Y-73386400D01*
X65174180Y-73386400D01*
X65151320Y-73378780D01*
X65125920Y-73376240D01*
X65100520Y-73378780D01*
X65077660Y-73383860D01*
X65064960Y-73391480D01*
X65042100Y-73406720D01*
X65024320Y-73424500D01*
X65011620Y-73447360D01*
X65001460Y-73470220D01*
X65001460Y-73475300D01*
X64998920Y-73495620D01*
X64998920Y-73515940D01*
X65004000Y-73538800D01*
X65014160Y-73561660D01*
X65029400Y-73584520D01*
X65049720Y-73602300D01*
X65072580Y-73615000D01*
X65097980Y-73622620D01*
X65103060Y-73625160D01*
X65108140Y-73627700D01*
X65108140Y-73627700D01*
X65100520Y-73627700D01*
X65085280Y-73632780D01*
X65070040Y-73637860D01*
X65054800Y-73648020D01*
X65042100Y-73658180D01*
X65024320Y-73675960D01*
X65009080Y-73698820D01*
X65009080Y-73703900D01*
X65001460Y-73726760D01*
X64998920Y-73752160D01*
X65001460Y-73780100D01*
X65009080Y-73802960D01*
X65016700Y-73815660D01*
X65024320Y-73825820D01*
X65034480Y-73838520D01*
X65034480Y-73838520D01*
X65054800Y-73856300D01*
X65077660Y-73866460D01*
X65103060Y-73874080D01*
X65105600Y-73874080D01*
X65131000Y-73876620D01*
X65131000Y-73876620D01*
G37*
X65131000Y-73876620D02*
X65153860Y-73871540D01*
X65179260Y-73863920D01*
X65199580Y-73851220D01*
X65217360Y-73833440D01*
X65232600Y-73813120D01*
X65242760Y-73790260D01*
X65245300Y-73782640D01*
X65247840Y-73775020D01*
X65247840Y-73772480D01*
X65247840Y-73767400D01*
X65247840Y-73767400D01*
X65247840Y-73734380D01*
X65247840Y-73729300D01*
X65245300Y-73721680D01*
X65240220Y-73706440D01*
X65230060Y-73683580D01*
X65214820Y-73665800D01*
X65194500Y-73648020D01*
X65174180Y-73635320D01*
X65148780Y-73627700D01*
X65136080Y-73625160D01*
X65146240Y-73625160D01*
X65146240Y-73625160D01*
X65166560Y-73617540D01*
X65186880Y-73609920D01*
X65194500Y-73604840D01*
X65207200Y-73594680D01*
X65219900Y-73581980D01*
X65227520Y-73569280D01*
X65235140Y-73559120D01*
X65242760Y-73543880D01*
X65245300Y-73528640D01*
X65247840Y-73521020D01*
X65247840Y-73518480D01*
X65250380Y-73521020D01*
X65250380Y-73528640D01*
X65255460Y-73543880D01*
X65268160Y-73566740D01*
X65283400Y-73587060D01*
X65303720Y-73604840D01*
X65326580Y-73617540D01*
X65351980Y-73625160D01*
X65359600Y-73625160D01*
X65349440Y-73627700D01*
X65336740Y-73632780D01*
X65313880Y-73642940D01*
X65291020Y-73658180D01*
X65273240Y-73675960D01*
X65268160Y-73683580D01*
X65263080Y-73696280D01*
X65255460Y-73708980D01*
X65252920Y-73716600D01*
X65250380Y-73726760D01*
X65250380Y-73726760D01*
X65250380Y-73731840D01*
X65247840Y-73734380D01*
X65247840Y-73767400D01*
X65250380Y-73769940D01*
X65250380Y-73775020D01*
X65252920Y-73785180D01*
X65260540Y-73802960D01*
X65270700Y-73820740D01*
X65278320Y-73830900D01*
X65296100Y-73848680D01*
X65318960Y-73863920D01*
X65344360Y-73871540D01*
X65354520Y-73874080D01*
X65372300Y-73876620D01*
X65390080Y-73874080D01*
X65405320Y-73871540D01*
X65405320Y-73871540D01*
X65430720Y-73861380D01*
X65453580Y-73848680D01*
X65471360Y-73828360D01*
X65486600Y-73808040D01*
X65494220Y-73782640D01*
X65496760Y-73769940D01*
X65499300Y-73752160D01*
X65496760Y-73736920D01*
X65494220Y-73721680D01*
X65491680Y-73706440D01*
X65481520Y-73688660D01*
X65471360Y-73673420D01*
X65461200Y-73660720D01*
X65445960Y-73648020D01*
X65428180Y-73637860D01*
X65423100Y-73635320D01*
X65410400Y-73632780D01*
X65400240Y-73627700D01*
X65390080Y-73627700D01*
X65390080Y-73627700D01*
X65392620Y-73625160D01*
X65400240Y-73622620D01*
X65415480Y-73620080D01*
X65430720Y-73612460D01*
X65443420Y-73604840D01*
X65448500Y-73602300D01*
X65463740Y-73587060D01*
X65478980Y-73569280D01*
X65489140Y-73551500D01*
X65491680Y-73541340D01*
X65496760Y-73518480D01*
X65499300Y-73490540D01*
X65494220Y-73467680D01*
X65491680Y-73460060D01*
X65481520Y-73437200D01*
X65466280Y-73416880D01*
X65448500Y-73399100D01*
X65425640Y-73386400D01*
X65400240Y-73378780D01*
X65397700Y-73378780D01*
X65379920Y-73376240D01*
X65362140Y-73376240D01*
X65344360Y-73378780D01*
X65341820Y-73381320D01*
X65316420Y-73388940D01*
X65293560Y-73404180D01*
X65275780Y-73424500D01*
X65260540Y-73447360D01*
X65258000Y-73452440D01*
X65255460Y-73465140D01*
X65250380Y-73475300D01*
X65250380Y-73482920D01*
X65250380Y-73485460D01*
X65250380Y-73485460D01*
X65247840Y-73482920D01*
X65245300Y-73475300D01*
X65242760Y-73457520D01*
X65230060Y-73437200D01*
X65214820Y-73416880D01*
X65197040Y-73399100D01*
X65174180Y-73386400D01*
X65174180Y-73386400D01*
X65151320Y-73378780D01*
X65125920Y-73376240D01*
X65100520Y-73378780D01*
X65077660Y-73383860D01*
X65064960Y-73391480D01*
X65042100Y-73406720D01*
X65024320Y-73424500D01*
X65011620Y-73447360D01*
X65001460Y-73470220D01*
X65001460Y-73475300D01*
X64998920Y-73495620D01*
X64998920Y-73515940D01*
X65004000Y-73538800D01*
X65014160Y-73561660D01*
X65029400Y-73584520D01*
X65049720Y-73602300D01*
X65072580Y-73615000D01*
X65097980Y-73622620D01*
X65103060Y-73625160D01*
X65108140Y-73627700D01*
X65108140Y-73627700D01*
X65100520Y-73627700D01*
X65085280Y-73632780D01*
X65070040Y-73637860D01*
X65054800Y-73648020D01*
X65042100Y-73658180D01*
X65024320Y-73675960D01*
X65009080Y-73698820D01*
X65009080Y-73703900D01*
X65001460Y-73726760D01*
X64998920Y-73752160D01*
X65001460Y-73780100D01*
X65009080Y-73802960D01*
X65016700Y-73815660D01*
X65024320Y-73825820D01*
X65034480Y-73838520D01*
X65034480Y-73838520D01*
X65054800Y-73856300D01*
X65077660Y-73866460D01*
X65103060Y-73874080D01*
X65105600Y-73874080D01*
X65131000Y-73876620D01*
%LPC*%
D13*
X66950000Y-64250000D03*
X68220000Y-64250000D03*
X68780000Y-64250000D03*
X67500000Y-64250000D03*
X69490000Y-64250000D03*
X70050000Y-64250000D03*
X66950000Y-64250000D03*
X68220000Y-64250000D03*
X68780000Y-64250000D03*
X67500000Y-64250000D03*
X69490000Y-64250000D03*
X70050000Y-64250000D03*
D14*
X69490000Y-70500000D03*
X70050000Y-70500000D03*
D15*
X69770000Y-72495800D03*
D14*
X69490000Y-70500000D03*
X70050000Y-70500000D03*
X68220000Y-70500000D03*
X68780000Y-70500000D03*
D15*
X68500000Y-72495800D03*
D14*
X68220000Y-70500000D03*
X68780000Y-70500000D03*
X67510000Y-70500000D03*
X66950000Y-70500000D03*
D15*
X67230000Y-72495800D03*
D14*
X67510000Y-70500000D03*
X66950000Y-70500000D03*
D16*
X71040000Y-76730000D03*
D17*
X71040000Y-79270000D03*
X68500000Y-76730000D03*
X68500000Y-79270000D03*
X65960000Y-76730000D03*
X65960000Y-79270000D03*
D18*
G36*
X67660000Y-72950000D02*
X66800000Y-72950000D01*
X66800000Y-62550000D01*
X67660000Y-62550000D01*
X67660000Y-72950000D01*
X67660000Y-72950000D01*
G37*
X67660000Y-72950000D02*
X66800000Y-72950000D01*
X66800000Y-62550000D01*
X67660000Y-62550000D01*
X67660000Y-72950000D01*
G36*
X68930000Y-72950000D02*
X68070000Y-72950000D01*
X68070000Y-62550000D01*
X68930000Y-62550000D01*
X68930000Y-72950000D01*
X68930000Y-72950000D01*
G37*
X68930000Y-72950000D02*
X68070000Y-72950000D01*
X68070000Y-62550000D01*
X68930000Y-62550000D01*
X68930000Y-72950000D01*
G36*
X70200000Y-72950000D02*
X69340000Y-72950000D01*
X69340000Y-62550000D01*
X70200000Y-62550000D01*
X70200000Y-72950000D01*
X70200000Y-72950000D01*
G37*
X70200000Y-72950000D02*
X69340000Y-72950000D01*
X69340000Y-62550000D01*
X70200000Y-62550000D01*
X70200000Y-72950000D01*
M02*
