%FSLAX34Y34*%
G04 Gerber Fmt 3.4, Leading zero omitted, Abs format*
G04 (created by PCBNEW (2013-10-07 BZR 4378)-product) date Thu 10 Oct 2013 12:31:03 PM CEST*
%MOIN*%
G01*
G70*
G90*
G04 APERTURE LIST*
%ADD10C,0.005906*%
%ADD11C,0.009843*%
%ADD12C,0.000100*%
%ADD13C,0.007874*%
%ADD14R,0.015748X0.393701*%
%ADD15R,0.064961X0.064961*%
%ADD16C,0.064961*%
G04 APERTURE END LIST*
G54D10*
G54D11*
X26293Y-29054D02*
X26312Y-29035D01*
X26349Y-29016D01*
X26443Y-29016D01*
X26481Y-29035D01*
X26499Y-29054D01*
X26518Y-29091D01*
X26518Y-29129D01*
X26499Y-29185D01*
X26274Y-29410D01*
X26518Y-29410D01*
X26762Y-29016D02*
X26799Y-29016D01*
X26837Y-29035D01*
X26856Y-29054D01*
X26874Y-29091D01*
X26893Y-29166D01*
X26893Y-29260D01*
X26874Y-29335D01*
X26856Y-29372D01*
X26837Y-29391D01*
X26799Y-29410D01*
X26762Y-29410D01*
X26724Y-29391D01*
X26706Y-29372D01*
X26687Y-29335D01*
X26668Y-29260D01*
X26668Y-29166D01*
X26687Y-29091D01*
X26706Y-29054D01*
X26724Y-29035D01*
X26762Y-29016D01*
X27268Y-29410D02*
X27043Y-29410D01*
X27155Y-29410D02*
X27155Y-29016D01*
X27118Y-29072D01*
X27080Y-29110D01*
X27043Y-29129D01*
X27399Y-29016D02*
X27643Y-29016D01*
X27512Y-29166D01*
X27568Y-29166D01*
X27605Y-29185D01*
X27624Y-29204D01*
X27643Y-29241D01*
X27643Y-29335D01*
X27624Y-29372D01*
X27605Y-29391D01*
X27568Y-29410D01*
X27455Y-29410D01*
X27418Y-29391D01*
X27399Y-29372D01*
G54D12*
G36*
X28010Y-25648D02*
X28014Y-25646D01*
X28023Y-25640D01*
X28036Y-25632D01*
X28052Y-25621D01*
X28067Y-25611D01*
X28080Y-25602D01*
X28089Y-25596D01*
X28093Y-25594D01*
X28095Y-25595D01*
X28102Y-25599D01*
X28113Y-25604D01*
X28119Y-25607D01*
X28129Y-25612D01*
X28134Y-25613D01*
X28135Y-25611D01*
X28139Y-25604D01*
X28144Y-25591D01*
X28152Y-25574D01*
X28160Y-25554D01*
X28169Y-25532D01*
X28178Y-25510D01*
X28187Y-25489D01*
X28195Y-25470D01*
X28201Y-25455D01*
X28205Y-25444D01*
X28207Y-25440D01*
X28206Y-25439D01*
X28201Y-25434D01*
X28193Y-25428D01*
X28174Y-25412D01*
X28156Y-25389D01*
X28144Y-25363D01*
X28141Y-25334D01*
X28144Y-25308D01*
X28154Y-25283D01*
X28172Y-25259D01*
X28194Y-25242D01*
X28220Y-25231D01*
X28248Y-25228D01*
X28275Y-25231D01*
X28301Y-25241D01*
X28325Y-25259D01*
X28334Y-25270D01*
X28348Y-25294D01*
X28356Y-25318D01*
X28356Y-25324D01*
X28355Y-25352D01*
X28347Y-25379D01*
X28333Y-25402D01*
X28312Y-25422D01*
X28310Y-25424D01*
X28300Y-25431D01*
X28294Y-25435D01*
X28289Y-25439D01*
X28324Y-25524D01*
X28330Y-25538D01*
X28340Y-25561D01*
X28348Y-25581D01*
X28355Y-25597D01*
X28360Y-25607D01*
X28362Y-25612D01*
X28362Y-25612D01*
X28365Y-25612D01*
X28371Y-25610D01*
X28383Y-25604D01*
X28391Y-25600D01*
X28400Y-25596D01*
X28404Y-25594D01*
X28408Y-25596D01*
X28416Y-25602D01*
X28429Y-25610D01*
X28444Y-25620D01*
X28458Y-25630D01*
X28472Y-25639D01*
X28481Y-25645D01*
X28486Y-25648D01*
X28487Y-25648D01*
X28491Y-25645D01*
X28499Y-25639D01*
X28510Y-25628D01*
X28526Y-25612D01*
X28529Y-25610D01*
X28542Y-25596D01*
X28553Y-25584D01*
X28561Y-25576D01*
X28563Y-25573D01*
X28563Y-25573D01*
X28561Y-25568D01*
X28555Y-25558D01*
X28546Y-25545D01*
X28535Y-25529D01*
X28507Y-25488D01*
X28523Y-25450D01*
X28527Y-25438D01*
X28533Y-25424D01*
X28538Y-25414D01*
X28540Y-25409D01*
X28544Y-25408D01*
X28555Y-25405D01*
X28570Y-25402D01*
X28588Y-25399D01*
X28606Y-25395D01*
X28621Y-25392D01*
X28633Y-25390D01*
X28638Y-25389D01*
X28639Y-25388D01*
X28640Y-25386D01*
X28641Y-25381D01*
X28641Y-25371D01*
X28641Y-25356D01*
X28641Y-25334D01*
X28641Y-25332D01*
X28641Y-25311D01*
X28641Y-25295D01*
X28640Y-25285D01*
X28639Y-25281D01*
X28639Y-25281D01*
X28634Y-25279D01*
X28623Y-25277D01*
X28608Y-25274D01*
X28589Y-25270D01*
X28588Y-25270D01*
X28569Y-25267D01*
X28554Y-25263D01*
X28543Y-25261D01*
X28538Y-25259D01*
X28537Y-25258D01*
X28533Y-25251D01*
X28528Y-25239D01*
X28522Y-25225D01*
X28516Y-25211D01*
X28510Y-25197D01*
X28507Y-25188D01*
X28506Y-25183D01*
X28506Y-25183D01*
X28509Y-25179D01*
X28515Y-25169D01*
X28524Y-25156D01*
X28535Y-25140D01*
X28536Y-25138D01*
X28547Y-25123D01*
X28555Y-25109D01*
X28561Y-25100D01*
X28563Y-25096D01*
X28563Y-25095D01*
X28560Y-25091D01*
X28552Y-25082D01*
X28540Y-25070D01*
X28526Y-25056D01*
X28522Y-25052D01*
X28507Y-25037D01*
X28496Y-25027D01*
X28489Y-25022D01*
X28486Y-25020D01*
X28486Y-25021D01*
X28481Y-25023D01*
X28471Y-25030D01*
X28458Y-25039D01*
X28442Y-25050D01*
X28441Y-25051D01*
X28425Y-25061D01*
X28412Y-25070D01*
X28403Y-25076D01*
X28399Y-25079D01*
X28398Y-25079D01*
X28392Y-25077D01*
X28380Y-25073D01*
X28367Y-25068D01*
X28352Y-25062D01*
X28339Y-25056D01*
X28329Y-25052D01*
X28324Y-25049D01*
X28324Y-25049D01*
X28322Y-25043D01*
X28320Y-25031D01*
X28316Y-25015D01*
X28313Y-24996D01*
X28312Y-24993D01*
X28309Y-24974D01*
X28306Y-24959D01*
X28303Y-24948D01*
X28302Y-24943D01*
X28300Y-24943D01*
X28290Y-24942D01*
X28276Y-24942D01*
X28259Y-24942D01*
X28242Y-24942D01*
X28225Y-24942D01*
X28210Y-24943D01*
X28200Y-24943D01*
X28195Y-24944D01*
X28195Y-24945D01*
X28193Y-24950D01*
X28191Y-24962D01*
X28187Y-24978D01*
X28184Y-24998D01*
X28183Y-25001D01*
X28180Y-25020D01*
X28176Y-25035D01*
X28174Y-25046D01*
X28173Y-25050D01*
X28171Y-25051D01*
X28164Y-25054D01*
X28151Y-25059D01*
X28135Y-25066D01*
X28099Y-25080D01*
X28055Y-25050D01*
X28051Y-25047D01*
X28035Y-25036D01*
X28022Y-25028D01*
X28013Y-25022D01*
X28009Y-25020D01*
X28009Y-25020D01*
X28005Y-25024D01*
X27996Y-25032D01*
X27984Y-25044D01*
X27970Y-25057D01*
X27960Y-25068D01*
X27948Y-25080D01*
X27940Y-25088D01*
X27936Y-25094D01*
X27934Y-25097D01*
X27935Y-25099D01*
X27937Y-25104D01*
X27944Y-25113D01*
X27953Y-25127D01*
X27964Y-25142D01*
X27973Y-25156D01*
X27982Y-25170D01*
X27988Y-25181D01*
X27991Y-25186D01*
X27990Y-25188D01*
X27987Y-25197D01*
X27982Y-25210D01*
X27975Y-25226D01*
X27960Y-25261D01*
X27937Y-25265D01*
X27923Y-25268D01*
X27903Y-25271D01*
X27885Y-25275D01*
X27856Y-25281D01*
X27855Y-25386D01*
X27859Y-25388D01*
X27864Y-25390D01*
X27874Y-25392D01*
X27890Y-25395D01*
X27908Y-25398D01*
X27923Y-25401D01*
X27939Y-25404D01*
X27950Y-25406D01*
X27955Y-25407D01*
X27956Y-25409D01*
X27960Y-25417D01*
X27966Y-25429D01*
X27972Y-25443D01*
X27978Y-25458D01*
X27983Y-25472D01*
X27987Y-25482D01*
X27989Y-25488D01*
X27987Y-25492D01*
X27981Y-25501D01*
X27972Y-25514D01*
X27962Y-25529D01*
X27951Y-25545D01*
X27942Y-25558D01*
X27936Y-25568D01*
X27933Y-25572D01*
X27935Y-25575D01*
X27941Y-25582D01*
X27952Y-25594D01*
X27970Y-25612D01*
X27973Y-25614D01*
X27986Y-25628D01*
X27998Y-25638D01*
X28006Y-25646D01*
X28010Y-25648D01*
X28010Y-25648D01*
G37*
G36*
X25836Y-25639D02*
X25846Y-25638D01*
X25855Y-25635D01*
X25859Y-25633D01*
X25868Y-25627D01*
X25874Y-25620D01*
X25879Y-25611D01*
X25883Y-25602D01*
X25884Y-25593D01*
X25884Y-25583D01*
X25882Y-25573D01*
X25877Y-25564D01*
X25874Y-25560D01*
X25870Y-25556D01*
X25866Y-25551D01*
X25862Y-25548D01*
X25860Y-25547D01*
X25852Y-25543D01*
X25843Y-25541D01*
X25833Y-25541D01*
X25830Y-25541D01*
X25824Y-25542D01*
X25820Y-25543D01*
X25814Y-25545D01*
X25809Y-25548D01*
X25801Y-25555D01*
X25794Y-25563D01*
X25789Y-25572D01*
X25788Y-25576D01*
X25787Y-25581D01*
X25786Y-25584D01*
X25786Y-25585D01*
X25786Y-25585D01*
X25786Y-25583D01*
X25786Y-25583D01*
X25784Y-25576D01*
X25782Y-25570D01*
X25779Y-25564D01*
X25773Y-25557D01*
X25766Y-25550D01*
X25757Y-25545D01*
X25747Y-25542D01*
X25737Y-25541D01*
X25734Y-25541D01*
X25727Y-25542D01*
X25719Y-25544D01*
X25718Y-25544D01*
X25709Y-25549D01*
X25702Y-25555D01*
X25696Y-25563D01*
X25691Y-25571D01*
X25689Y-25580D01*
X25688Y-25580D01*
X25688Y-25582D01*
X25688Y-25583D01*
X25688Y-25583D01*
X25688Y-25582D01*
X25687Y-25580D01*
X25687Y-25579D01*
X25684Y-25570D01*
X25680Y-25562D01*
X25673Y-25554D01*
X25667Y-25549D01*
X25659Y-25545D01*
X25649Y-25542D01*
X25639Y-25541D01*
X25632Y-25541D01*
X25622Y-25544D01*
X25613Y-25548D01*
X25605Y-25554D01*
X25599Y-25562D01*
X25598Y-25563D01*
X25596Y-25567D01*
X25594Y-25570D01*
X25593Y-25572D01*
X25592Y-25577D01*
X25591Y-25581D01*
X25590Y-25584D01*
X25590Y-25585D01*
X25590Y-25585D01*
X25590Y-25583D01*
X25589Y-25577D01*
X25586Y-25571D01*
X25583Y-25565D01*
X25577Y-25557D01*
X25570Y-25550D01*
X25561Y-25545D01*
X25551Y-25542D01*
X25541Y-25541D01*
X25532Y-25541D01*
X25522Y-25544D01*
X25514Y-25549D01*
X25506Y-25556D01*
X25502Y-25560D01*
X25498Y-25565D01*
X25495Y-25572D01*
X25493Y-25577D01*
X25492Y-25587D01*
X25492Y-25596D01*
X25494Y-25605D01*
X25498Y-25614D01*
X25503Y-25622D01*
X25510Y-25628D01*
X25518Y-25634D01*
X25527Y-25637D01*
X25537Y-25639D01*
X25538Y-25639D01*
X25548Y-25639D01*
X25557Y-25636D01*
X25566Y-25632D01*
X25570Y-25630D01*
X25576Y-25624D01*
X25582Y-25617D01*
X25586Y-25610D01*
X25587Y-25607D01*
X25588Y-25603D01*
X25589Y-25598D01*
X25590Y-25595D01*
X25590Y-25593D01*
X25590Y-25595D01*
X25590Y-25597D01*
X25591Y-25601D01*
X25593Y-25606D01*
X25594Y-25610D01*
X25597Y-25615D01*
X25603Y-25623D01*
X25610Y-25629D01*
X25619Y-25635D01*
X25629Y-25638D01*
X25630Y-25638D01*
X25637Y-25639D01*
X25644Y-25639D01*
X25651Y-25638D01*
X25657Y-25636D01*
X25666Y-25631D01*
X25675Y-25624D01*
X25675Y-25624D01*
X25681Y-25617D01*
X25685Y-25608D01*
X25687Y-25600D01*
X25688Y-25600D01*
X25688Y-25597D01*
X25688Y-25596D01*
X25688Y-25597D01*
X25688Y-25599D01*
X25688Y-25600D01*
X25690Y-25605D01*
X25692Y-25610D01*
X25695Y-25616D01*
X25699Y-25622D01*
X25707Y-25629D01*
X25715Y-25634D01*
X25725Y-25638D01*
X25727Y-25638D01*
X25733Y-25639D01*
X25741Y-25639D01*
X25747Y-25638D01*
X25752Y-25636D01*
X25762Y-25632D01*
X25770Y-25626D01*
X25777Y-25619D01*
X25782Y-25610D01*
X25783Y-25607D01*
X25784Y-25603D01*
X25785Y-25598D01*
X25786Y-25595D01*
X25786Y-25595D01*
X25786Y-25595D01*
X25786Y-25597D01*
X25786Y-25597D01*
X25788Y-25603D01*
X25790Y-25610D01*
X25793Y-25615D01*
X25794Y-25617D01*
X25801Y-25625D01*
X25809Y-25631D01*
X25817Y-25636D01*
X25826Y-25638D01*
X25836Y-25639D01*
X25836Y-25639D01*
G37*
G36*
X25439Y-25541D02*
X25445Y-25540D01*
X25451Y-25540D01*
X25458Y-25538D01*
X25467Y-25534D01*
X25475Y-25528D01*
X25482Y-25521D01*
X25487Y-25512D01*
X25490Y-25503D01*
X25492Y-25493D01*
X25491Y-25483D01*
X25488Y-25474D01*
X25484Y-25465D01*
X25478Y-25457D01*
X25470Y-25450D01*
X25467Y-25449D01*
X25458Y-25445D01*
X25448Y-25442D01*
X25438Y-25442D01*
X25428Y-25444D01*
X25420Y-25448D01*
X25411Y-25453D01*
X25404Y-25461D01*
X25398Y-25469D01*
X25395Y-25479D01*
X25394Y-25484D01*
X25393Y-25491D01*
X25393Y-25497D01*
X25394Y-25502D01*
X25395Y-25504D01*
X25399Y-25514D01*
X25404Y-25523D01*
X25412Y-25530D01*
X25421Y-25536D01*
X25425Y-25537D01*
X25431Y-25539D01*
X25436Y-25540D01*
X25439Y-25541D01*
X25439Y-25541D01*
G37*
G36*
X25935Y-25541D02*
X25945Y-25539D01*
X25955Y-25536D01*
X25964Y-25530D01*
X25966Y-25529D01*
X25972Y-25522D01*
X25978Y-25513D01*
X25981Y-25503D01*
X25982Y-25498D01*
X25983Y-25492D01*
X25983Y-25486D01*
X25982Y-25481D01*
X25981Y-25478D01*
X25977Y-25468D01*
X25972Y-25460D01*
X25964Y-25453D01*
X25956Y-25448D01*
X25947Y-25444D01*
X25936Y-25442D01*
X25933Y-25442D01*
X25923Y-25443D01*
X25913Y-25446D01*
X25905Y-25451D01*
X25898Y-25458D01*
X25892Y-25465D01*
X25888Y-25474D01*
X25885Y-25483D01*
X25885Y-25494D01*
X25885Y-25500D01*
X25886Y-25505D01*
X25888Y-25511D01*
X25892Y-25518D01*
X25899Y-25526D01*
X25906Y-25532D01*
X25915Y-25537D01*
X25925Y-25540D01*
X25935Y-25541D01*
X25935Y-25541D01*
G37*
G36*
X25341Y-25442D02*
X25348Y-25442D01*
X25354Y-25441D01*
X25361Y-25439D01*
X25370Y-25434D01*
X25379Y-25428D01*
X25384Y-25422D01*
X25389Y-25413D01*
X25392Y-25403D01*
X25393Y-25400D01*
X25393Y-25394D01*
X25393Y-25388D01*
X25392Y-25383D01*
X25391Y-25380D01*
X25388Y-25370D01*
X25382Y-25362D01*
X25375Y-25354D01*
X25366Y-25349D01*
X25362Y-25347D01*
X25356Y-25345D01*
X25350Y-25344D01*
X25342Y-25344D01*
X25338Y-25344D01*
X25332Y-25345D01*
X25327Y-25346D01*
X25322Y-25349D01*
X25319Y-25351D01*
X25311Y-25357D01*
X25304Y-25364D01*
X25299Y-25373D01*
X25296Y-25383D01*
X25295Y-25386D01*
X25295Y-25391D01*
X25295Y-25397D01*
X25296Y-25403D01*
X25296Y-25406D01*
X25300Y-25416D01*
X25306Y-25424D01*
X25313Y-25431D01*
X25322Y-25437D01*
X25332Y-25441D01*
X25335Y-25441D01*
X25341Y-25442D01*
X25341Y-25442D01*
G37*
G36*
X25736Y-25442D02*
X25745Y-25441D01*
X25755Y-25439D01*
X25760Y-25436D01*
X25769Y-25430D01*
X25776Y-25423D01*
X25781Y-25414D01*
X25784Y-25405D01*
X25785Y-25403D01*
X25786Y-25395D01*
X25786Y-25387D01*
X25784Y-25379D01*
X25780Y-25369D01*
X25774Y-25361D01*
X25767Y-25354D01*
X25758Y-25349D01*
X25748Y-25345D01*
X25742Y-25343D01*
X25745Y-25343D01*
X25746Y-25343D01*
X25753Y-25341D01*
X25760Y-25338D01*
X25767Y-25333D01*
X25768Y-25332D01*
X25775Y-25325D01*
X25781Y-25317D01*
X25784Y-25308D01*
X25786Y-25298D01*
X25786Y-25289D01*
X25783Y-25280D01*
X25779Y-25270D01*
X25779Y-25270D01*
X25773Y-25262D01*
X25765Y-25255D01*
X25757Y-25251D01*
X25748Y-25248D01*
X25739Y-25246D01*
X25729Y-25247D01*
X25720Y-25249D01*
X25711Y-25254D01*
X25703Y-25260D01*
X25699Y-25264D01*
X25694Y-25272D01*
X25690Y-25279D01*
X25688Y-25287D01*
X25688Y-25288D01*
X25688Y-25289D01*
X25688Y-25289D01*
X25688Y-25287D01*
X25686Y-25280D01*
X25683Y-25273D01*
X25679Y-25266D01*
X25676Y-25263D01*
X25669Y-25256D01*
X25660Y-25251D01*
X25651Y-25248D01*
X25641Y-25246D01*
X25631Y-25247D01*
X25625Y-25248D01*
X25615Y-25252D01*
X25607Y-25258D01*
X25600Y-25265D01*
X25595Y-25274D01*
X25591Y-25284D01*
X25591Y-25289D01*
X25590Y-25298D01*
X25592Y-25308D01*
X25595Y-25317D01*
X25601Y-25325D01*
X25608Y-25332D01*
X25617Y-25338D01*
X25621Y-25340D01*
X25625Y-25342D01*
X25629Y-25343D01*
X25633Y-25343D01*
X25633Y-25343D01*
X25633Y-25344D01*
X25631Y-25344D01*
X25626Y-25346D01*
X25619Y-25348D01*
X25614Y-25351D01*
X25611Y-25353D01*
X25604Y-25359D01*
X25598Y-25366D01*
X25594Y-25373D01*
X25591Y-25381D01*
X25590Y-25390D01*
X25590Y-25399D01*
X25591Y-25400D01*
X25593Y-25411D01*
X25598Y-25420D01*
X25605Y-25428D01*
X25610Y-25433D01*
X25619Y-25438D01*
X25629Y-25441D01*
X25632Y-25442D01*
X25638Y-25442D01*
X25643Y-25442D01*
X25649Y-25441D01*
X25653Y-25440D01*
X25656Y-25439D01*
X25665Y-25435D01*
X25674Y-25428D01*
X25680Y-25420D01*
X25683Y-25416D01*
X25686Y-25410D01*
X25687Y-25403D01*
X25688Y-25403D01*
X25688Y-25400D01*
X25688Y-25399D01*
X25688Y-25399D01*
X25688Y-25386D01*
X25688Y-25386D01*
X25688Y-25385D01*
X25687Y-25383D01*
X25687Y-25382D01*
X25684Y-25373D01*
X25680Y-25365D01*
X25673Y-25358D01*
X25666Y-25352D01*
X25658Y-25347D01*
X25657Y-25347D01*
X25653Y-25346D01*
X25649Y-25345D01*
X25644Y-25344D01*
X25648Y-25343D01*
X25654Y-25341D01*
X25663Y-25338D01*
X25671Y-25332D01*
X25678Y-25325D01*
X25683Y-25317D01*
X25685Y-25313D01*
X25687Y-25308D01*
X25688Y-25303D01*
X25688Y-25302D01*
X25688Y-25301D01*
X25688Y-25301D01*
X25688Y-25303D01*
X25689Y-25307D01*
X25691Y-25312D01*
X25693Y-25317D01*
X25696Y-25322D01*
X25702Y-25330D01*
X25710Y-25336D01*
X25719Y-25340D01*
X25728Y-25343D01*
X25732Y-25344D01*
X25728Y-25345D01*
X25727Y-25345D01*
X25723Y-25346D01*
X25718Y-25347D01*
X25718Y-25348D01*
X25709Y-25352D01*
X25702Y-25358D01*
X25696Y-25366D01*
X25691Y-25374D01*
X25689Y-25383D01*
X25688Y-25383D01*
X25688Y-25385D01*
X25688Y-25386D01*
X25688Y-25399D01*
X25688Y-25399D01*
X25688Y-25401D01*
X25689Y-25403D01*
X25690Y-25410D01*
X25694Y-25418D01*
X25700Y-25426D01*
X25708Y-25433D01*
X25716Y-25438D01*
X25716Y-25438D01*
X25726Y-25441D01*
X25736Y-25442D01*
X25736Y-25442D01*
G37*
G36*
X26028Y-25442D02*
X26036Y-25442D01*
X26044Y-25441D01*
X26048Y-25439D01*
X26058Y-25435D01*
X26066Y-25429D01*
X26072Y-25422D01*
X26077Y-25413D01*
X26080Y-25403D01*
X26081Y-25393D01*
X26081Y-25389D01*
X26079Y-25379D01*
X26075Y-25369D01*
X26069Y-25360D01*
X26067Y-25359D01*
X26060Y-25353D01*
X26052Y-25348D01*
X26044Y-25345D01*
X26043Y-25345D01*
X26036Y-25344D01*
X26028Y-25344D01*
X26021Y-25345D01*
X26018Y-25346D01*
X26009Y-25350D01*
X26000Y-25355D01*
X25994Y-25362D01*
X25988Y-25370D01*
X25985Y-25379D01*
X25983Y-25389D01*
X25983Y-25399D01*
X25985Y-25409D01*
X25989Y-25416D01*
X25994Y-25424D01*
X26002Y-25432D01*
X26010Y-25437D01*
X26020Y-25441D01*
X26021Y-25441D01*
X26028Y-25442D01*
X26028Y-25442D01*
G37*
G36*
X25542Y-25148D02*
X25552Y-25147D01*
X25562Y-25143D01*
X25566Y-25141D01*
X25570Y-25138D01*
X25575Y-25134D01*
X25580Y-25128D01*
X25585Y-25120D01*
X25589Y-25110D01*
X25589Y-25108D01*
X25590Y-25101D01*
X25590Y-25094D01*
X25589Y-25088D01*
X25586Y-25080D01*
X25582Y-25071D01*
X25576Y-25064D01*
X25575Y-25063D01*
X25570Y-25059D01*
X25565Y-25056D01*
X25560Y-25053D01*
X25558Y-25053D01*
X25554Y-25051D01*
X25550Y-25050D01*
X25547Y-25050D01*
X25546Y-25050D01*
X25548Y-25049D01*
X25550Y-25049D01*
X25553Y-25048D01*
X25557Y-25047D01*
X25564Y-25043D01*
X25571Y-25039D01*
X25577Y-25034D01*
X25578Y-25032D01*
X25584Y-25024D01*
X25588Y-25015D01*
X25590Y-25005D01*
X25590Y-24995D01*
X25590Y-24993D01*
X25587Y-24983D01*
X25582Y-24974D01*
X25575Y-24965D01*
X25569Y-24960D01*
X25561Y-24955D01*
X25551Y-24952D01*
X25549Y-24952D01*
X25543Y-24951D01*
X25536Y-24951D01*
X25530Y-24952D01*
X25524Y-24954D01*
X25515Y-24958D01*
X25507Y-24964D01*
X25501Y-24972D01*
X25496Y-24980D01*
X25493Y-24990D01*
X25492Y-24991D01*
X25492Y-24993D01*
X25491Y-24994D01*
X25491Y-24993D01*
X25491Y-24991D01*
X25490Y-24987D01*
X25488Y-24983D01*
X25487Y-24979D01*
X25485Y-24976D01*
X25479Y-24967D01*
X25472Y-24960D01*
X25463Y-24955D01*
X25453Y-24952D01*
X25443Y-24951D01*
X25435Y-24952D01*
X25425Y-24954D01*
X25417Y-24958D01*
X25412Y-24962D01*
X25404Y-24969D01*
X25399Y-24977D01*
X25395Y-24986D01*
X25393Y-24996D01*
X25393Y-25006D01*
X25396Y-25015D01*
X25400Y-25025D01*
X25406Y-25033D01*
X25413Y-25040D01*
X25422Y-25045D01*
X25432Y-25048D01*
X25438Y-25050D01*
X25434Y-25050D01*
X25432Y-25050D01*
X25424Y-25053D01*
X25417Y-25057D01*
X25409Y-25062D01*
X25404Y-25068D01*
X25400Y-25073D01*
X25397Y-25080D01*
X25395Y-25087D01*
X25394Y-25092D01*
X25393Y-25098D01*
X25393Y-25104D01*
X25394Y-25109D01*
X25396Y-25115D01*
X25401Y-25125D01*
X25407Y-25133D01*
X25415Y-25139D01*
X25424Y-25144D01*
X25434Y-25147D01*
X25437Y-25148D01*
X25443Y-25148D01*
X25449Y-25147D01*
X25455Y-25146D01*
X25459Y-25145D01*
X25468Y-25141D01*
X25476Y-25135D01*
X25483Y-25127D01*
X25488Y-25118D01*
X25491Y-25108D01*
X25491Y-25108D01*
X25491Y-25105D01*
X25492Y-25106D01*
X25492Y-25092D01*
X25491Y-25092D01*
X25491Y-25090D01*
X25491Y-25089D01*
X25489Y-25083D01*
X25486Y-25076D01*
X25482Y-25069D01*
X25479Y-25066D01*
X25471Y-25059D01*
X25462Y-25054D01*
X25452Y-25050D01*
X25448Y-25049D01*
X25451Y-25049D01*
X25454Y-25048D01*
X25457Y-25047D01*
X25459Y-25047D01*
X25468Y-25042D01*
X25476Y-25036D01*
X25483Y-25029D01*
X25487Y-25020D01*
X25491Y-25011D01*
X25491Y-25008D01*
X25492Y-25007D01*
X25492Y-25008D01*
X25493Y-25011D01*
X25493Y-25011D01*
X25494Y-25016D01*
X25497Y-25022D01*
X25500Y-25027D01*
X25502Y-25031D01*
X25507Y-25035D01*
X25512Y-25040D01*
X25516Y-25043D01*
X25517Y-25043D01*
X25524Y-25046D01*
X25532Y-25049D01*
X25536Y-25049D01*
X25532Y-25050D01*
X25523Y-25053D01*
X25514Y-25057D01*
X25506Y-25063D01*
X25500Y-25071D01*
X25499Y-25073D01*
X25496Y-25078D01*
X25494Y-25083D01*
X25493Y-25088D01*
X25492Y-25091D01*
X25492Y-25091D01*
X25492Y-25092D01*
X25492Y-25106D01*
X25492Y-25106D01*
X25492Y-25108D01*
X25493Y-25111D01*
X25494Y-25114D01*
X25496Y-25119D01*
X25501Y-25127D01*
X25507Y-25135D01*
X25515Y-25140D01*
X25524Y-25145D01*
X25533Y-25147D01*
X25542Y-25148D01*
X25542Y-25148D01*
G37*
G36*
X25838Y-25148D02*
X25847Y-25146D01*
X25857Y-25143D01*
X25865Y-25138D01*
X25872Y-25131D01*
X25878Y-25123D01*
X25882Y-25114D01*
X25883Y-25111D01*
X25884Y-25108D01*
X25884Y-25107D01*
X25884Y-25105D01*
X25884Y-25105D01*
X25884Y-25092D01*
X25884Y-25090D01*
X25883Y-25087D01*
X25881Y-25081D01*
X25877Y-25072D01*
X25871Y-25065D01*
X25863Y-25058D01*
X25855Y-25053D01*
X25845Y-25050D01*
X25840Y-25049D01*
X25844Y-25049D01*
X25844Y-25049D01*
X25852Y-25046D01*
X25860Y-25043D01*
X25863Y-25041D01*
X25868Y-25037D01*
X25873Y-25032D01*
X25876Y-25027D01*
X25879Y-25023D01*
X25882Y-25017D01*
X25883Y-25011D01*
X25884Y-25008D01*
X25884Y-25007D01*
X25885Y-25008D01*
X25885Y-25011D01*
X25887Y-25017D01*
X25892Y-25026D01*
X25898Y-25034D01*
X25906Y-25041D01*
X25915Y-25046D01*
X25925Y-25049D01*
X25928Y-25049D01*
X25924Y-25050D01*
X25919Y-25052D01*
X25910Y-25056D01*
X25901Y-25062D01*
X25894Y-25069D01*
X25892Y-25072D01*
X25890Y-25077D01*
X25887Y-25082D01*
X25886Y-25085D01*
X25885Y-25089D01*
X25885Y-25089D01*
X25885Y-25091D01*
X25884Y-25092D01*
X25884Y-25105D01*
X25885Y-25106D01*
X25885Y-25108D01*
X25886Y-25112D01*
X25889Y-25119D01*
X25893Y-25126D01*
X25896Y-25130D01*
X25903Y-25137D01*
X25912Y-25143D01*
X25922Y-25146D01*
X25926Y-25147D01*
X25933Y-25148D01*
X25940Y-25147D01*
X25946Y-25146D01*
X25946Y-25146D01*
X25956Y-25142D01*
X25965Y-25137D01*
X25972Y-25129D01*
X25978Y-25121D01*
X25981Y-25111D01*
X25982Y-25106D01*
X25983Y-25099D01*
X25982Y-25093D01*
X25981Y-25087D01*
X25980Y-25081D01*
X25976Y-25074D01*
X25972Y-25068D01*
X25968Y-25063D01*
X25962Y-25058D01*
X25955Y-25054D01*
X25953Y-25053D01*
X25948Y-25052D01*
X25944Y-25050D01*
X25940Y-25050D01*
X25940Y-25050D01*
X25941Y-25049D01*
X25944Y-25048D01*
X25950Y-25047D01*
X25956Y-25044D01*
X25961Y-25041D01*
X25963Y-25040D01*
X25969Y-25034D01*
X25975Y-25027D01*
X25979Y-25020D01*
X25980Y-25016D01*
X25982Y-25007D01*
X25983Y-24996D01*
X25981Y-24987D01*
X25980Y-24984D01*
X25976Y-24975D01*
X25970Y-24967D01*
X25963Y-24960D01*
X25954Y-24955D01*
X25944Y-24952D01*
X25943Y-24952D01*
X25936Y-24951D01*
X25929Y-24951D01*
X25922Y-24952D01*
X25921Y-24953D01*
X25911Y-24956D01*
X25902Y-24962D01*
X25895Y-24970D01*
X25889Y-24979D01*
X25888Y-24981D01*
X25887Y-24986D01*
X25885Y-24990D01*
X25885Y-24993D01*
X25885Y-24994D01*
X25885Y-24994D01*
X25884Y-24993D01*
X25883Y-24990D01*
X25882Y-24983D01*
X25877Y-24975D01*
X25871Y-24967D01*
X25864Y-24960D01*
X25855Y-24955D01*
X25855Y-24955D01*
X25846Y-24952D01*
X25836Y-24951D01*
X25826Y-24952D01*
X25817Y-24954D01*
X25812Y-24957D01*
X25803Y-24963D01*
X25796Y-24970D01*
X25791Y-24979D01*
X25787Y-24988D01*
X25787Y-24990D01*
X25786Y-24998D01*
X25786Y-25006D01*
X25788Y-25015D01*
X25792Y-25024D01*
X25798Y-25033D01*
X25806Y-25040D01*
X25815Y-25045D01*
X25825Y-25048D01*
X25827Y-25049D01*
X25829Y-25050D01*
X25829Y-25050D01*
X25826Y-25050D01*
X25820Y-25052D01*
X25814Y-25054D01*
X25808Y-25058D01*
X25803Y-25062D01*
X25796Y-25069D01*
X25790Y-25078D01*
X25790Y-25080D01*
X25787Y-25089D01*
X25786Y-25099D01*
X25787Y-25110D01*
X25790Y-25119D01*
X25793Y-25124D01*
X25796Y-25128D01*
X25800Y-25133D01*
X25800Y-25133D01*
X25808Y-25140D01*
X25817Y-25144D01*
X25827Y-25147D01*
X25828Y-25147D01*
X25838Y-25148D01*
X25838Y-25148D01*
G37*
G54D13*
X28622Y-29566D02*
X27992Y-29566D01*
X28622Y-29566D02*
X28622Y-30196D01*
X25468Y-29708D02*
X28468Y-29708D01*
X28468Y-31708D02*
X25468Y-31708D01*
X25468Y-31708D02*
X25468Y-29708D01*
X28468Y-29708D02*
X28468Y-31708D01*
%LPC*%
G54D14*
X26358Y-26771D03*
X27362Y-26771D03*
X27578Y-26771D03*
X26858Y-26771D03*
X27078Y-26771D03*
X26578Y-26771D03*
G54D15*
X27968Y-30208D03*
G54D16*
X27968Y-31208D03*
X26968Y-30208D03*
X26968Y-31208D03*
X25968Y-30208D03*
X25968Y-31208D03*
M02*
