G04 (created by PCBNEW (2013-09-28 BZR 4356)-product) date Sun 29 Sep 2013 08:59:37 AM CEST*
%MOIN*%
G04 Gerber Fmt 3.4, Leading zero omitted, Abs format*
%FSLAX34Y34*%
G01*
G70*
G90*
G04 APERTURE LIST*
%ADD10C,0.005906*%
%ADD11C,0.007874*%
%ADD12C,0.078740*%
%ADD13C,0.040000*%
%ADD14C,0.019685*%
%ADD15R,0.041339X0.059055*%
%ADD16O,0.041339X0.059055*%
%ADD17R,0.064961X0.064961*%
%ADD18C,0.064961*%
%ADD19C,0.008000*%
G04 APERTURE END LIST*
G54D10*
G54D11*
X25504Y-34773D02*
X25534Y-34788D01*
X25594Y-34788D01*
X25624Y-34773D01*
X25639Y-34743D01*
X25639Y-34728D01*
X25624Y-34698D01*
X25594Y-34683D01*
X25549Y-34683D01*
X25519Y-34668D01*
X25504Y-34638D01*
X25504Y-34623D01*
X25519Y-34593D01*
X25549Y-34578D01*
X25594Y-34578D01*
X25624Y-34593D01*
X25729Y-34578D02*
X25849Y-34578D01*
X25774Y-34473D02*
X25774Y-34743D01*
X25789Y-34773D01*
X25819Y-34788D01*
X25849Y-34788D01*
X26089Y-34788D02*
X26089Y-34623D01*
X26074Y-34593D01*
X26044Y-34578D01*
X25984Y-34578D01*
X25954Y-34593D01*
X26089Y-34773D02*
X26059Y-34788D01*
X25984Y-34788D01*
X25954Y-34773D01*
X25939Y-34743D01*
X25939Y-34713D01*
X25954Y-34683D01*
X25984Y-34668D01*
X26059Y-34668D01*
X26089Y-34653D01*
X26374Y-34773D02*
X26344Y-34788D01*
X26284Y-34788D01*
X26254Y-34773D01*
X26239Y-34758D01*
X26224Y-34728D01*
X26224Y-34638D01*
X26239Y-34608D01*
X26254Y-34593D01*
X26284Y-34578D01*
X26344Y-34578D01*
X26374Y-34593D01*
X26508Y-34788D02*
X26508Y-34473D01*
X26538Y-34668D02*
X26628Y-34788D01*
X26628Y-34578D02*
X26508Y-34698D01*
X27003Y-34668D02*
X27243Y-34668D01*
X27123Y-34788D02*
X27123Y-34548D01*
X27768Y-34578D02*
X27768Y-34833D01*
X27753Y-34863D01*
X27738Y-34878D01*
X27708Y-34893D01*
X27663Y-34893D01*
X27633Y-34878D01*
X27768Y-34773D02*
X27738Y-34788D01*
X27678Y-34788D01*
X27648Y-34773D01*
X27633Y-34758D01*
X27618Y-34728D01*
X27618Y-34638D01*
X27633Y-34608D01*
X27648Y-34593D01*
X27678Y-34578D01*
X27738Y-34578D01*
X27768Y-34593D01*
X27963Y-34788D02*
X27933Y-34773D01*
X27918Y-34743D01*
X27918Y-34473D01*
X28218Y-34578D02*
X28218Y-34788D01*
X28083Y-34578D02*
X28083Y-34743D01*
X28098Y-34773D01*
X28128Y-34788D01*
X28173Y-34788D01*
X28203Y-34773D01*
X28218Y-34758D01*
X28488Y-34773D02*
X28458Y-34788D01*
X28398Y-34788D01*
X28368Y-34773D01*
X28353Y-34743D01*
X28353Y-34623D01*
X28368Y-34593D01*
X28398Y-34578D01*
X28458Y-34578D01*
X28488Y-34593D01*
X28503Y-34623D01*
X28503Y-34653D01*
X28353Y-34683D01*
X25504Y-25206D02*
X25534Y-25221D01*
X25594Y-25221D01*
X25624Y-25206D01*
X25639Y-25176D01*
X25639Y-25161D01*
X25624Y-25131D01*
X25594Y-25116D01*
X25549Y-25116D01*
X25519Y-25101D01*
X25504Y-25071D01*
X25504Y-25056D01*
X25519Y-25026D01*
X25549Y-25011D01*
X25594Y-25011D01*
X25624Y-25026D01*
X25729Y-25011D02*
X25849Y-25011D01*
X25774Y-24906D02*
X25774Y-25176D01*
X25789Y-25206D01*
X25819Y-25221D01*
X25849Y-25221D01*
X26089Y-25221D02*
X26089Y-25056D01*
X26074Y-25026D01*
X26044Y-25011D01*
X25984Y-25011D01*
X25954Y-25026D01*
X26089Y-25206D02*
X26059Y-25221D01*
X25984Y-25221D01*
X25954Y-25206D01*
X25939Y-25176D01*
X25939Y-25146D01*
X25954Y-25116D01*
X25984Y-25101D01*
X26059Y-25101D01*
X26089Y-25086D01*
X26374Y-25206D02*
X26344Y-25221D01*
X26284Y-25221D01*
X26254Y-25206D01*
X26239Y-25191D01*
X26224Y-25161D01*
X26224Y-25071D01*
X26239Y-25041D01*
X26254Y-25026D01*
X26284Y-25011D01*
X26344Y-25011D01*
X26374Y-25026D01*
X26508Y-25221D02*
X26508Y-24906D01*
X26538Y-25101D02*
X26628Y-25221D01*
X26628Y-25011D02*
X26508Y-25131D01*
X27003Y-25101D02*
X27243Y-25101D01*
X27123Y-25221D02*
X27123Y-24981D01*
X27768Y-25011D02*
X27768Y-25266D01*
X27753Y-25296D01*
X27738Y-25311D01*
X27708Y-25326D01*
X27663Y-25326D01*
X27633Y-25311D01*
X27768Y-25206D02*
X27738Y-25221D01*
X27678Y-25221D01*
X27648Y-25206D01*
X27633Y-25191D01*
X27618Y-25161D01*
X27618Y-25071D01*
X27633Y-25041D01*
X27648Y-25026D01*
X27678Y-25011D01*
X27738Y-25011D01*
X27768Y-25026D01*
X27963Y-25221D02*
X27933Y-25206D01*
X27918Y-25176D01*
X27918Y-24906D01*
X28218Y-25011D02*
X28218Y-25221D01*
X28083Y-25011D02*
X28083Y-25176D01*
X28098Y-25206D01*
X28128Y-25221D01*
X28173Y-25221D01*
X28203Y-25206D01*
X28218Y-25191D01*
X28488Y-25206D02*
X28458Y-25221D01*
X28398Y-25221D01*
X28368Y-25206D01*
X28353Y-25176D01*
X28353Y-25056D01*
X28368Y-25026D01*
X28398Y-25011D01*
X28458Y-25011D01*
X28488Y-25026D01*
X28503Y-25056D01*
X28503Y-25086D01*
X28353Y-25116D01*
G54D12*
X25625Y-33881D03*
X28381Y-33881D03*
X25625Y-25921D03*
X28381Y-25921D03*
G54D13*
X26503Y-34131D03*
X26503Y-33631D03*
X27003Y-34131D03*
X27003Y-33631D03*
X27503Y-34131D03*
X27503Y-33631D03*
X27503Y-25671D03*
X27503Y-26171D03*
X27003Y-25671D03*
X27003Y-26171D03*
X26503Y-25671D03*
X26503Y-26171D03*
G54D14*
X27003Y-27610D03*
X27003Y-26744D03*
X26688Y-27610D03*
X27318Y-27610D03*
X27318Y-26744D03*
X26688Y-26744D03*
X27003Y-32192D03*
X27003Y-33059D03*
X27318Y-32192D03*
X26688Y-32192D03*
X26688Y-33059D03*
X27318Y-33059D03*
G54D15*
X27507Y-28490D03*
G54D16*
X27507Y-29147D03*
X27007Y-28490D03*
X27007Y-29147D03*
X26507Y-28490D03*
X26507Y-29147D03*
G54D17*
X28007Y-30287D03*
G54D18*
X28007Y-31287D03*
X27007Y-30287D03*
X27007Y-31287D03*
X26007Y-30287D03*
X26007Y-31287D03*
G54D19*
X28007Y-28716D02*
X28007Y-28106D01*
X28007Y-30287D02*
X28007Y-28716D01*
X27500Y-28561D02*
X27507Y-28568D01*
X27500Y-28061D02*
X27500Y-28561D01*
X27618Y-27942D02*
X27500Y-28061D01*
X27844Y-27942D02*
X27618Y-27942D01*
X28007Y-28106D02*
X27844Y-27942D01*
X26007Y-28716D02*
X26007Y-28125D01*
X26007Y-30287D02*
X26007Y-28716D01*
X26507Y-28033D02*
X26507Y-28568D01*
X26417Y-27942D02*
X26507Y-28033D01*
X26190Y-27942D02*
X26417Y-27942D01*
X26007Y-28125D02*
X26190Y-27942D01*
M02*
