G04 (created by PCBNEW (2013-07-03 BZR 4236)-testing) date Fri 05 Jul 2013 06:13:23 PM CEST*
%MOIN*%
G04 Gerber Fmt 3.4, Leading zero omitted, Abs format*
%FSLAX34Y34*%
G01*
G70*
G90*
G04 APERTURE LIST*
%ADD10C,0.005906*%
%ADD11C,0.009843*%
%ADD12C,0.007874*%
%ADD13C,0.000100*%
%ADD14R,0.064961X0.064961*%
%ADD15C,0.064961*%
%ADD16O,0.059055X0.041339*%
%ADD17R,0.041339X0.059055*%
%ADD18O,0.041339X0.059055*%
G04 APERTURE END LIST*
G54D10*
G54D11*
X28682Y-27996D02*
X28700Y-28015D01*
X28719Y-28052D01*
X28719Y-28146D01*
X28700Y-28183D01*
X28682Y-28202D01*
X28644Y-28221D01*
X28607Y-28221D01*
X28550Y-28202D01*
X28325Y-27977D01*
X28325Y-28221D01*
X28719Y-28465D02*
X28719Y-28502D01*
X28700Y-28540D01*
X28682Y-28558D01*
X28644Y-28577D01*
X28569Y-28596D01*
X28475Y-28596D01*
X28400Y-28577D01*
X28363Y-28558D01*
X28344Y-28540D01*
X28325Y-28502D01*
X28325Y-28465D01*
X28344Y-28427D01*
X28363Y-28408D01*
X28400Y-28390D01*
X28475Y-28371D01*
X28569Y-28371D01*
X28644Y-28390D01*
X28682Y-28408D01*
X28700Y-28427D01*
X28719Y-28465D01*
X28325Y-28971D02*
X28325Y-28746D01*
X28325Y-28858D02*
X28719Y-28858D01*
X28663Y-28821D01*
X28625Y-28783D01*
X28607Y-28746D01*
X28719Y-29102D02*
X28719Y-29346D01*
X28569Y-29214D01*
X28569Y-29271D01*
X28550Y-29308D01*
X28532Y-29327D01*
X28494Y-29346D01*
X28400Y-29346D01*
X28363Y-29327D01*
X28344Y-29308D01*
X28325Y-29271D01*
X28325Y-29158D01*
X28344Y-29121D01*
X28363Y-29102D01*
G54D12*
X28661Y-29645D02*
X28031Y-29645D01*
X28661Y-29645D02*
X28661Y-30275D01*
X25507Y-29787D02*
X28507Y-29787D01*
X28507Y-31787D02*
X25507Y-31787D01*
X25507Y-31787D02*
X25507Y-29787D01*
X28507Y-29787D02*
X28507Y-31787D01*
X28031Y-28425D02*
X28031Y-27874D01*
X28031Y-27874D02*
X27519Y-27874D01*
X26141Y-29606D02*
X27874Y-29606D01*
X27874Y-29606D02*
X27874Y-28031D01*
X26141Y-29606D02*
X26141Y-28031D01*
X26141Y-28031D02*
X27874Y-28031D01*
G54D13*
G36*
X25738Y-28572D02*
X25748Y-28571D01*
X25757Y-28568D01*
X25761Y-28566D01*
X25770Y-28560D01*
X25776Y-28553D01*
X25781Y-28544D01*
X25785Y-28535D01*
X25786Y-28526D01*
X25786Y-28516D01*
X25784Y-28506D01*
X25779Y-28497D01*
X25776Y-28493D01*
X25772Y-28489D01*
X25768Y-28484D01*
X25764Y-28481D01*
X25762Y-28480D01*
X25754Y-28476D01*
X25745Y-28474D01*
X25735Y-28474D01*
X25732Y-28474D01*
X25726Y-28475D01*
X25722Y-28476D01*
X25716Y-28478D01*
X25711Y-28481D01*
X25703Y-28488D01*
X25696Y-28496D01*
X25691Y-28505D01*
X25690Y-28509D01*
X25689Y-28514D01*
X25688Y-28517D01*
X25688Y-28518D01*
X25688Y-28518D01*
X25688Y-28516D01*
X25688Y-28516D01*
X25686Y-28509D01*
X25684Y-28503D01*
X25681Y-28497D01*
X25675Y-28490D01*
X25668Y-28483D01*
X25659Y-28478D01*
X25649Y-28475D01*
X25639Y-28474D01*
X25636Y-28474D01*
X25629Y-28475D01*
X25621Y-28477D01*
X25620Y-28477D01*
X25611Y-28482D01*
X25604Y-28488D01*
X25598Y-28496D01*
X25593Y-28504D01*
X25591Y-28513D01*
X25590Y-28513D01*
X25590Y-28515D01*
X25590Y-28516D01*
X25590Y-28516D01*
X25590Y-28515D01*
X25589Y-28513D01*
X25589Y-28512D01*
X25586Y-28503D01*
X25582Y-28495D01*
X25575Y-28487D01*
X25569Y-28482D01*
X25561Y-28478D01*
X25551Y-28475D01*
X25541Y-28474D01*
X25534Y-28474D01*
X25524Y-28477D01*
X25515Y-28481D01*
X25507Y-28487D01*
X25501Y-28495D01*
X25500Y-28496D01*
X25498Y-28500D01*
X25496Y-28503D01*
X25495Y-28505D01*
X25494Y-28510D01*
X25493Y-28514D01*
X25492Y-28517D01*
X25492Y-28518D01*
X25492Y-28518D01*
X25492Y-28516D01*
X25491Y-28510D01*
X25488Y-28504D01*
X25485Y-28498D01*
X25479Y-28490D01*
X25472Y-28483D01*
X25463Y-28478D01*
X25453Y-28475D01*
X25443Y-28474D01*
X25434Y-28474D01*
X25424Y-28477D01*
X25416Y-28482D01*
X25408Y-28489D01*
X25404Y-28493D01*
X25400Y-28498D01*
X25397Y-28505D01*
X25395Y-28510D01*
X25394Y-28520D01*
X25394Y-28529D01*
X25396Y-28538D01*
X25400Y-28547D01*
X25405Y-28555D01*
X25412Y-28561D01*
X25420Y-28567D01*
X25429Y-28570D01*
X25439Y-28572D01*
X25440Y-28572D01*
X25450Y-28572D01*
X25459Y-28569D01*
X25468Y-28565D01*
X25472Y-28563D01*
X25478Y-28557D01*
X25484Y-28550D01*
X25488Y-28543D01*
X25489Y-28540D01*
X25490Y-28536D01*
X25491Y-28531D01*
X25492Y-28528D01*
X25492Y-28526D01*
X25492Y-28528D01*
X25492Y-28530D01*
X25493Y-28534D01*
X25495Y-28539D01*
X25496Y-28543D01*
X25499Y-28548D01*
X25505Y-28556D01*
X25512Y-28562D01*
X25521Y-28568D01*
X25531Y-28571D01*
X25532Y-28571D01*
X25539Y-28572D01*
X25546Y-28572D01*
X25553Y-28571D01*
X25559Y-28569D01*
X25568Y-28564D01*
X25577Y-28557D01*
X25577Y-28557D01*
X25583Y-28550D01*
X25587Y-28541D01*
X25589Y-28533D01*
X25590Y-28533D01*
X25590Y-28530D01*
X25590Y-28529D01*
X25590Y-28530D01*
X25590Y-28532D01*
X25590Y-28533D01*
X25592Y-28538D01*
X25594Y-28543D01*
X25597Y-28549D01*
X25601Y-28555D01*
X25609Y-28562D01*
X25617Y-28567D01*
X25627Y-28571D01*
X25629Y-28571D01*
X25635Y-28572D01*
X25643Y-28572D01*
X25649Y-28571D01*
X25654Y-28569D01*
X25664Y-28565D01*
X25672Y-28559D01*
X25679Y-28552D01*
X25684Y-28543D01*
X25685Y-28540D01*
X25686Y-28536D01*
X25687Y-28531D01*
X25688Y-28528D01*
X25688Y-28528D01*
X25688Y-28528D01*
X25688Y-28530D01*
X25688Y-28530D01*
X25690Y-28536D01*
X25692Y-28543D01*
X25695Y-28548D01*
X25696Y-28550D01*
X25703Y-28558D01*
X25711Y-28564D01*
X25719Y-28569D01*
X25728Y-28571D01*
X25738Y-28572D01*
X25738Y-28572D01*
G37*
G36*
X25341Y-28474D02*
X25347Y-28473D01*
X25353Y-28473D01*
X25360Y-28471D01*
X25369Y-28467D01*
X25377Y-28461D01*
X25384Y-28454D01*
X25389Y-28445D01*
X25392Y-28436D01*
X25394Y-28426D01*
X25393Y-28416D01*
X25390Y-28407D01*
X25386Y-28398D01*
X25380Y-28390D01*
X25372Y-28383D01*
X25369Y-28382D01*
X25360Y-28378D01*
X25350Y-28375D01*
X25340Y-28375D01*
X25330Y-28377D01*
X25322Y-28381D01*
X25313Y-28386D01*
X25306Y-28394D01*
X25300Y-28402D01*
X25297Y-28412D01*
X25296Y-28417D01*
X25295Y-28424D01*
X25295Y-28430D01*
X25296Y-28435D01*
X25297Y-28437D01*
X25301Y-28447D01*
X25306Y-28456D01*
X25314Y-28463D01*
X25323Y-28469D01*
X25327Y-28470D01*
X25333Y-28472D01*
X25338Y-28473D01*
X25341Y-28474D01*
X25341Y-28474D01*
G37*
G36*
X25837Y-28474D02*
X25847Y-28472D01*
X25857Y-28469D01*
X25866Y-28463D01*
X25868Y-28462D01*
X25874Y-28455D01*
X25880Y-28446D01*
X25883Y-28436D01*
X25884Y-28431D01*
X25885Y-28425D01*
X25885Y-28419D01*
X25884Y-28414D01*
X25883Y-28411D01*
X25879Y-28401D01*
X25874Y-28393D01*
X25866Y-28386D01*
X25858Y-28381D01*
X25849Y-28377D01*
X25838Y-28375D01*
X25835Y-28375D01*
X25825Y-28376D01*
X25815Y-28379D01*
X25807Y-28384D01*
X25800Y-28391D01*
X25794Y-28398D01*
X25790Y-28407D01*
X25787Y-28416D01*
X25787Y-28427D01*
X25787Y-28433D01*
X25788Y-28438D01*
X25790Y-28444D01*
X25794Y-28451D01*
X25801Y-28459D01*
X25808Y-28465D01*
X25817Y-28470D01*
X25827Y-28473D01*
X25837Y-28474D01*
X25837Y-28474D01*
G37*
G36*
X25243Y-28375D02*
X25250Y-28375D01*
X25256Y-28374D01*
X25263Y-28372D01*
X25272Y-28367D01*
X25281Y-28361D01*
X25286Y-28355D01*
X25291Y-28346D01*
X25294Y-28336D01*
X25295Y-28333D01*
X25295Y-28327D01*
X25295Y-28321D01*
X25294Y-28316D01*
X25293Y-28313D01*
X25290Y-28303D01*
X25284Y-28295D01*
X25277Y-28287D01*
X25268Y-28282D01*
X25264Y-28280D01*
X25258Y-28278D01*
X25252Y-28277D01*
X25244Y-28277D01*
X25240Y-28277D01*
X25234Y-28278D01*
X25229Y-28279D01*
X25224Y-28282D01*
X25221Y-28284D01*
X25213Y-28290D01*
X25206Y-28297D01*
X25201Y-28306D01*
X25198Y-28316D01*
X25197Y-28319D01*
X25197Y-28324D01*
X25197Y-28330D01*
X25198Y-28336D01*
X25198Y-28339D01*
X25202Y-28349D01*
X25208Y-28357D01*
X25215Y-28364D01*
X25224Y-28370D01*
X25234Y-28374D01*
X25237Y-28374D01*
X25243Y-28375D01*
X25243Y-28375D01*
G37*
G36*
X25638Y-28375D02*
X25647Y-28374D01*
X25657Y-28372D01*
X25662Y-28369D01*
X25671Y-28363D01*
X25678Y-28356D01*
X25683Y-28347D01*
X25686Y-28338D01*
X25687Y-28336D01*
X25688Y-28328D01*
X25688Y-28320D01*
X25686Y-28312D01*
X25682Y-28302D01*
X25676Y-28294D01*
X25669Y-28287D01*
X25660Y-28282D01*
X25650Y-28278D01*
X25644Y-28276D01*
X25647Y-28276D01*
X25648Y-28276D01*
X25655Y-28274D01*
X25662Y-28271D01*
X25669Y-28266D01*
X25670Y-28265D01*
X25677Y-28258D01*
X25683Y-28250D01*
X25686Y-28241D01*
X25688Y-28231D01*
X25688Y-28222D01*
X25685Y-28213D01*
X25681Y-28203D01*
X25681Y-28203D01*
X25675Y-28195D01*
X25667Y-28188D01*
X25659Y-28184D01*
X25650Y-28181D01*
X25641Y-28179D01*
X25631Y-28180D01*
X25622Y-28182D01*
X25613Y-28187D01*
X25605Y-28193D01*
X25601Y-28197D01*
X25596Y-28205D01*
X25592Y-28212D01*
X25590Y-28220D01*
X25590Y-28221D01*
X25590Y-28222D01*
X25590Y-28222D01*
X25590Y-28220D01*
X25588Y-28213D01*
X25585Y-28206D01*
X25581Y-28199D01*
X25578Y-28196D01*
X25571Y-28189D01*
X25562Y-28184D01*
X25553Y-28181D01*
X25543Y-28179D01*
X25533Y-28180D01*
X25527Y-28181D01*
X25517Y-28185D01*
X25509Y-28191D01*
X25502Y-28198D01*
X25497Y-28207D01*
X25493Y-28217D01*
X25493Y-28222D01*
X25492Y-28231D01*
X25494Y-28241D01*
X25497Y-28250D01*
X25503Y-28258D01*
X25510Y-28265D01*
X25519Y-28271D01*
X25523Y-28273D01*
X25527Y-28275D01*
X25531Y-28276D01*
X25535Y-28276D01*
X25535Y-28276D01*
X25535Y-28277D01*
X25533Y-28277D01*
X25528Y-28279D01*
X25521Y-28281D01*
X25516Y-28284D01*
X25513Y-28286D01*
X25506Y-28292D01*
X25500Y-28299D01*
X25496Y-28306D01*
X25493Y-28314D01*
X25492Y-28323D01*
X25492Y-28332D01*
X25493Y-28333D01*
X25495Y-28344D01*
X25500Y-28353D01*
X25507Y-28361D01*
X25512Y-28366D01*
X25521Y-28371D01*
X25531Y-28374D01*
X25534Y-28375D01*
X25540Y-28375D01*
X25545Y-28375D01*
X25551Y-28374D01*
X25555Y-28373D01*
X25558Y-28372D01*
X25567Y-28368D01*
X25576Y-28361D01*
X25582Y-28353D01*
X25585Y-28349D01*
X25588Y-28343D01*
X25589Y-28336D01*
X25590Y-28336D01*
X25590Y-28333D01*
X25590Y-28332D01*
X25590Y-28332D01*
X25590Y-28319D01*
X25590Y-28319D01*
X25590Y-28318D01*
X25589Y-28316D01*
X25589Y-28315D01*
X25586Y-28306D01*
X25582Y-28298D01*
X25575Y-28291D01*
X25568Y-28285D01*
X25560Y-28280D01*
X25559Y-28280D01*
X25555Y-28279D01*
X25551Y-28278D01*
X25546Y-28277D01*
X25550Y-28276D01*
X25556Y-28274D01*
X25565Y-28271D01*
X25573Y-28265D01*
X25580Y-28258D01*
X25585Y-28250D01*
X25587Y-28246D01*
X25589Y-28241D01*
X25590Y-28236D01*
X25590Y-28235D01*
X25590Y-28234D01*
X25590Y-28234D01*
X25590Y-28236D01*
X25591Y-28240D01*
X25593Y-28245D01*
X25595Y-28250D01*
X25598Y-28255D01*
X25604Y-28263D01*
X25612Y-28269D01*
X25621Y-28273D01*
X25630Y-28276D01*
X25634Y-28277D01*
X25630Y-28278D01*
X25629Y-28278D01*
X25625Y-28279D01*
X25620Y-28280D01*
X25620Y-28281D01*
X25611Y-28285D01*
X25604Y-28291D01*
X25598Y-28299D01*
X25593Y-28307D01*
X25591Y-28316D01*
X25590Y-28316D01*
X25590Y-28318D01*
X25590Y-28319D01*
X25590Y-28332D01*
X25590Y-28332D01*
X25590Y-28334D01*
X25591Y-28336D01*
X25592Y-28343D01*
X25596Y-28351D01*
X25602Y-28359D01*
X25610Y-28366D01*
X25618Y-28371D01*
X25618Y-28371D01*
X25628Y-28374D01*
X25638Y-28375D01*
X25638Y-28375D01*
G37*
G36*
X25930Y-28375D02*
X25938Y-28375D01*
X25946Y-28374D01*
X25950Y-28372D01*
X25960Y-28368D01*
X25968Y-28362D01*
X25974Y-28355D01*
X25979Y-28346D01*
X25982Y-28336D01*
X25983Y-28326D01*
X25983Y-28322D01*
X25981Y-28312D01*
X25977Y-28302D01*
X25971Y-28293D01*
X25969Y-28292D01*
X25962Y-28286D01*
X25954Y-28281D01*
X25946Y-28278D01*
X25945Y-28278D01*
X25938Y-28277D01*
X25930Y-28277D01*
X25923Y-28278D01*
X25920Y-28279D01*
X25911Y-28283D01*
X25902Y-28288D01*
X25896Y-28295D01*
X25890Y-28303D01*
X25887Y-28312D01*
X25885Y-28322D01*
X25885Y-28332D01*
X25887Y-28342D01*
X25891Y-28349D01*
X25896Y-28357D01*
X25904Y-28365D01*
X25912Y-28370D01*
X25922Y-28374D01*
X25923Y-28374D01*
X25930Y-28375D01*
X25930Y-28375D01*
G37*
G36*
X25444Y-28081D02*
X25454Y-28080D01*
X25464Y-28076D01*
X25468Y-28074D01*
X25472Y-28071D01*
X25477Y-28067D01*
X25482Y-28061D01*
X25487Y-28053D01*
X25491Y-28043D01*
X25491Y-28041D01*
X25492Y-28034D01*
X25492Y-28027D01*
X25491Y-28021D01*
X25488Y-28013D01*
X25484Y-28004D01*
X25478Y-27997D01*
X25477Y-27996D01*
X25472Y-27992D01*
X25467Y-27989D01*
X25462Y-27986D01*
X25460Y-27986D01*
X25456Y-27984D01*
X25452Y-27983D01*
X25449Y-27983D01*
X25448Y-27983D01*
X25450Y-27982D01*
X25452Y-27982D01*
X25455Y-27981D01*
X25459Y-27980D01*
X25466Y-27976D01*
X25473Y-27972D01*
X25479Y-27967D01*
X25480Y-27965D01*
X25486Y-27957D01*
X25490Y-27948D01*
X25492Y-27938D01*
X25492Y-27928D01*
X25492Y-27926D01*
X25489Y-27916D01*
X25484Y-27907D01*
X25477Y-27898D01*
X25471Y-27893D01*
X25463Y-27888D01*
X25453Y-27885D01*
X25451Y-27885D01*
X25445Y-27884D01*
X25438Y-27884D01*
X25432Y-27885D01*
X25426Y-27887D01*
X25417Y-27891D01*
X25409Y-27897D01*
X25403Y-27905D01*
X25398Y-27913D01*
X25395Y-27923D01*
X25394Y-27924D01*
X25394Y-27926D01*
X25393Y-27927D01*
X25393Y-27926D01*
X25393Y-27924D01*
X25392Y-27920D01*
X25390Y-27916D01*
X25389Y-27912D01*
X25387Y-27909D01*
X25381Y-27900D01*
X25374Y-27893D01*
X25365Y-27888D01*
X25355Y-27885D01*
X25345Y-27884D01*
X25337Y-27885D01*
X25327Y-27887D01*
X25319Y-27891D01*
X25314Y-27895D01*
X25306Y-27902D01*
X25301Y-27910D01*
X25297Y-27919D01*
X25295Y-27929D01*
X25295Y-27939D01*
X25298Y-27948D01*
X25302Y-27958D01*
X25308Y-27966D01*
X25315Y-27973D01*
X25324Y-27978D01*
X25334Y-27981D01*
X25340Y-27983D01*
X25336Y-27983D01*
X25334Y-27983D01*
X25326Y-27986D01*
X25319Y-27990D01*
X25311Y-27995D01*
X25306Y-28001D01*
X25302Y-28006D01*
X25299Y-28013D01*
X25297Y-28020D01*
X25296Y-28025D01*
X25295Y-28031D01*
X25295Y-28037D01*
X25296Y-28042D01*
X25298Y-28048D01*
X25303Y-28058D01*
X25309Y-28066D01*
X25317Y-28072D01*
X25326Y-28077D01*
X25336Y-28080D01*
X25339Y-28081D01*
X25345Y-28081D01*
X25351Y-28080D01*
X25357Y-28079D01*
X25361Y-28078D01*
X25370Y-28074D01*
X25378Y-28068D01*
X25385Y-28060D01*
X25390Y-28051D01*
X25393Y-28041D01*
X25393Y-28041D01*
X25393Y-28038D01*
X25394Y-28039D01*
X25394Y-28025D01*
X25393Y-28025D01*
X25393Y-28023D01*
X25393Y-28022D01*
X25391Y-28016D01*
X25388Y-28009D01*
X25384Y-28002D01*
X25381Y-27999D01*
X25373Y-27992D01*
X25364Y-27987D01*
X25354Y-27983D01*
X25350Y-27982D01*
X25353Y-27982D01*
X25356Y-27981D01*
X25359Y-27980D01*
X25361Y-27980D01*
X25370Y-27975D01*
X25378Y-27969D01*
X25385Y-27962D01*
X25389Y-27953D01*
X25393Y-27944D01*
X25393Y-27941D01*
X25394Y-27940D01*
X25394Y-27941D01*
X25395Y-27944D01*
X25395Y-27944D01*
X25396Y-27949D01*
X25399Y-27955D01*
X25402Y-27960D01*
X25404Y-27964D01*
X25409Y-27968D01*
X25414Y-27973D01*
X25418Y-27976D01*
X25419Y-27976D01*
X25426Y-27979D01*
X25434Y-27982D01*
X25438Y-27982D01*
X25434Y-27983D01*
X25425Y-27986D01*
X25416Y-27990D01*
X25408Y-27996D01*
X25402Y-28004D01*
X25401Y-28006D01*
X25398Y-28011D01*
X25396Y-28016D01*
X25395Y-28021D01*
X25394Y-28024D01*
X25394Y-28024D01*
X25394Y-28025D01*
X25394Y-28039D01*
X25394Y-28039D01*
X25394Y-28041D01*
X25395Y-28044D01*
X25396Y-28047D01*
X25398Y-28052D01*
X25403Y-28060D01*
X25409Y-28068D01*
X25417Y-28073D01*
X25426Y-28078D01*
X25435Y-28080D01*
X25444Y-28081D01*
X25444Y-28081D01*
G37*
G36*
X25740Y-28081D02*
X25749Y-28079D01*
X25759Y-28076D01*
X25767Y-28071D01*
X25774Y-28064D01*
X25780Y-28056D01*
X25784Y-28047D01*
X25785Y-28044D01*
X25786Y-28041D01*
X25786Y-28040D01*
X25786Y-28038D01*
X25786Y-28038D01*
X25786Y-28025D01*
X25786Y-28023D01*
X25785Y-28020D01*
X25783Y-28014D01*
X25779Y-28005D01*
X25773Y-27998D01*
X25765Y-27991D01*
X25757Y-27986D01*
X25747Y-27983D01*
X25742Y-27982D01*
X25746Y-27982D01*
X25746Y-27982D01*
X25754Y-27979D01*
X25762Y-27976D01*
X25765Y-27974D01*
X25770Y-27970D01*
X25775Y-27965D01*
X25778Y-27960D01*
X25781Y-27956D01*
X25784Y-27950D01*
X25785Y-27944D01*
X25786Y-27941D01*
X25786Y-27940D01*
X25787Y-27941D01*
X25787Y-27944D01*
X25789Y-27950D01*
X25794Y-27959D01*
X25800Y-27967D01*
X25808Y-27974D01*
X25817Y-27979D01*
X25827Y-27982D01*
X25830Y-27982D01*
X25826Y-27983D01*
X25821Y-27985D01*
X25812Y-27989D01*
X25803Y-27995D01*
X25796Y-28002D01*
X25794Y-28005D01*
X25792Y-28010D01*
X25789Y-28015D01*
X25788Y-28018D01*
X25787Y-28022D01*
X25787Y-28022D01*
X25787Y-28024D01*
X25786Y-28025D01*
X25786Y-28038D01*
X25787Y-28039D01*
X25787Y-28041D01*
X25788Y-28045D01*
X25791Y-28052D01*
X25795Y-28059D01*
X25798Y-28063D01*
X25805Y-28070D01*
X25814Y-28076D01*
X25824Y-28079D01*
X25828Y-28080D01*
X25835Y-28081D01*
X25842Y-28080D01*
X25848Y-28079D01*
X25848Y-28079D01*
X25858Y-28075D01*
X25867Y-28070D01*
X25874Y-28062D01*
X25880Y-28054D01*
X25883Y-28044D01*
X25884Y-28039D01*
X25885Y-28032D01*
X25884Y-28026D01*
X25883Y-28020D01*
X25882Y-28014D01*
X25878Y-28007D01*
X25874Y-28001D01*
X25870Y-27996D01*
X25864Y-27991D01*
X25857Y-27987D01*
X25855Y-27986D01*
X25850Y-27985D01*
X25846Y-27983D01*
X25842Y-27983D01*
X25842Y-27983D01*
X25843Y-27982D01*
X25846Y-27981D01*
X25852Y-27980D01*
X25858Y-27977D01*
X25863Y-27974D01*
X25865Y-27973D01*
X25871Y-27967D01*
X25877Y-27960D01*
X25881Y-27953D01*
X25882Y-27949D01*
X25884Y-27940D01*
X25885Y-27929D01*
X25883Y-27920D01*
X25882Y-27917D01*
X25878Y-27908D01*
X25872Y-27900D01*
X25865Y-27893D01*
X25856Y-27888D01*
X25846Y-27885D01*
X25845Y-27885D01*
X25838Y-27884D01*
X25831Y-27884D01*
X25824Y-27885D01*
X25823Y-27886D01*
X25813Y-27889D01*
X25804Y-27895D01*
X25797Y-27903D01*
X25791Y-27912D01*
X25790Y-27914D01*
X25789Y-27919D01*
X25787Y-27923D01*
X25787Y-27926D01*
X25787Y-27927D01*
X25787Y-27927D01*
X25786Y-27926D01*
X25785Y-27923D01*
X25784Y-27916D01*
X25779Y-27908D01*
X25773Y-27900D01*
X25766Y-27893D01*
X25757Y-27888D01*
X25757Y-27888D01*
X25748Y-27885D01*
X25738Y-27884D01*
X25728Y-27885D01*
X25719Y-27887D01*
X25714Y-27890D01*
X25705Y-27896D01*
X25698Y-27903D01*
X25693Y-27912D01*
X25689Y-27921D01*
X25689Y-27923D01*
X25688Y-27931D01*
X25688Y-27939D01*
X25690Y-27948D01*
X25694Y-27957D01*
X25700Y-27966D01*
X25708Y-27973D01*
X25717Y-27978D01*
X25727Y-27981D01*
X25729Y-27982D01*
X25731Y-27983D01*
X25731Y-27983D01*
X25728Y-27983D01*
X25722Y-27985D01*
X25716Y-27987D01*
X25710Y-27991D01*
X25705Y-27995D01*
X25698Y-28002D01*
X25692Y-28011D01*
X25692Y-28013D01*
X25689Y-28022D01*
X25688Y-28032D01*
X25689Y-28043D01*
X25692Y-28052D01*
X25695Y-28057D01*
X25698Y-28061D01*
X25702Y-28066D01*
X25702Y-28066D01*
X25710Y-28073D01*
X25719Y-28077D01*
X25729Y-28080D01*
X25730Y-28080D01*
X25740Y-28081D01*
X25740Y-28081D01*
G37*
G36*
X25352Y-29526D02*
X25356Y-29524D01*
X25365Y-29518D01*
X25378Y-29510D01*
X25394Y-29499D01*
X25409Y-29489D01*
X25422Y-29480D01*
X25431Y-29474D01*
X25435Y-29472D01*
X25437Y-29473D01*
X25444Y-29477D01*
X25455Y-29482D01*
X25461Y-29485D01*
X25471Y-29490D01*
X25476Y-29491D01*
X25477Y-29489D01*
X25481Y-29482D01*
X25486Y-29469D01*
X25494Y-29452D01*
X25502Y-29432D01*
X25511Y-29410D01*
X25520Y-29388D01*
X25529Y-29367D01*
X25537Y-29348D01*
X25543Y-29333D01*
X25547Y-29322D01*
X25549Y-29318D01*
X25548Y-29317D01*
X25543Y-29312D01*
X25535Y-29306D01*
X25516Y-29290D01*
X25498Y-29267D01*
X25486Y-29241D01*
X25483Y-29212D01*
X25486Y-29186D01*
X25496Y-29161D01*
X25514Y-29137D01*
X25536Y-29120D01*
X25562Y-29109D01*
X25590Y-29106D01*
X25617Y-29109D01*
X25643Y-29119D01*
X25667Y-29137D01*
X25676Y-29148D01*
X25690Y-29172D01*
X25698Y-29196D01*
X25698Y-29202D01*
X25697Y-29230D01*
X25689Y-29257D01*
X25675Y-29280D01*
X25654Y-29300D01*
X25652Y-29302D01*
X25642Y-29309D01*
X25636Y-29313D01*
X25631Y-29317D01*
X25666Y-29402D01*
X25672Y-29416D01*
X25682Y-29439D01*
X25690Y-29459D01*
X25697Y-29475D01*
X25702Y-29485D01*
X25704Y-29490D01*
X25704Y-29490D01*
X25707Y-29490D01*
X25713Y-29488D01*
X25725Y-29482D01*
X25733Y-29478D01*
X25742Y-29474D01*
X25746Y-29472D01*
X25750Y-29474D01*
X25758Y-29480D01*
X25771Y-29488D01*
X25786Y-29498D01*
X25800Y-29508D01*
X25814Y-29517D01*
X25823Y-29523D01*
X25828Y-29526D01*
X25829Y-29526D01*
X25833Y-29523D01*
X25841Y-29517D01*
X25852Y-29506D01*
X25868Y-29490D01*
X25871Y-29488D01*
X25884Y-29474D01*
X25895Y-29462D01*
X25903Y-29454D01*
X25905Y-29451D01*
X25905Y-29451D01*
X25903Y-29446D01*
X25897Y-29436D01*
X25888Y-29423D01*
X25877Y-29407D01*
X25849Y-29366D01*
X25865Y-29328D01*
X25869Y-29316D01*
X25875Y-29302D01*
X25880Y-29292D01*
X25882Y-29287D01*
X25886Y-29286D01*
X25897Y-29283D01*
X25912Y-29280D01*
X25930Y-29277D01*
X25948Y-29273D01*
X25963Y-29270D01*
X25975Y-29268D01*
X25980Y-29267D01*
X25981Y-29266D01*
X25982Y-29264D01*
X25983Y-29259D01*
X25983Y-29249D01*
X25983Y-29234D01*
X25983Y-29212D01*
X25983Y-29210D01*
X25983Y-29189D01*
X25983Y-29173D01*
X25982Y-29163D01*
X25981Y-29159D01*
X25981Y-29159D01*
X25976Y-29157D01*
X25965Y-29155D01*
X25950Y-29152D01*
X25931Y-29148D01*
X25930Y-29148D01*
X25911Y-29145D01*
X25896Y-29141D01*
X25885Y-29139D01*
X25880Y-29137D01*
X25879Y-29136D01*
X25875Y-29129D01*
X25870Y-29117D01*
X25864Y-29103D01*
X25858Y-29089D01*
X25852Y-29075D01*
X25849Y-29066D01*
X25848Y-29061D01*
X25848Y-29061D01*
X25851Y-29057D01*
X25857Y-29047D01*
X25866Y-29034D01*
X25877Y-29018D01*
X25878Y-29016D01*
X25889Y-29001D01*
X25897Y-28987D01*
X25903Y-28978D01*
X25905Y-28974D01*
X25905Y-28973D01*
X25902Y-28969D01*
X25894Y-28960D01*
X25882Y-28948D01*
X25868Y-28934D01*
X25864Y-28930D01*
X25849Y-28915D01*
X25838Y-28905D01*
X25831Y-28900D01*
X25828Y-28898D01*
X25828Y-28899D01*
X25823Y-28901D01*
X25813Y-28908D01*
X25800Y-28917D01*
X25784Y-28928D01*
X25783Y-28929D01*
X25767Y-28939D01*
X25754Y-28948D01*
X25745Y-28954D01*
X25741Y-28957D01*
X25740Y-28957D01*
X25734Y-28955D01*
X25722Y-28951D01*
X25709Y-28946D01*
X25694Y-28940D01*
X25681Y-28934D01*
X25671Y-28930D01*
X25666Y-28927D01*
X25666Y-28927D01*
X25664Y-28921D01*
X25662Y-28909D01*
X25658Y-28893D01*
X25655Y-28874D01*
X25654Y-28871D01*
X25651Y-28852D01*
X25648Y-28837D01*
X25645Y-28826D01*
X25644Y-28821D01*
X25642Y-28821D01*
X25632Y-28820D01*
X25618Y-28820D01*
X25601Y-28820D01*
X25584Y-28820D01*
X25567Y-28820D01*
X25552Y-28821D01*
X25542Y-28821D01*
X25537Y-28822D01*
X25537Y-28823D01*
X25535Y-28828D01*
X25533Y-28840D01*
X25529Y-28856D01*
X25526Y-28876D01*
X25525Y-28879D01*
X25522Y-28898D01*
X25518Y-28913D01*
X25516Y-28924D01*
X25515Y-28928D01*
X25513Y-28929D01*
X25506Y-28932D01*
X25493Y-28937D01*
X25477Y-28944D01*
X25441Y-28958D01*
X25397Y-28928D01*
X25393Y-28925D01*
X25377Y-28914D01*
X25364Y-28906D01*
X25355Y-28900D01*
X25351Y-28898D01*
X25351Y-28898D01*
X25347Y-28902D01*
X25338Y-28910D01*
X25326Y-28922D01*
X25312Y-28935D01*
X25302Y-28946D01*
X25290Y-28958D01*
X25282Y-28966D01*
X25278Y-28972D01*
X25276Y-28975D01*
X25277Y-28977D01*
X25279Y-28982D01*
X25286Y-28991D01*
X25295Y-29005D01*
X25306Y-29020D01*
X25315Y-29034D01*
X25324Y-29048D01*
X25330Y-29059D01*
X25333Y-29064D01*
X25332Y-29066D01*
X25329Y-29075D01*
X25324Y-29088D01*
X25317Y-29104D01*
X25302Y-29139D01*
X25279Y-29143D01*
X25265Y-29146D01*
X25245Y-29149D01*
X25227Y-29153D01*
X25198Y-29159D01*
X25197Y-29264D01*
X25201Y-29266D01*
X25206Y-29268D01*
X25216Y-29270D01*
X25232Y-29273D01*
X25250Y-29276D01*
X25265Y-29279D01*
X25281Y-29282D01*
X25292Y-29284D01*
X25297Y-29285D01*
X25298Y-29287D01*
X25302Y-29295D01*
X25308Y-29307D01*
X25314Y-29321D01*
X25320Y-29336D01*
X25325Y-29350D01*
X25329Y-29360D01*
X25331Y-29366D01*
X25329Y-29370D01*
X25323Y-29379D01*
X25314Y-29392D01*
X25304Y-29407D01*
X25293Y-29423D01*
X25284Y-29436D01*
X25278Y-29446D01*
X25275Y-29450D01*
X25277Y-29453D01*
X25283Y-29460D01*
X25294Y-29472D01*
X25312Y-29490D01*
X25315Y-29492D01*
X25328Y-29506D01*
X25340Y-29516D01*
X25348Y-29524D01*
X25352Y-29526D01*
X25352Y-29526D01*
G37*
%LPC*%
G54D14*
X28007Y-30287D03*
G54D15*
X28007Y-31287D03*
X27007Y-30287D03*
X27007Y-31287D03*
X26007Y-30287D03*
X26007Y-31287D03*
G54D16*
X30379Y-29401D03*
X31037Y-29401D03*
X30379Y-29901D03*
X31037Y-29901D03*
X30379Y-30401D03*
X31037Y-30401D03*
G54D17*
X27507Y-28490D03*
G54D18*
X27507Y-29147D03*
X27007Y-28490D03*
X27007Y-29147D03*
X26507Y-28490D03*
X26507Y-29147D03*
M02*
