G04 (created by PCBNEW (2013-09-03 BZR 4311)-product) date Wed 04 Sep 2013 04:47:05 PM CEST*
%MOIN*%
G04 Gerber Fmt 3.4, Leading zero omitted, Abs format*
%FSLAX34Y34*%
G01*
G70*
G90*
G04 APERTURE LIST*
%ADD10C,0.005906*%
%ADD11C,0.031496*%
%ADD12C,0.019685*%
%ADD13R,0.041339X0.059055*%
%ADD14O,0.041339X0.059055*%
%ADD15R,0.064961X0.064961*%
%ADD16C,0.064961*%
%ADD17C,0.016000*%
%ADD18C,0.008000*%
G04 APERTURE END LIST*
G54D10*
G54D11*
X26503Y-34131D03*
X26503Y-33631D03*
X27003Y-34131D03*
X27003Y-33631D03*
X27503Y-34131D03*
X27503Y-33631D03*
X27503Y-25671D03*
X27503Y-26171D03*
X27003Y-25671D03*
X27003Y-26171D03*
X26503Y-25671D03*
X26503Y-26171D03*
G54D12*
X27003Y-27610D03*
X27003Y-26744D03*
X26688Y-27610D03*
X27318Y-27610D03*
X27318Y-26744D03*
X26688Y-26744D03*
X27003Y-32192D03*
X27003Y-33059D03*
X27318Y-32192D03*
X26688Y-32192D03*
X26688Y-33059D03*
X27318Y-33059D03*
G54D13*
X27507Y-28490D03*
G54D14*
X27507Y-29147D03*
X27007Y-28490D03*
X27007Y-29147D03*
X26507Y-28490D03*
X26507Y-29147D03*
G54D15*
X28007Y-30287D03*
G54D16*
X28007Y-31287D03*
X27007Y-30287D03*
X27007Y-31287D03*
X26007Y-30287D03*
X26007Y-31287D03*
G54D17*
X26007Y-31287D02*
X25509Y-31287D01*
X26507Y-29564D02*
X26507Y-29068D01*
X26407Y-29665D02*
X26507Y-29564D01*
X25649Y-29665D02*
X26407Y-29665D01*
X25374Y-29940D02*
X25649Y-29665D01*
X25374Y-31151D02*
X25374Y-29940D01*
X25509Y-31287D02*
X25374Y-31151D01*
X25814Y-31287D02*
X26007Y-31287D01*
G54D18*
X27007Y-31287D02*
X26972Y-31287D01*
X26820Y-29665D02*
X26909Y-29665D01*
X26909Y-29665D02*
X27007Y-29566D01*
X27007Y-29566D02*
X27007Y-29068D01*
X26507Y-29978D02*
X26820Y-29665D01*
X26507Y-30822D02*
X26507Y-29978D01*
X26972Y-31287D02*
X26507Y-30822D01*
X27007Y-29068D02*
X27007Y-29370D01*
X27519Y-30779D02*
X27027Y-30287D01*
X27519Y-31594D02*
X27519Y-30779D01*
X27736Y-31811D02*
X27519Y-31594D01*
X28346Y-31811D02*
X27736Y-31811D01*
X28779Y-31377D02*
X28346Y-31811D01*
X28779Y-28740D02*
X28779Y-31377D01*
X28031Y-27992D02*
X28779Y-28740D01*
X27125Y-27992D02*
X28031Y-27992D01*
X27007Y-28110D02*
X27125Y-27992D01*
X27007Y-28568D02*
X27007Y-28110D01*
X27027Y-30287D02*
X27007Y-30287D01*
G54D17*
X28007Y-31287D02*
X28387Y-31287D01*
X27507Y-29476D02*
X27507Y-29068D01*
X27677Y-29645D02*
X27507Y-29476D01*
X28415Y-29645D02*
X27677Y-29645D01*
X28562Y-29793D02*
X28415Y-29645D01*
X28562Y-31112D02*
X28562Y-29793D01*
X28387Y-31287D02*
X28562Y-31112D01*
X28240Y-31287D02*
X28007Y-31287D01*
M02*
