M48
INCH,TZ
T1C0.020
T2C0.029
T3C0.030
T4C0.040
%
G90
G05
T1
X026689Y-026744
X026689Y-027610
X026689Y-032193
X026689Y-033059
X027004Y-026744
X027004Y-027610
X027004Y-032193
X027004Y-033059
X027319Y-026744
X027319Y-027610
X027319Y-032193
X027319Y-033059
T2
X026504Y-033632
X026504Y-034132
X026504Y-025671
X026504Y-026171
X027004Y-033632
X027004Y-034132
X027004Y-025671
X027004Y-026171
X027504Y-033632
X027504Y-034132
X027504Y-025671
X027504Y-026171
T3
X026508Y-028569
X026508Y-029069
X027008Y-028569
X027008Y-029069
X027508Y-028569
X027508Y-029069
T4
X026008Y-030287
X026008Y-031287
X027008Y-030287
X027008Y-031287
X028008Y-030287
X028008Y-031287
T0
M30
