G04 #@! TF.FileFunction,Soldermask,Top*
%FSLAX46Y46*%
G04 Gerber Fmt 4.6, Leading zero omitted, Abs format (unit mm)*
G04 Created by KiCad (PCBNEW (2015-07-22 BZR 5980, Git 49d8b90)-product) date Thu 23 Jul 2015 06:22:31 PM CEST*
%MOMM*%
G01*
G04 APERTURE LIST*
%ADD10C,0.150000*%
%ADD11R,0.400000X2.500000*%
%ADD12R,0.400000X5.000000*%
%ADD13R,0.950000X1.000000*%
%ADD14R,1.500000X2.000000*%
%ADD15O,1.500000X2.000000*%
%ADD16C,0.100000*%
G04 APERTURE END LIST*
D10*
D11*
X66950000Y-64250000D03*
X68220000Y-64250000D03*
X68780000Y-64250000D03*
X67510000Y-64250000D03*
X69490000Y-64250000D03*
X70050000Y-64250000D03*
X66950000Y-64250000D03*
X68220000Y-64250000D03*
X68780000Y-64250000D03*
X67510000Y-64250000D03*
X69490000Y-64250000D03*
X70050000Y-64250000D03*
D12*
X69490000Y-70500000D03*
X70050000Y-70500000D03*
D13*
X69770000Y-72495800D03*
D12*
X69490000Y-70500000D03*
X70050000Y-70500000D03*
X68220000Y-70500000D03*
X68780000Y-70500000D03*
D13*
X68500000Y-72495800D03*
D12*
X68220000Y-70500000D03*
X68780000Y-70500000D03*
X67510000Y-70500000D03*
X66950000Y-70500000D03*
D13*
X67230000Y-72495800D03*
D12*
X67510000Y-70500000D03*
X66950000Y-70500000D03*
D14*
X71040000Y-76730000D03*
D15*
X71040000Y-79270000D03*
X68500000Y-76730000D03*
X68500000Y-79270000D03*
X65960000Y-76730000D03*
X65960000Y-79270000D03*
D16*
G36*
X67660000Y-72950000D02*
X66800000Y-72950000D01*
X66800000Y-62550000D01*
X67660000Y-62550000D01*
X67660000Y-72950000D01*
X67660000Y-72950000D01*
G37*
X67660000Y-72950000D02*
X66800000Y-72950000D01*
X66800000Y-62550000D01*
X67660000Y-62550000D01*
X67660000Y-72950000D01*
G36*
X68930000Y-72950000D02*
X68070000Y-72950000D01*
X68070000Y-62550000D01*
X68930000Y-62550000D01*
X68930000Y-72950000D01*
X68930000Y-72950000D01*
G37*
X68930000Y-72950000D02*
X68070000Y-72950000D01*
X68070000Y-62550000D01*
X68930000Y-62550000D01*
X68930000Y-72950000D01*
G36*
X70200000Y-72950000D02*
X69340000Y-72950000D01*
X69340000Y-62550000D01*
X70200000Y-62550000D01*
X70200000Y-72950000D01*
X70200000Y-72950000D01*
G37*
X70200000Y-72950000D02*
X69340000Y-72950000D01*
X69340000Y-62550000D01*
X70200000Y-62550000D01*
X70200000Y-72950000D01*
M02*
